<?xml version="1.0" encoding="UTF-8" standalone="no"?>
<svg width="239px" height="135px" viewBox="0 0 239 135" version="1.1" xmlns="http://www.w3.org/2000/svg" xmlns:xlink="http://www.w3.org/1999/xlink" xmlns:sketch="http://www.bohemiancoding.com/sketch/ns">
    <!-- Generator: Sketch 3.2.2 (9983) - http://www.bohemiancoding.com/sketch -->
    <title>blank - 16x9</title>
    <desc>Created with Sketch.</desc>
    <defs></defs>
    <g id="Reporter-as-brand" stroke="none" stroke-width="1" fill="none" fill-rule="evenodd" sketch:type="MSPage">
        <g id="blank---16x9" sketch:type="MSLayerGroup">
            <rect id="Rectangle-30" fill="#6A6A6A" sketch:type="MSShapeGroup" x="0" y="0" width="238.914027" height="135"></rect>
            <g id="Group-4" transform="translate(62.986425, 28.395161)" fill="#FFFFFF" sketch:type="MSShapeGroup">
                <path d="M0,0 L9.47958992,2.86284225 L18.9591798,0 L28.4387698,2.86284225 L37.9183597,0 L47.3979496,2.86284225 L56.8775395,0 L66.3571295,2.86284225 L75.8367194,0 L85.3163093,2.86284225 L94.7958992,0 L104.275489,2.86284225 L113.755079,0 L113.755079,72.2994853 C113.755079,75.0593933 111.508349,77.2967408 108.757264,77.2967408 L4.99781523,77.2967408 C2.23759809,77.2967408 0,75.0667606 0,72.2994853 L0,0 Z M6.63571295,14.4600814 C6.63571295,12.7984154 7.97450142,11.451369 9.64193184,11.451369 L56.7151976,11.451369 C58.3754865,11.451369 59.7214165,12.7873982 59.7214165,14.4600814 L59.7214165,19.8940256 C59.7214165,21.5556916 58.382628,22.902738 56.7151976,22.902738 L9.64193184,22.902738 C7.98164299,22.902738 6.63571295,21.5667089 6.63571295,19.8940256 L6.63571295,14.4600814 Z M39.8142777,30.6296983 C39.8142777,29.5244242 40.7140302,28.6284225 41.8075588,28.6284225 L103.230167,28.6284225 C104.331026,28.6284225 105.223448,29.5217408 105.223448,30.6296983 L105.223448,66.7069382 C105.223448,67.8122123 104.323696,68.708214 103.230167,68.708214 L41.8075588,68.708214 C40.7067,68.708214 39.8142777,67.8148958 39.8142777,66.7069382 L39.8142777,30.6296983 Z M6.63571295,30.6324662 C6.63571295,29.5256634 7.52714426,28.6284225 8.62605653,28.6284225 L34.9800571,28.6284225 C36.0792935,28.6284225 36.9704007,29.5277508 36.9704007,30.6324662 L36.9704007,43.8014323 C36.9704007,44.9082351 36.0789694,45.805476 34.9800571,45.805476 L8.62605653,45.805476 C7.52682012,45.805476 6.63571295,44.9061477 6.63571295,43.8014323 L6.63571295,30.6324662 Z M6.63571295,53.5352042 C6.63571295,52.4284015 7.52714426,51.5311605 8.62605653,51.5311605 L34.9800571,51.5311605 C36.0792935,51.5311605 36.9704007,52.4304888 36.9704007,53.5352042 L36.9704007,66.7041703 C36.9704007,67.8109731 36.0789694,68.708214 34.9800571,68.708214 L8.62605653,68.708214 C7.52682012,68.708214 6.63571295,67.8088857 6.63571295,66.7041703 L6.63571295,53.5352042 Z M105.708985,20.982559 C106.229443,20.982559 106.651358,20.5605143 106.651358,20.0398958 C106.651358,19.5192772 106.229443,19.0972325 105.708985,19.0972325 L66.831109,19.0972325 C66.3106506,19.0972325 65.8887358,19.5192772 65.8887358,20.0398958 C65.8887358,20.5605143 66.3106506,20.982559 66.831109,20.982559 L105.708985,20.982559 Z M105.708985,13.348313 C106.229443,13.348313 106.651358,12.9262683 106.651358,12.4056498 C106.651358,11.8850312 106.229443,11.4629865 105.708985,11.4629865 L66.831109,11.4629865 C66.3106506,11.4629865 65.8887358,11.8850312 65.8887358,12.4056498 C65.8887358,12.9262683 66.3106506,13.348313 66.831109,13.348313 L105.708985,13.348313 Z" id="Rectangle-169"></path>
            </g>
        </g>
    </g>
</svg>