<?xml version="1.0" encoding="UTF-8" standalone="no"?>
<svg width="108px" height="108px" viewBox="0 0 108 108" version="1.1" xmlns="http://www.w3.org/2000/svg" xmlns:xlink="http://www.w3.org/1999/xlink" xmlns:sketch="http://www.bohemiancoding.com/sketch/ns">
    <!-- Generator: Sketch 3.2.2 (9983) - http://www.bohemiancoding.com/sketch -->
    <title>albuquerque-monogram</title>
    <desc>Created with Sketch.</desc>
    <defs></defs>
    <g id="Monograms-(For-Export)" stroke="none" stroke-width="1" fill="none" fill-rule="evenodd" sketch:type="MSPage">
        <g id="albuquerque-monogram" sketch:type="MSArtboardGroup" fill="#FFFFFF">
            <path d="M33.664,76 L41.476,76 L34.16,31.67 L22.876,31.67 L15.56,76 L22.69,76 L24.116,66.204 L32.176,66.204 L33.664,76 Z M28.146,38.428 L31.37,60.624 L24.922,60.624 L28.146,38.428 Z M44.886,76 L56.17,76 C64.292,76 68.322,72.838 68.322,64.778 L68.322,61.926 C68.322,56.222 65.532,53.494 60.82,52.626 C64.85,51.572 67.206,49.154 67.206,44.628 L67.206,41.528 C67.206,34.646 63.3,31.67 55.736,31.67 L44.886,31.67 L44.886,76 Z M52.574,70.296 L52.574,55.416 L55.302,55.416 C59.084,55.416 60.572,56.594 60.572,61.244 L60.572,64.344 C60.572,68.622 58.96,70.296 55.55,70.296 L52.574,70.296 Z M52.574,50.022 L52.574,37.374 L55.178,37.374 C58.278,37.374 59.766,38.18 59.766,41.962 L59.766,44.938 C59.766,48.596 58.526,50.022 55.178,50.022 L52.574,50.022 Z M72.662,76 L80.412,76 L80.474,57.276 L89.65,57.276 L89.65,51.324 L80.474,51.324 L80.474,37.808 L91.758,37.808 L91.758,31.67 L72.662,31.67 L72.662,76 Z" id="ABF" sketch:type="MSShapeGroup"></path>
        </g>
    </g>
</svg>