<?xml version="1.0" encoding="UTF-8" standalone="no"?>
<svg width="108px" height="108px" viewBox="0 0 108 108" version="1.1" xmlns="http://www.w3.org/2000/svg" xmlns:xlink="http://www.w3.org/1999/xlink" xmlns:sketch="http://www.bohemiancoding.com/sketch/ns">
    <!-- Generator: Sketch 3.2.2 (9983) - http://www.bohemiancoding.com/sketch -->
    <title>dayton-monogram</title>
    <desc>Created with Sketch.</desc>
    <defs></defs>
    <g id="Monograms-(For-Export)" stroke="none" stroke-width="1" fill="none" fill-rule="evenodd" sketch:type="MSPage">
        <g id="dayton-monogram" sketch:type="MSArtboardGroup" fill="#FFFFFF">
            <path d="M18.722,31.67 L18.722,76 L29.51,76 C38.562,76 43.46,71.97 43.46,62.484 L43.46,45.124 C43.46,35.39 38.438,31.67 29.51,31.67 L18.722,31.67 Z M29.2,37.746 C33.912,37.746 35.462,39.854 35.462,45.248 L35.462,62.298 C35.462,67.878 33.912,69.924 29.262,69.924 L26.534,69.924 L26.534,37.746 L29.2,37.746 Z M48.358,76 L59.642,76 C67.764,76 71.794,72.838 71.794,64.778 L71.794,61.926 C71.794,56.222 69.004,53.494 64.292,52.626 C68.322,51.572 70.678,49.154 70.678,44.628 L70.678,41.528 C70.678,34.646 66.772,31.67 59.208,31.67 L48.358,31.67 L48.358,76 Z M56.046,70.296 L56.046,55.416 L58.774,55.416 C62.556,55.416 64.044,56.594 64.044,61.244 L64.044,64.344 C64.044,68.622 62.432,70.296 59.022,70.296 L56.046,70.296 Z M56.046,50.022 L56.046,37.374 L58.65,37.374 C61.75,37.374 63.238,38.18 63.238,41.962 L63.238,44.938 C63.238,48.596 61.998,50.022 58.65,50.022 L56.046,50.022 Z M79.11,76.372 C85.496,76.372 89.464,72.9 89.464,65.522 L89.464,31.67 L81.714,31.67 L81.714,65.15 C81.714,68.622 80.164,69.862 77.622,69.862 C76.196,69.862 75.328,69.614 74.522,69.428 L74.522,75.504 C75.514,75.938 76.878,76.372 79.11,76.372 L79.11,76.372 Z" id="DBJ" sketch:type="MSShapeGroup"></path>
        </g>
    </g>
</svg>