<?xml version="1.0" encoding="UTF-8" standalone="no"?>
<svg width="108px" height="108px" viewBox="0 0 108 108" version="1.1" xmlns="http://www.w3.org/2000/svg" xmlns:xlink="http://www.w3.org/1999/xlink" xmlns:sketch="http://www.bohemiancoding.com/sketch/ns">
    <!-- Generator: Sketch 3.2.2 (9983) - http://www.bohemiancoding.com/sketch -->
    <title>pittsburgh-monogram</title>
    <desc>Created with Sketch.</desc>
    <defs></defs>
    <g id="Monograms-(For-Export)" stroke="none" stroke-width="1" fill="none" fill-rule="evenodd" sketch:type="MSPage">
        <g id="pittsburgh-monogram" sketch:type="MSArtboardGroup" fill="#FFFFFF">
            <path d="M17.11,76 L24.922,76 L24.922,57.586 L27.96,57.586 C35.896,57.586 39.802,54.3 39.802,47.046 L39.802,42.52 C39.802,35.142 36.268,31.67 27.836,31.67 L17.11,31.67 L17.11,76 Z M24.922,51.944 L24.922,37.622 L27.774,37.622 C30.812,37.622 32.176,38.862 32.176,42.582 L32.176,46.86 C32.176,50.518 30.812,51.944 27.774,51.944 L24.922,51.944 Z M43.77,76 L55.054,76 C63.176,76 67.206,72.838 67.206,64.778 L67.206,61.926 C67.206,56.222 64.416,53.494 59.704,52.626 C63.734,51.572 66.09,49.154 66.09,44.628 L66.09,41.528 C66.09,34.646 62.184,31.67 54.62,31.67 L43.77,31.67 L43.77,76 Z M51.458,70.296 L51.458,55.416 L54.186,55.416 C57.968,55.416 59.456,56.594 59.456,61.244 L59.456,64.344 C59.456,68.622 57.844,70.296 54.434,70.296 L51.458,70.296 Z M51.458,50.022 L51.458,37.374 L54.062,37.374 C57.162,37.374 58.65,38.18 58.65,41.962 L58.65,44.938 C58.65,48.596 57.41,50.022 54.062,50.022 L51.458,50.022 Z M77.312,76 L85.062,76 L85.124,37.808 L92.44,37.808 L92.44,31.67 L69.996,31.67 L69.996,37.808 L77.312,37.808 L77.312,76 Z" id="PBT" sketch:type="MSShapeGroup"></path>
        </g>
    </g>
</svg>