<?xml version="1.0" encoding="UTF-8" standalone="no"?>
<svg width="637px" height="145px" viewBox="0 0 637 145" version="1.1" xmlns="http://www.w3.org/2000/svg" xmlns:xlink="http://www.w3.org/1999/xlink" xmlns:sketch="http://www.bohemiancoding.com/sketch/ns">
    <!-- Generator: Sketch 3.2.2 (9983) - http://www.bohemiancoding.com/sketch -->
    <title>sacramento-logo</title>
    <desc>Created with Sketch.</desc>
    <defs></defs>
    <g id="Logos-(For-Export)" stroke="none" stroke-width="1" fill="none" fill-rule="evenodd" sketch:type="MSPage">
        <g id="sacramento-logo" sketch:type="MSArtboardGroup" transform="translate(-132.000000, -10.000000)" fill="#FFFFFF">
            <path d="M265.224,74.792 C273.496,74.792 279.04,69.952 279.04,59.568 L279.04,58.248 C279.04,48.04 274.904,44.08 266.72,38.008 C260.032,32.992 257.656,30.264 257.656,24.016 L257.656,23.664 C257.656,18.384 260.208,15.744 264.696,15.744 C269.096,15.744 271.912,17.944 271.912,24.28 L271.912,26.48 L278.072,26.48 L278.072,24.28 C278.072,14.864 273.144,10.288 264.696,10.288 C256.6,10.288 251.408,15.304 251.408,24.104 L251.408,24.368 C251.408,33.256 255.544,37.656 262.76,43.112 C269.624,48.392 272.704,51.208 272.704,58.6 L272.704,59.832 C272.704,66.08 269.976,69.336 265.224,69.336 C259.416,69.336 256.952,66.168 256.952,59.04 L256.952,56.928 L250.616,56.928 L250.616,59.04 C250.616,69.16 255.808,74.792 265.224,74.792 L265.224,74.792 Z M313.136,74 L319.648,74 L308.56,11.08 L298.616,11.08 L287.44,74 L293.688,74 L296.328,58.16 L310.408,58.16 L313.136,74 Z M303.368,16.272 L309.528,53.056 L297.12,53.056 L303.368,16.272 Z M344.24,74.792 C353.04,74.792 359.464,70.128 359.464,58.688 L359.464,56.928 L353.392,56.928 L353.392,58.6 C353.392,66.08 349.608,69.248 344.24,69.248 C337.552,69.248 334.736,64.672 334.736,56.4 L334.736,28.68 C334.736,20.144 337.992,15.744 344.152,15.744 C349.608,15.744 352.688,18.648 352.688,25.688 L352.688,26.568 L359.112,26.568 L359.112,25.6 C359.112,14.6 352.6,10.288 344.064,10.288 C334.56,10.288 327.96,16.8 327.96,28.68 L327.96,56.488 C327.96,68.192 334.032,74.792 344.24,74.792 L344.24,74.792 Z M370.592,74 L377.192,74 L377.192,44.52 L382.736,44.52 L392.856,74 L400.072,74 L389.336,43.816 C395.232,42.232 398.664,38.536 398.664,30.264 L398.664,25.072 C398.664,15.392 393.208,11.08 383.44,11.08 L370.592,11.08 L370.592,74 Z M377.192,39.504 L377.192,16.272 L383.528,16.272 C389.248,16.272 391.976,18.56 391.976,25.072 L391.976,30.264 C391.976,36.776 389.6,39.504 383.616,39.504 L377.192,39.504 Z M433.816,74 L440.328,74 L429.24,11.08 L419.296,11.08 L408.12,74 L414.368,74 L417.008,58.16 L431.088,58.16 L433.816,74 Z M424.048,16.272 L430.208,53.056 L417.8,53.056 L424.048,16.272 Z M450.664,74 L456.384,74 L456.384,23.752 L468.352,74 L470.112,74 L481.992,23.752 L481.992,74 L488.416,74 L488.416,11.08 L479.704,11.08 L469.584,54.904 L459.112,11.08 L450.664,11.08 L450.664,74 Z M501.392,74 L526.648,74 L526.648,68.72 L507.992,68.72 L507.992,42.936 L522.248,42.936 L522.248,37.656 L507.992,37.656 L507.992,16.36 L525.504,16.36 L525.504,11.08 L501.392,11.08 L501.392,74 Z M537.864,74 L543.848,74 L543.848,23.488 L560.832,74 L567.696,74 L567.696,11.08 L561.8,11.08 L561.8,57.808 L545.872,11.08 L537.864,11.08 L537.864,74 Z M588.856,74 L595.368,74 L595.456,16.36 L606.368,16.36 L606.368,11.08 L578.032,11.08 L578.032,16.36 L588.856,16.36 L588.856,74 Z M630.696,74.792 C640.728,74.792 647.152,68.192 647.152,56.488 L647.152,28.328 C647.152,16.8 640.728,10.288 630.696,10.288 C620.664,10.288 614.24,16.8 614.24,28.416 L614.24,56.664 C614.24,68.192 620.664,74.792 630.696,74.792 L630.696,74.792 Z M630.696,69.248 C624.008,69.248 620.928,64.76 620.928,56.576 L620.928,28.416 C620.928,20.232 624.096,15.744 630.696,15.744 C637.208,15.744 640.376,20.672 640.376,28.416 L640.376,56.488 C640.376,64.408 637.208,69.248 630.696,69.248 L630.696,69.248 Z M132.048,154 L149.736,154 C161.528,154 167.776,149.776 167.776,138.16 L167.776,134.112 C167.776,126.104 163.64,122.232 156.952,120.912 C162.672,119.592 166.368,116.16 166.368,109.56 L166.368,105.16 C166.368,95.568 160.824,91.08 149.384,91.08 L132.048,91.08 L132.048,154 Z M145.336,144.408 L145.336,125.576 L148.24,125.576 C152.552,125.576 154.312,126.896 154.312,132.616 L154.312,137.104 C154.312,142.384 152.552,144.408 148.504,144.408 L145.336,144.408 Z M145.336,116.512 L145.336,100.672 L148.152,100.672 C151.672,100.672 153.52,101.64 153.52,106.392 L153.52,110.352 C153.52,115.016 152.024,116.512 148.152,116.512 L145.336,116.512 Z M199.936,91.08 L199.936,136.84 C199.936,142.12 198.528,143.968 195.184,143.968 C191.576,143.968 190.344,142.12 190.344,136.928 L190.344,91.08 L176.792,91.08 L176.792,137.192 C176.792,149.424 183.392,154.968 195.096,154.968 C206.712,154.968 213.576,149.512 213.576,137.28 L213.576,91.08 L199.936,91.08 Z M239.752,154.968 C250.928,154.968 257.176,149.248 257.176,137.808 L257.176,136.576 C257.176,124.256 250.752,120.472 243.272,115.72 C237.816,112.024 235.88,110.44 235.88,105.952 L235.88,105.6 C235.88,102.08 237.112,100.672 239.664,100.672 C242.04,100.672 243.712,101.816 243.712,106.304 L243.712,108.328 L256.472,108.328 L256.472,106.48 C256.384,95.392 250.312,90.2 239.664,90.2 C228.84,90.2 222.68,96.008 222.68,106.48 L222.68,106.832 C222.68,117.216 226.992,121.88 235.176,127.072 C240.808,130.768 243.888,132.528 243.888,138.16 L243.888,138.864 C243.888,142.912 242.568,144.672 239.752,144.672 C236.496,144.672 235.176,143 235.176,137.896 L235.176,135.432 L222.064,135.432 L222.064,137.456 C222.152,150.04 229.016,154.968 239.752,154.968 L239.752,154.968 Z M266.72,154 L280.36,154 L280.36,91.08 L266.72,91.08 L266.72,154 Z M291.048,154 L302.752,154 L302.752,114.928 L315.248,154 L328.096,154 L328.096,91.08 L316.304,91.08 L316.304,124.696 L305.656,91.08 L291.048,91.08 L291.048,154 Z M338.52,154 L367.912,154 L367.912,143.352 L352.072,143.352 L352.072,125.928 L363.864,125.928 L363.864,115.808 L352.072,115.808 L352.072,101.728 L367.032,101.728 L367.032,91.08 L338.52,91.08 L338.52,154 Z M393.208,154.968 C404.384,154.968 410.632,149.248 410.632,137.808 L410.632,136.576 C410.632,124.256 404.208,120.472 396.728,115.72 C391.272,112.024 389.336,110.44 389.336,105.952 L389.336,105.6 C389.336,102.08 390.568,100.672 393.12,100.672 C395.496,100.672 397.168,101.816 397.168,106.304 L397.168,108.328 L409.928,108.328 L409.928,106.48 C409.84,95.392 403.768,90.2 393.12,90.2 C382.296,90.2 376.136,96.008 376.136,106.48 L376.136,106.832 C376.136,117.216 380.448,121.88 388.632,127.072 C394.264,130.768 397.344,132.528 397.344,138.16 L397.344,138.864 C397.344,142.912 396.024,144.672 393.208,144.672 C389.952,144.672 388.632,143 388.632,137.896 L388.632,135.432 L375.52,135.432 L375.52,137.456 C375.608,150.04 382.472,154.968 393.208,154.968 L393.208,154.968 Z M435.928,154.968 C447.104,154.968 453.352,149.248 453.352,137.808 L453.352,136.576 C453.352,124.256 446.928,120.472 439.448,115.72 C433.992,112.024 432.056,110.44 432.056,105.952 L432.056,105.6 C432.056,102.08 433.288,100.672 435.84,100.672 C438.216,100.672 439.888,101.816 439.888,106.304 L439.888,108.328 L452.648,108.328 L452.648,106.48 C452.56,95.392 446.488,90.2 435.84,90.2 C425.016,90.2 418.856,96.008 418.856,106.48 L418.856,106.832 C418.856,117.216 423.168,121.88 431.352,127.072 C436.984,130.768 440.064,132.528 440.064,138.16 L440.064,138.864 C440.064,142.912 438.744,144.672 435.928,144.672 C432.672,144.672 431.352,143 431.352,137.896 L431.352,135.432 L418.24,135.432 L418.24,137.456 C418.328,150.04 425.192,154.968 435.928,154.968 L435.928,154.968 Z M482.208,154.528 C492.592,154.528 498.048,148.72 498.048,137.896 L498.048,91.08 L484.408,91.08 L484.408,137.28 C484.408,141.68 482.472,143.176 479.04,143.176 C477.192,143.176 475.96,142.912 474.904,142.648 L474.904,153.208 C476.488,153.912 478.6,154.528 482.208,154.528 L482.208,154.528 Z M526.776,154.968 C538.48,154.968 546.048,148.896 546.048,135.784 L546.048,109.032 C546.048,95.832 538.216,90.2 526.776,90.2 C515.688,90.2 507.592,96.184 507.592,109.12 L507.592,136.136 C507.592,149.072 515.072,154.968 526.776,154.968 L526.776,154.968 Z M526.776,144.056 C523.08,144.056 521.408,141.768 521.408,136.048 L521.408,109.032 C521.408,103.4 523.168,101.112 526.776,101.112 C530.472,101.112 532.232,103.576 532.232,109.032 L532.232,135.96 C532.232,141.68 530.472,144.056 526.776,144.056 L526.776,144.056 Z M579,91.08 L579,136.84 C579,142.12 577.592,143.968 574.248,143.968 C570.64,143.968 569.408,142.12 569.408,136.928 L569.408,91.08 L555.856,91.08 L555.856,137.192 C555.856,149.424 562.456,154.968 574.16,154.968 C585.776,154.968 592.64,149.512 592.64,137.28 L592.64,91.08 L579,91.08 Z M602.888,154 L616.44,154 L616.44,127.776 L618.904,127.776 L625.856,154 L639.936,154 L631.664,125.664 C635.8,123.64 638.176,120.296 638.176,113.168 L638.176,106.744 C638.176,96.272 633.248,91.08 620.048,91.08 L602.888,91.08 L602.888,154 Z M616.44,119.064 L616.44,101.464 L619.608,101.464 C623.392,101.464 624.976,102.96 624.976,107.184 L624.976,112.992 C624.976,117.48 623.304,119.064 619.608,119.064 L616.44,119.064 Z M648.16,154 L659.864,154 L659.864,114.928 L672.36,154 L685.208,154 L685.208,91.08 L673.416,91.08 L673.416,124.696 L662.768,91.08 L648.16,91.08 L648.16,154 Z M718.776,154 L732.504,154 L722.472,91.08 L703.024,91.08 L693.08,154 L705.488,154 L707.16,141.152 L717.016,141.152 L718.776,154 Z M712.088,103.136 L715.784,131.736 L708.392,131.736 L712.088,103.136 Z M740.376,154 L768.096,154 L768.096,143.176 L753.928,143.176 L753.928,91.08 L740.376,91.08 L740.376,154 Z" id="SACRAMENTO" sketch:type="MSShapeGroup"></path>
        </g>
    </g>
</svg>