<?xml version="1.0" encoding="UTF-8" standalone="no"?>
<svg width="108px" height="108px" viewBox="0 0 108 108" version="1.1" xmlns="http://www.w3.org/2000/svg" xmlns:xlink="http://www.w3.org/1999/xlink" xmlns:sketch="http://www.bohemiancoding.com/sketch/ns">
    <!-- Generator: Sketch 3.2.2 (9983) - http://www.bohemiancoding.com/sketch -->
    <title>twincities-monogram</title>
    <desc>Created with Sketch.</desc>
    <defs></defs>
    <g id="Monograms-(For-Export)" stroke="none" stroke-width="1" fill="none" fill-rule="evenodd" sketch:type="MSPage">
        <g id="twincities-monogram" sketch:type="MSArtboardGroup" fill="#FFFFFF">
            <path d="M12.929,51 L19.501,51 L19.501,20.496 L26.445,51 L28.739,51 L35.559,20.496 L35.559,51 L43.061,51 L43.061,6.67 L33.327,6.67 L27.995,31.966 L22.539,6.67 L12.929,6.67 L12.929,51 Z M58.809,51.62 C65.877,51.62 70.155,47.838 70.155,40.026 L70.155,39.158 C70.155,31.036 66.249,28.308 60.793,24.588 C56.577,21.674 55.151,20.248 55.151,16.652 L55.151,16.404 C55.151,13.49 56.391,12.126 58.623,12.126 C60.855,12.126 62.281,13.242 62.281,16.9 L62.281,18.326 L69.597,18.326 L69.597,16.962 C69.597,9.584 65.629,6.05 58.623,6.05 C51.679,6.05 47.587,9.956 47.587,16.962 L47.587,17.148 C47.587,24.092 50.625,27.316 56.081,30.974 C60.421,34.012 62.529,35.5 62.529,39.964 L62.529,40.522 C62.529,43.994 61.289,45.606 58.809,45.606 C55.895,45.606 54.655,44.056 54.655,39.902 L54.655,38.29 L47.153,38.29 L47.153,39.716 C47.153,47.962 51.617,51.62 58.809,51.62 L58.809,51.62 Z M74.619,51 L82.431,51 L82.431,32.586 L85.469,32.586 C93.405,32.586 97.311,29.3 97.311,22.046 L97.311,17.52 C97.311,10.142 93.777,6.67 85.345,6.67 L74.619,6.67 L74.619,51 Z M82.431,26.944 L82.431,12.622 L85.283,12.622 C88.321,12.622 89.685,13.862 89.685,17.582 L89.685,21.86 C89.685,25.518 88.321,26.944 85.283,26.944 L82.431,26.944 Z M34.04,101 L45.324,101 C53.446,101 57.476,97.838 57.476,89.778 L57.476,86.926 C57.476,81.222 54.686,78.494 49.974,77.626 C54.004,76.572 56.36,74.154 56.36,69.628 L56.36,66.528 C56.36,59.646 52.454,56.67 44.89,56.67 L34.04,56.67 L34.04,101 Z M41.728,95.296 L41.728,80.416 L44.456,80.416 C48.238,80.416 49.726,81.594 49.726,86.244 L49.726,89.344 C49.726,93.622 48.114,95.296 44.704,95.296 L41.728,95.296 Z M41.728,75.022 L41.728,62.374 L44.332,62.374 C47.432,62.374 48.92,63.18 48.92,66.962 L48.92,69.938 C48.92,73.596 47.68,75.022 44.332,75.022 L41.728,75.022 Z M64.792,101.372 C71.178,101.372 75.146,97.9 75.146,90.522 L75.146,56.67 L67.396,56.67 L67.396,90.15 C67.396,93.622 65.846,94.862 63.304,94.862 C61.878,94.862 61.01,94.614 60.204,94.428 L60.204,100.504 C61.196,100.938 62.56,101.372 64.792,101.372 L64.792,101.372 Z" id="MSP" sketch:type="MSShapeGroup"></path>
        </g>
    </g>
</svg>