<?xml version="1.0" encoding="UTF-8" standalone="no"?>
<svg width="108px" height="108px" viewBox="0 0 108 108" version="1.1" xmlns="http://www.w3.org/2000/svg" xmlns:xlink="http://www.w3.org/1999/xlink" xmlns:sketch="http://www.bohemiancoding.com/sketch/ns">
    <!-- Generator: Sketch 3.2.2 (9983) - http://www.bohemiancoding.com/sketch -->
    <title>albany-monogram</title>
    <desc>Created with Sketch.</desc>
    <defs></defs>
    <g id="Monograms-(For-Export)" stroke="none" stroke-width="1" fill="none" fill-rule="evenodd" sketch:type="MSPage">
        <g id="albany-monogram" sketch:type="MSArtboardGroup" fill="#FFFFFF">
            <path d="M31.339,76 L39.151,76 L31.835,31.67 L20.551,31.67 L13.235,76 L20.365,76 L21.791,66.204 L29.851,66.204 L31.339,76 Z M25.821,38.428 L29.045,60.624 L22.597,60.624 L25.821,38.428 Z M42.561,76 L53.845,76 C61.967,76 65.997,72.838 65.997,64.778 L65.997,61.926 C65.997,56.222 63.207,53.494 58.495,52.626 C62.525,51.572 64.881,49.154 64.881,44.628 L64.881,41.528 C64.881,34.646 60.975,31.67 53.411,31.67 L42.561,31.67 L42.561,76 Z M50.249,70.296 L50.249,55.416 L52.977,55.416 C56.759,55.416 58.247,56.594 58.247,61.244 L58.247,64.344 C58.247,68.622 56.635,70.296 53.225,70.296 L50.249,70.296 Z M50.249,50.022 L50.249,37.374 L52.853,37.374 C55.953,37.374 57.441,38.18 57.441,41.962 L57.441,44.938 C57.441,48.596 56.201,50.022 52.853,50.022 L50.249,50.022 Z M70.337,76 L78.149,76 L78.149,56.718 L80.629,56.718 L86.395,76 L94.579,76 L88.069,55.54 C91.417,54.238 93.401,51.758 93.401,46.426 L93.401,42.334 C93.401,35.142 89.743,31.67 81.373,31.67 L70.337,31.67 L70.337,76 Z M78.149,51.448 L78.149,37.684 L81.187,37.684 C84.349,37.684 85.775,38.924 85.775,42.458 L85.775,46.364 C85.775,50.084 84.411,51.448 81.187,51.448 L78.149,51.448 Z" id="ABR" sketch:type="MSShapeGroup"></path>
        </g>
    </g>
</svg>