<?xml version="1.0" encoding="UTF-8" standalone="no"?>
<svg width="108px" height="108px" viewBox="0 0 108 108" version="1.1" xmlns="http://www.w3.org/2000/svg" xmlns:xlink="http://www.w3.org/1999/xlink" xmlns:sketch="http://www.bohemiancoding.com/sketch/ns">
    <!-- Generator: Sketch 3.2.2 (9983) - http://www.bohemiancoding.com/sketch -->
    <title>atlanta-monogram</title>
    <desc>Created with Sketch.</desc>
    <defs></defs>
    <g id="Monograms-(For-Export)" stroke="none" stroke-width="1" fill="none" fill-rule="evenodd" sketch:type="MSPage">
        <g id="atlanta-monogram" sketch:type="MSArtboardGroup" fill="#FFFFFF">
            <path d="M31.06,76 L38.872,76 L31.556,31.67 L20.272,31.67 L12.956,76 L20.086,76 L21.512,66.204 L29.572,66.204 L31.06,76 Z M25.542,38.428 L28.766,60.624 L22.318,60.624 L25.542,38.428 Z M42.282,76 L53.566,76 C61.688,76 65.718,72.838 65.718,64.778 L65.718,61.926 C65.718,56.222 62.928,53.494 58.216,52.626 C62.246,51.572 64.602,49.154 64.602,44.628 L64.602,41.528 C64.602,34.646 60.696,31.67 53.132,31.67 L42.282,31.67 L42.282,76 Z M49.97,70.296 L49.97,55.416 L52.698,55.416 C56.48,55.416 57.968,56.594 57.968,61.244 L57.968,64.344 C57.968,68.622 56.356,70.296 52.946,70.296 L49.97,70.296 Z M49.97,50.022 L49.97,37.374 L52.574,37.374 C55.674,37.374 57.162,38.18 57.162,41.962 L57.162,44.938 C57.162,48.596 55.922,50.022 52.574,50.022 L49.97,50.022 Z M82.396,76.62 C89.588,76.62 94.362,73.148 94.362,64.406 L94.362,63.042 L86.922,63.042 L86.922,64.344 C86.922,68.746 85.124,70.358 82.396,70.358 C78.924,70.358 77.56,68.126 77.56,63.352 L77.56,44.194 C77.56,39.482 79.11,37.374 82.21,37.374 C85.062,37.374 86.426,38.8 86.488,43.016 L86.488,43.884 L94.238,43.884 L94.238,43.078 C94.114,34.274 89.278,31.05 82.272,31.05 C74.832,31.05 69.624,35.514 69.624,44.38 L69.624,63.29 C69.624,72.156 74.398,76.62 82.396,76.62 L82.396,76.62 Z" id="ABC" sketch:type="MSShapeGroup"></path>
        </g>
    </g>
</svg>