<?xml version="1.0" encoding="UTF-8" standalone="no"?>
<svg width="108px" height="108px" viewBox="0 0 108 108" version="1.1" xmlns="http://www.w3.org/2000/svg" xmlns:xlink="http://www.w3.org/1999/xlink" xmlns:sketch="http://www.bohemiancoding.com/sketch/ns">
    <!-- Generator: Sketch 3.2.2 (9983) - http://www.bohemiancoding.com/sketch -->
    <title>birmingham-monogram</title>
    <desc>Created with Sketch.</desc>
    <defs></defs>
    <g id="Monograms-(For-Export)" stroke="none" stroke-width="1" fill="none" fill-rule="evenodd" sketch:type="MSPage">
        <g id="birmingham-monogram" sketch:type="MSArtboardGroup" fill="#FFFFFF">
            <path d="M19.652,76 L30.936,76 C39.058,76 43.088,72.838 43.088,64.778 L43.088,61.926 C43.088,56.222 40.298,53.494 35.586,52.626 C39.616,51.572 41.972,49.154 41.972,44.628 L41.972,41.528 C41.972,34.646 38.066,31.67 30.502,31.67 L19.652,31.67 L19.652,76 Z M27.34,70.296 L27.34,55.416 L30.068,55.416 C33.85,55.416 35.338,56.594 35.338,61.244 L35.338,64.344 C35.338,68.622 33.726,70.296 30.316,70.296 L27.34,70.296 Z M27.34,50.022 L27.34,37.374 L29.944,37.374 C33.044,37.374 34.532,38.18 34.532,41.962 L34.532,44.938 C34.532,48.596 33.292,50.022 29.944,50.022 L27.34,50.022 Z M47.428,76 L58.712,76 C66.834,76 70.864,72.838 70.864,64.778 L70.864,61.926 C70.864,56.222 68.074,53.494 63.362,52.626 C67.392,51.572 69.748,49.154 69.748,44.628 L69.748,41.528 C69.748,34.646 65.842,31.67 58.278,31.67 L47.428,31.67 L47.428,76 Z M55.116,70.296 L55.116,55.416 L57.844,55.416 C61.626,55.416 63.114,56.594 63.114,61.244 L63.114,64.344 C63.114,68.622 61.502,70.296 58.092,70.296 L55.116,70.296 Z M55.116,50.022 L55.116,37.374 L57.72,37.374 C60.82,37.374 62.308,38.18 62.308,41.962 L62.308,44.938 C62.308,48.596 61.068,50.022 57.72,50.022 L55.116,50.022 Z M78.18,76.372 C84.566,76.372 88.534,72.9 88.534,65.522 L88.534,31.67 L80.784,31.67 L80.784,65.15 C80.784,68.622 79.234,69.862 76.692,69.862 C75.266,69.862 74.398,69.614 73.592,69.428 L73.592,75.504 C74.584,75.938 75.948,76.372 78.18,76.372 L78.18,76.372 Z" id="BBJ" sketch:type="MSShapeGroup"></path>
        </g>
    </g>
</svg>