<?xml version="1.0" encoding="UTF-8" standalone="no"?>
<svg width="548px" height="144px" viewBox="0 0 548 144" version="1.1" xmlns="http://www.w3.org/2000/svg" xmlns:xlink="http://www.w3.org/1999/xlink" xmlns:sketch="http://www.bohemiancoding.com/sketch/ns">
    <!-- Generator: Sketch 3.2.2 (9983) - http://www.bohemiancoding.com/sketch -->
    <title>bizjournals-logo</title>
    <desc>Created with Sketch.</desc>
    <defs>
        <path id="path-1" d="M0.123609023,0.600685714 L547.99382,0.600685714 L547.99382,144 L0.123609023,144"></path>
        <path id="path-3" d="M0.123609023,0.600685714 L547.99382,0.600685714 L547.99382,144 L0.123609023,144"></path>
    </defs>
    <g id="Logos-(For-Export)" stroke="none" stroke-width="1" fill="none" fill-rule="evenodd" sketch:type="MSPage">
        <g id="bizjournals-logo" sketch:type="MSArtboardGroup" transform="translate(-176.000000, -10.000000)">
            <g id="the-business-journals-logo" sketch:type="MSLayerGroup" transform="translate(176.000000, 10.000000)">
                <path d="M31.1288722,31.2233143 C29.839218,31.1780571 26.9405865,31.0854857 23.2590977,31.0854857 C19.3942556,31.0854857 17.0456842,31.1780571 15.9414436,31.2233143 C15.7127669,30.9929143 15.7580902,29.6146286 15.9414436,29.3862857 C17.3691278,29.2011429 18.658782,29.0653714 19.4395789,28.8802286 C21.0032331,28.5593143 21.2360301,27.6397714 21.3266767,25.5250286 C21.4647068,20.5158857 21.5100301,13.3035429 21.5100301,5.4432 C21.5100301,5.26011429 21.3266767,5.02971429 21.1886466,5.02971429 L15.7127669,5.02971429 C14.9752331,5.02971429 14.2850827,5.30331429 13.6876391,6.36068571 C13.1355188,7.28022857 12.536015,8.84365714 11.7984812,10.9131429 C11.5244812,11.0489143 9.91344361,10.6354286 9.82279699,10.3618286 C10.1895038,8.3376 10.6942406,4.38788571 10.8343308,2.22582857 C10.8343308,2.09005714 11.4317744,1.90491429 11.5698045,1.99748571 C12.3526617,2.41097143 13.3188722,2.63931429 15.3913835,2.63931429 L32.4638496,2.63931429 C34.9504511,2.63931429 36.0546917,2.54674286 37.2969624,1.90491429 C37.5276992,1.85965714 37.894406,2.09005714 37.9850526,2.18262857 C37.5276992,4.06697143 37.113609,8.19977143 36.880812,10.7712 C36.6521353,11.0489143 34.9937143,11.0057143 34.8103609,10.7712 C34.6723308,8.89097143 34.3962707,7.23702857 34.0748872,6.36068571 C33.660797,5.4432 33.1086767,5.07497143 32.2331128,5.07497143 C29.7032481,5.02971429 27.2619699,5.02971429 26.1577293,5.07497143 C26.0217594,5.12228571 25.9290526,5.30331429 25.9290526,5.39588571 C25.9290526,12.3346286 25.8816692,24.6054857 26.0670827,26.9033143 C26.1577293,27.7302857 26.4358496,28.4667429 27.5400902,28.7876571 C28.3229474,29.016 29.3344812,29.1085714 31.359609,29.3862857 C31.5450226,29.6598857 31.4049323,31.0381714 31.1288722,31.2233143" id="Fill-1" fill="#FFFFFF" sketch:type="MSShapeGroup"></path>
                <path d="M52.6636241,2.50354286 C53.5845113,2.50354286 55.7476692,2.63931429 58.8770376,2.63931429 C62.4204962,2.63931429 64.0315338,2.50354286 65.2738045,2.50354286 C65.5045414,2.77714286 65.4571579,4.11017143 65.2264211,4.29531429 C64.1675038,4.48045714 63.2960602,4.66148571 62.7418797,4.80137143 C61.8230526,5.07497143 61.5449323,5.53577143 61.5016692,6.86674286 C61.4089624,8.43017143 61.4542857,10.0368 61.4542857,14.6818286 C61.4542857,14.8628571 61.5902556,15.1385143 61.7756692,15.2310857 C62.1897594,15.2763429 63.2486767,15.2763429 69.2313534,15.2763429 C75.076,15.2310857 76.089594,15.2310857 76.5036842,15.1837714 C76.6870376,15.1837714 76.8250677,15.0027429 76.8250677,14.8176 C76.8250677,12.4272 76.8250677,8.064 76.7776842,6.31542857 C76.7323609,5.62422857 76.5036842,5.12228571 75.8588571,4.88982857 C75.2593534,4.61622857 74.295203,4.48045714 72.8221955,4.29531429 C72.4987519,4.06697143 72.5893985,2.73188571 72.8675188,2.50354286 C74.0191429,2.50354286 76.596391,2.63931429 79.0809323,2.63931429 C81.5180902,2.63931429 84.6021353,2.50354286 85.2922857,2.50354286 C85.5683459,2.77714286 85.5683459,4.06697143 85.2922857,4.29531429 C84.1880451,4.43108571 83.3124812,4.56891429 82.6697143,4.80137143 C81.610797,5.16754286 81.5180902,5.80937143 81.4253835,7.28022857 C81.3347368,8.89097143 81.3347368,10.9563429 81.3347368,16.2432 C81.3347368,20.3307429 81.3347368,25.2041143 81.4727669,26.8107429 C81.5654737,28.0532571 81.9342406,28.5593143 82.8551278,28.8329143 C83.5452782,29.016 84.6021353,29.2464 86.1225263,29.3862857 C86.3038195,29.6598857 86.2131729,31.0854857 85.844406,31.2233143 C84.7401654,31.2233143 81.4253835,31.0854857 78.8955188,31.0854857 C76.363594,31.0854857 73.9717594,31.1780571 72.6821053,31.2233143 C72.4534286,31.0381714 72.4534286,29.7072 72.6821053,29.3862857 C74.2024962,29.2464 74.9832932,29.0653714 75.6281203,28.8802286 C76.4109774,28.6025143 76.6870376,28.0964571 76.7776842,26.9485714 C76.870391,25.5250286 76.8250677,21.1577143 76.8250677,18.2653714 C76.8250677,18.1728 76.6870376,17.9444571 76.4563008,17.9444571 C75.4447669,17.8950857 71.8086015,17.8950857 69.1860301,17.8950857 C65.595188,17.8950857 62.0517293,17.8950857 61.6376391,17.9876571 C61.5449323,17.9876571 61.4542857,18.1728 61.4542857,18.216 C61.4542857,20.7915429 61.4542857,25.5250286 61.5016692,26.4445714 C61.5902556,28.008 61.9136992,28.4667429 63.1559699,28.7876571 C63.8461203,28.9728 64.814391,29.2011429 66.1946917,29.3862857 C66.4233684,29.6598857 66.1473083,31.0854857 65.9186316,31.2233143 C65.4118346,31.2233143 62.9726165,31.0854857 59.2911278,31.0854857 C55.9310226,31.0854857 53.5371278,31.2233143 52.6636241,31.2233143 C52.4328872,30.9929143 52.4328872,29.6598857 52.6183008,29.3862857 C53.813188,29.2011429 54.5960451,29.1085714 55.2861955,28.9254857 C56.5758496,28.5593143 56.8519098,27.8681143 56.9446165,25.7533714 C56.9899398,24.192 56.9899398,20.7442286 56.9899398,16.7472 C56.9899398,12.2914286 56.9899398,7.78628571 56.9446165,6.95931429 C56.8519098,5.6736 56.6685564,5.16754286 55.6096391,4.84457143 C54.8741654,4.61622857 53.9058947,4.48045714 52.5729774,4.29531429 C52.3401805,4.0176 52.4328872,2.73188571 52.6636241,2.50354286" id="Fill-2" fill="#FFFFFF" sketch:type="MSShapeGroup"></path>
                <path d="M101.256391,2.50354286 C102.500722,2.50354286 105.537383,2.63931429 108.159955,2.63931429 L117.457414,2.63931429 C119.251805,2.63931429 121.688962,2.59611429 122.795263,2.50354286 C122.88591,2.54674286 123.026,2.68457143 123.026,2.77714286 C122.704617,4.06697143 122.288466,7.3728 122.241083,9.34971429 C121.967083,9.67062857 120.401368,9.62742857 120.172692,9.44228571 C120.125308,8.15657143 119.894571,7.50857143 119.665895,6.72891429 C119.295068,5.58102857 118.837714,5.16754286 117.55012,5.07497143 C116.85791,5.02971429 110.82991,5.02971429 110.41582,5.07497143 C110.047053,5.16754286 109.770992,5.80937143 109.770992,6.08708571 C109.770992,9.25714286 109.725669,11.9684571 109.725669,15.0459429 C109.725669,15.1385143 109.863699,15.3689143 110.001729,15.3689143 C112.395624,15.3689143 115.065579,15.4162286 116.905293,15.2310857 C117.593383,15.1385143 117.964211,14.7250286 118.192887,14.0379429 C118.378301,13.4845714 118.559594,12.7481143 118.699684,12.0137143 C119.159098,11.8326857 120.586782,11.9211429 120.817519,12.1988571 C120.724812,13.2541714 120.494075,15.0027429 120.494075,16.7472 C120.494075,18.3085714 120.539398,19.8288 120.586782,21.2502857 C120.308662,21.4786286 118.699684,21.528 118.421564,21.2502857 C118.192887,20.1497143 118.192887,19.7362286 117.964211,19.1376 C117.778797,18.4505143 117.317323,18.1254857 116.674556,18.0370286 C115.154165,17.8518857 112.119564,17.8950857 110.001729,17.8950857 C109.863699,17.8950857 109.725669,18.0802286 109.725669,18.2653714 C109.725669,21.2502857 109.725669,24.8338286 109.818376,26.6749714 C109.818376,27.4093714 110.277789,28.2816 110.875233,28.5099429 C111.79612,28.7876571 117.642827,28.7444571 118.652301,28.7444571 C119.894571,28.7444571 120.586782,28.3741714 121.552992,26.9958857 C122.288466,26.0310857 123.16197,24.1467429 123.668767,23.0420571 C124.037534,22.9988571 125.370451,23.4123429 125.601188,23.7332571 C125.370451,25.2473143 124.406301,28.6950857 123.57606,30.3510857 C123.347383,30.9003429 122.976556,31.2706286 120.632105,31.2706286 C115.755729,31.2706286 111.289323,31.0854857 107.931278,31.0854857 C104.845173,31.0854857 101.717865,31.2233143 99.7854436,31.2233143 C99.5547068,31.0381714 99.5093835,29.6598857 99.7380602,29.3862857 C101.349098,29.2011429 102.822105,29.0653714 103.695609,28.8329143 C104.79985,28.5593143 105.123293,27.9606857 105.21394,26.4898286 C105.306647,25.7101714 105.261323,20.8841143 105.261323,15.7824 C105.261323,11.7401143 105.261323,7.83154286 105.21394,7.00662857 C105.123293,5.48845714 104.93788,5.07497143 103.881023,4.75405714 C103.236195,4.56891429 102.362692,4.43108571 101.118361,4.24594286 C100.889684,3.9744 100.982391,2.73188571 101.256391,2.50354286" id="Fill-3" fill="#FFFFFF" sketch:type="MSShapeGroup"></path>
                <path d="M155.084,4.74994286 C154.898586,4.79725714 154.66991,5.256 154.66991,5.48434286 C154.626647,7.14034286 154.577203,11.4582857 154.577203,14.4473143 C154.577203,14.5398857 154.719353,14.6777143 154.80588,14.6777143 C155.407444,14.7209143 156.878391,14.7702857 158.122722,14.7702857 C159.87385,14.7702857 160.883323,14.5398857 161.433383,14.2642286 C162.906391,13.5277714 163.598602,11.9211429 163.598602,10.1725714 C163.598602,6.17554286 160.838,4.66148571 156.742421,4.66148571 C156.464301,4.66148571 155.683504,4.66148571 155.084,4.74994286 L155.084,4.74994286 Z M165.531023,23.1305143 C165.531023,19.0882286 162.585008,16.7904 157.201835,16.7904 C156.971098,16.7904 155.269414,16.7472 154.855323,16.8356571 C154.719353,16.8829714 154.577203,16.9755429 154.577203,17.0681143 C154.577203,19.9604571 154.53394,24.6013714 154.66991,26.4404571 C154.762617,27.2201143 155.314737,28.3248 156.006947,28.6477714 C156.742421,29.0612571 158.400842,29.1538286 159.546286,29.1538286 C162.725098,29.1538286 165.531023,27.3620571 165.531023,23.1305143 L165.531023,23.1305143 Z M146.107925,2.49942857 C146.522015,2.49942857 148.409113,2.6352 151.540541,2.6352 C154.484496,2.6352 156.878391,2.54262857 159.731699,2.54262857 C163.277218,2.54262857 168.153594,3.83245714 168.153594,9.16045714 C168.153594,11.7812571 166.31388,13.8939429 163.919985,14.9060571 C163.784015,14.9533714 163.784015,15.0418286 163.919985,15.0912 C167.325414,15.9634286 170.318812,18.0761143 170.318812,22.1225143 C170.318812,26.0722286 167.879594,28.5552 164.336135,30.1186286 C162.170917,31.0813714 159.503023,31.4043429 156.785684,31.4043429 C154.719353,31.4043429 148.50182,31.1739429 145.419835,31.2192 C145.098451,31.0813714 145.049008,29.6105143 145.327128,29.3821714 C146.062602,29.3348571 147.721023,29.1970286 148.50182,28.9686857 C149.60812,28.6909714 149.974827,28.4173714 150.110797,26.7634286 C150.203504,25.3357714 150.203504,20.2381714 150.203504,16.6052571 C150.203504,11.6434286 150.252947,8.28822857 150.203504,6.63428571 C150.160241,5.34857143 149.700827,4.93302857 148.823203,4.70468571 C148.135113,4.56891429 146.985549,4.42697143 146.062602,4.2912 C145.833925,4.06285714 145.879248,2.68457143 146.107925,2.49942857 L146.107925,2.49942857 Z" id="Fill-4" fill="#FFFFFF" sketch:type="MSShapeGroup"></path>
                <path d="M185.040647,2.54262857 C185.959474,2.54262857 189.274256,2.6352 191.38797,2.6352 C193.460481,2.6352 196.085113,2.49942857 197.327383,2.49942857 C197.601383,2.68457143 197.601383,4.06285714 197.372707,4.2912 C196.313789,4.47634286 195.485609,4.56891429 194.933489,4.70468571 C193.691218,5.07085714 193.460481,5.66948571 193.417218,7.04777143 C193.367774,12.2873143 193.417218,16.8356571 193.460481,19.2733714 C193.505805,20.1888 193.645895,22.0731429 193.781865,22.8096 C194.198015,25.7986286 196.777323,28.6909714 202.253203,28.6909714 C205.749278,28.6909714 209.61618,27.9113143 210.122977,20.5590857 C210.351654,17.0187429 210.401098,12.3346286 210.172421,7.78217143 C210.122977,5.85462857 209.844857,5.11817143 208.095789,4.74994286 C207.407699,4.56891429 206.530075,4.47634286 205.378451,4.2912 C205.106511,4.06285714 205.199218,2.72777143 205.427895,2.49942857 C206.394105,2.49942857 208.831263,2.6352 211.552722,2.6352 C213.711759,2.6352 216.336391,2.49942857 217.071865,2.49942857 C217.349985,2.68457143 217.393248,4.15337143 217.071865,4.2912 L214.95609,4.84045714 C213.526346,5.21074286 213.297669,6.17554286 213.204962,8.05988571 C212.930962,16.6052571 213.161699,20.6969143 212.102782,24.1426286 C210.582391,30.0692571 205.427895,31.9104 200.640105,31.9104 C192.860977,31.9104 189.826376,28.2774857 189.274256,23.5933714 C188.903429,20.6043429 188.903429,8.42605714 188.860165,6.86674286 C188.814842,5.76205714 188.400752,5.07085714 187.479865,4.79725714 C186.973068,4.56891429 185.91415,4.42697143 184.94794,4.2912 C184.67188,4.10605714 184.762526,2.68457143 185.040647,2.54262857" id="Fill-5" fill="#FFFFFF" sketch:type="MSShapeGroup"></path>
                <path d="M236.624752,28.4173714 C237.776376,29.3348571 239.434797,29.7483429 241.091158,29.7483429 C243.066842,29.7483429 245.876887,28.6477714 245.876887,25.1547429 C245.876887,22.3076571 244.12988,21.0651429 239.848887,18.6747429 C235.429865,16.2390857 232.671323,14.0790857 232.671323,9.75908571 C232.671323,4.66148571 236.810165,1.80822857 242.009985,1.80822857 C245.51018,1.80822857 247.485865,2.45417143 249.513053,2.68457143 C249.191669,4.19862857 248.913549,7.18765714 248.728135,9.43817143 C248.592165,9.75908571 247.164481,9.75908571 246.933744,9.48137143 C246.659744,7.04777143 246.290977,5.57691429 245.23206,4.79725714 C244.12988,4.01348571 242.656872,3.78514286 241.365158,3.78514286 C238.23991,3.78514286 236.717459,6.21874286 236.717459,8.19565714 C236.717459,10.8164571 237.869083,11.9211429 239.89215,13.2068571 C241.779248,14.4 244.358556,15.5046857 246.012857,16.4694857 C248.592165,17.9835429 250.343293,19.9172571 250.343293,23.2230857 C250.343293,27.6356571 246.569098,31.9104 239.710857,31.9104 C236.766902,31.9104 233.911534,30.8962286 232.716647,30.4395429 C232.302556,29.8882286 231.336346,24.7865143 231.200376,23.0873143 C231.288962,22.6717714 232.852617,22.3076571 233.130737,22.4886857 C234.004241,25.2473143 234.968391,27.2201143 236.624752,28.4173714" id="Fill-6" fill="#FFFFFF" sketch:type="MSShapeGroup"></path>
                <path d="M265.753218,2.49942857 C266.674105,2.49942857 269.667504,2.6352 272.106722,2.6352 C274.589203,2.6352 277.446632,2.49942857 278.684782,2.49942857 C278.870195,2.77714286 278.919639,3.97028571 278.684782,4.2912 C277.446632,4.42697143 276.616391,4.51954286 275.973624,4.70468571 C274.867323,4.9824 274.68191,5.53165714 274.589203,6.90994286 C274.453233,8.88685714 274.500617,12.1947429 274.500617,16.2390857 C274.500617,20.5117714 274.54594,24.8338286 274.636586,26.4404571 C274.68191,27.864 274.914707,28.5099429 276.387714,28.8761143 C277.075805,29.0118857 278.134722,29.1970286 279.469699,29.3821714 C279.700436,29.5673143 279.562406,31.0381714 279.333729,31.2192 C278.320135,31.2192 275.003293,31.0813714 272.566135,31.0813714 C269.848797,31.0813714 266.445429,31.2192 265.617248,31.2192 C265.343248,31.0813714 265.343248,29.5673143 265.571925,29.3821714 C266.816256,29.2464 267.459023,29.1538286 268.147113,29.0118857 C269.62012,28.6477714 269.805534,28.0038857 269.941504,27.0843429 C270.126917,25.7513143 270.083654,23.0420571 270.083654,15.5046857 C270.083654,11.6434286 270.126917,9.02468571 269.990947,6.86674286 C269.898241,5.62422857 269.760211,5.11817143 268.79194,4.84045714 C267.961699,4.61211429 267.088195,4.47634286 265.709955,4.2912 C265.479218,4.06285714 265.571925,2.72777143 265.753218,2.49942857" id="Fill-7" fill="#FFFFFF" sketch:type="MSShapeGroup"></path>
                <path d="M293.367474,2.49942857 C294.793098,2.49942857 297.186992,2.6352 300.130947,2.6352 L302.248782,2.6352 C302.430075,3.23382857 302.615489,3.6 303.814496,5.11817143 C308.276782,10.8164571 316.974737,21.3387429 319.413955,24.2352 C319.506662,24.2804571 319.599368,24.2352 319.599368,24.1426286 C319.599368,17.6626286 319.642632,10.8637714 319.457218,7.32548571 C319.364511,5.89782857 319.092571,5.30331429 317.619564,4.93302857 C316.698677,4.70468571 315.594436,4.47634286 314.259459,4.2912 C314.030782,4.06285714 314.030782,2.72777143 314.259459,2.49942857 C315.411083,2.49942857 317.619564,2.6352 321.022932,2.6352 C322.724617,2.6352 325.763338,2.49942857 326.406105,2.49942857 C326.684226,2.72777143 326.640962,4.01348571 326.406105,4.2912 C325.534662,4.47634286 324.753865,4.66148571 324.247068,4.84045714 C322.959474,5.256 322.681353,5.9904 322.543323,7.32548571 C322.267263,10.9090286 322.310526,14.0338286 322.174556,24.8790857 C322.174556,27.0390857 322.22194,29.7483429 322.267263,31.3117714 C321.760466,31.2192 319.092571,31.2665143 318.629038,31.3590857 C316.006466,27.6829714 304.638556,13.3426286 301.278451,9.16045714 C301.235188,9.072 301.049774,9.11725714 301.049774,9.16045714 C301.004451,14.0338286 300.957068,23.7291429 301.142481,26.3931429 C301.235188,27.864 301.741985,28.5552 303.076962,28.8761143 C303.765053,29.1044571 304.778647,29.1970286 306.066241,29.3821714 C306.296977,29.7030857 306.204271,30.9456 305.973534,31.2192 C304.68594,31.2192 302.570165,31.0813714 299.76218,31.0813714 C296.449459,31.0813714 294.514977,31.2192 293.505504,31.2192 C293.274767,31.0813714 293.32009,29.6105143 293.505504,29.3821714 C294.607684,29.2464 295.578015,29.1044571 296.309368,28.8761143 C297.368286,28.5099429 297.922466,27.864 298.011053,26.4857143 C298.24385,23.8669714 298.332436,17.1606857 298.474586,7.416 C298.474586,6.63428571 298.24385,5.57691429 297.044842,5.07085714 C296.173398,4.79725714 295.114481,4.47634286 293.367474,4.2912 C293.091414,4.06285714 293.134677,2.72777143 293.367474,2.49942857" id="Fill-8" fill="#FFFFFF" sketch:type="MSShapeGroup"></path>
                <path d="M341.358677,2.49942857 C342.603008,2.49942857 345.639669,2.6352 348.264301,2.6352 L357.557639,2.6352 C359.358211,2.6352 361.795368,2.592 362.901669,2.49942857 C362.990256,2.54262857 363.132406,2.68457143 363.132406,2.77714286 C362.808962,4.06285714 362.394872,7.36868571 362.347489,9.3456 C362.073489,9.66651429 360.507774,9.62331429 360.279098,9.43817143 C360.229654,8.15245714 360.000977,7.50857143 359.772301,6.7248 C359.401474,5.57691429 358.94206,5.16342857 357.652406,5.07085714 C356.962256,5.0256 350.932195,5.0256 350.520165,5.07085714 C350.151398,5.16342857 349.873278,5.80525714 349.873278,6.08297143 C349.873278,9.25302857 349.830015,11.9643429 349.830015,15.0418286 C349.830015,15.1344 349.965985,15.3648 350.106075,15.3648 C352.49585,15.3648 355.167865,15.4121143 357.007579,15.2269714 C357.699789,15.1344 358.070617,14.7209143 358.299293,14.0338286 C358.484707,13.4845714 358.666,12.7481143 358.80609,12.0137143 C359.265504,11.8285714 360.693188,11.9211429 360.921865,12.1947429 C360.829158,13.2500571 360.600481,14.9986286 360.600481,16.7472 C360.600481,18.3044571 360.645805,19.8246857 360.693188,21.2461714 C360.415068,21.4786286 358.80609,21.5238857 358.52797,21.2461714 C358.299293,20.1456 358.299293,19.7321143 358.070617,19.1334857 C357.885203,18.4464 357.421669,18.1254857 356.778902,18.0329143 C355.260571,17.8477714 352.22391,17.8950857 350.106075,17.8950857 C349.965985,17.8950857 349.830015,18.0761143 349.830015,18.2612571 C349.830015,21.2461714 349.830015,24.8338286 349.920662,26.6708571 C349.920662,27.4052571 350.380075,28.2774857 350.979579,28.5099429 C351.900466,28.7835429 357.743053,28.7403429 358.758707,28.7403429 C360.000977,28.7403429 360.693188,28.3700571 361.659398,26.9917714 C362.394872,26.0269714 363.268376,24.1426286 363.775173,23.0420571 C364.14188,22.9947429 365.476857,23.4082286 365.707594,23.7291429 C365.476857,25.2473143 364.510647,28.6909714 363.682466,30.3469714 C363.453789,30.8962286 363.082962,31.2665143 360.736451,31.2665143 C355.855955,31.2665143 351.393669,31.0813714 348.033564,31.0813714 C344.951579,31.0813714 341.822211,31.2192 339.885669,31.2192 C339.656992,31.0381714 339.613729,29.6598857 339.842406,29.3821714 C341.451383,29.1970286 342.924391,29.0612571 343.802015,28.8329143 C344.904195,28.5552 345.225579,27.9565714 345.318286,26.4857143 C345.410992,25.7060571 345.367729,20.88 345.367729,15.7782857 C345.367729,11.736 345.367729,7.83154286 345.318286,7.00251429 C345.225579,5.48434286 345.040165,5.07085714 343.983308,4.74994286 C343.338481,4.56891429 342.464977,4.42697143 341.222707,4.24594286 C340.99197,3.97028571 341.084677,2.72777143 341.358677,2.49942857" id="Fill-9" fill="#FFFFFF" sketch:type="MSShapeGroup"></path>
                <path d="M386.136045,28.4173714 C387.285609,29.3348571 388.94403,29.7483429 390.602451,29.7483429 C392.578135,29.7483429 395.38612,28.6477714 395.38612,25.1547429 C395.38612,22.3076571 393.639113,21.0651429 389.35812,18.6747429 C384.941158,16.2390857 382.180556,14.0790857 382.180556,9.75908571 C382.180556,4.66148571 386.319398,1.80822857 391.519218,1.80822857 C395.019414,1.80822857 396.995098,2.45417143 399.022286,2.68457143 C398.700902,4.19862857 398.422782,7.18765714 398.239429,9.43817143 C398.101398,9.75908571 396.673714,9.75908571 396.442977,9.48137143 C396.171038,7.04777143 395.800211,5.57691429 394.741293,4.79725714 C393.639113,4.01348571 392.166105,3.78514286 390.874391,3.78514286 C387.749143,3.78514286 386.228752,6.21874286 386.228752,8.19565714 C386.228752,10.8164571 387.378316,11.9211429 389.403444,13.2068571 C391.290541,14.4 393.867789,15.5046857 395.52209,16.4694857 C398.101398,17.9835429 399.852526,19.9172571 399.852526,23.2230857 C399.852526,27.6356571 396.078331,31.9104 389.22215,31.9104 C386.276135,31.9104 383.418707,30.8962286 382.22382,30.4395429 C381.809729,29.8882286 380.843519,24.7865143 380.707549,23.0873143 C380.796135,22.6717714 382.36185,22.3076571 382.63791,22.4886857 C383.511414,25.2473143 384.477624,27.2201143 386.136045,28.4173714" id="Fill-10" fill="#FFFFFF" sketch:type="MSShapeGroup"></path>
                <g id="Group-14">
                    <mask id="mask-2" sketch:name="Clip 12" fill="white">
                        <use xlink:href="#path-1"></use>
                    </mask>
                    <g id="Clip-12"></g>
                    <path d="M421.337835,28.4173714 C422.489459,29.3348571 424.14788,29.7483429 425.804241,29.7483429 C427.779925,29.7483429 430.58997,28.6477714 430.58997,25.1547429 C430.58997,22.3076571 428.842962,21.0651429 424.56197,18.6747429 C420.142947,16.2390857 417.384406,14.0790857 417.384406,9.75908571 C417.384406,4.66148571 421.523248,1.80822857 426.723068,1.80822857 C430.223263,1.80822857 432.198947,2.45417143 434.226135,2.68457143 C433.904752,4.19862857 433.626632,7.18765714 433.441218,9.43817143 C433.305248,9.75908571 431.877564,9.75908571 431.646827,9.48137143 C431.374887,7.04777143 431.00406,5.57691429 429.945143,4.79725714 C428.842962,4.01348571 427.369955,3.78514286 426.078241,3.78514286 C422.952992,3.78514286 421.430541,6.21874286 421.430541,8.19565714 C421.430541,10.8164571 422.582165,11.9211429 424.607293,13.2068571 C426.492331,14.4 429.071639,15.5046857 430.72594,16.4694857 C433.305248,17.9835429 435.056376,19.9172571 435.056376,23.2230857 C435.056376,27.6356571 431.28218,31.9104 424.426,31.9104 C421.479985,31.9104 418.622556,30.8962286 417.427669,30.4395429 C417.013579,29.8882286 416.047368,24.7865143 415.911398,23.0873143 C415.999985,22.6717714 417.563639,22.3076571 417.841759,22.4886857 C418.715263,25.2473143 419.681474,27.2201143 421.337835,28.4173714" id="Fill-11" fill="#FFFFFF" sketch:type="MSShapeGroup" mask="url(#mask-2)"></path>
                    <path d="M11.6357293,51.6816 C14.0502256,51.6816 17.3258647,51.9428571 24.9113383,51.9428571 C30.1688421,51.9428571 33.4444812,51.6816 36.0299699,51.6816 C36.4605414,52.0272 36.4605414,54.6953143 35.9434436,55.0409143 C33.9615789,55.3865143 32.4082256,55.728 31.2895639,55.9892571 C29.824797,56.4192 29.3076992,57.1906286 29.2211729,59.2601143 C29.0501805,62.9588571 29.0501805,89.4692571 28.7906015,97.2164571 C28.4465564,104.013257 27.6698797,108.8352 25.1709173,113.223086 C20.6015038,121.315886 13.2735489,125.701714 7.50100752,125.701714 C4.22536842,125.701714 1.20724812,124.411886 0.346105263,122.694171 C0.259578947,122.432914 0,121.488686 0,121.315886 C0.259578947,119.680457 1.46682707,116.064 2.06839098,114.774171 C4.65593985,116.493943 9.56733835,118.647771 12.3258797,118.647771 C14.3942707,118.647771 16.2916692,118.129371 17.7564361,116.321143 C20.084406,113.311543 20.4284511,110.470629 20.5149774,102.982629 C20.6015038,91.9645714 20.6015038,64.9357714 20.3419248,60.6342857 C20.1709323,58.3961143 19.9113534,56.8491429 17.4989173,56.1579429 C15.8590376,55.728 14.3077444,55.4708571 11.4626767,55.0409143 C11.0321053,54.5225143 11.2051579,52.0272 11.6357293,51.6816" id="Fill-13" fill="#FFFFFF" sketch:type="MSShapeGroup" mask="url(#mask-2)"></path>
                </g>
                <path d="M83.2609774,99.2818286 C88.5205414,95.2354286 90.3293534,88.3481143 90.3293534,80.5186286 C90.3293534,70.8788571 87.1402406,62.2676571 80.5024361,57.7933714 C77.4863759,55.8164571 73.9511579,54.6953143 69.5568571,54.6953143 C66.7983158,54.6953143 64.3838195,55.3865143 62.3154286,56.5035429 C56.1947218,59.8628571 53.1786617,67.4352 53.1786617,76.1266286 C53.1786617,85.5072 56.7118195,94.8898286 64.1263008,99.4546286 C67.1423609,101.258743 70.2470075,102.034286 74.3817293,102.034286 C77.8304211,102.034286 81.1060602,101.090057 83.2609774,99.2818286 L83.2609774,99.2818286 Z M51.196797,99.1090286 C45.8527669,93.3428571 43.6113233,86.2827429 43.6113233,78.1076571 C43.6113233,71.5659429 45.593188,65.9684571 49.4724511,61.0642286 C54.2128571,54.7837714 63.609203,50.3917714 72.7459699,50.3917714 C90.5889323,50.3917714 99.6371128,63.3003429 99.6371128,77.2477714 C99.6371128,85.2500571 97.8283008,90.6747429 94.2086165,95.5810286 C88.5205414,102.982629 79.7278195,106.765714 71.1081504,106.765714 C62.3154286,106.765714 55.8506767,104.013257 51.196797,99.1090286 L51.196797,99.1090286 Z" id="Fill-15" fill="#FFFFFF" sketch:type="MSShapeGroup"></path>
                <path d="M107.12782,51.7700571 C108.852165,51.7700571 115.059398,51.9428571 119.021068,51.9428571 C122.900331,51.9428571 127.813789,51.6816 130.141759,51.6816 C130.658857,52.0272 130.658857,54.6109714 130.228286,55.0409143 C128.244361,55.3865143 126.693068,55.5552 125.658872,55.8164571 C123.330902,56.5035429 122.900331,57.6246857 122.813805,60.2043429 C122.727278,70.0148571 122.813805,78.5376 122.900331,83.0962286 C122.986857,84.8201143 123.246436,88.3481143 123.503955,89.7264 C124.280632,95.3197714 129.107564,100.744457 139.362992,100.744457 C145.914271,100.744457 153.157759,99.2818286 154.107489,85.5072 C154.53806,78.8832 154.622526,70.1033143 154.191955,61.5826286 C154.107489,57.9661714 153.588331,56.592 150.312692,55.9008 C149.016857,55.5552 147.379038,55.3865143 145.22618,55.0409143 C144.707023,54.6109714 144.880075,52.1156571 145.310647,51.6816 C147.121519,51.6816 151.692992,51.9428571 156.779504,51.9428571 C160.829759,51.9428571 165.743218,51.6816 167.119398,51.6816 C167.638556,52.0272 167.723023,54.7837714 167.119398,55.0409143 L163.155669,56.0736 C160.483654,56.7606857 160.053083,58.5689143 159.88003,62.0989714 C159.360872,78.1076571 159.791444,85.7684571 157.811639,92.2217143 C154.968632,103.326171 145.310647,106.765714 136.346932,106.765714 C121.779609,106.765714 116.093594,99.9689143 115.059398,91.1890286 C114.369248,85.5956571 114.369248,62.7860571 114.282722,59.8628571 C114.196195,57.7933714 113.421579,56.5035429 111.697233,55.9892571 C110.747504,55.5552 108.765639,55.2980571 106.954767,55.0409143 C106.437669,54.6953143 106.610722,52.0272 107.12782,51.7700571" id="Fill-16" fill="#FFFFFF" sketch:type="MSShapeGroup"></path>
                <path d="M188.312165,56.0736 C188.054647,56.2464 187.624075,57.0219429 187.624075,57.4518857 C187.451023,60.6342857 187.451023,72.0802286 187.451023,78.0233143 C187.451023,78.192 187.624075,78.4532571 187.881594,78.4532571 C196.068632,78.4532571 198.483128,78.0233143 199.60591,77.4205714 C202.450977,75.9538286 204.690361,72.6829714 204.690361,68.2950857 C204.690361,60.2043429 200.813158,55.5552 191.585744,55.5552 C191.070707,55.5552 189.261895,55.728 188.312165,56.0736 L188.312165,56.0736 Z M171.420992,51.6816 C173.316331,51.6816 179.348451,51.9428571 182.282105,51.9428571 C189.346361,51.9428571 194.26188,51.8544 197.448932,51.8544 C207.704361,51.8544 213.571669,58.0546286 213.571669,65.4541714 C213.571669,72.5142857 209.257714,76.9021714 203.827158,79.3974857 C203.656165,79.4859429 203.567579,79.9158857 203.656165,80.0886857 C206.670165,84.8201143 213.052511,92.9972571 217.27788,97.5579429 C220.553519,100.917257 221.587714,101.258743 227.706361,102.295543 C228.136932,102.552686 227.706361,105.475886 227.018271,105.648686 C222.968015,105.648686 215.64006,105.648686 212.106902,103.840457 C210.811068,103.066971 209.430767,102.034286 207.704361,100.057371 C204.428722,96.0109714 199.690376,88.6937143 196.414737,83.8717714 C195.899699,83.1846857 194.94997,82.8390857 194.26188,82.7547429 C193.139098,82.5819429 189.088842,82.5819429 187.797128,82.5819429 C187.708541,82.5819429 187.451023,82.9275429 187.451023,83.0962286 C187.451023,87.8338286 187.451023,95.3197714 187.624075,97.5579429 C187.797128,99.8845714 188.485218,100.8288 190.726662,101.258743 C192.104902,101.604343 193.658256,101.777143 195.984165,102.034286 C196.414737,102.464229 196.241684,105.130286 195.726647,105.475886 C193.742722,105.475886 190.038571,105.218743 183.054662,105.218743 C177.368647,105.218743 173.227744,105.475886 171.24794,105.475886 C170.728782,104.873143 170.728782,102.552686 171.24794,102.034286 C173.227744,101.861486 174.608045,101.604343 175.899759,101.3472 C177.972271,100.917257 178.833414,100.057371 179.006466,96.6980571 C179.175398,94.9782857 179.263985,84.0445714 179.263985,79.2246857 C179.263985,67.6923429 179.263985,61.9261714 179.175398,59.9472 C179.090932,57.3634286 178.571774,56.5035429 176.245865,55.9008 C174.781098,55.5552 173.143278,55.2980571 171.159353,55.0409143 C170.728782,54.5225143 170.901835,52.0272 171.420992,51.6816 L171.420992,51.6816 Z" id="Fill-17" fill="#FFFFFF" sketch:type="MSShapeGroup"></path>
                <path d="M226.659805,51.6816 C229.33182,51.6816 233.814707,51.9428571 239.329729,51.9428571 L243.297579,51.9428571 C243.643684,53.0598857 243.985669,53.7510857 246.227113,56.592 C254.587203,67.2624 270.878872,86.9698286 275.446226,92.3945143 C275.619278,92.4788571 275.792331,92.3945143 275.792331,92.2217143 C275.792331,80.0886857 275.876797,67.3467429 275.534812,60.7227429 C275.361759,58.0546286 274.842602,56.9334857 272.08612,56.2464 C270.359714,55.8164571 268.293383,55.3865143 265.794421,55.0409143 C265.36385,54.6109714 265.36385,52.1156571 265.794421,51.6816 C267.945218,51.6816 272.08612,51.9428571 278.464346,51.9428571 C281.655519,51.9428571 287.343594,51.6816 288.550842,51.6816 C289.06588,52.1156571 288.981414,54.5225143 288.550842,55.0409143 C286.913023,55.3865143 285.446195,55.728 284.500586,56.0736 C282.08609,56.8491429 281.566932,58.2274286 281.309414,60.7227429 C280.790256,67.4352 280.878842,73.2857143 280.617203,93.6 C280.617203,97.6464 280.705789,102.725486 280.790256,105.648686 C279.844647,105.475886 274.842602,105.564343 273.981459,105.733029 C269.068,98.8518857 247.778406,71.9958857 241.486707,64.1643429 C241.402241,63.9915429 241.056135,64.0758857 241.056135,64.1643429 C240.967549,73.2857143 240.883083,91.4461714 241.229188,96.4409143 C241.402241,99.1933714 242.34785,100.487314 244.846812,101.090057 C246.142647,101.52 248.035925,101.6928 250.450421,102.034286 C250.880992,102.637029 250.70794,104.9616 250.277368,105.475886 C247.862872,105.475886 243.901203,105.218743 238.641639,105.218743 C232.438526,105.218743 228.816782,105.475886 226.921444,105.475886 C226.490872,105.218743 226.575338,102.464229 226.921444,102.034286 C228.989835,101.777143 230.800707,101.52 232.176887,101.090057 C234.160812,100.398857 235.192947,99.1933714 235.366,96.6137143 C235.796571,91.7074286 235.969624,79.1403429 236.227143,60.8955429 C236.227143,59.4288 235.796571,57.4518857 233.557188,56.5035429 C231.919368,55.9892571 229.935444,55.3865143 226.659805,55.0409143 C226.144767,54.6109714 226.231293,52.1156571 226.659805,51.6816" id="Fill-18" fill="#FFFFFF" sketch:type="MSShapeGroup"></path>
                <path d="M316.552406,62.1833143 C315.087639,66.744 311.985053,74.664 310.345173,79.8274286 C310.345173,80.0886857 310.431699,80.3458286 310.689218,80.4301714 C311.638947,80.5186286 314.999053,80.5186286 317.502135,80.5186286 C319.654992,80.5186286 322.069489,80.5186286 323.18815,80.4301714 C323.449789,80.4301714 323.707308,80.0002286 323.618722,79.5702857 C321.980902,75.0939429 318.536331,65.5385143 317.067444,62.0989714 C316.982977,62.0989714 316.725459,62.0105143 316.552406,62.1833143 L316.552406,62.1833143 Z M299.830165,93.6843429 C303.624962,84.6473143 311.985053,63.0432 313.880391,57.4518857 C314.568481,55.4708571 315.345158,53.2326857 315.602677,51.8544 C316.033248,51.9428571 317.15603,51.9428571 318.79385,51.9428571 C320.862241,51.9428571 321.81197,51.9428571 322.242541,51.8544 C322.673113,53.5782857 323.18815,55.2137143 323.791774,56.9334857 C325.51818,61.7533714 335.085519,86.8854857 338.445624,94.5483429 C341.206226,100.660114 341.894316,101.1744 348.445594,102.034286 C348.960632,102.379886 348.618647,105.045943 348.272541,105.475886 C346.031098,105.391543 341.894316,105.218743 336.980857,105.218743 C331.80988,105.218743 326.206271,105.475886 324.483985,105.475886 C324.13788,105.045943 324.053414,102.464229 324.483985,102.034286 C326.379323,101.777143 328.190195,101.52 329.48191,101.090057 C330.516105,100.660114 330.689158,99.5389714 330.516105,98.9362286 C329.397444,95.3197714 327.156,89.4692571 325.775699,86.1099429 C325.602647,85.68 325.087609,85.5072 324.914556,85.5072 C323.361203,85.4228571 319.397474,85.4228571 316.206301,85.4228571 C310.689218,85.4228571 310.17418,85.4228571 309.226511,85.5072 C308.79594,85.5072 308.192316,86.1099429 308.192316,86.2827429 C306.381444,91.1890286 304.14,96.7865143 304.14,98.5062857 C304.14,100.141714 304.486105,100.744457 306.985068,101.3472 C308.10785,101.604343 310.003188,101.861486 311.550361,102.034286 C311.896466,102.464229 311.723414,105.045943 311.292842,105.475886 C309.572617,105.475886 305.089729,105.218743 299.311008,105.218743 C293.709459,105.218743 290.864391,105.475886 289.228632,105.475886 C288.886647,105.045943 288.886647,102.464229 289.228632,102.034286 C295.608917,101.1744 296.812045,100.660114 299.830165,93.6843429 L299.830165,93.6843429 Z" id="Fill-19" fill="#FFFFFF" sketch:type="MSShapeGroup"></path>
                <path d="M351.193835,51.6816 C354.123368,51.6816 357.054962,51.9428571 363.260135,51.9428571 C369.984466,51.9428571 373.087053,51.7700571 374.984451,51.6816 C375.499489,52.2 375.415023,54.4381714 374.984451,55.0409143 C372.572015,55.2980571 371.107248,55.728 369.9,55.9008 C367.831609,56.4192 367.56997,57.6246857 367.485504,59.1716571 C367.312451,62.5289143 367.227985,68.0379429 367.227985,76.9021714 C367.227985,90.072 367.227985,94.5483429 367.485504,97.9035429 C367.56997,99.2818286 368.950271,100.141714 369.296376,100.314514 C371.883925,101.0016 379.294286,100.917257 383.342481,100.917257 C385.24194,100.917257 386.879759,100.398857 388.775098,97.3851429 C390.412917,94.8898286 392.396842,90.9318857 393.861609,87.5725714 C394.722752,87.4882286 396.877669,88.3481143 397.392707,89.0393143 C396.789083,92.5673143 394.207714,101.6928 392.481308,104.527543 C392.223789,105.303086 391.27406,105.648686 388.690632,105.648686 C382.569925,105.648686 367.916075,105.218743 363.348722,105.218743 C358.865835,105.218743 350.936316,105.475886 349.382962,105.475886 C348.867925,105.130286 348.779338,102.379886 349.298496,102.034286 C352.485549,101.6928 354.123368,101.604343 356.020767,101.090057 C358.089158,100.487314 358.435263,99.2818286 358.608316,97.9035429 C358.777248,95.4925714 358.865835,82.3248 358.865835,77.3321143 C358.865835,68.2950857 358.950301,62.9588571 358.777248,60.5499429 C358.692782,57.3634286 358.262211,56.3307429 356.107293,55.9008 C354.986571,55.6436571 352.920241,55.2980571 350.936316,55.0409143 C350.505744,54.4381714 350.678797,52.1156571 351.193835,51.6816" id="Fill-20" fill="#FFFFFF" sketch:type="MSShapeGroup"></path>
                <path d="M412.901519,100.226057 C415.054376,101.949943 418.161083,102.725486 421.261609,102.725486 C424.96782,102.725486 430.227383,100.660114 430.227383,94.1142857 C430.227383,88.7780571 426.951744,86.4555429 418.933639,81.9812571 C410.660075,77.4205714 405.489098,73.3741714 405.489098,65.2813714 C405.489098,55.728 413.247624,50.3917714 422.983895,50.3917714 C429.535173,50.3917714 433.241383,51.5972571 437.03618,52.0272 C436.432556,54.8681143 435.917519,60.4614857 435.571414,64.6786286 C435.313895,65.2813714 432.64188,65.2813714 432.207188,64.7670857 C431.69215,60.2043429 430.99994,57.4518857 429.020135,55.9892571 C426.951744,54.5225143 424.191143,54.0925714 421.776647,54.0925714 C415.919639,54.0925714 413.074571,58.6573714 413.074571,62.3561143 C413.074571,67.2624 415.227429,69.3277714 419.020165,71.7387429 C422.553323,73.9769143 427.382316,76.0422857 430.484902,77.8505143 C435.313895,80.6914286 438.589534,84.3017143 438.589534,90.5019429 C438.589534,98.7634286 431.519098,106.765714 418.67612,106.765714 C413.159038,106.765714 407.815008,104.873143 405.573564,104.013257 C404.796887,102.982629 402.986015,93.4272 402.728496,90.2406857 C402.901549,89.4692571 405.831083,88.7780571 406.350241,89.1236571 C407.98806,94.2870857 409.798932,97.9878857 412.901519,100.226057" id="Fill-21" fill="#FFFFFF" sketch:type="MSShapeGroup"></path>
                <path d="M222.302586,124.272 C221.892617,125.345829 220.613263,129.145371 220.230075,130.270629 C220.230075,130.371429 220.254797,130.422857 220.335143,130.447543 C220.56588,130.476343 221.200406,130.476343 222.580707,130.476343 C223.143128,130.476343 224.142301,130.476343 224.27003,130.447543 C224.294752,130.447543 224.346256,130.371429 224.319474,130.270629 C223.707609,128.330743 222.786722,125.368457 222.403534,124.247314 C222.378812,124.247314 222.302586,124.247314 222.302586,124.272 L222.302586,124.272 Z M217.446812,135.296229 C219.004286,131.624229 221.305474,125.064 221.867895,123.533486 C222.045068,123.023314 222.174857,122.589257 222.226361,122.260114 C222.251083,122.260114 222.455038,122.282743 222.813504,122.282743 C223.196692,122.282743 223.373865,122.260114 223.400647,122.260114 C223.45009,122.488457 223.555158,122.893714 223.707609,123.381257 C224.167023,124.658743 227.131579,133.946743 227.900015,135.8352 C228.563383,137.338971 228.664331,137.415086 230.378376,137.618743 C230.42782,137.696914 230.403098,137.954057 230.326872,138.001371 C229.686165,137.976686 228.229639,137.925257 227.642496,137.925257 C227.030632,137.925257 225.341308,137.954057 224.805669,138.001371 C224.780947,137.954057 224.754165,137.672229 224.805669,137.618743 C225.316586,137.542629 225.726556,137.4912 226.085023,137.365714 C226.490872,137.184686 226.490872,137.009829 226.391985,136.651886 C226.109744,135.553371 225.139414,132.821486 224.653218,131.420571 C224.653218,131.420571 224.500767,131.290971 224.471925,131.290971 C224.218526,131.268343 223.682887,131.268343 222.098632,131.268343 C220.384586,131.268343 220.254797,131.268343 220.001398,131.290971 C219.925173,131.290971 219.820105,131.391771 219.795383,131.467886 C219.284466,132.798857 218.23997,135.602743 218.134902,136.345371 C218.058677,136.804114 218.033955,137.213486 218.874496,137.415086 C219.185579,137.4912 219.414256,137.542629 219.949895,137.618743 C220.001398,137.672229 219.976677,137.954057 219.925173,138.001371 C219.465759,138.001371 218.134902,137.925257 217.01212,137.925257 C215.759549,137.925257 214.991113,138.001371 214.609985,138.001371 C214.533759,137.976686 214.533759,137.672229 214.609985,137.618743 C216.396135,137.3904 216.653654,137.184686 217.446812,135.296229 L217.446812,135.296229 Z" id="Fill-22" fill="#FFFFFF" sketch:type="MSShapeGroup"></path>
                <path d="M238.763188,136.904914 C239.249383,137.184686 240.372165,137.365714 241.933759,137.365714 C243.312,137.365714 244.793248,137.085943 245.996376,135.960686 C247.248947,134.786057 248.064767,133.128 248.064767,130.165714 C248.064767,127.590171 247.271609,125.444571 245.180556,123.967543 C243.977429,123.124114 242.21394,122.792914 239.988977,122.792914 C239.453338,122.792914 238.78997,122.8464 238.532451,122.922514 C238.404722,122.969829 238.227549,123.074743 238.202827,123.48 C238.151323,124.095086 238.151323,127.690971 238.151323,129.912686 C238.151323,132.2352 238.151323,135.121371 238.202827,135.936 C238.227549,136.318629 238.355278,136.674514 238.763188,136.904914 L238.763188,136.904914 Z M234.54606,122.206629 C235.184707,122.231314 236.641233,122.282743 237.304602,122.282743 C238.991865,122.282743 240.094045,122.179886 242.086211,122.179886 C244.311173,122.179886 246.227113,122.770286 247.582692,123.967543 C249.191669,125.397257 249.908602,127.386514 249.908602,129.735771 C249.908602,133.562057 247.887594,135.654171 246.202391,136.674514 C244.640797,137.618743 242.930872,138.106286 240.806857,138.106286 C239.350331,138.106286 238.637519,138.030171 236.46406,138.001371 C236.18388,138.001371 234.879805,137.976686 234.292662,138.001371 C234.216436,137.976686 234.216436,137.618743 234.292662,137.618743 C234.803579,137.542629 235.260932,137.4912 235.64412,137.3904 C236.078812,137.262857 236.412556,137.162057 236.488782,136.088229 C236.565008,134.3808 236.565008,131.901943 236.565008,129.785143 C236.565008,128.511771 236.565008,125.191543 236.513504,124.3008 C236.46406,123.251657 236.387835,122.9472 235.720346,122.792914 C235.415444,122.7168 235.056977,122.640686 234.496617,122.589257 C234.445113,122.535771 234.496617,122.231314 234.54606,122.206629 L234.54606,122.206629 Z" id="Fill-23" fill="#FFFFFF" sketch:type="MSShapeGroup"></path>
                <path d="M251.902827,122.206629 C252.366361,122.206629 253.695158,122.282743 254.869444,122.282743 C255.942782,122.282743 256.711218,122.206629 257.323083,122.206629 C257.376647,122.282743 257.399308,122.513143 257.347805,122.589257 C256.964617,122.640686 256.531985,122.690057 256.301248,122.741486 C255.738827,122.893714 255.63788,123.280457 255.586376,124.068343 C255.532812,125.140114 255.50809,127.690971 255.50809,129.912686 C255.50809,132.311314 255.532812,135.144 255.561654,135.987429 C255.609038,136.779429 255.685263,137.213486 256.32597,137.3904 C256.684436,137.4912 257.14591,137.567314 257.630045,137.618743 C257.706271,137.696914 257.656827,137.954057 257.605323,138.001371 C257.065564,138.001371 256.148797,137.925257 255.021895,137.925257 C253.771383,137.925257 253.260466,138.001371 251.931669,138.001371 C251.855444,137.925257 251.880165,137.672229 251.931669,137.618743 C252.290135,137.596114 252.772211,137.52 253.083293,137.441829 C253.71782,137.314286 253.822887,136.931657 253.874391,136.345371 C253.923835,135.730286 253.952677,131.315657 253.952677,129.198857 C253.952677,127.285714 253.952677,125.292343 253.899113,124.119771 C253.822887,123.5088 253.847609,122.969829 253.260466,122.8176 C252.978226,122.741486 252.49615,122.665371 251.880165,122.589257 C251.80394,122.535771 251.855444,122.260114 251.902827,122.206629" id="Fill-24" fill="#FFFFFF" sketch:type="MSShapeGroup"></path>
                <path d="M257.733053,122.206629 C258.221308,122.206629 259.420316,122.282743 260.470992,122.282743 C261.95018,122.282743 262.615609,122.231314 263.153308,122.206629 C263.229534,122.260114 263.229534,122.535771 263.153308,122.589257 L262.026406,122.8176 C261.645278,122.893714 261.515489,123.150857 261.645278,123.5088 C262.514662,125.932114 265.732617,134.405486 266.19615,135.477257 C266.243534,135.450514 266.243534,135.501943 266.297098,135.477257 C266.630842,134.786057 269.978586,126.442286 270.771744,124.224686 C271.047805,123.403886 271.025143,122.9472 270.258767,122.792914 C269.848797,122.7168 269.591278,122.665371 269.057699,122.589257 C269.032977,122.535771 269.057699,122.260114 269.109203,122.206629 C269.721068,122.206629 270.590451,122.282743 271.663789,122.282743 C272.76185,122.282743 273.606511,122.206629 274.065925,122.206629 C274.090647,122.282743 274.090647,122.535771 274.065925,122.589257 C273.761023,122.611886 273.348992,122.690057 273.04409,122.770286 C272.304496,122.9472 272.069639,123.381257 271.305323,125.191543 C270.565729,126.927771 268.416992,132.1344 267.166481,135.2448 C266.731789,136.370057 266.424827,137.2896 266.19615,138.106286 C265.91391,138.0528 265.427714,138.0528 265.221699,138.106286 C264.939459,137.108571 264.583053,135.936 264.072135,134.6112 C262.796902,131.163429 260.928346,126.211886 260.112526,124.247314 C259.653113,123.124114 259.370872,122.8464 258.756947,122.741486 L257.685669,122.589257 C257.634165,122.513143 257.656827,122.231314 257.733053,122.206629" id="Fill-25" fill="#FFFFFF" sketch:type="MSShapeGroup"></path>
                <path d="M273.969098,122.206629 C274.428511,122.206629 275.755248,122.282743 276.931594,122.282743 C278.004932,122.282743 278.773368,122.206629 279.385233,122.206629 C279.438797,122.282743 279.461459,122.513143 279.414075,122.589257 C279.026767,122.640686 278.594135,122.690057 278.363398,122.741486 C277.800977,122.893714 277.70003,123.280457 277.646466,124.068343 C277.599083,125.140114 277.570241,127.690971 277.570241,129.912686 C277.570241,132.311314 277.599083,135.144 277.623805,135.987429 C277.675308,136.779429 277.751534,137.213486 278.392241,137.3904 C278.746586,137.4912 279.20806,137.567314 279.692195,137.618743 C279.772541,137.696914 279.718977,137.954057 279.667474,138.001371 C279.131835,138.001371 278.210947,137.925257 277.088165,137.925257 C275.833534,137.925257 275.322617,138.001371 273.99382,138.001371 C273.917594,137.925257 273.942316,137.672229 273.99382,137.618743 C274.352286,137.596114 274.838481,137.52 275.145444,137.441829 C275.78409,137.314286 275.885038,136.931657 275.936541,136.345371 C275.985985,135.730286 276.012767,131.315657 276.012767,129.198857 C276.012767,127.285714 276.012767,125.292343 275.961263,124.119771 C275.885038,123.5088 275.909759,122.969829 275.322617,122.8176 C275.040376,122.741486 274.556241,122.665371 273.942316,122.589257 C273.86403,122.535771 273.917594,122.260114 273.969098,122.206629" id="Fill-26" fill="#FFFFFF" sketch:type="MSShapeGroup"></path>
                <path d="M283.373684,137.133257 C284.016451,137.596114 284.805489,137.773029 285.932391,137.773029 C287.516647,137.773029 288.870165,136.804114 288.870165,134.763429 C288.870165,132.951086 287.642316,132.006857 285.392632,130.628571 C283.478752,129.456 281.892436,128.125029 281.892436,125.983543 C281.892436,123.432686 283.964947,121.826057 286.620481,121.826057 C288.10585,121.826057 289.07412,122.101714 290.095955,122.206629 C289.943504,123.023314 289.766331,124.224686 289.661263,125.421943 C289.609759,125.498057 289.280135,125.498057 289.228632,125.444571 C289.127684,123.685714 288.845444,123.124114 288.233579,122.770286 C287.69382,122.459657 287.106677,122.336229 286.262015,122.336229 C284.370797,122.336229 283.373684,123.685714 283.348962,125.191543 C283.324241,126.670629 284.092677,127.567543 285.087729,128.306057 C286.06218,128.993143 287.259128,129.608229 288.000782,130.0896 C289.098842,130.834286 290.479143,131.877257 290.479143,133.841829 C290.479143,136.318629 288.486977,138.386057 285.192797,138.386057 C283.812496,138.386057 282.35185,137.976686 281.816211,137.618743 C281.558692,137.262857 281.305293,134.915657 281.251729,134.177143 C281.305293,134.072229 281.610195,134.022857 281.663759,134.072229 C282.073729,135.631543 282.584647,136.623086 283.373684,137.133257" id="Fill-27" fill="#FFFFFF" sketch:type="MSShapeGroup"></path>
                <path d="M291.939789,122.206629 C292.403323,122.206629 293.73006,122.282743 294.904346,122.282743 C295.979744,122.282743 296.74406,122.206629 297.360045,122.206629 C297.407429,122.282743 297.436271,122.513143 297.384767,122.589257 C297.001579,122.640686 296.566887,122.690057 296.338211,122.741486 C295.773729,122.893714 295.672782,123.280457 295.621278,124.068343 C295.569774,125.140114 295.545053,127.690971 295.545053,129.912686 C295.545053,132.311314 295.569774,135.144 295.596556,135.987429 C295.646,136.779429 295.726346,137.213486 296.362932,137.3904 C296.719338,137.4912 297.178752,137.567314 297.664947,137.618743 C297.741173,137.696914 297.689669,137.954057 297.642286,138.001371 C297.102526,138.001371 296.183699,137.925257 295.058857,137.925257 C293.806286,137.925257 293.295368,138.001371 291.968632,138.001371 C291.890346,137.925257 291.915068,137.672229 291.968632,137.618743 C292.325038,137.596114 292.809173,137.52 293.118195,137.441829 C293.754782,137.314286 293.85985,136.931657 293.911353,136.345371 C293.958737,135.730286 293.987579,131.315657 293.987579,129.198857 C293.987579,127.285714 293.987579,125.292343 293.936075,124.119771 C293.85985,123.5088 293.882511,122.969829 293.295368,122.8176 C293.015188,122.741486 292.531053,122.665371 291.915068,122.589257 C291.838842,122.535771 291.890346,122.260114 291.939789,122.206629" id="Fill-28" fill="#FFFFFF" sketch:type="MSShapeGroup"></path>
                <path d="M311.290782,136.5984 C313.027489,135.197486 313.639353,133.078629 313.639353,130.628571 C313.639353,127.9728 312.693744,125.216229 310.520286,123.714514 C309.552015,122.998629 308.348887,122.564571 306.867639,122.564571 C305.870526,122.564571 305.027925,122.792914 304.313053,123.175543 C302.292045,124.325486 301.422662,126.775543 301.422662,129.4272 C301.422662,132.006857 302.421835,135.0432 304.795128,136.5984 C305.716015,137.213486 306.867639,137.567314 308.272662,137.567314 C309.475789,137.567314 310.549128,137.213486 311.290782,136.5984 L311.290782,136.5984 Z M301.758466,135.987429 C300.273098,134.329371 299.585008,132.1344 299.585008,129.937371 C299.585008,128.125029 300.120647,126.5472 300.99003,125.216229 C302.392992,123.150857 305.258662,121.826057 307.737023,121.826057 C312.76997,121.826057 315.324556,125.650286 315.324556,129.811886 C315.324556,131.953371 314.813639,133.537371 313.820647,134.991771 C312.36,137.213486 309.780692,138.386057 307.277609,138.386057 C305.077368,138.386057 303.033699,137.3904 301.758466,135.987429 L301.758466,135.987429 Z" id="Fill-29" fill="#FFFFFF" sketch:type="MSShapeGroup"></path>
                <path d="M316.867609,122.206629 C317.224015,122.206629 318.400361,122.282743 319.191459,122.282743 C319.702376,122.282743 320.03406,122.282743 320.266857,122.260114 C320.343083,122.412343 320.571759,122.792914 321.25985,123.634286 C324.226466,127.256914 330.281248,134.5824 331.204195,135.631543 L331.280421,135.578057 C331.280421,132.1344 331.331925,126.008229 331.179474,124.224686 C331.12797,123.533486 331.027023,123.074743 330.31009,122.8464 C329.875398,122.7168 329.335639,122.640686 328.748496,122.589257 C328.672271,122.535771 328.723774,122.260114 328.777338,122.206629 C329.415985,122.206629 330.487263,122.282743 331.690391,122.282743 C332.407323,122.282743 333.73406,122.206629 334.016301,122.206629 C334.063684,122.260114 334.063684,122.535771 334.016301,122.589257 C333.552767,122.665371 333.350872,122.690057 333.017128,122.792914 C332.378481,122.969829 332.22603,123.5088 332.201308,124.095086 C332.071519,125.983543 332.096241,131.268343 332.048857,134.687314 C332.048857,135.8352 332.071519,137.262857 332.096241,138.0528 C331.867564,138.030171 331.074406,138.030171 330.821008,138.0528 C329.541654,136.141714 321.441143,126.290057 320.291579,124.887086 C320.266857,124.858286 320.190632,124.887086 320.190632,124.911771 C320.161789,127.437943 320.161789,134.199771 320.215353,135.678857 C320.266857,136.956343 320.647985,137.238171 321.183624,137.3904 C321.54209,137.52 322.08185,137.567314 322.539203,137.618743 C322.617489,137.647543 322.563925,137.976686 322.516541,138.001371 C322.028286,138.001371 320.930226,137.925257 319.62615,137.925257 C318.476586,137.925257 317.658707,138.001371 317.147789,138.001371 C317.096286,137.954057 317.096286,137.647543 317.147789,137.618743 C317.631925,137.567314 317.864722,137.542629 318.194346,137.441829 C318.781489,137.2896 319.191459,137.009829 319.245023,135.678857 C319.292406,134.506286 319.397474,129.811886 319.444857,124.453029 C319.444857,124.224686 319.321248,123.737143 318.987504,123.381257 C318.451865,122.770286 317.864722,122.7168 316.814045,122.589257 C316.789323,122.535771 316.814045,122.260114 316.867609,122.206629" id="Fill-30" fill="#FFFFFF" sketch:type="MSShapeGroup"></path>
                <path d="M351.502857,136.5984 C353.241624,135.197486 353.853489,133.078629 353.853489,130.628571 C353.853489,127.9728 352.90788,125.216229 350.734421,123.714514 C349.76409,122.998629 348.565083,122.564571 347.081774,122.564571 C346.082602,122.564571 345.24206,122.792914 344.525128,123.175543 C342.50618,124.325486 341.636797,126.775543 341.636797,129.4272 C341.636797,132.006857 342.63391,135.0432 345.013383,136.5984 C345.93015,137.213486 347.081774,137.567314 348.484737,137.567314 C349.687865,137.567314 350.763263,137.213486 351.502857,136.5984 L351.502857,136.5984 Z M341.970541,135.987429 C340.485173,134.329371 339.797083,132.1344 339.797083,129.937371 C339.797083,128.125029 340.332722,126.5472 341.202105,125.216229 C342.611248,123.150857 345.470737,121.826057 347.949098,121.826057 C352.984105,121.826057 355.542812,125.650286 355.542812,129.811886 C355.542812,131.953371 355.027774,133.537371 354.034782,134.991771 C352.578256,137.213486 349.994827,138.386057 347.491744,138.386057 C345.293564,138.386057 343.245774,137.3904 341.970541,135.987429 L341.970541,135.987429 Z" id="Fill-31" fill="#FFFFFF" sketch:type="MSShapeGroup"></path>
                <path d="M357.56588,122.206629 C358.000571,122.206629 358.999744,122.282743 360.274977,122.282743 L365.872406,122.282743 C366.945744,122.282743 367.557609,122.231314 368.043805,122.101714 C368.097368,122.101714 368.097368,122.1552 368.12003,122.206629 C367.891353,122.8176 367.786286,124.272 367.71006,125.574171 C367.687398,125.6256 367.328932,125.650286 367.275368,125.602971 C367.227985,124.706057 367.046692,124.068343 366.970466,123.837943 C366.818015,123.327771 366.408045,123.023314 365.872406,122.998629 C365.025684,122.9472 361.935459,122.9472 361.525489,122.998629 C361.325654,123.023314 361.220586,123.251657 361.220586,123.457371 C361.167023,124.500343 361.167023,128.077714 361.167023,129.709029 C361.167023,129.760457 361.245308,129.785143 361.296812,129.785143 C361.859233,129.811886 364.673398,129.785143 365.38415,129.760457 C366.329759,129.735771 366.564617,129.379886 366.688226,129.069257 C366.840677,128.711314 366.945744,128.254629 367.02197,127.925486 C367.075534,127.872 367.405158,127.925486 367.43194,127.9728 C367.351594,128.458286 367.252707,129.379886 367.252707,130.346743 C367.252707,131.214857 367.304211,131.877257 367.304211,132.3648 C367.275368,132.440914 366.945744,132.4656 366.894241,132.440914 C366.818015,131.877257 366.741789,131.648914 366.640842,131.367086 C366.486331,130.933029 366.177308,130.653257 365.818842,130.628571 C364.850571,130.552457 361.67794,130.523657 361.27209,130.577143 C361.220586,130.577143 361.167023,130.68 361.167023,130.704686 C361.167023,132.2352 361.167023,134.915657 361.220586,135.936 C361.27209,136.728 361.296812,137.238171 362.036406,137.415086 C362.394872,137.4912 362.78218,137.542629 363.492932,137.618743 C363.521774,137.696914 363.546496,137.900571 363.492932,138.001371 C362.829564,138.001371 361.67794,137.925257 360.375925,137.925257 C359.123353,137.925257 358.231308,138.001371 357.489654,138.001371 C357.43815,137.954057 357.462872,137.672229 357.489654,137.618743 C358.076797,137.567314 358.435263,137.52 358.717504,137.441829 C359.380872,137.2896 359.510662,136.956343 359.533323,135.936 C359.558045,134.991771 359.586887,133.204114 359.586887,129.966171 C359.586887,127.256914 359.586887,124.9632 359.533323,124.247314 C359.48182,123.457371 359.533323,123.099429 358.970902,122.8176 C358.666,122.690057 358.282812,122.665371 357.56588,122.564571 C357.514376,122.564571 357.514376,122.231314 357.56588,122.206629" id="Fill-32" fill="#FFFFFF" sketch:type="MSShapeGroup"></path>
                <path d="M382.256782,125.168914 C381.826211,126.5184 380.905323,128.867657 380.417068,130.400229 C380.417068,130.476343 380.44591,130.552457 380.522135,130.577143 C380.800256,130.599771 381.797368,130.599771 382.536962,130.599771 C383.177669,130.599771 383.894602,130.599771 384.228346,130.577143 C384.304571,130.577143 384.380797,130.447543 384.351955,130.324114 C383.86988,128.993143 382.848045,126.160457 382.413353,125.140114 C382.384511,125.140114 382.308286,125.115429 382.256782,125.168914 L382.256782,125.168914 Z M377.30006,134.506286 C378.424902,131.825829 380.905323,125.421943 381.467744,123.761829 C381.669639,123.175543 381.902436,122.513143 381.978662,122.101714 C382.104331,122.130514 382.438075,122.130514 382.924271,122.130514 C383.536135,122.130514 383.818376,122.130514 383.946105,122.101714 C384.071774,122.611886 384.228346,123.099429 384.405519,123.6096 C384.916436,125.039314 387.753263,132.488229 388.750376,134.763429 C389.568256,136.575771 389.772211,136.728 391.716992,136.981029 C391.869444,137.085943 391.764376,137.875886 391.663429,138.001371 C391.00006,137.976686 389.772211,137.925257 388.315684,137.925257 C386.782932,137.925257 385.120391,138.001371 384.609474,138.001371 C384.506466,137.875886 384.481744,137.108571 384.609474,136.981029 C385.173955,136.904914 385.709594,136.8288 386.090722,136.6992 C386.397684,136.575771 386.449188,136.240457 386.397684,136.0656 C386.066,134.991771 385.402632,133.255543 384.992662,132.259886 C384.941158,132.1344 384.786647,132.082971 384.739263,132.082971 C384.275729,132.058286 383.101444,132.058286 382.155835,132.058286 C380.522135,132.058286 380.365564,132.058286 380.087444,132.082971 C379.959714,132.082971 379.778421,132.259886 379.778421,132.311314 C379.242782,133.765714 378.579414,135.425829 378.579414,135.936 C378.579414,136.421486 378.678301,136.5984 379.419955,136.779429 C379.753699,136.855543 380.31612,136.931657 380.775534,136.981029 C380.880602,137.108571 380.829098,137.875886 380.699308,138.001371 C380.188391,138.001371 378.859594,137.925257 377.145549,137.925257 C375.489188,137.925257 374.642466,138.001371 374.156271,138.001371 C374.055323,137.875886 374.055323,137.108571 374.156271,136.981029 C376.047489,136.728 376.405955,136.575771 377.30006,134.506286 L377.30006,134.506286 Z" id="Fill-33" fill="#FFFFFF" sketch:type="MSShapeGroup"></path>
                <path d="M403.989308,123.381257 C403.19615,123.023314 402.044526,122.869029 400.870241,122.869029 C397.240256,122.869029 395.326376,125.574171 395.326376,129.735771 C395.326376,133.204114 397.29382,136.981029 401.968301,136.981029 C403.373323,136.981029 404.242707,136.522286 404.627955,136.269257 C405.215098,135.8352 405.956752,134.810743 406.696346,133.613486 C406.902361,133.5888 407.464782,133.92 407.541008,134.148343 C407.337053,135.121371 406.160707,137.238171 405.544722,137.672229 C404.82985,137.954057 403.014857,138.386057 401.457383,138.386057 C395.602436,138.386057 392.435985,135.197486 392.435985,129.966171 C392.435985,127.1808 393.74006,124.376914 396.548045,122.8464 C397.928346,122.101714 399.590887,121.667657 401.710782,121.667657 C404.141759,121.667657 405.880526,122.130514 407.054812,122.206629 C406.902361,123.226971 406.696346,125.140114 406.671624,126.341486 C406.543895,126.493714 405.649789,126.594514 405.623008,126.4176 C405.340767,124.348114 405.035865,123.891429 403.989308,123.381257" id="Fill-34" fill="#FFFFFF" sketch:type="MSShapeGroup"></path>
                <path d="M414.522857,123.303086 C414.42191,123.327771 414.29418,123.584914 414.29418,123.714514 C414.269459,124.629943 414.240617,127.028571 414.240617,128.688686 C414.240617,128.740114 414.316842,128.816229 414.370406,128.816229 C414.70415,128.840914 415.51997,128.867657 416.20806,128.867657 C417.182511,128.867657 417.740812,128.740114 418.051895,128.587886 C418.867714,128.178514 419.250902,127.285714 419.250902,126.312686 C419.250902,124.095086 417.71815,123.251657 415.443744,123.251657 C415.291293,123.251657 414.856602,123.251657 414.522857,123.303086 L414.522857,123.303086 Z M420.324241,133.512686 C420.324241,131.268343 418.686421,129.9888 415.697143,129.9888 C415.573534,129.9888 414.627925,129.966171 414.393068,130.013486 C414.316842,130.042286 414.240617,130.0896 414.240617,130.143086 C414.240617,131.749714 414.215895,134.329371 414.29418,135.349714 C414.345684,135.783771 414.650586,136.394743 415.033774,136.575771 C415.443744,136.804114 416.360511,136.855543 417.001218,136.855543 C418.762647,136.855543 420.324241,135.859886 420.324241,133.512686 L420.324241,133.512686 Z M409.541414,122.0544 C409.77009,122.0544 410.816647,122.130514 412.555414,122.130514 C414.193233,122.130514 415.51997,122.079086 417.106286,122.079086 C419.073729,122.079086 421.780767,122.792914 421.780767,125.7552 C421.780767,127.2096 420.758932,128.382171 419.432195,128.945829 C419.35597,128.968457 419.35597,129.021943 419.432195,129.046629 C421.323414,129.532114 422.983895,130.704686 422.983895,132.951086 C422.983895,135.144 421.628316,136.522286 419.660872,137.3904 C418.457744,137.925257 416.976496,138.106286 415.468466,138.106286 C414.316842,138.106286 410.86815,137.976686 409.156165,138.001371 C408.976932,137.925257 408.95015,137.108571 409.106722,136.981029 C409.512571,136.956343 410.435519,136.880229 410.86815,136.752686 C411.480015,136.5984 411.68603,136.446171 411.762256,135.526629 C411.813759,134.734629 411.813759,131.901943 411.813759,129.890057 C411.813759,127.133486 411.838481,125.267657 411.813759,124.348114 C411.791098,123.634286 411.533579,123.403886 411.045323,123.280457 C410.664195,123.204343 410.023489,123.124114 409.512571,123.045943 C409.384842,122.922514 409.413684,122.1552 409.541414,122.0544 L409.541414,122.0544 Z" id="Fill-35" fill="#FFFFFF" sketch:type="MSShapeGroup"></path>
                <g id="Group-40">
                    <mask id="mask-4" sketch:name="Clip 37" fill="white">
                        <use xlink:href="#path-3"></use>
                    </mask>
                    <g id="Clip-37"></g>
                    <path d="M425.363368,122.0544 C426.078241,122.0544 427.048571,122.130514 429.298256,122.130514 C430.85985,122.130514 431.82812,122.0544 432.596556,122.0544 C432.726346,122.1552 432.726346,122.9472 432.569774,123.045943 C431.980571,123.150857 431.523218,123.251657 431.189474,123.327771 C430.754782,123.457371 430.602331,123.685714 430.577609,124.3008 C430.524045,125.397257 430.524045,133.255543 430.44782,135.553371 C430.348932,137.567314 430.118195,138.997029 429.374481,140.2992 C428.023023,142.697829 425.849564,144 424.135519,144 C423.165188,144 422.273143,143.617371 422.015624,143.103086 C421.990902,143.026971 421.914677,142.751314 421.914677,142.697829 C421.990902,142.212343 422.349368,141.142629 422.526541,140.757943 C423.294977,141.268114 424.751504,141.905829 425.567323,141.905829 C426.183308,141.905829 426.743669,141.7536 427.176301,141.218743 C427.868511,140.323886 427.969459,139.484571 427.99418,137.262857 C428.023023,133.996114 428.023023,125.983543 427.946797,124.706057 C427.893233,124.043657 427.817008,123.584914 427.100075,123.381257 C426.618,123.251657 426.154466,123.175543 425.313925,123.045943 C425.186195,122.893714 425.237699,122.1552 425.363368,122.0544" id="Fill-36" fill="#FFFFFF" sketch:type="MSShapeGroup" mask="url(#mask-4)"></path>
                    <path d="M547.093534,64.3186286 C548.103008,63.5307429 548.298722,62.0845714 547.509684,61.0745143 C546.724767,60.0665143 545.272361,59.8834286 544.260827,60.6651429 C543.251353,61.4468571 543.06594,62.8992 543.857038,63.9051429 C544.631654,64.9172571 546.08612,65.1003429 547.093534,64.3186286" id="Fill-38" fill="#FFFFFF" sketch:type="MSShapeGroup" mask="url(#mask-4)"></path>
                    <path d="M479.825504,15.3421714 C483.420466,12.5588571 484.077654,7.38102857 481.28615,3.79131429 C478.500827,0.195428571 473.325729,-0.456685714 469.722526,2.32662857 C466.123444,5.11611429 465.462135,10.2857143 468.257759,13.8795429 C471.049263,17.4774857 476.222301,18.1316571 479.825504,15.3421714" id="Fill-39" fill="#FFFFFF" sketch:type="MSShapeGroup" mask="url(#mask-4)"></path>
                </g>
                <path d="M495.490887,20.3389714 C498.391579,18.0822857 498.929278,13.9021714 496.669293,10.9892571 C494.413429,8.08662857 490.223083,7.55177143 487.30797,9.81051429 C484.396977,12.0630857 483.865459,16.2493714 486.127504,19.1561143 C488.381308,22.0690286 492.573714,22.5956571 495.490887,20.3389714" id="Fill-41" fill="#FFFFFF" sketch:type="MSShapeGroup"></path>
                <path d="M479.879068,34.4098286 C483.47609,31.6224 484.131218,26.4507429 481.343835,22.8610286 C478.560571,19.2651429 473.377233,18.6068571 469.77197,21.3963429 C466.172887,24.1734857 465.52394,29.3513143 468.305143,32.9410286 C471.102827,36.5369143 476.282045,37.1972571 479.879068,34.4098286" id="Fill-42" fill="#FFFFFF" sketch:type="MSShapeGroup"></path>
                <path d="M509.442226,27.0390857 C511.803158,25.2164571 512.227549,21.8304 510.396075,19.4790857 C508.568722,17.1216 505.188015,16.6957714 502.827083,18.5184 C500.470271,20.3451429 500.039699,23.7291429 501.867053,26.0784 C503.692346,28.4379429 507.089534,28.8678857 509.442226,27.0390857" id="Fill-43" fill="#FFFFFF" sketch:type="MSShapeGroup"></path>
                <path d="M479.936752,53.4754286 C483.531714,50.6900571 484.180662,45.5184 481.401519,41.9266286 C478.610015,38.3328 473.426677,37.6745143 469.823474,40.4619429 C466.230571,43.2432 465.573383,48.4189714 468.364887,52.0148571 C471.158451,55.6066286 476.331489,56.2628571 479.936752,53.4754286" id="Fill-44" fill="#FFFFFF" sketch:type="MSShapeGroup"></path>
                <path d="M521.663038,35.3910857 C523.570737,33.9099429 523.923023,31.176 522.443835,29.2690286 C520.958466,27.36 518.216406,27.0164571 516.310767,28.4934857 C514.401008,29.9725714 514.054902,32.7065143 515.53615,34.6134857 C517.015338,36.5163429 519.755338,36.8598857 521.663038,35.3910857" id="Fill-45" fill="#FFFFFF" sketch:type="MSShapeGroup"></path>
                <path d="M479.986195,72.5472 C483.583218,69.7597714 484.242466,64.5860571 481.450962,60.9963429 C478.667699,57.4004571 473.486421,56.7421714 469.883218,59.5316571 C466.288256,62.3149714 465.635188,67.4866286 468.416391,71.0825143 C471.212015,74.6763429 476.382992,75.3284571 479.986195,72.5472" id="Fill-46" fill="#FFFFFF" sketch:type="MSShapeGroup"></path>
                <path d="M532.594195,44.9897143 C534.131068,43.7945143 534.413308,41.5748571 533.222541,40.0361143 C532.023534,38.4932571 529.804752,38.2176 528.261699,39.4086857 C526.724827,40.5997714 526.438466,42.8214857 527.631293,44.3643429 C528.82412,45.9030857 531.049083,46.1849143 532.594195,44.9897143" id="Fill-47" fill="#FFFFFF" sketch:type="MSShapeGroup"></path>
                <path d="M480.048,91.6107429 C483.642962,88.8253714 484.29603,83.6516571 481.512767,80.0598857 C478.721263,76.4681143 473.539985,75.8118857 469.940902,78.5993143 C466.34594,81.3846857 465.688752,86.5563429 468.476135,90.1501714 C471.263519,93.7460571 476.444797,94.3940571 480.048,91.6107429" id="Fill-48" fill="#FFFFFF" sketch:type="MSShapeGroup"></path>
                <path d="M542.206857,55.8123429 C543.455308,54.8454857 543.681925,53.0496 542.705414,51.8029714 C541.743323,50.5584 539.950992,50.3300571 538.698421,51.2948571 C537.44997,52.2678857 537.229534,54.0534857 538.189564,55.3021714 C539.157835,56.5488 540.952226,56.7792 542.206857,55.8123429" id="Fill-49" fill="#FFFFFF" sketch:type="MSShapeGroup"></path>
                <path d="M495.540331,39.4128 C498.451323,37.1540571 498.980782,32.9718857 496.729038,30.0630857 C494.469053,27.1542857 490.278707,26.6256 487.359474,28.8761143 C484.446421,31.1328 483.921083,35.3149714 486.185188,38.2258286 C488.441053,41.1387429 492.627278,41.6633143 495.540331,39.4128" id="Fill-50" fill="#FFFFFF" sketch:type="MSShapeGroup"></path>
                <path d="M509.49785,46.1108571 C511.854662,44.2779429 512.283173,40.8918857 510.45582,38.5446857 C508.628466,36.1933714 505.243639,35.7634286 502.882707,37.5881143 C500.525895,39.4086857 500.097383,42.7968 501.924737,45.1481143 C503.75003,47.5035429 507.141038,47.9293714 509.49785,46.1108571" id="Fill-51" fill="#FFFFFF" sketch:type="MSShapeGroup"></path>
                <path d="M495.595955,58.4804571 C498.504887,56.2217143 499.038466,52.0374857 496.778481,49.1307429 C494.524677,46.2219429 490.336391,45.6870857 487.421278,47.9437714 C484.506165,50.2025143 483.976707,54.3846857 486.232571,57.2934857 C488.494617,60.2022857 492.678782,60.7309714 495.595955,58.4804571" id="Fill-52" fill="#FFFFFF" sketch:type="MSShapeGroup"></path>
                <path d="M521.722782,54.4587429 C523.622241,52.9776 523.976586,50.2395429 522.493278,48.3366857 C521.018211,46.4297143 518.27203,46.0820571 516.366391,47.5590857 C514.456632,49.0340571 514.114647,51.7782857 515.593835,53.6811429 C517.060662,55.584 519.806842,55.9357714 521.722782,54.4587429" id="Fill-53" fill="#FFFFFF" sketch:type="MSShapeGroup"></path>
                <path d="M509.553474,65.1702857 C511.914406,63.3497143 512.336737,59.9657143 510.507323,57.6102857 C508.68409,55.2630857 505.293083,54.8269714 502.938331,56.6557714 C500.585639,58.4804571 500.150947,61.8603429 501.980361,64.2178286 C503.809774,66.5732571 507.196662,66.9949714 509.553474,65.1702857" id="Fill-54" fill="#FFFFFF" sketch:type="MSShapeGroup"></path>
                <path d="M495.649519,77.5501714 C498.560511,75.2893714 499.098211,71.1072 496.827925,68.1984 C494.578241,65.2957714 490.383774,64.7568 487.472782,67.0155429 C484.56591,69.2660571 484.036451,73.4544 486.294376,76.3632 C488.550241,79.2699429 492.738526,79.7965714 495.649519,77.5501714" id="Fill-55" fill="#FFFFFF" sketch:type="MSShapeGroup"></path>
                <path d="M532.641579,64.0573714 C534.188752,62.8662857 534.475113,60.6445714 533.278165,59.1058286 C532.079158,57.5670857 529.856256,57.2852571 528.313203,58.4804571 C526.772211,59.6756571 526.49409,61.8891429 527.691038,63.4278857 C528.881805,64.9707429 531.104707,65.2566857 532.641579,64.0573714" id="Fill-56" fill="#FFFFFF" sketch:type="MSShapeGroup"></path>
                <path d="M521.776346,73.5284571 C523.681985,72.0514286 524.02809,69.3113143 522.553023,67.4043429 C521.073835,65.5014857 518.327654,65.1538286 516.424075,66.6267429 C514.516376,68.112 514.170271,70.8459429 515.645338,72.7508571 C517.122466,74.6537143 519.868647,75.0034286 521.776346,73.5284571" id="Fill-57" fill="#FFFFFF" sketch:type="MSShapeGroup"></path>
                <path d="M509.607038,84.2482286 C511.96385,82.4214857 512.390301,79.0374857 510.565008,76.6841143 C508.737654,74.3286857 505.348707,73.9028571 502.991895,75.7275429 C500.637143,77.5501714 500.208632,80.9362286 502.033925,83.2875429 C503.857158,85.6409143 507.248165,86.0708571 509.607038,84.2482286" id="Fill-58" fill="#FFFFFF" sketch:type="MSShapeGroup"></path>
                <path d="M495.707203,96.6116571 C498.616135,94.3632 499.151774,90.1748571 496.883549,87.2701714 C494.633865,84.3613714 490.441459,83.8285714 487.526346,86.0832 C484.615353,88.3378286 484.083835,92.5220571 486.341759,95.4288 C488.595564,98.3458286 492.79209,98.8724571 495.707203,96.6116571" id="Fill-59" fill="#FFFFFF" sketch:type="MSShapeGroup"></path>
                <path d="M480.097444,110.682514 C483.696526,107.8992 484.353714,102.727543 481.570451,99.1316571 C478.781008,95.5419429 473.593549,94.8857143 469.996526,97.6710857 C466.397444,100.452343 465.742316,105.632229 468.527639,109.221943 C471.317083,112.813714 476.504541,113.467886 480.097444,110.682514" id="Fill-60" fill="#FFFFFF" sketch:type="MSShapeGroup"></path>
                <path d="M542.260421,74.8758857 C543.504752,73.9069714 543.737549,72.1172571 542.763098,70.8726857 C541.798947,69.6178286 540.004556,69.3956571 538.751985,70.3625143 C537.499414,71.3293714 537.274857,73.1211429 538.241068,74.3636571 C539.217579,75.6123429 541.00991,75.8448 542.260421,74.8758857" id="Fill-61" fill="#FFFFFF" sketch:type="MSShapeGroup"></path>
                <path d="M532.699263,83.1270857 C534.246436,81.9298286 534.524556,79.7122286 533.333789,78.1734857 C532.130662,76.6285714 529.916,76.3488 528.375008,77.544 C526.829895,78.7412571 526.545594,80.9588571 527.742541,82.4976 C528.941549,84.0404571 531.15003,84.3181714 532.699263,83.1270857" id="Fill-62" fill="#FFFFFF" sketch:type="MSShapeGroup"></path>
                <path d="M521.825789,92.5899429 C523.735549,91.1170286 524.087835,88.3748571 522.608647,86.4740571 C521.131519,84.5691429 518.387398,84.2214857 516.477639,85.7005714 C514.56994,87.1714286 514.223835,89.9136 515.694782,91.8205714 C517.182211,93.7213714 519.922211,94.0731429 521.825789,92.5899429" id="Fill-63" fill="#FFFFFF" sketch:type="MSShapeGroup"></path>
                <path d="M509.660602,103.309714 C512.023594,101.489143 512.447985,98.1030857 510.620632,95.7476571 C508.795338,93.3942857 505.408451,92.9643429 503.043398,94.7931429 C500.690707,96.6157714 500.266316,100.001829 502.085429,102.3552 C503.912782,104.704457 507.30585,105.1344 509.660602,103.309714" id="Fill-64" fill="#FFFFFF" sketch:type="MSShapeGroup"></path>
                <path d="M495.756647,115.681371 C498.67382,113.422629 499.201218,109.244571 496.945353,106.335771 C494.681248,103.426971 490.499143,102.896229 487.58403,105.157029 C484.670977,107.401371 484.137398,111.589714 486.401504,114.498514 C488.655308,117.407314 492.843594,117.940114 495.756647,115.681371" id="Fill-65" fill="#FFFFFF" sketch:type="MSShapeGroup"></path>
                <path d="M480.157188,129.752229 C483.756271,126.962743 484.403158,121.789029 481.619895,118.197257 C478.834571,114.599314 473.651233,113.951314 470.05009,116.736686 C466.453068,119.52 465.8,124.687543 468.587383,128.291657 C471.378887,131.881371 476.551925,132.531429 480.157188,129.752229" id="Fill-66" fill="#FFFFFF" sketch:type="MSShapeGroup"></path>
            </g>
        </g>
    </g>
</svg>