<?xml version="1.0" encoding="UTF-8" standalone="no"?>
<svg width="527px" height="145px" viewBox="0 0 527 145" version="1.1" xmlns="http://www.w3.org/2000/svg" xmlns:xlink="http://www.w3.org/1999/xlink" xmlns:sketch="http://www.bohemiancoding.com/sketch/ns">
    <!-- Generator: Sketch 3.2.2 (9983) - http://www.bohemiancoding.com/sketch -->
    <title>buffalo-logo</title>
    <desc>Created with Sketch.</desc>
    <defs></defs>
    <g id="Logos-(For-Export)" stroke="none" stroke-width="1" fill="none" fill-rule="evenodd" sketch:type="MSPage">
        <g id="buffalo-logo" sketch:type="MSArtboardGroup" transform="translate(-187.000000, -10.000000)" fill="#FFFFFF">
            <path d="M322.352,74 L335.376,74 C346.2,74 350.952,69.072 350.952,58.248 L350.952,53.672 C350.952,45.488 347.344,41.792 340.744,40.56 C346.552,39.064 349.192,35.544 349.192,29.296 L349.192,24.632 C349.192,14.776 343.736,11.08 334.408,11.08 L322.352,11.08 L322.352,74 Z M328.864,68.72 L328.864,43.464 L334.584,43.464 C341.712,43.464 344.44,45.576 344.44,53.584 L344.44,58.336 C344.44,65.728 341.36,68.72 335.2,68.72 L328.864,68.72 Z M328.864,38.272 L328.864,16.272 L334.232,16.272 C340.04,16.272 342.856,18.032 342.856,24.544 L342.856,29.12 C342.856,35.456 340.48,38.272 334.232,38.272 L328.864,38.272 Z M386.016,11.08 L386.016,58.16 C386.016,66.08 382.936,69.248 377.392,69.248 C371.672,69.248 368.768,66.08 368.768,58.688 L368.768,11.08 L362.168,11.08 L362.168,58.864 C362.168,69.688 368.152,74.792 377.392,74.792 C387.16,74.792 392.616,69.424 392.616,58.6 L392.616,11.08 L386.016,11.08 Z M405.504,74 L412.016,74 L412.104,44.872 L426.272,44.872 L426.272,39.592 L412.104,39.592 L412.104,16.36 L429.704,16.36 L429.704,11.08 L405.504,11.08 L405.504,74 Z M440.656,74 L447.168,74 L447.256,44.872 L461.424,44.872 L461.424,39.592 L447.256,39.592 L447.256,16.36 L464.856,16.36 L464.856,11.08 L440.656,11.08 L440.656,74 Z M495.608,74 L502.12,74 L491.032,11.08 L481.088,11.08 L469.912,74 L476.16,74 L478.8,58.16 L492.88,58.16 L495.608,74 Z M485.84,16.272 L492,53.056 L479.592,53.056 L485.84,16.272 Z M512.456,74 L536.216,74 L536.216,68.72 L519.056,68.72 L519.056,11.08 L512.456,11.08 L512.456,74 Z M560.72,74.792 C570.752,74.792 577.176,68.192 577.176,56.488 L577.176,28.328 C577.176,16.8 570.752,10.288 560.72,10.288 C550.688,10.288 544.264,16.8 544.264,28.416 L544.264,56.664 C544.264,68.192 550.688,74.792 560.72,74.792 L560.72,74.792 Z M560.72,69.248 C554.032,69.248 550.952,64.76 550.952,56.576 L550.952,28.416 C550.952,20.232 554.12,15.744 560.72,15.744 C567.232,15.744 570.4,20.672 570.4,28.416 L570.4,56.488 C570.4,64.408 567.232,69.248 560.72,69.248 L560.72,69.248 Z M187.704,154 L205.392,154 C217.184,154 223.432,149.776 223.432,138.16 L223.432,134.112 C223.432,126.104 219.296,122.232 212.608,120.912 C218.328,119.592 222.024,116.16 222.024,109.56 L222.024,105.16 C222.024,95.568 216.48,91.08 205.04,91.08 L187.704,91.08 L187.704,154 Z M200.992,144.408 L200.992,125.576 L203.896,125.576 C208.208,125.576 209.968,126.896 209.968,132.616 L209.968,137.104 C209.968,142.384 208.208,144.408 204.16,144.408 L200.992,144.408 Z M200.992,116.512 L200.992,100.672 L203.808,100.672 C207.328,100.672 209.176,101.64 209.176,106.392 L209.176,110.352 C209.176,115.016 207.68,116.512 203.808,116.512 L200.992,116.512 Z M255.592,91.08 L255.592,136.84 C255.592,142.12 254.184,143.968 250.84,143.968 C247.232,143.968 246,142.12 246,136.928 L246,91.08 L232.448,91.08 L232.448,137.192 C232.448,149.424 239.048,154.968 250.752,154.968 C262.368,154.968 269.232,149.512 269.232,137.28 L269.232,91.08 L255.592,91.08 Z M295.408,154.968 C306.584,154.968 312.832,149.248 312.832,137.808 L312.832,136.576 C312.832,124.256 306.408,120.472 298.928,115.72 C293.472,112.024 291.536,110.44 291.536,105.952 L291.536,105.6 C291.536,102.08 292.768,100.672 295.32,100.672 C297.696,100.672 299.368,101.816 299.368,106.304 L299.368,108.328 L312.128,108.328 L312.128,106.48 C312.04,95.392 305.968,90.2 295.32,90.2 C284.496,90.2 278.336,96.008 278.336,106.48 L278.336,106.832 C278.336,117.216 282.648,121.88 290.832,127.072 C296.464,130.768 299.544,132.528 299.544,138.16 L299.544,138.864 C299.544,142.912 298.224,144.672 295.408,144.672 C292.152,144.672 290.832,143 290.832,137.896 L290.832,135.432 L277.72,135.432 L277.72,137.456 C277.808,150.04 284.672,154.968 295.408,154.968 L295.408,154.968 Z M322.376,154 L336.016,154 L336.016,91.08 L322.376,91.08 L322.376,154 Z M346.704,154 L358.408,154 L358.408,114.928 L370.904,154 L383.752,154 L383.752,91.08 L371.96,91.08 L371.96,124.696 L361.312,91.08 L346.704,91.08 L346.704,154 Z M394.176,154 L423.568,154 L423.568,143.352 L407.728,143.352 L407.728,125.928 L419.52,125.928 L419.52,115.808 L407.728,115.808 L407.728,101.728 L422.688,101.728 L422.688,91.08 L394.176,91.08 L394.176,154 Z M448.864,154.968 C460.04,154.968 466.288,149.248 466.288,137.808 L466.288,136.576 C466.288,124.256 459.864,120.472 452.384,115.72 C446.928,112.024 444.992,110.44 444.992,105.952 L444.992,105.6 C444.992,102.08 446.224,100.672 448.776,100.672 C451.152,100.672 452.824,101.816 452.824,106.304 L452.824,108.328 L465.584,108.328 L465.584,106.48 C465.496,95.392 459.424,90.2 448.776,90.2 C437.952,90.2 431.792,96.008 431.792,106.48 L431.792,106.832 C431.792,117.216 436.104,121.88 444.288,127.072 C449.92,130.768 453,132.528 453,138.16 L453,138.864 C453,142.912 451.68,144.672 448.864,144.672 C445.608,144.672 444.288,143 444.288,137.896 L444.288,135.432 L431.176,135.432 L431.176,137.456 C431.264,150.04 438.128,154.968 448.864,154.968 L448.864,154.968 Z M491.584,154.968 C502.76,154.968 509.008,149.248 509.008,137.808 L509.008,136.576 C509.008,124.256 502.584,120.472 495.104,115.72 C489.648,112.024 487.712,110.44 487.712,105.952 L487.712,105.6 C487.712,102.08 488.944,100.672 491.496,100.672 C493.872,100.672 495.544,101.816 495.544,106.304 L495.544,108.328 L508.304,108.328 L508.304,106.48 C508.216,95.392 502.144,90.2 491.496,90.2 C480.672,90.2 474.512,96.008 474.512,106.48 L474.512,106.832 C474.512,117.216 478.824,121.88 487.008,127.072 C492.64,130.768 495.72,132.528 495.72,138.16 L495.72,138.864 C495.72,142.912 494.4,144.672 491.584,144.672 C488.328,144.672 487.008,143 487.008,137.896 L487.008,135.432 L473.896,135.432 L473.896,137.456 C473.984,150.04 480.848,154.968 491.584,154.968 L491.584,154.968 Z M532.496,154 L545.96,154 L546.048,128.92 L558.368,128.92 L558.368,118.712 L546.048,118.712 L546.048,101.728 L561.096,101.728 L561.096,91.08 L532.496,91.08 L532.496,154 Z M570.464,154 L584.104,154 L584.104,91.08 L570.464,91.08 L570.464,154 Z M594.792,154 L608.344,154 L608.344,127.776 L610.808,127.776 L617.76,154 L631.84,154 L623.568,125.664 C627.704,123.64 630.08,120.296 630.08,113.168 L630.08,106.744 C630.08,96.272 625.152,91.08 611.952,91.08 L594.792,91.08 L594.792,154 Z M608.344,119.064 L608.344,101.464 L611.512,101.464 C615.296,101.464 616.88,102.96 616.88,107.184 L616.88,112.992 C616.88,117.48 615.208,119.064 611.512,119.064 L608.344,119.064 Z M655.728,154.968 C666.904,154.968 673.152,149.248 673.152,137.808 L673.152,136.576 C673.152,124.256 666.728,120.472 659.248,115.72 C653.792,112.024 651.856,110.44 651.856,105.952 L651.856,105.6 C651.856,102.08 653.088,100.672 655.64,100.672 C658.016,100.672 659.688,101.816 659.688,106.304 L659.688,108.328 L672.448,108.328 L672.448,106.48 C672.36,95.392 666.288,90.2 655.64,90.2 C644.816,90.2 638.656,96.008 638.656,106.48 L638.656,106.832 C638.656,117.216 642.968,121.88 651.152,127.072 C656.784,130.768 659.864,132.528 659.864,138.16 L659.864,138.864 C659.864,142.912 658.544,144.672 655.728,144.672 C652.472,144.672 651.152,143 651.152,137.896 L651.152,135.432 L638.04,135.432 L638.04,137.456 C638.128,150.04 644.992,154.968 655.728,154.968 L655.728,154.968 Z M689.648,154 L703.112,154 L703.2,101.728 L713.232,101.728 L713.232,91.08 L679.528,91.08 L679.528,101.728 L689.648,101.728 L689.648,154 Z" id="BUFFALO" sketch:type="MSShapeGroup"></path>
        </g>
    </g>
</svg>