<?xml version="1.0" encoding="UTF-8" standalone="no"?>
<svg width="108px" height="108px" viewBox="0 0 108 108" version="1.1" xmlns="http://www.w3.org/2000/svg" xmlns:xlink="http://www.w3.org/1999/xlink" xmlns:sketch="http://www.bohemiancoding.com/sketch/ns">
    <!-- Generator: Sketch 3.2.2 (9983) - http://www.bohemiancoding.com/sketch -->
    <title>buffalo-monogram</title>
    <desc>Created with Sketch.</desc>
    <defs></defs>
    <g id="Monograms-(For-Export)" stroke="none" stroke-width="1" fill="none" fill-rule="evenodd" sketch:type="MSPage">
        <g id="buffalo-monogram" sketch:type="MSArtboardGroup" fill="#FFFFFF">
            <path d="M17.234,76 L28.518,76 C36.64,76 40.67,72.838 40.67,64.778 L40.67,61.926 C40.67,56.222 37.88,53.494 33.168,52.626 C37.198,51.572 39.554,49.154 39.554,44.628 L39.554,41.528 C39.554,34.646 35.648,31.67 28.084,31.67 L17.234,31.67 L17.234,76 Z M24.922,70.296 L24.922,55.416 L27.65,55.416 C31.432,55.416 32.92,56.594 32.92,61.244 L32.92,64.344 C32.92,68.622 31.308,70.296 27.898,70.296 L24.922,70.296 Z M24.922,50.022 L24.922,37.374 L27.526,37.374 C30.626,37.374 32.114,38.18 32.114,41.962 L32.114,44.938 C32.114,48.596 30.874,50.022 27.526,50.022 L24.922,50.022 Z M45.01,76 L56.294,76 C64.416,76 68.446,72.838 68.446,64.778 L68.446,61.926 C68.446,56.222 65.656,53.494 60.944,52.626 C64.974,51.572 67.33,49.154 67.33,44.628 L67.33,41.528 C67.33,34.646 63.424,31.67 55.86,31.67 L45.01,31.67 L45.01,76 Z M52.698,70.296 L52.698,55.416 L55.426,55.416 C59.208,55.416 60.696,56.594 60.696,61.244 L60.696,64.344 C60.696,68.622 59.084,70.296 55.674,70.296 L52.698,70.296 Z M52.698,50.022 L52.698,37.374 L55.302,37.374 C58.402,37.374 59.89,38.18 59.89,41.962 L59.89,44.938 C59.89,48.596 58.65,50.022 55.302,50.022 L52.698,50.022 Z M72.786,76 L80.536,76 L80.598,57.276 L89.774,57.276 L89.774,51.324 L80.598,51.324 L80.598,37.808 L91.882,37.808 L91.882,31.67 L72.786,31.67 L72.786,76 Z" id="BBF" sketch:type="MSShapeGroup"></path>
        </g>
    </g>
</svg>