<?xml version="1.0" encoding="UTF-8" standalone="no"?>
<svg width="108px" height="108px" viewBox="0 0 108 108" version="1.1" xmlns="http://www.w3.org/2000/svg" xmlns:xlink="http://www.w3.org/1999/xlink" xmlns:sketch="http://www.bohemiancoding.com/sketch/ns">
    <!-- Generator: Sketch 3.2.2 (9983) - http://www.bohemiancoding.com/sketch -->
    <title>chicago-monogram</title>
    <desc>Created with Sketch.</desc>
    <defs></defs>
    <g id="Monograms-(For-Export)" stroke="none" stroke-width="1" fill="none" fill-rule="evenodd" sketch:type="MSPage">
        <g id="chicago-monogram" sketch:type="MSArtboardGroup" fill="#FFFFFF">
            <path d="M31.68,76.62 C38.872,76.62 43.646,73.148 43.646,64.406 L43.646,63.042 L36.206,63.042 L36.206,64.344 C36.206,68.746 34.408,70.358 31.68,70.358 C28.208,70.358 26.844,68.126 26.844,63.352 L26.844,44.194 C26.844,39.482 28.394,37.374 31.494,37.374 C34.346,37.374 35.71,38.8 35.772,43.016 L35.772,43.884 L43.522,43.884 L43.522,43.078 C43.398,34.274 38.562,31.05 31.556,31.05 C24.116,31.05 18.908,35.514 18.908,44.38 L18.908,63.29 C18.908,72.156 23.682,76.62 31.68,76.62 L31.68,76.62 Z M47.738,76 L59.022,76 C67.144,76 71.174,72.838 71.174,64.778 L71.174,61.926 C71.174,56.222 68.384,53.494 63.672,52.626 C67.702,51.572 70.058,49.154 70.058,44.628 L70.058,41.528 C70.058,34.646 66.152,31.67 58.588,31.67 L47.738,31.67 L47.738,76 Z M55.426,70.296 L55.426,55.416 L58.154,55.416 C61.936,55.416 63.424,56.594 63.424,61.244 L63.424,64.344 C63.424,68.622 61.812,70.296 58.402,70.296 L55.426,70.296 Z M55.426,50.022 L55.426,37.374 L58.03,37.374 C61.13,37.374 62.618,38.18 62.618,41.962 L62.618,44.938 C62.618,48.596 61.378,50.022 58.03,50.022 L55.426,50.022 Z M78.49,76.372 C84.876,76.372 88.844,72.9 88.844,65.522 L88.844,31.67 L81.094,31.67 L81.094,65.15 C81.094,68.622 79.544,69.862 77.002,69.862 C75.576,69.862 74.708,69.614 73.902,69.428 L73.902,75.504 C74.894,75.938 76.258,76.372 78.49,76.372 L78.49,76.372 Z" id="CBJ" sketch:type="MSShapeGroup"></path>
        </g>
    </g>
</svg>