<?xml version="1.0" encoding="UTF-8" standalone="no"?>
<svg width="108px" height="108px" viewBox="0 0 108 108" version="1.1" xmlns="http://www.w3.org/2000/svg" xmlns:xlink="http://www.w3.org/1999/xlink" xmlns:sketch="http://www.bohemiancoding.com/sketch/ns">
    <!-- Generator: Sketch 3.2.2 (9983) - http://www.bohemiancoding.com/sketch -->
    <title>cincinnati-monogram</title>
    <desc>Created with Sketch.</desc>
    <defs></defs>
    <g id="Monograms-(For-Export)" stroke="none" stroke-width="1" fill="none" fill-rule="evenodd" sketch:type="MSPage">
        <g id="cincinnati-monogram" sketch:type="MSArtboardGroup" fill="#FFFFFF">
            <path d="M26.658,76.62 C33.85,76.62 38.624,73.148 38.624,64.406 L38.624,63.042 L31.184,63.042 L31.184,64.344 C31.184,68.746 29.386,70.358 26.658,70.358 C23.186,70.358 21.822,68.126 21.822,63.352 L21.822,44.194 C21.822,39.482 23.372,37.374 26.472,37.374 C29.324,37.374 30.688,38.8 30.75,43.016 L30.75,43.884 L38.5,43.884 L38.5,43.078 C38.376,34.274 33.54,31.05 26.534,31.05 C19.094,31.05 13.886,35.514 13.886,44.38 L13.886,63.29 C13.886,72.156 18.66,76.62 26.658,76.62 L26.658,76.62 Z M42.716,76 L54,76 C62.122,76 66.152,72.838 66.152,64.778 L66.152,61.926 C66.152,56.222 63.362,53.494 58.65,52.626 C62.68,51.572 65.036,49.154 65.036,44.628 L65.036,41.528 C65.036,34.646 61.13,31.67 53.566,31.67 L42.716,31.67 L42.716,76 Z M50.404,70.296 L50.404,55.416 L53.132,55.416 C56.914,55.416 58.402,56.594 58.402,61.244 L58.402,64.344 C58.402,68.622 56.79,70.296 53.38,70.296 L50.404,70.296 Z M50.404,50.022 L50.404,37.374 L53.008,37.374 C56.108,37.374 57.596,38.18 57.596,41.962 L57.596,44.938 C57.596,48.596 56.356,50.022 53.008,50.022 L50.404,50.022 Z M82.83,76.62 C90.022,76.62 94.796,73.148 94.796,64.406 L94.796,63.042 L87.356,63.042 L87.356,64.344 C87.356,68.746 85.558,70.358 82.83,70.358 C79.358,70.358 77.994,68.126 77.994,63.352 L77.994,44.194 C77.994,39.482 79.544,37.374 82.644,37.374 C85.496,37.374 86.86,38.8 86.922,43.016 L86.922,43.884 L94.672,43.884 L94.672,43.078 C94.548,34.274 89.712,31.05 82.706,31.05 C75.266,31.05 70.058,35.514 70.058,44.38 L70.058,63.29 C70.058,72.156 74.832,76.62 82.83,76.62 L82.83,76.62 Z" id="CBC" sketch:type="MSShapeGroup"></path>
        </g>
    </g>
</svg>