<?xml version="1.0" encoding="UTF-8" standalone="no"?>
<svg width="108px" height="108px" viewBox="0 0 108 108" version="1.1" xmlns="http://www.w3.org/2000/svg" xmlns:xlink="http://www.w3.org/1999/xlink" xmlns:sketch="http://www.bohemiancoding.com/sketch/ns">
    <!-- Generator: Sketch 3.2.2 (9983) - http://www.bohemiancoding.com/sketch -->
    <title>houston-monogram</title>
    <desc>Created with Sketch.</desc>
    <defs></defs>
    <g id="Monograms-(For-Export)" stroke="none" stroke-width="1" fill="none" fill-rule="evenodd" sketch:type="MSPage">
        <g id="houston-monogram" sketch:type="MSArtboardGroup" fill="#FFFFFF">
            <path d="M18.877,76 L26.689,76 L26.689,56.594 L35.183,56.594 L35.183,76 L42.995,76 L42.995,31.67 L35.183,31.67 L35.183,50.27 L26.689,50.27 L26.689,31.67 L18.877,31.67 L18.877,76 Z M48.203,76 L59.487,76 C67.609,76 71.639,72.838 71.639,64.778 L71.639,61.926 C71.639,56.222 68.849,53.494 64.137,52.626 C68.167,51.572 70.523,49.154 70.523,44.628 L70.523,41.528 C70.523,34.646 66.617,31.67 59.053,31.67 L48.203,31.67 L48.203,76 Z M55.891,70.296 L55.891,55.416 L58.619,55.416 C62.401,55.416 63.889,56.594 63.889,61.244 L63.889,64.344 C63.889,68.622 62.277,70.296 58.867,70.296 L55.891,70.296 Z M55.891,50.022 L55.891,37.374 L58.495,37.374 C61.595,37.374 63.083,38.18 63.083,41.962 L63.083,44.938 C63.083,48.596 61.843,50.022 58.495,50.022 L55.891,50.022 Z M78.955,76.372 C85.341,76.372 89.309,72.9 89.309,65.522 L89.309,31.67 L81.559,31.67 L81.559,65.15 C81.559,68.622 80.009,69.862 77.467,69.862 C76.041,69.862 75.173,69.614 74.367,69.428 L74.367,75.504 C75.359,75.938 76.723,76.372 78.955,76.372 L78.955,76.372 Z" id="HBJ" sketch:type="MSShapeGroup"></path>
        </g>
    </g>
</svg>