<?xml version="1.0" encoding="UTF-8" standalone="no"?>
<svg width="108px" height="108px" viewBox="0 0 108 108" version="1.1" xmlns="http://www.w3.org/2000/svg" xmlns:xlink="http://www.w3.org/1999/xlink" xmlns:sketch="http://www.bohemiancoding.com/sketch/ns">
    <!-- Generator: Sketch 3.2.2 (9983) - http://www.bohemiancoding.com/sketch -->
    <title>jacksonville-monogram</title>
    <desc>Created with Sketch.</desc>
    <defs></defs>
    <g id="Monograms-(For-Export)" stroke="none" stroke-width="1" fill="none" fill-rule="evenodd" sketch:type="MSPage">
        <g id="jacksonville-monogram" sketch:type="MSArtboardGroup" fill="#FFFFFF">
            <path d="M27.34,76.372 C33.726,76.372 37.694,72.9 37.694,65.522 L37.694,31.67 L29.944,31.67 L29.944,65.15 C29.944,68.622 28.394,69.862 25.852,69.862 C24.426,69.862 23.558,69.614 22.752,69.428 L22.752,75.504 C23.744,75.938 25.108,76.372 27.34,76.372 L27.34,76.372 Z M42.716,76 L54,76 C62.122,76 66.152,72.838 66.152,64.778 L66.152,61.926 C66.152,56.222 63.362,53.494 58.65,52.626 C62.68,51.572 65.036,49.154 65.036,44.628 L65.036,41.528 C65.036,34.646 61.13,31.67 53.566,31.67 L42.716,31.67 L42.716,76 Z M50.404,70.296 L50.404,55.416 L53.132,55.416 C56.914,55.416 58.402,56.594 58.402,61.244 L58.402,64.344 C58.402,68.622 56.79,70.296 53.38,70.296 L50.404,70.296 Z M50.404,50.022 L50.404,37.374 L53.008,37.374 C56.108,37.374 57.596,38.18 57.596,41.962 L57.596,44.938 C57.596,48.596 56.356,50.022 53.008,50.022 L50.404,50.022 Z M73.468,76.372 C79.854,76.372 83.822,72.9 83.822,65.522 L83.822,31.67 L76.072,31.67 L76.072,65.15 C76.072,68.622 74.522,69.862 71.98,69.862 C70.554,69.862 69.686,69.614 68.88,69.428 L68.88,75.504 C69.872,75.938 71.236,76.372 73.468,76.372 L73.468,76.372 Z" id="JBJ" sketch:type="MSShapeGroup"></path>
        </g>
    </g>
</svg>