<?xml version="1.0" encoding="UTF-8" standalone="no"?>
<svg width="637px" height="145px" viewBox="0 0 637 145" version="1.1" xmlns="http://www.w3.org/2000/svg" xmlns:xlink="http://www.w3.org/1999/xlink" xmlns:sketch="http://www.bohemiancoding.com/sketch/ns">
    <!-- Generator: Sketch 3.2.2 (9983) - http://www.bohemiancoding.com/sketch -->
    <title>kansascity-logo</title>
    <desc>Created with Sketch.</desc>
    <defs></defs>
    <g id="Logos-(For-Export)" stroke="none" stroke-width="1" fill="none" fill-rule="evenodd" sketch:type="MSPage">
        <g id="kansascity-logo" sketch:type="MSArtboardGroup" transform="translate(-132.000000, -10.000000)" fill="#FFFFFF">
            <path d="M290.812,74 L273.828,40.472 L290.108,11.08 L283.156,11.08 L267.404,40.736 L267.404,11.08 L260.804,11.08 L260.804,74 L267.404,74 L267.404,41.704 L283.684,74 L290.812,74 Z M323.412,74 L329.924,74 L318.836,11.08 L308.892,11.08 L297.716,74 L303.964,74 L306.604,58.16 L320.684,58.16 L323.412,74 Z M313.644,16.272 L319.804,53.056 L307.396,53.056 L313.644,16.272 Z M340.26,74 L346.244,74 L346.244,23.488 L363.228,74 L370.092,74 L370.092,11.08 L364.196,11.08 L364.196,57.808 L348.268,11.08 L340.26,11.08 L340.26,74 Z M395.916,74.792 C404.188,74.792 409.732,69.952 409.732,59.568 L409.732,58.248 C409.732,48.04 405.596,44.08 397.412,38.008 C390.724,32.992 388.348,30.264 388.348,24.016 L388.348,23.664 C388.348,18.384 390.9,15.744 395.388,15.744 C399.788,15.744 402.604,17.944 402.604,24.28 L402.604,26.48 L408.764,26.48 L408.764,24.28 C408.764,14.864 403.836,10.288 395.388,10.288 C387.292,10.288 382.1,15.304 382.1,24.104 L382.1,24.368 C382.1,33.256 386.236,37.656 393.452,43.112 C400.316,48.392 403.396,51.208 403.396,58.6 L403.396,59.832 C403.396,66.08 400.668,69.336 395.916,69.336 C390.108,69.336 387.644,66.168 387.644,59.04 L387.644,56.928 L381.308,56.928 L381.308,59.04 C381.308,69.16 386.5,74.792 395.916,74.792 L395.916,74.792 Z M443.828,74 L450.34,74 L439.252,11.08 L429.308,11.08 L418.132,74 L424.38,74 L427.02,58.16 L441.1,58.16 L443.828,74 Z M434.06,16.272 L440.22,53.056 L427.812,53.056 L434.06,16.272 Z M472.996,74.792 C481.268,74.792 486.812,69.952 486.812,59.568 L486.812,58.248 C486.812,48.04 482.676,44.08 474.492,38.008 C467.804,32.992 465.428,30.264 465.428,24.016 L465.428,23.664 C465.428,18.384 467.98,15.744 472.468,15.744 C476.868,15.744 479.684,17.944 479.684,24.28 L479.684,26.48 L485.844,26.48 L485.844,24.28 C485.844,14.864 480.916,10.288 472.468,10.288 C464.372,10.288 459.18,15.304 459.18,24.104 L459.18,24.368 C459.18,33.256 463.316,37.656 470.532,43.112 C477.396,48.392 480.476,51.208 480.476,58.6 L480.476,59.832 C480.476,66.08 477.748,69.336 472.996,69.336 C467.188,69.336 464.724,66.168 464.724,59.04 L464.724,56.928 L458.388,56.928 L458.388,59.04 C458.388,69.16 463.58,74.792 472.996,74.792 L472.996,74.792 Z M529.924,74.792 C538.724,74.792 545.148,70.128 545.148,58.688 L545.148,56.928 L539.076,56.928 L539.076,58.6 C539.076,66.08 535.292,69.248 529.924,69.248 C523.236,69.248 520.42,64.672 520.42,56.4 L520.42,28.68 C520.42,20.144 523.676,15.744 529.836,15.744 C535.292,15.744 538.372,18.648 538.372,25.688 L538.372,26.568 L544.796,26.568 L544.796,25.6 C544.796,14.6 538.284,10.288 529.748,10.288 C520.244,10.288 513.644,16.8 513.644,28.68 L513.644,56.488 C513.644,68.192 519.716,74.792 529.924,74.792 L529.924,74.792 Z M556.716,74 L563.316,74 L563.316,11.08 L556.716,11.08 L556.716,74 Z M584.916,74 L591.428,74 L591.516,16.36 L602.428,16.36 L602.428,11.08 L574.092,11.08 L574.092,16.36 L584.916,16.36 L584.916,74 Z M622.62,74 L629.396,74 L629.396,46.632 L641.364,11.08 L635.204,11.08 L626.052,38.624 L616.724,11.08 L609.772,11.08 L622.62,46.544 L622.62,74 Z M132.048,154 L149.736,154 C161.528,154 167.776,149.776 167.776,138.16 L167.776,134.112 C167.776,126.104 163.64,122.232 156.952,120.912 C162.672,119.592 166.368,116.16 166.368,109.56 L166.368,105.16 C166.368,95.568 160.824,91.08 149.384,91.08 L132.048,91.08 L132.048,154 Z M145.336,144.408 L145.336,125.576 L148.24,125.576 C152.552,125.576 154.312,126.896 154.312,132.616 L154.312,137.104 C154.312,142.384 152.552,144.408 148.504,144.408 L145.336,144.408 Z M145.336,116.512 L145.336,100.672 L148.152,100.672 C151.672,100.672 153.52,101.64 153.52,106.392 L153.52,110.352 C153.52,115.016 152.024,116.512 148.152,116.512 L145.336,116.512 Z M199.936,91.08 L199.936,136.84 C199.936,142.12 198.528,143.968 195.184,143.968 C191.576,143.968 190.344,142.12 190.344,136.928 L190.344,91.08 L176.792,91.08 L176.792,137.192 C176.792,149.424 183.392,154.968 195.096,154.968 C206.712,154.968 213.576,149.512 213.576,137.28 L213.576,91.08 L199.936,91.08 Z M239.752,154.968 C250.928,154.968 257.176,149.248 257.176,137.808 L257.176,136.576 C257.176,124.256 250.752,120.472 243.272,115.72 C237.816,112.024 235.88,110.44 235.88,105.952 L235.88,105.6 C235.88,102.08 237.112,100.672 239.664,100.672 C242.04,100.672 243.712,101.816 243.712,106.304 L243.712,108.328 L256.472,108.328 L256.472,106.48 C256.384,95.392 250.312,90.2 239.664,90.2 C228.84,90.2 222.68,96.008 222.68,106.48 L222.68,106.832 C222.68,117.216 226.992,121.88 235.176,127.072 C240.808,130.768 243.888,132.528 243.888,138.16 L243.888,138.864 C243.888,142.912 242.568,144.672 239.752,144.672 C236.496,144.672 235.176,143 235.176,137.896 L235.176,135.432 L222.064,135.432 L222.064,137.456 C222.152,150.04 229.016,154.968 239.752,154.968 L239.752,154.968 Z M266.72,154 L280.36,154 L280.36,91.08 L266.72,91.08 L266.72,154 Z M291.048,154 L302.752,154 L302.752,114.928 L315.248,154 L328.096,154 L328.096,91.08 L316.304,91.08 L316.304,124.696 L305.656,91.08 L291.048,91.08 L291.048,154 Z M338.52,154 L367.912,154 L367.912,143.352 L352.072,143.352 L352.072,125.928 L363.864,125.928 L363.864,115.808 L352.072,115.808 L352.072,101.728 L367.032,101.728 L367.032,91.08 L338.52,91.08 L338.52,154 Z M393.208,154.968 C404.384,154.968 410.632,149.248 410.632,137.808 L410.632,136.576 C410.632,124.256 404.208,120.472 396.728,115.72 C391.272,112.024 389.336,110.44 389.336,105.952 L389.336,105.6 C389.336,102.08 390.568,100.672 393.12,100.672 C395.496,100.672 397.168,101.816 397.168,106.304 L397.168,108.328 L409.928,108.328 L409.928,106.48 C409.84,95.392 403.768,90.2 393.12,90.2 C382.296,90.2 376.136,96.008 376.136,106.48 L376.136,106.832 C376.136,117.216 380.448,121.88 388.632,127.072 C394.264,130.768 397.344,132.528 397.344,138.16 L397.344,138.864 C397.344,142.912 396.024,144.672 393.208,144.672 C389.952,144.672 388.632,143 388.632,137.896 L388.632,135.432 L375.52,135.432 L375.52,137.456 C375.608,150.04 382.472,154.968 393.208,154.968 L393.208,154.968 Z M435.928,154.968 C447.104,154.968 453.352,149.248 453.352,137.808 L453.352,136.576 C453.352,124.256 446.928,120.472 439.448,115.72 C433.992,112.024 432.056,110.44 432.056,105.952 L432.056,105.6 C432.056,102.08 433.288,100.672 435.84,100.672 C438.216,100.672 439.888,101.816 439.888,106.304 L439.888,108.328 L452.648,108.328 L452.648,106.48 C452.56,95.392 446.488,90.2 435.84,90.2 C425.016,90.2 418.856,96.008 418.856,106.48 L418.856,106.832 C418.856,117.216 423.168,121.88 431.352,127.072 C436.984,130.768 440.064,132.528 440.064,138.16 L440.064,138.864 C440.064,142.912 438.744,144.672 435.928,144.672 C432.672,144.672 431.352,143 431.352,137.896 L431.352,135.432 L418.24,135.432 L418.24,137.456 C418.328,150.04 425.192,154.968 435.928,154.968 L435.928,154.968 Z M482.208,154.528 C492.592,154.528 498.048,148.72 498.048,137.896 L498.048,91.08 L484.408,91.08 L484.408,137.28 C484.408,141.68 482.472,143.176 479.04,143.176 C477.192,143.176 475.96,142.912 474.904,142.648 L474.904,153.208 C476.488,153.912 478.6,154.528 482.208,154.528 L482.208,154.528 Z M526.776,154.968 C538.48,154.968 546.048,148.896 546.048,135.784 L546.048,109.032 C546.048,95.832 538.216,90.2 526.776,90.2 C515.688,90.2 507.592,96.184 507.592,109.12 L507.592,136.136 C507.592,149.072 515.072,154.968 526.776,154.968 L526.776,154.968 Z M526.776,144.056 C523.08,144.056 521.408,141.768 521.408,136.048 L521.408,109.032 C521.408,103.4 523.168,101.112 526.776,101.112 C530.472,101.112 532.232,103.576 532.232,109.032 L532.232,135.96 C532.232,141.68 530.472,144.056 526.776,144.056 L526.776,144.056 Z M579,91.08 L579,136.84 C579,142.12 577.592,143.968 574.248,143.968 C570.64,143.968 569.408,142.12 569.408,136.928 L569.408,91.08 L555.856,91.08 L555.856,137.192 C555.856,149.424 562.456,154.968 574.16,154.968 C585.776,154.968 592.64,149.512 592.64,137.28 L592.64,91.08 L579,91.08 Z M602.888,154 L616.44,154 L616.44,127.776 L618.904,127.776 L625.856,154 L639.936,154 L631.664,125.664 C635.8,123.64 638.176,120.296 638.176,113.168 L638.176,106.744 C638.176,96.272 633.248,91.08 620.048,91.08 L602.888,91.08 L602.888,154 Z M616.44,119.064 L616.44,101.464 L619.608,101.464 C623.392,101.464 624.976,102.96 624.976,107.184 L624.976,112.992 C624.976,117.48 623.304,119.064 619.608,119.064 L616.44,119.064 Z M648.16,154 L659.864,154 L659.864,114.928 L672.36,154 L685.208,154 L685.208,91.08 L673.416,91.08 L673.416,124.696 L662.768,91.08 L648.16,91.08 L648.16,154 Z M718.776,154 L732.504,154 L722.472,91.08 L703.024,91.08 L693.08,154 L705.488,154 L707.16,141.152 L717.016,141.152 L718.776,154 Z M712.088,103.136 L715.784,131.736 L708.392,131.736 L712.088,103.136 Z M740.376,154 L768.096,154 L768.096,143.176 L753.928,143.176 L753.928,91.08 L740.376,91.08 L740.376,154 Z" id="KANSAS-CITY" sketch:type="MSShapeGroup"></path>
        </g>
    </g>
</svg>