<?xml version="1.0" encoding="UTF-8" standalone="no"?>
<svg width="108px" height="108px" viewBox="0 0 108 108" version="1.1" xmlns="http://www.w3.org/2000/svg" xmlns:xlink="http://www.w3.org/1999/xlink" xmlns:sketch="http://www.bohemiancoding.com/sketch/ns">
    <!-- Generator: Sketch 3.2.2 (9983) - http://www.bohemiancoding.com/sketch -->
    <title>kansascity-monogram</title>
    <desc>Created with Sketch.</desc>
    <defs></defs>
    <g id="Monograms-(For-Export)" stroke="none" stroke-width="1" fill="none" fill-rule="evenodd" sketch:type="MSPage">
        <g id="kansascity-monogram" sketch:type="MSArtboardGroup" fill="#FFFFFF">
            <path d="M53.88,51 L43.65,27.13 L53.384,6.67 L45.51,6.67 L36.644,26.014 L36.644,6.67 L28.832,6.67 L28.832,51 L36.644,51 L36.644,29.672 L45.51,51 L53.88,51 Z M69.318,51.62 C76.51,51.62 81.284,48.148 81.284,39.406 L81.284,38.042 L73.844,38.042 L73.844,39.344 C73.844,43.746 72.046,45.358 69.318,45.358 C65.846,45.358 64.482,43.126 64.482,38.352 L64.482,19.194 C64.482,14.482 66.032,12.374 69.132,12.374 C71.984,12.374 73.348,13.8 73.41,18.016 L73.41,18.884 L81.16,18.884 L81.16,18.078 C81.036,9.274 76.2,6.05 69.194,6.05 C61.754,6.05 56.546,10.514 56.546,19.38 L56.546,38.29 C56.546,47.156 61.32,51.62 69.318,51.62 L69.318,51.62 Z M34.04,101 L45.324,101 C53.446,101 57.476,97.838 57.476,89.778 L57.476,86.926 C57.476,81.222 54.686,78.494 49.974,77.626 C54.004,76.572 56.36,74.154 56.36,69.628 L56.36,66.528 C56.36,59.646 52.454,56.67 44.89,56.67 L34.04,56.67 L34.04,101 Z M41.728,95.296 L41.728,80.416 L44.456,80.416 C48.238,80.416 49.726,81.594 49.726,86.244 L49.726,89.344 C49.726,93.622 48.114,95.296 44.704,95.296 L41.728,95.296 Z M41.728,75.022 L41.728,62.374 L44.332,62.374 C47.432,62.374 48.92,63.18 48.92,66.962 L48.92,69.938 C48.92,73.596 47.68,75.022 44.332,75.022 L41.728,75.022 Z M64.792,101.372 C71.178,101.372 75.146,97.9 75.146,90.522 L75.146,56.67 L67.396,56.67 L67.396,90.15 C67.396,93.622 65.846,94.862 63.304,94.862 C61.878,94.862 61.01,94.614 60.204,94.428 L60.204,100.504 C61.196,100.938 62.56,101.372 64.792,101.372 L64.792,101.372 Z" id="KC" sketch:type="MSShapeGroup"></path>
        </g>
    </g>
</svg>