<?xml version="1.0" encoding="UTF-8" standalone="no"?>
<svg width="108px" height="108px" viewBox="0 0 108 108" version="1.1" xmlns="http://www.w3.org/2000/svg" xmlns:xlink="http://www.w3.org/1999/xlink" xmlns:sketch="http://www.bohemiancoding.com/sketch/ns">
    <!-- Generator: Sketch 3.2.2 (9983) - http://www.bohemiancoding.com/sketch -->
    <title>losangeles-monogram</title>
    <desc>Created with Sketch.</desc>
    <defs></defs>
    <g id="Monograms-(For-Export)" stroke="none" stroke-width="1" fill="none" fill-rule="evenodd" sketch:type="MSPage">
        <g id="losangeles-monogram" sketch:type="MSArtboardGroup" fill="#FFFFFF">
            <path d="M17.575,76 L36.175,76 L36.175,69.8 L25.387,69.8 L25.387,31.67 L17.575,31.67 L17.575,76 Z M56.635,76 L64.447,76 L57.131,31.67 L45.847,31.67 L38.531,76 L45.661,76 L47.087,66.204 L55.147,66.204 L56.635,76 Z M51.117,38.428 L54.341,60.624 L47.893,60.624 L51.117,38.428 Z M67.857,76 L79.141,76 C87.263,76 91.293,72.838 91.293,64.778 L91.293,61.926 C91.293,56.222 88.503,53.494 83.791,52.626 C87.821,51.572 90.177,49.154 90.177,44.628 L90.177,41.528 C90.177,34.646 86.271,31.67 78.707,31.67 L67.857,31.67 L67.857,76 Z M75.545,70.296 L75.545,55.416 L78.273,55.416 C82.055,55.416 83.543,56.594 83.543,61.244 L83.543,64.344 C83.543,68.622 81.931,70.296 78.521,70.296 L75.545,70.296 Z M75.545,50.022 L75.545,37.374 L78.149,37.374 C81.249,37.374 82.737,38.18 82.737,41.962 L82.737,44.938 C82.737,48.596 81.497,50.022 78.149,50.022 L75.545,50.022 Z" id="LAB" sketch:type="MSShapeGroup"></path>
        </g>
    </g>
</svg>