<?xml version="1.0" encoding="UTF-8" standalone="no"?>
<svg width="108px" height="108px" viewBox="0 0 108 108" version="1.1" xmlns="http://www.w3.org/2000/svg" xmlns:xlink="http://www.w3.org/1999/xlink" xmlns:sketch="http://www.bohemiancoding.com/sketch/ns">
    <!-- Generator: Sketch 3.2.2 (9983) - http://www.bohemiancoding.com/sketch -->
    <title>orlando-monogram</title>
    <desc>Created with Sketch.</desc>
    <defs></defs>
    <g id="Monograms-(For-Export)" stroke="none" stroke-width="1" fill="none" fill-rule="evenodd" sketch:type="MSPage">
        <g id="orlando-monogram" sketch:type="MSArtboardGroup" fill="#FFFFFF">
            <path d="M30.967,76.62 C38.779,76.62 43.801,72.218 43.801,63.352 L43.801,44.132 C43.801,35.266 38.655,31.05 30.967,31.05 C23.403,31.05 18.071,35.452 18.071,44.194 L18.071,63.538 C18.071,72.28 23.093,76.62 30.967,76.62 L30.967,76.62 Z M30.967,70.358 C27.557,70.358 26.069,68.126 26.069,63.476 L26.069,44.194 C26.069,39.544 27.619,37.374 30.967,37.374 C34.253,37.374 35.865,39.73 35.865,44.194 L35.865,63.414 C35.865,68.002 34.253,70.358 30.967,70.358 L30.967,70.358 Z M48.637,76 L59.921,76 C68.043,76 72.073,72.838 72.073,64.778 L72.073,61.926 C72.073,56.222 69.283,53.494 64.571,52.626 C68.601,51.572 70.957,49.154 70.957,44.628 L70.957,41.528 C70.957,34.646 67.051,31.67 59.487,31.67 L48.637,31.67 L48.637,76 Z M56.325,70.296 L56.325,55.416 L59.053,55.416 C62.835,55.416 64.323,56.594 64.323,61.244 L64.323,64.344 C64.323,68.622 62.711,70.296 59.301,70.296 L56.325,70.296 Z M56.325,50.022 L56.325,37.374 L58.929,37.374 C62.029,37.374 63.517,38.18 63.517,41.962 L63.517,44.938 C63.517,48.596 62.277,50.022 58.929,50.022 L56.325,50.022 Z M79.389,76.372 C85.775,76.372 89.743,72.9 89.743,65.522 L89.743,31.67 L81.993,31.67 L81.993,65.15 C81.993,68.622 80.443,69.862 77.901,69.862 C76.475,69.862 75.607,69.614 74.801,69.428 L74.801,75.504 C75.793,75.938 77.157,76.372 79.389,76.372 L79.389,76.372 Z" id="OBJ" sketch:type="MSShapeGroup"></path>
        </g>
    </g>
</svg>