<?xml version="1.0" encoding="UTF-8" standalone="no"?>
<svg width="526px" height="145px" viewBox="0 0 526 145" version="1.1" xmlns="http://www.w3.org/2000/svg" xmlns:xlink="http://www.w3.org/1999/xlink" xmlns:sketch="http://www.bohemiancoding.com/sketch/ns">
    <!-- Generator: Sketch 3.2.2 (9983) - http://www.bohemiancoding.com/sketch -->
    <title>pacific-logo</title>
    <desc>Created with Sketch.</desc>
    <defs></defs>
    <g id="Logos-(For-Export)" stroke="none" stroke-width="1" fill="none" fill-rule="evenodd" sketch:type="MSPage">
        <g id="pacific-logo" sketch:type="MSArtboardGroup" transform="translate(-187.000000, -10.000000)" fill="#FFFFFF">
            <path d="M338.896,74 L345.496,74 L345.496,45.928 L351.304,45.928 C360.984,45.928 366.616,40.912 366.616,31.32 L366.616,25.424 C366.616,15.392 360.984,11.08 351.304,11.08 L338.896,11.08 L338.896,74 Z M345.496,40.736 L345.496,16.272 L351.656,16.272 C357.112,16.272 360.016,18.56 360.016,25.424 L360.016,31.32 C360.016,37.832 357.2,40.736 351.656,40.736 L345.496,40.736 Z M397.632,74 L404.144,74 L393.056,11.08 L383.112,11.08 L371.936,74 L378.184,74 L380.824,58.16 L394.904,58.16 L397.632,74 Z M387.864,16.272 L394.024,53.056 L381.616,53.056 L387.864,16.272 Z M428.736,74.792 C437.536,74.792 443.96,70.128 443.96,58.688 L443.96,56.928 L437.888,56.928 L437.888,58.6 C437.888,66.08 434.104,69.248 428.736,69.248 C422.048,69.248 419.232,64.672 419.232,56.4 L419.232,28.68 C419.232,20.144 422.488,15.744 428.648,15.744 C434.104,15.744 437.184,18.648 437.184,25.688 L437.184,26.568 L443.608,26.568 L443.608,25.6 C443.608,14.6 437.096,10.288 428.56,10.288 C419.056,10.288 412.456,16.8 412.456,28.68 L412.456,56.488 C412.456,68.192 418.528,74.792 428.736,74.792 L428.736,74.792 Z M455.528,74 L462.128,74 L462.128,11.08 L455.528,11.08 L455.528,74 Z M475.544,74 L482.056,74 L482.144,44.872 L496.312,44.872 L496.312,39.592 L482.144,39.592 L482.144,16.36 L499.744,16.36 L499.744,11.08 L475.544,11.08 L475.544,74 Z M511.136,74 L517.736,74 L517.736,11.08 L511.136,11.08 L511.136,74 Z M546.728,74.792 C555.528,74.792 561.952,70.128 561.952,58.688 L561.952,56.928 L555.88,56.928 L555.88,58.6 C555.88,66.08 552.096,69.248 546.728,69.248 C540.04,69.248 537.224,64.672 537.224,56.4 L537.224,28.68 C537.224,20.144 540.48,15.744 546.64,15.744 C552.096,15.744 555.176,18.648 555.176,25.688 L555.176,26.568 L561.6,26.568 L561.6,25.6 C561.6,14.6 555.088,10.288 546.552,10.288 C537.048,10.288 530.448,16.8 530.448,28.68 L530.448,56.488 C530.448,68.192 536.52,74.792 546.728,74.792 L546.728,74.792 Z M187.372,154 L205.06,154 C216.852,154 223.1,149.776 223.1,138.16 L223.1,134.112 C223.1,126.104 218.964,122.232 212.276,120.912 C217.996,119.592 221.692,116.16 221.692,109.56 L221.692,105.16 C221.692,95.568 216.148,91.08 204.708,91.08 L187.372,91.08 L187.372,154 Z M200.66,144.408 L200.66,125.576 L203.564,125.576 C207.876,125.576 209.636,126.896 209.636,132.616 L209.636,137.104 C209.636,142.384 207.876,144.408 203.828,144.408 L200.66,144.408 Z M200.66,116.512 L200.66,100.672 L203.476,100.672 C206.996,100.672 208.844,101.64 208.844,106.392 L208.844,110.352 C208.844,115.016 207.348,116.512 203.476,116.512 L200.66,116.512 Z M255.26,91.08 L255.26,136.84 C255.26,142.12 253.852,143.968 250.508,143.968 C246.9,143.968 245.668,142.12 245.668,136.928 L245.668,91.08 L232.116,91.08 L232.116,137.192 C232.116,149.424 238.716,154.968 250.42,154.968 C262.036,154.968 268.9,149.512 268.9,137.28 L268.9,91.08 L255.26,91.08 Z M295.076,154.968 C306.252,154.968 312.5,149.248 312.5,137.808 L312.5,136.576 C312.5,124.256 306.076,120.472 298.596,115.72 C293.14,112.024 291.204,110.44 291.204,105.952 L291.204,105.6 C291.204,102.08 292.436,100.672 294.988,100.672 C297.364,100.672 299.036,101.816 299.036,106.304 L299.036,108.328 L311.796,108.328 L311.796,106.48 C311.708,95.392 305.636,90.2 294.988,90.2 C284.164,90.2 278.004,96.008 278.004,106.48 L278.004,106.832 C278.004,117.216 282.316,121.88 290.5,127.072 C296.132,130.768 299.212,132.528 299.212,138.16 L299.212,138.864 C299.212,142.912 297.892,144.672 295.076,144.672 C291.82,144.672 290.5,143 290.5,137.896 L290.5,135.432 L277.388,135.432 L277.388,137.456 C277.476,150.04 284.34,154.968 295.076,154.968 L295.076,154.968 Z M322.044,154 L335.684,154 L335.684,91.08 L322.044,91.08 L322.044,154 Z M346.372,154 L358.076,154 L358.076,114.928 L370.572,154 L383.42,154 L383.42,91.08 L371.628,91.08 L371.628,124.696 L360.98,91.08 L346.372,91.08 L346.372,154 Z M393.844,154 L423.236,154 L423.236,143.352 L407.396,143.352 L407.396,125.928 L419.188,125.928 L419.188,115.808 L407.396,115.808 L407.396,101.728 L422.356,101.728 L422.356,91.08 L393.844,91.08 L393.844,154 Z M448.532,154.968 C459.708,154.968 465.956,149.248 465.956,137.808 L465.956,136.576 C465.956,124.256 459.532,120.472 452.052,115.72 C446.596,112.024 444.66,110.44 444.66,105.952 L444.66,105.6 C444.66,102.08 445.892,100.672 448.444,100.672 C450.82,100.672 452.492,101.816 452.492,106.304 L452.492,108.328 L465.252,108.328 L465.252,106.48 C465.164,95.392 459.092,90.2 448.444,90.2 C437.62,90.2 431.46,96.008 431.46,106.48 L431.46,106.832 C431.46,117.216 435.772,121.88 443.956,127.072 C449.588,130.768 452.668,132.528 452.668,138.16 L452.668,138.864 C452.668,142.912 451.348,144.672 448.532,144.672 C445.276,144.672 443.956,143 443.956,137.896 L443.956,135.432 L430.844,135.432 L430.844,137.456 C430.932,150.04 437.796,154.968 448.532,154.968 L448.532,154.968 Z M491.252,154.968 C502.428,154.968 508.676,149.248 508.676,137.808 L508.676,136.576 C508.676,124.256 502.252,120.472 494.772,115.72 C489.316,112.024 487.38,110.44 487.38,105.952 L487.38,105.6 C487.38,102.08 488.612,100.672 491.164,100.672 C493.54,100.672 495.212,101.816 495.212,106.304 L495.212,108.328 L507.972,108.328 L507.972,106.48 C507.884,95.392 501.812,90.2 491.164,90.2 C480.34,90.2 474.18,96.008 474.18,106.48 L474.18,106.832 C474.18,117.216 478.492,121.88 486.676,127.072 C492.308,130.768 495.388,132.528 495.388,138.16 L495.388,138.864 C495.388,142.912 494.068,144.672 491.252,144.672 C487.996,144.672 486.676,143 486.676,137.896 L486.676,135.432 L473.564,135.432 L473.564,137.456 C473.652,150.04 480.516,154.968 491.252,154.968 L491.252,154.968 Z M532.164,154 L543.868,154 L543.868,114.928 L556.364,154 L569.212,154 L569.212,91.08 L557.42,91.08 L557.42,124.696 L546.772,91.08 L532.164,91.08 L532.164,154 Z M579.636,154 L609.028,154 L609.028,143.352 L593.188,143.352 L593.188,125.928 L604.98,125.928 L604.98,115.808 L593.188,115.808 L593.188,101.728 L608.148,101.728 L608.148,91.08 L579.636,91.08 L579.636,154 Z M624.468,154 L638.284,154 L644.092,118.008 L649.812,154 L662.924,154 L671.548,91.08 L659.14,91.08 L655.004,130.24 L648.932,91.08 L639.428,91.08 L633.532,129.976 L629.484,91.08 L615.932,91.08 L624.468,154 Z M695.436,154.968 C706.612,154.968 712.86,149.248 712.86,137.808 L712.86,136.576 C712.86,124.256 706.436,120.472 698.956,115.72 C693.5,112.024 691.564,110.44 691.564,105.952 L691.564,105.6 C691.564,102.08 692.796,100.672 695.348,100.672 C697.724,100.672 699.396,101.816 699.396,106.304 L699.396,108.328 L712.156,108.328 L712.156,106.48 C712.068,95.392 705.996,90.2 695.348,90.2 C684.524,90.2 678.364,96.008 678.364,106.48 L678.364,106.832 C678.364,117.216 682.676,121.88 690.86,127.072 C696.492,130.768 699.572,132.528 699.572,138.16 L699.572,138.864 C699.572,142.912 698.252,144.672 695.436,144.672 C692.18,144.672 690.86,143 690.86,137.896 L690.86,135.432 L677.748,135.432 L677.748,137.456 C677.836,150.04 684.7,154.968 695.436,154.968 L695.436,154.968 Z" id="PACIFIC" sketch:type="MSShapeGroup"></path>
        </g>
    </g>
</svg>