<?xml version="1.0" encoding="UTF-8" standalone="no"?>
<svg width="539px" height="145px" viewBox="0 0 539 145" version="1.1" xmlns="http://www.w3.org/2000/svg" xmlns:xlink="http://www.w3.org/1999/xlink" xmlns:sketch="http://www.bohemiancoding.com/sketch/ns">
    <!-- Generator: Sketch 3.2.2 (9983) - http://www.bohemiancoding.com/sketch -->
    <title>pittsburgh-logo</title>
    <desc>Created with Sketch.</desc>
    <defs></defs>
    <g id="Logos-(For-Export)" stroke="none" stroke-width="1" fill="none" fill-rule="evenodd" sketch:type="MSPage">
        <g id="pittsburgh-logo" sketch:type="MSArtboardGroup" transform="translate(-181.000000, -10.000000)" fill="#FFFFFF">
            <path d="M267.204,74 L273.804,74 L273.804,45.928 L279.612,45.928 C289.292,45.928 294.924,40.912 294.924,31.32 L294.924,25.424 C294.924,15.392 289.292,11.08 279.612,11.08 L267.204,11.08 L267.204,74 Z M273.804,40.736 L273.804,16.272 L279.964,16.272 C285.42,16.272 288.324,18.56 288.324,25.424 L288.324,31.32 C288.324,37.832 285.508,40.736 279.964,40.736 L273.804,40.736 Z M306.14,74 L312.74,74 L312.74,11.08 L306.14,11.08 L306.14,74 Z M334.34,74 L340.852,74 L340.94,16.36 L351.852,16.36 L351.852,11.08 L323.516,11.08 L323.516,16.36 L334.34,16.36 L334.34,74 Z M370.284,74 L376.796,74 L376.884,16.36 L387.796,16.36 L387.796,11.08 L359.46,11.08 L359.46,16.36 L370.284,16.36 L370.284,74 Z M409.924,74.792 C418.196,74.792 423.74,69.952 423.74,59.568 L423.74,58.248 C423.74,48.04 419.604,44.08 411.42,38.008 C404.732,32.992 402.356,30.264 402.356,24.016 L402.356,23.664 C402.356,18.384 404.908,15.744 409.396,15.744 C413.796,15.744 416.612,17.944 416.612,24.28 L416.612,26.48 L422.772,26.48 L422.772,24.28 C422.772,14.864 417.844,10.288 409.396,10.288 C401.3,10.288 396.108,15.304 396.108,24.104 L396.108,24.368 C396.108,33.256 400.244,37.656 407.46,43.112 C414.324,48.392 417.404,51.208 417.404,58.6 L417.404,59.832 C417.404,66.08 414.676,69.336 409.924,69.336 C404.116,69.336 401.652,66.168 401.652,59.04 L401.652,56.928 L395.316,56.928 L395.316,59.04 C395.316,69.16 400.508,74.792 409.924,74.792 L409.924,74.792 Z M435.66,74 L448.684,74 C459.508,74 464.26,69.072 464.26,58.248 L464.26,53.672 C464.26,45.488 460.652,41.792 454.052,40.56 C459.86,39.064 462.5,35.544 462.5,29.296 L462.5,24.632 C462.5,14.776 457.044,11.08 447.716,11.08 L435.66,11.08 L435.66,74 Z M442.172,68.72 L442.172,43.464 L447.892,43.464 C455.02,43.464 457.748,45.576 457.748,53.584 L457.748,58.336 C457.748,65.728 454.668,68.72 448.508,68.72 L442.172,68.72 Z M442.172,38.272 L442.172,16.272 L447.54,16.272 C453.348,16.272 456.164,18.032 456.164,24.544 L456.164,29.12 C456.164,35.456 453.788,38.272 447.54,38.272 L442.172,38.272 Z M499.324,11.08 L499.324,58.16 C499.324,66.08 496.244,69.248 490.7,69.248 C484.98,69.248 482.076,66.08 482.076,58.688 L482.076,11.08 L475.476,11.08 L475.476,58.864 C475.476,69.688 481.46,74.792 490.7,74.792 C500.468,74.792 505.924,69.424 505.924,58.6 L505.924,11.08 L499.324,11.08 Z M518.812,74 L525.412,74 L525.412,44.52 L530.956,44.52 L541.076,74 L548.292,74 L537.556,43.816 C543.452,42.232 546.884,38.536 546.884,30.264 L546.884,25.072 C546.884,15.392 541.428,11.08 531.66,11.08 L518.812,11.08 L518.812,74 Z M525.412,39.504 L525.412,16.272 L531.748,16.272 C537.468,16.272 540.196,18.56 540.196,25.072 L540.196,30.264 C540.196,36.776 537.82,39.504 531.836,39.504 L525.412,39.504 Z M575.084,47.776 L583.356,47.776 L583.356,57.72 C583.356,65.464 580.804,69.248 574.468,69.248 C567.692,69.248 564.524,64.672 564.524,56.576 L564.524,28.416 C564.524,20.056 567.428,15.744 574.116,15.744 C579.22,15.744 582.916,18.472 582.916,25.952 L582.916,26.568 L589.164,26.568 L589.164,25.864 C589.164,14.336 582.564,10.288 574.028,10.288 C563.996,10.288 557.748,16.624 557.748,28.416 L557.748,56.664 C557.748,68.192 564.084,74.792 574.468,74.792 C584.236,74.792 589.956,69.512 589.956,57.896 L589.956,42.408 L575.084,42.408 L575.084,47.776 Z M601.964,74 L608.564,74 L608.564,44.96 L625.108,44.96 L625.108,74 L631.796,74 L631.796,11.08 L625.108,11.08 L625.108,39.416 L608.564,39.416 L608.564,11.08 L601.964,11.08 L601.964,74 Z M181.148,154 L198.836,154 C210.628,154 216.876,149.776 216.876,138.16 L216.876,134.112 C216.876,126.104 212.74,122.232 206.052,120.912 C211.772,119.592 215.468,116.16 215.468,109.56 L215.468,105.16 C215.468,95.568 209.924,91.08 198.484,91.08 L181.148,91.08 L181.148,154 Z M194.436,144.408 L194.436,125.576 L197.34,125.576 C201.652,125.576 203.412,126.896 203.412,132.616 L203.412,137.104 C203.412,142.384 201.652,144.408 197.604,144.408 L194.436,144.408 Z M194.436,116.512 L194.436,100.672 L197.252,100.672 C200.772,100.672 202.62,101.64 202.62,106.392 L202.62,110.352 C202.62,115.016 201.124,116.512 197.252,116.512 L194.436,116.512 Z M249.036,91.08 L249.036,136.84 C249.036,142.12 247.628,143.968 244.284,143.968 C240.676,143.968 239.444,142.12 239.444,136.928 L239.444,91.08 L225.892,91.08 L225.892,137.192 C225.892,149.424 232.492,154.968 244.196,154.968 C255.812,154.968 262.676,149.512 262.676,137.28 L262.676,91.08 L249.036,91.08 Z M288.852,154.968 C300.028,154.968 306.276,149.248 306.276,137.808 L306.276,136.576 C306.276,124.256 299.852,120.472 292.372,115.72 C286.916,112.024 284.98,110.44 284.98,105.952 L284.98,105.6 C284.98,102.08 286.212,100.672 288.764,100.672 C291.14,100.672 292.812,101.816 292.812,106.304 L292.812,108.328 L305.572,108.328 L305.572,106.48 C305.484,95.392 299.412,90.2 288.764,90.2 C277.94,90.2 271.78,96.008 271.78,106.48 L271.78,106.832 C271.78,117.216 276.092,121.88 284.276,127.072 C289.908,130.768 292.988,132.528 292.988,138.16 L292.988,138.864 C292.988,142.912 291.668,144.672 288.852,144.672 C285.596,144.672 284.276,143 284.276,137.896 L284.276,135.432 L271.164,135.432 L271.164,137.456 C271.252,150.04 278.116,154.968 288.852,154.968 L288.852,154.968 Z M315.82,154 L329.46,154 L329.46,91.08 L315.82,91.08 L315.82,154 Z M340.148,154 L351.852,154 L351.852,114.928 L364.348,154 L377.196,154 L377.196,91.08 L365.404,91.08 L365.404,124.696 L354.756,91.08 L340.148,91.08 L340.148,154 Z M387.62,154 L417.012,154 L417.012,143.352 L401.172,143.352 L401.172,125.928 L412.964,125.928 L412.964,115.808 L401.172,115.808 L401.172,101.728 L416.132,101.728 L416.132,91.08 L387.62,91.08 L387.62,154 Z M442.308,154.968 C453.484,154.968 459.732,149.248 459.732,137.808 L459.732,136.576 C459.732,124.256 453.308,120.472 445.828,115.72 C440.372,112.024 438.436,110.44 438.436,105.952 L438.436,105.6 C438.436,102.08 439.668,100.672 442.22,100.672 C444.596,100.672 446.268,101.816 446.268,106.304 L446.268,108.328 L459.028,108.328 L459.028,106.48 C458.94,95.392 452.868,90.2 442.22,90.2 C431.396,90.2 425.236,96.008 425.236,106.48 L425.236,106.832 C425.236,117.216 429.548,121.88 437.732,127.072 C443.364,130.768 446.444,132.528 446.444,138.16 L446.444,138.864 C446.444,142.912 445.124,144.672 442.308,144.672 C439.052,144.672 437.732,143 437.732,137.896 L437.732,135.432 L424.62,135.432 L424.62,137.456 C424.708,150.04 431.572,154.968 442.308,154.968 L442.308,154.968 Z M485.028,154.968 C496.204,154.968 502.452,149.248 502.452,137.808 L502.452,136.576 C502.452,124.256 496.028,120.472 488.548,115.72 C483.092,112.024 481.156,110.44 481.156,105.952 L481.156,105.6 C481.156,102.08 482.388,100.672 484.94,100.672 C487.316,100.672 488.988,101.816 488.988,106.304 L488.988,108.328 L501.748,108.328 L501.748,106.48 C501.66,95.392 495.588,90.2 484.94,90.2 C474.116,90.2 467.956,96.008 467.956,106.48 L467.956,106.832 C467.956,117.216 472.268,121.88 480.452,127.072 C486.084,130.768 489.164,132.528 489.164,138.16 L489.164,138.864 C489.164,142.912 487.844,144.672 485.028,144.672 C481.772,144.672 480.452,143 480.452,137.896 L480.452,135.432 L467.34,135.432 L467.34,137.456 C467.428,150.04 474.292,154.968 485.028,154.968 L485.028,154.968 Z M534.124,154 L547.588,154 L547.676,101.728 L557.708,101.728 L557.708,91.08 L524.004,91.08 L524.004,101.728 L534.124,101.728 L534.124,154 Z M566.548,154 L580.188,154 L580.188,91.08 L566.548,91.08 L566.548,154 Z M590.876,154 L602.14,154 L602.14,114.488 L610.764,154 L614.9,154 L623.436,114.488 L623.436,154 L636.46,154 L636.46,91.08 L619.652,91.08 L613.58,122.76 L607.332,91.08 L590.876,91.08 L590.876,154 Z M646.972,154 L676.364,154 L676.364,143.352 L660.524,143.352 L660.524,125.928 L672.316,125.928 L672.316,115.808 L660.524,115.808 L660.524,101.728 L675.484,101.728 L675.484,91.08 L646.972,91.08 L646.972,154 Z M701.66,154.968 C712.836,154.968 719.084,149.248 719.084,137.808 L719.084,136.576 C719.084,124.256 712.66,120.472 705.18,115.72 C699.724,112.024 697.788,110.44 697.788,105.952 L697.788,105.6 C697.788,102.08 699.02,100.672 701.572,100.672 C703.948,100.672 705.62,101.816 705.62,106.304 L705.62,108.328 L718.38,108.328 L718.38,106.48 C718.292,95.392 712.22,90.2 701.572,90.2 C690.748,90.2 684.588,96.008 684.588,106.48 L684.588,106.832 C684.588,117.216 688.9,121.88 697.084,127.072 C702.716,130.768 705.796,132.528 705.796,138.16 L705.796,138.864 C705.796,142.912 704.476,144.672 701.66,144.672 C698.404,144.672 697.084,143 697.084,137.896 L697.084,135.432 L683.972,135.432 L683.972,137.456 C684.06,150.04 690.924,154.968 701.66,154.968 L701.66,154.968 Z" id="PITTSBURGH" sketch:type="MSShapeGroup"></path>
        </g>
    </g>
</svg>