<?xml version="1.0" encoding="UTF-8" standalone="no"?>
<svg width="637px" height="145px" viewBox="0 0 637 145" version="1.1" xmlns="http://www.w3.org/2000/svg" xmlns:xlink="http://www.w3.org/1999/xlink" xmlns:sketch="http://www.bohemiancoding.com/sketch/ns">
    <!-- Generator: Sketch 3.2.2 (9983) - http://www.bohemiancoding.com/sketch -->
    <title>portland-logo</title>
    <desc>Created with Sketch.</desc>
    <defs></defs>
    <g id="Logos-(For-Export)" stroke="none" stroke-width="1" fill="none" fill-rule="evenodd" sketch:type="MSPage">
        <g id="portland-logo" sketch:type="MSArtboardGroup" transform="translate(-132.000000, -10.000000)" fill="#FFFFFF">
            <path d="M296.504,74 L303.104,74 L303.104,45.928 L308.912,45.928 C318.592,45.928 324.224,40.912 324.224,31.32 L324.224,25.424 C324.224,15.392 318.592,11.08 308.912,11.08 L296.504,11.08 L296.504,74 Z M303.104,40.736 L303.104,16.272 L309.264,16.272 C314.72,16.272 317.624,18.56 317.624,25.424 L317.624,31.32 C317.624,37.832 314.808,40.736 309.264,40.736 L303.104,40.736 Z M350.576,74.792 C360.608,74.792 367.032,68.192 367.032,56.488 L367.032,28.328 C367.032,16.8 360.608,10.288 350.576,10.288 C340.544,10.288 334.12,16.8 334.12,28.416 L334.12,56.664 C334.12,68.192 340.544,74.792 350.576,74.792 L350.576,74.792 Z M350.576,69.248 C343.888,69.248 340.808,64.76 340.808,56.576 L340.808,28.416 C340.808,20.232 343.976,15.744 350.576,15.744 C357.088,15.744 360.256,20.672 360.256,28.416 L360.256,56.488 C360.256,64.408 357.088,69.248 350.576,69.248 L350.576,69.248 Z M379.48,74 L386.08,74 L386.08,44.52 L391.624,44.52 L401.744,74 L408.96,74 L398.224,43.816 C404.12,42.232 407.552,38.536 407.552,30.264 L407.552,25.072 C407.552,15.392 402.096,11.08 392.328,11.08 L379.48,11.08 L379.48,74 Z M386.08,39.504 L386.08,16.272 L392.416,16.272 C398.136,16.272 400.864,18.56 400.864,25.072 L400.864,30.264 C400.864,36.776 398.488,39.504 392.504,39.504 L386.08,39.504 Z M426.864,74 L433.376,74 L433.464,16.36 L444.376,16.36 L444.376,11.08 L416.04,11.08 L416.04,16.36 L426.864,16.36 L426.864,74 Z M454.624,74 L478.384,74 L478.384,68.72 L461.224,68.72 L461.224,11.08 L454.624,11.08 L454.624,74 Z M512.304,74 L518.816,74 L507.728,11.08 L497.784,11.08 L486.608,74 L492.856,74 L495.496,58.16 L509.576,58.16 L512.304,74 Z M502.536,16.272 L508.696,53.056 L496.288,53.056 L502.536,16.272 Z M529.152,74 L535.136,74 L535.136,23.488 L552.12,74 L558.984,74 L558.984,11.08 L553.088,11.08 L553.088,57.808 L537.16,11.08 L529.152,11.08 L529.152,74 Z M571.96,11.08 L571.96,74 L584.456,74 C596.688,74 603.024,67.928 603.024,55.432 L603.024,29.648 C603.024,16.8 596.424,11.08 584.368,11.08 L571.96,11.08 Z M584.104,16.272 C593.08,16.272 596.248,20.76 596.248,29.56 L596.248,55.344 C596.248,64.496 593.168,68.72 584.104,68.72 L578.56,68.72 L578.56,16.272 L584.104,16.272 Z M132.048,154 L149.736,154 C161.528,154 167.776,149.776 167.776,138.16 L167.776,134.112 C167.776,126.104 163.64,122.232 156.952,120.912 C162.672,119.592 166.368,116.16 166.368,109.56 L166.368,105.16 C166.368,95.568 160.824,91.08 149.384,91.08 L132.048,91.08 L132.048,154 Z M145.336,144.408 L145.336,125.576 L148.24,125.576 C152.552,125.576 154.312,126.896 154.312,132.616 L154.312,137.104 C154.312,142.384 152.552,144.408 148.504,144.408 L145.336,144.408 Z M145.336,116.512 L145.336,100.672 L148.152,100.672 C151.672,100.672 153.52,101.64 153.52,106.392 L153.52,110.352 C153.52,115.016 152.024,116.512 148.152,116.512 L145.336,116.512 Z M199.936,91.08 L199.936,136.84 C199.936,142.12 198.528,143.968 195.184,143.968 C191.576,143.968 190.344,142.12 190.344,136.928 L190.344,91.08 L176.792,91.08 L176.792,137.192 C176.792,149.424 183.392,154.968 195.096,154.968 C206.712,154.968 213.576,149.512 213.576,137.28 L213.576,91.08 L199.936,91.08 Z M239.752,154.968 C250.928,154.968 257.176,149.248 257.176,137.808 L257.176,136.576 C257.176,124.256 250.752,120.472 243.272,115.72 C237.816,112.024 235.88,110.44 235.88,105.952 L235.88,105.6 C235.88,102.08 237.112,100.672 239.664,100.672 C242.04,100.672 243.712,101.816 243.712,106.304 L243.712,108.328 L256.472,108.328 L256.472,106.48 C256.384,95.392 250.312,90.2 239.664,90.2 C228.84,90.2 222.68,96.008 222.68,106.48 L222.68,106.832 C222.68,117.216 226.992,121.88 235.176,127.072 C240.808,130.768 243.888,132.528 243.888,138.16 L243.888,138.864 C243.888,142.912 242.568,144.672 239.752,144.672 C236.496,144.672 235.176,143 235.176,137.896 L235.176,135.432 L222.064,135.432 L222.064,137.456 C222.152,150.04 229.016,154.968 239.752,154.968 L239.752,154.968 Z M266.72,154 L280.36,154 L280.36,91.08 L266.72,91.08 L266.72,154 Z M291.048,154 L302.752,154 L302.752,114.928 L315.248,154 L328.096,154 L328.096,91.08 L316.304,91.08 L316.304,124.696 L305.656,91.08 L291.048,91.08 L291.048,154 Z M338.52,154 L367.912,154 L367.912,143.352 L352.072,143.352 L352.072,125.928 L363.864,125.928 L363.864,115.808 L352.072,115.808 L352.072,101.728 L367.032,101.728 L367.032,91.08 L338.52,91.08 L338.52,154 Z M393.208,154.968 C404.384,154.968 410.632,149.248 410.632,137.808 L410.632,136.576 C410.632,124.256 404.208,120.472 396.728,115.72 C391.272,112.024 389.336,110.44 389.336,105.952 L389.336,105.6 C389.336,102.08 390.568,100.672 393.12,100.672 C395.496,100.672 397.168,101.816 397.168,106.304 L397.168,108.328 L409.928,108.328 L409.928,106.48 C409.84,95.392 403.768,90.2 393.12,90.2 C382.296,90.2 376.136,96.008 376.136,106.48 L376.136,106.832 C376.136,117.216 380.448,121.88 388.632,127.072 C394.264,130.768 397.344,132.528 397.344,138.16 L397.344,138.864 C397.344,142.912 396.024,144.672 393.208,144.672 C389.952,144.672 388.632,143 388.632,137.896 L388.632,135.432 L375.52,135.432 L375.52,137.456 C375.608,150.04 382.472,154.968 393.208,154.968 L393.208,154.968 Z M435.928,154.968 C447.104,154.968 453.352,149.248 453.352,137.808 L453.352,136.576 C453.352,124.256 446.928,120.472 439.448,115.72 C433.992,112.024 432.056,110.44 432.056,105.952 L432.056,105.6 C432.056,102.08 433.288,100.672 435.84,100.672 C438.216,100.672 439.888,101.816 439.888,106.304 L439.888,108.328 L452.648,108.328 L452.648,106.48 C452.56,95.392 446.488,90.2 435.84,90.2 C425.016,90.2 418.856,96.008 418.856,106.48 L418.856,106.832 C418.856,117.216 423.168,121.88 431.352,127.072 C436.984,130.768 440.064,132.528 440.064,138.16 L440.064,138.864 C440.064,142.912 438.744,144.672 435.928,144.672 C432.672,144.672 431.352,143 431.352,137.896 L431.352,135.432 L418.24,135.432 L418.24,137.456 C418.328,150.04 425.192,154.968 435.928,154.968 L435.928,154.968 Z M482.208,154.528 C492.592,154.528 498.048,148.72 498.048,137.896 L498.048,91.08 L484.408,91.08 L484.408,137.28 C484.408,141.68 482.472,143.176 479.04,143.176 C477.192,143.176 475.96,142.912 474.904,142.648 L474.904,153.208 C476.488,153.912 478.6,154.528 482.208,154.528 L482.208,154.528 Z M526.776,154.968 C538.48,154.968 546.048,148.896 546.048,135.784 L546.048,109.032 C546.048,95.832 538.216,90.2 526.776,90.2 C515.688,90.2 507.592,96.184 507.592,109.12 L507.592,136.136 C507.592,149.072 515.072,154.968 526.776,154.968 L526.776,154.968 Z M526.776,144.056 C523.08,144.056 521.408,141.768 521.408,136.048 L521.408,109.032 C521.408,103.4 523.168,101.112 526.776,101.112 C530.472,101.112 532.232,103.576 532.232,109.032 L532.232,135.96 C532.232,141.68 530.472,144.056 526.776,144.056 L526.776,144.056 Z M579,91.08 L579,136.84 C579,142.12 577.592,143.968 574.248,143.968 C570.64,143.968 569.408,142.12 569.408,136.928 L569.408,91.08 L555.856,91.08 L555.856,137.192 C555.856,149.424 562.456,154.968 574.16,154.968 C585.776,154.968 592.64,149.512 592.64,137.28 L592.64,91.08 L579,91.08 Z M602.888,154 L616.44,154 L616.44,127.776 L618.904,127.776 L625.856,154 L639.936,154 L631.664,125.664 C635.8,123.64 638.176,120.296 638.176,113.168 L638.176,106.744 C638.176,96.272 633.248,91.08 620.048,91.08 L602.888,91.08 L602.888,154 Z M616.44,119.064 L616.44,101.464 L619.608,101.464 C623.392,101.464 624.976,102.96 624.976,107.184 L624.976,112.992 C624.976,117.48 623.304,119.064 619.608,119.064 L616.44,119.064 Z M648.16,154 L659.864,154 L659.864,114.928 L672.36,154 L685.208,154 L685.208,91.08 L673.416,91.08 L673.416,124.696 L662.768,91.08 L648.16,91.08 L648.16,154 Z M718.776,154 L732.504,154 L722.472,91.08 L703.024,91.08 L693.08,154 L705.488,154 L707.16,141.152 L717.016,141.152 L718.776,154 Z M712.088,103.136 L715.784,131.736 L708.392,131.736 L712.088,103.136 Z M740.376,154 L768.096,154 L768.096,143.176 L753.928,143.176 L753.928,91.08 L740.376,91.08 L740.376,154 Z" id="PORTLAND" sketch:type="MSShapeGroup"></path>
        </g>
    </g>
</svg>