<?xml version="1.0" encoding="UTF-8" standalone="no"?>
<svg width="108px" height="108px" viewBox="0 0 108 108" version="1.1" xmlns="http://www.w3.org/2000/svg" xmlns:xlink="http://www.w3.org/1999/xlink" xmlns:sketch="http://www.bohemiancoding.com/sketch/ns">
    <!-- Generator: Sketch 3.2.2 (9983) - http://www.bohemiancoding.com/sketch -->
    <title>sanfrancisco-monogram</title>
    <desc>Created with Sketch.</desc>
    <defs></defs>
    <g id="Monograms-(For-Export)" stroke="none" stroke-width="1" fill="none" fill-rule="evenodd" sketch:type="MSPage">
        <g id="sanfrancisco-monogram" sketch:type="MSArtboardGroup" fill="#FFFFFF">
            <path d="M42.875,51.62 C49.943,51.62 54.221,47.838 54.221,40.026 L54.221,39.158 C54.221,31.036 50.315,28.308 44.859,24.588 C40.643,21.674 39.217,20.248 39.217,16.652 L39.217,16.404 C39.217,13.49 40.457,12.126 42.689,12.126 C44.921,12.126 46.347,13.242 46.347,16.9 L46.347,18.326 L53.663,18.326 L53.663,16.962 C53.663,9.584 49.695,6.05 42.689,6.05 C35.745,6.05 31.653,9.956 31.653,16.962 L31.653,17.148 C31.653,24.092 34.691,27.316 40.147,30.974 C44.487,34.012 46.595,35.5 46.595,39.964 L46.595,40.522 C46.595,43.994 45.355,45.606 42.875,45.606 C39.961,45.606 38.721,44.056 38.721,39.902 L38.721,38.29 L31.219,38.29 L31.219,39.716 C31.219,47.962 35.683,51.62 42.875,51.62 L42.875,51.62 Z M58.685,51 L66.435,51 L66.497,32.276 L75.673,32.276 L75.673,26.324 L66.497,26.324 L66.497,12.808 L77.781,12.808 L77.781,6.67 L58.685,6.67 L58.685,51 Z M30.94,101 L42.224,101 C50.346,101 54.376,97.838 54.376,89.778 L54.376,86.926 C54.376,81.222 51.586,78.494 46.874,77.626 C50.904,76.572 53.26,74.154 53.26,69.628 L53.26,66.528 C53.26,59.646 49.354,56.67 41.79,56.67 L30.94,56.67 L30.94,101 Z M38.628,95.296 L38.628,80.416 L41.356,80.416 C45.138,80.416 46.626,81.594 46.626,86.244 L46.626,89.344 C46.626,93.622 45.014,95.296 41.604,95.296 L38.628,95.296 Z M38.628,75.022 L38.628,62.374 L41.232,62.374 C44.332,62.374 45.82,63.18 45.82,66.962 L45.82,69.938 C45.82,73.596 44.58,75.022 41.232,75.022 L38.628,75.022 Z M64.482,101 L72.232,101 L72.294,62.808 L79.61,62.808 L79.61,56.67 L57.166,56.67 L57.166,62.808 L64.482,62.808 L64.482,101 Z" id="SF" sketch:type="MSShapeGroup"></path>
        </g>
    </g>
</svg>