<?xml version="1.0" encoding="UTF-8" standalone="no"?>
<svg width="637px" height="145px" viewBox="0 0 637 145" version="1.1" xmlns="http://www.w3.org/2000/svg" xmlns:xlink="http://www.w3.org/1999/xlink" xmlns:sketch="http://www.bohemiancoding.com/sketch/ns">
    <!-- Generator: Sketch 3.2.2 (9983) - http://www.bohemiancoding.com/sketch -->
    <title>southflorida-logo</title>
    <desc>Created with Sketch.</desc>
    <defs></defs>
    <g id="Logos-(For-Export)" stroke="none" stroke-width="1" fill="none" fill-rule="evenodd" sketch:type="MSPage">
        <g id="southflorida-logo" sketch:type="MSArtboardGroup" transform="translate(-132.000000, -10.000000)" fill="#FFFFFF">
            <path d="M231.064,74.792 C239.336,74.792 244.88,69.952 244.88,59.568 L244.88,58.248 C244.88,48.04 240.744,44.08 232.56,38.008 C225.872,32.992 223.496,30.264 223.496,24.016 L223.496,23.664 C223.496,18.384 226.048,15.744 230.536,15.744 C234.936,15.744 237.752,17.944 237.752,24.28 L237.752,26.48 L243.912,26.48 L243.912,24.28 C243.912,14.864 238.984,10.288 230.536,10.288 C222.44,10.288 217.248,15.304 217.248,24.104 L217.248,24.368 C217.248,33.256 221.384,37.656 228.6,43.112 C235.464,48.392 238.544,51.208 238.544,58.6 L238.544,59.832 C238.544,66.08 235.816,69.336 231.064,69.336 C225.256,69.336 222.792,66.168 222.792,59.04 L222.792,56.928 L216.456,56.928 L216.456,59.04 C216.456,69.16 221.648,74.792 231.064,74.792 L231.064,74.792 Z M272.288,74.792 C282.32,74.792 288.744,68.192 288.744,56.488 L288.744,28.328 C288.744,16.8 282.32,10.288 272.288,10.288 C262.256,10.288 255.832,16.8 255.832,28.416 L255.832,56.664 C255.832,68.192 262.256,74.792 272.288,74.792 L272.288,74.792 Z M272.288,69.248 C265.6,69.248 262.52,64.76 262.52,56.576 L262.52,28.416 C262.52,20.232 265.688,15.744 272.288,15.744 C278.8,15.744 281.968,20.672 281.968,28.416 L281.968,56.488 C281.968,64.408 278.8,69.248 272.288,69.248 L272.288,69.248 Z M324.864,11.08 L324.864,58.16 C324.864,66.08 321.784,69.248 316.24,69.248 C310.52,69.248 307.616,66.08 307.616,58.688 L307.616,11.08 L301.016,11.08 L301.016,58.864 C301.016,69.688 307,74.792 316.24,74.792 C326.008,74.792 331.464,69.424 331.464,58.6 L331.464,11.08 L324.864,11.08 Z M352.536,74 L359.048,74 L359.136,16.36 L370.048,16.36 L370.048,11.08 L341.712,11.08 L341.712,16.36 L352.536,16.36 L352.536,74 Z M380.296,74 L386.896,74 L386.896,44.96 L403.44,44.96 L403.44,74 L410.128,74 L410.128,11.08 L403.44,11.08 L403.44,39.416 L386.896,39.416 L386.896,11.08 L380.296,11.08 L380.296,74 Z M438.72,74 L445.232,74 L445.32,44.872 L459.488,44.872 L459.488,39.592 L445.32,39.592 L445.32,16.36 L462.92,16.36 L462.92,11.08 L438.72,11.08 L438.72,74 Z M473.872,74 L497.632,74 L497.632,68.72 L480.472,68.72 L480.472,11.08 L473.872,11.08 L473.872,74 Z M522.136,74.792 C532.168,74.792 538.592,68.192 538.592,56.488 L538.592,28.328 C538.592,16.8 532.168,10.288 522.136,10.288 C512.104,10.288 505.68,16.8 505.68,28.416 L505.68,56.664 C505.68,68.192 512.104,74.792 522.136,74.792 L522.136,74.792 Z M522.136,69.248 C515.448,69.248 512.368,64.76 512.368,56.576 L512.368,28.416 C512.368,20.232 515.536,15.744 522.136,15.744 C528.648,15.744 531.816,20.672 531.816,28.416 L531.816,56.488 C531.816,64.408 528.648,69.248 522.136,69.248 L522.136,69.248 Z M551.04,74 L557.64,74 L557.64,44.52 L563.184,44.52 L573.304,74 L580.52,74 L569.784,43.816 C575.68,42.232 579.112,38.536 579.112,30.264 L579.112,25.072 C579.112,15.392 573.656,11.08 563.888,11.08 L551.04,11.08 L551.04,74 Z M557.64,39.504 L557.64,16.272 L563.976,16.272 C569.696,16.272 572.424,18.56 572.424,25.072 L572.424,30.264 C572.424,36.776 570.048,39.504 564.064,39.504 L557.64,39.504 Z M591.648,74 L598.248,74 L598.248,11.08 L591.648,11.08 L591.648,74 Z M611.664,11.08 L611.664,74 L624.16,74 C636.392,74 642.728,67.928 642.728,55.432 L642.728,29.648 C642.728,16.8 636.128,11.08 624.072,11.08 L611.664,11.08 Z M623.808,16.272 C632.784,16.272 635.952,20.76 635.952,29.56 L635.952,55.344 C635.952,64.496 632.872,68.72 623.808,68.72 L618.264,68.72 L618.264,16.272 L623.808,16.272 Z M676.912,74 L683.424,74 L672.336,11.08 L662.392,11.08 L651.216,74 L657.464,74 L660.104,58.16 L674.184,58.16 L676.912,74 Z M667.144,16.272 L673.304,53.056 L660.896,53.056 L667.144,16.272 Z M132.048,154 L149.736,154 C161.528,154 167.776,149.776 167.776,138.16 L167.776,134.112 C167.776,126.104 163.64,122.232 156.952,120.912 C162.672,119.592 166.368,116.16 166.368,109.56 L166.368,105.16 C166.368,95.568 160.824,91.08 149.384,91.08 L132.048,91.08 L132.048,154 Z M145.336,144.408 L145.336,125.576 L148.24,125.576 C152.552,125.576 154.312,126.896 154.312,132.616 L154.312,137.104 C154.312,142.384 152.552,144.408 148.504,144.408 L145.336,144.408 Z M145.336,116.512 L145.336,100.672 L148.152,100.672 C151.672,100.672 153.52,101.64 153.52,106.392 L153.52,110.352 C153.52,115.016 152.024,116.512 148.152,116.512 L145.336,116.512 Z M199.936,91.08 L199.936,136.84 C199.936,142.12 198.528,143.968 195.184,143.968 C191.576,143.968 190.344,142.12 190.344,136.928 L190.344,91.08 L176.792,91.08 L176.792,137.192 C176.792,149.424 183.392,154.968 195.096,154.968 C206.712,154.968 213.576,149.512 213.576,137.28 L213.576,91.08 L199.936,91.08 Z M239.752,154.968 C250.928,154.968 257.176,149.248 257.176,137.808 L257.176,136.576 C257.176,124.256 250.752,120.472 243.272,115.72 C237.816,112.024 235.88,110.44 235.88,105.952 L235.88,105.6 C235.88,102.08 237.112,100.672 239.664,100.672 C242.04,100.672 243.712,101.816 243.712,106.304 L243.712,108.328 L256.472,108.328 L256.472,106.48 C256.384,95.392 250.312,90.2 239.664,90.2 C228.84,90.2 222.68,96.008 222.68,106.48 L222.68,106.832 C222.68,117.216 226.992,121.88 235.176,127.072 C240.808,130.768 243.888,132.528 243.888,138.16 L243.888,138.864 C243.888,142.912 242.568,144.672 239.752,144.672 C236.496,144.672 235.176,143 235.176,137.896 L235.176,135.432 L222.064,135.432 L222.064,137.456 C222.152,150.04 229.016,154.968 239.752,154.968 L239.752,154.968 Z M266.72,154 L280.36,154 L280.36,91.08 L266.72,91.08 L266.72,154 Z M291.048,154 L302.752,154 L302.752,114.928 L315.248,154 L328.096,154 L328.096,91.08 L316.304,91.08 L316.304,124.696 L305.656,91.08 L291.048,91.08 L291.048,154 Z M338.52,154 L367.912,154 L367.912,143.352 L352.072,143.352 L352.072,125.928 L363.864,125.928 L363.864,115.808 L352.072,115.808 L352.072,101.728 L367.032,101.728 L367.032,91.08 L338.52,91.08 L338.52,154 Z M393.208,154.968 C404.384,154.968 410.632,149.248 410.632,137.808 L410.632,136.576 C410.632,124.256 404.208,120.472 396.728,115.72 C391.272,112.024 389.336,110.44 389.336,105.952 L389.336,105.6 C389.336,102.08 390.568,100.672 393.12,100.672 C395.496,100.672 397.168,101.816 397.168,106.304 L397.168,108.328 L409.928,108.328 L409.928,106.48 C409.84,95.392 403.768,90.2 393.12,90.2 C382.296,90.2 376.136,96.008 376.136,106.48 L376.136,106.832 C376.136,117.216 380.448,121.88 388.632,127.072 C394.264,130.768 397.344,132.528 397.344,138.16 L397.344,138.864 C397.344,142.912 396.024,144.672 393.208,144.672 C389.952,144.672 388.632,143 388.632,137.896 L388.632,135.432 L375.52,135.432 L375.52,137.456 C375.608,150.04 382.472,154.968 393.208,154.968 L393.208,154.968 Z M435.928,154.968 C447.104,154.968 453.352,149.248 453.352,137.808 L453.352,136.576 C453.352,124.256 446.928,120.472 439.448,115.72 C433.992,112.024 432.056,110.44 432.056,105.952 L432.056,105.6 C432.056,102.08 433.288,100.672 435.84,100.672 C438.216,100.672 439.888,101.816 439.888,106.304 L439.888,108.328 L452.648,108.328 L452.648,106.48 C452.56,95.392 446.488,90.2 435.84,90.2 C425.016,90.2 418.856,96.008 418.856,106.48 L418.856,106.832 C418.856,117.216 423.168,121.88 431.352,127.072 C436.984,130.768 440.064,132.528 440.064,138.16 L440.064,138.864 C440.064,142.912 438.744,144.672 435.928,144.672 C432.672,144.672 431.352,143 431.352,137.896 L431.352,135.432 L418.24,135.432 L418.24,137.456 C418.328,150.04 425.192,154.968 435.928,154.968 L435.928,154.968 Z M482.208,154.528 C492.592,154.528 498.048,148.72 498.048,137.896 L498.048,91.08 L484.408,91.08 L484.408,137.28 C484.408,141.68 482.472,143.176 479.04,143.176 C477.192,143.176 475.96,142.912 474.904,142.648 L474.904,153.208 C476.488,153.912 478.6,154.528 482.208,154.528 L482.208,154.528 Z M526.776,154.968 C538.48,154.968 546.048,148.896 546.048,135.784 L546.048,109.032 C546.048,95.832 538.216,90.2 526.776,90.2 C515.688,90.2 507.592,96.184 507.592,109.12 L507.592,136.136 C507.592,149.072 515.072,154.968 526.776,154.968 L526.776,154.968 Z M526.776,144.056 C523.08,144.056 521.408,141.768 521.408,136.048 L521.408,109.032 C521.408,103.4 523.168,101.112 526.776,101.112 C530.472,101.112 532.232,103.576 532.232,109.032 L532.232,135.96 C532.232,141.68 530.472,144.056 526.776,144.056 L526.776,144.056 Z M579,91.08 L579,136.84 C579,142.12 577.592,143.968 574.248,143.968 C570.64,143.968 569.408,142.12 569.408,136.928 L569.408,91.08 L555.856,91.08 L555.856,137.192 C555.856,149.424 562.456,154.968 574.16,154.968 C585.776,154.968 592.64,149.512 592.64,137.28 L592.64,91.08 L579,91.08 Z M602.888,154 L616.44,154 L616.44,127.776 L618.904,127.776 L625.856,154 L639.936,154 L631.664,125.664 C635.8,123.64 638.176,120.296 638.176,113.168 L638.176,106.744 C638.176,96.272 633.248,91.08 620.048,91.08 L602.888,91.08 L602.888,154 Z M616.44,119.064 L616.44,101.464 L619.608,101.464 C623.392,101.464 624.976,102.96 624.976,107.184 L624.976,112.992 C624.976,117.48 623.304,119.064 619.608,119.064 L616.44,119.064 Z M648.16,154 L659.864,154 L659.864,114.928 L672.36,154 L685.208,154 L685.208,91.08 L673.416,91.08 L673.416,124.696 L662.768,91.08 L648.16,91.08 L648.16,154 Z M718.776,154 L732.504,154 L722.472,91.08 L703.024,91.08 L693.08,154 L705.488,154 L707.16,141.152 L717.016,141.152 L718.776,154 Z M712.088,103.136 L715.784,131.736 L708.392,131.736 L712.088,103.136 Z M740.376,154 L768.096,154 L768.096,143.176 L753.928,143.176 L753.928,91.08 L740.376,91.08 L740.376,154 Z" id="SOUTH-FLORIDA" sketch:type="MSShapeGroup"></path>
        </g>
    </g>
</svg>