<?xml version="1.0" encoding="UTF-8" standalone="no"?>
<svg width="108px" height="108px" viewBox="0 0 108 108" version="1.1" xmlns="http://www.w3.org/2000/svg" xmlns:xlink="http://www.w3.org/1999/xlink" xmlns:sketch="http://www.bohemiancoding.com/sketch/ns">
    <!-- Generator: Sketch 3.2.2 (9983) - http://www.bohemiancoding.com/sketch -->
    <title>southflorida-monogram</title>
    <desc>Created with Sketch.</desc>
    <defs></defs>
    <g id="Monograms-(For-Export)" stroke="none" stroke-width="1" fill="none" fill-rule="evenodd" sketch:type="MSPage">
        <g id="southflorida-monogram" sketch:type="MSArtboardGroup" fill="#FFFFFF">
            <path d="M42.875,51.62 C49.943,51.62 54.221,47.838 54.221,40.026 L54.221,39.158 C54.221,31.036 50.315,28.308 44.859,24.588 C40.643,21.674 39.217,20.248 39.217,16.652 L39.217,16.404 C39.217,13.49 40.457,12.126 42.689,12.126 C44.921,12.126 46.347,13.242 46.347,16.9 L46.347,18.326 L53.663,18.326 L53.663,16.962 C53.663,9.584 49.695,6.05 42.689,6.05 C35.745,6.05 31.653,9.956 31.653,16.962 L31.653,17.148 C31.653,24.092 34.691,27.316 40.147,30.974 C44.487,34.012 46.595,35.5 46.595,39.964 L46.595,40.522 C46.595,43.994 45.355,45.606 42.875,45.606 C39.961,45.606 38.721,44.056 38.721,39.902 L38.721,38.29 L31.219,38.29 L31.219,39.716 C31.219,47.962 35.683,51.62 42.875,51.62 L42.875,51.62 Z M58.685,51 L66.435,51 L66.497,32.276 L75.673,32.276 L75.673,26.324 L66.497,26.324 L66.497,12.808 L77.781,12.808 L77.781,6.67 L58.685,6.67 L58.685,51 Z M34.04,101 L45.324,101 C53.446,101 57.476,97.838 57.476,89.778 L57.476,86.926 C57.476,81.222 54.686,78.494 49.974,77.626 C54.004,76.572 56.36,74.154 56.36,69.628 L56.36,66.528 C56.36,59.646 52.454,56.67 44.89,56.67 L34.04,56.67 L34.04,101 Z M41.728,95.296 L41.728,80.416 L44.456,80.416 C48.238,80.416 49.726,81.594 49.726,86.244 L49.726,89.344 C49.726,93.622 48.114,95.296 44.704,95.296 L41.728,95.296 Z M41.728,75.022 L41.728,62.374 L44.332,62.374 C47.432,62.374 48.92,63.18 48.92,66.962 L48.92,69.938 C48.92,73.596 47.68,75.022 44.332,75.022 L41.728,75.022 Z M64.792,101.372 C71.178,101.372 75.146,97.9 75.146,90.522 L75.146,56.67 L67.396,56.67 L67.396,90.15 C67.396,93.622 65.846,94.862 63.304,94.862 C61.878,94.862 61.01,94.614 60.204,94.428 L60.204,100.504 C61.196,100.938 62.56,101.372 64.792,101.372 L64.792,101.372 Z" id="SF" sketch:type="MSShapeGroup"></path>
        </g>
    </g>
</svg>