<?xml version="1.0" encoding="UTF-8" standalone="no"?>
<svg width="684px" height="148px" viewBox="0 0 684 148" version="1.1" xmlns="http://www.w3.org/2000/svg" xmlns:xlink="http://www.w3.org/1999/xlink" xmlns:sketch="http://www.bohemiancoding.com/sketch/ns">
    <!-- Generator: Sketch 3.2.2 (9983) - http://www.bohemiancoding.com/sketch -->
    <title>twincities-logo</title>
    <desc>Created with Sketch.</desc>
    <defs></defs>
    <g id="Logos-(For-Export)" stroke="none" stroke-width="1" fill="none" fill-rule="evenodd" sketch:type="MSPage">
        <g id="twincities-logo" sketch:type="MSArtboardGroup" transform="translate(-109.000000, -7.000000)" fill="#FFFFFF">
            <path d="M109,74 L114.72,74 L114.72,23.752 L126.688,74 L128.448,74 L140.328,23.752 L140.328,74 L146.752,74 L146.752,11.08 L138.04,11.08 L127.92,54.904 L117.448,11.08 L109,11.08 L109,74 Z M160.168,74 L166.768,74 L166.768,11.08 L160.168,11.08 L160.168,74 Z M180.184,74 L186.168,74 L186.168,23.488 L203.152,74 L210.016,74 L210.016,11.08 L204.12,11.08 L204.12,57.808 L188.192,11.08 L180.184,11.08 L180.184,74 Z M222.992,74 L228.976,74 L228.976,23.488 L245.96,74 L252.824,74 L252.824,11.08 L246.928,11.08 L246.928,57.808 L231,11.08 L222.992,11.08 L222.992,74 Z M265.8,74 L291.056,74 L291.056,68.72 L272.4,68.72 L272.4,42.936 L286.656,42.936 L286.656,37.656 L272.4,37.656 L272.4,16.36 L289.912,16.36 L289.912,11.08 L265.8,11.08 L265.8,74 Z M325.328,74 L331.84,74 L320.752,11.08 L310.808,11.08 L299.632,74 L305.88,74 L308.52,58.16 L322.6,58.16 L325.328,74 Z M315.56,16.272 L321.72,53.056 L309.312,53.056 L315.56,16.272 Z M342.176,74 L348.776,74 L348.776,45.928 L354.584,45.928 C364.264,45.928 369.896,40.912 369.896,31.32 L369.896,25.424 C369.896,15.392 364.264,11.08 354.584,11.08 L342.176,11.08 L342.176,74 Z M348.776,40.736 L348.776,16.272 L354.936,16.272 C360.392,16.272 363.296,18.56 363.296,25.424 L363.296,31.32 C363.296,37.832 360.48,40.736 354.936,40.736 L348.776,40.736 Z M396.248,74.792 C406.28,74.792 412.704,68.192 412.704,56.488 L412.704,28.328 C412.704,16.8 406.28,10.288 396.248,10.288 C386.216,10.288 379.792,16.8 379.792,28.416 L379.792,56.664 C379.792,68.192 386.216,74.792 396.248,74.792 L396.248,74.792 Z M396.248,69.248 C389.56,69.248 386.48,64.76 386.48,56.576 L386.48,28.416 C386.48,20.232 389.648,15.744 396.248,15.744 C402.76,15.744 405.928,20.672 405.928,28.416 L405.928,56.488 C405.928,64.408 402.76,69.248 396.248,69.248 L396.248,69.248 Z M425.152,74 L448.912,74 L448.912,68.72 L431.752,68.72 L431.752,11.08 L425.152,11.08 L425.152,74 Z M460.216,74 L466.816,74 L466.816,11.08 L460.216,11.08 L460.216,74 Z M493.08,74.792 C501.352,74.792 506.896,69.952 506.896,59.568 L506.896,58.248 C506.896,48.04 502.76,44.08 494.576,38.008 C487.888,32.992 485.512,30.264 485.512,24.016 L485.512,23.664 C485.512,18.384 488.064,15.744 492.552,15.744 C496.952,15.744 499.768,17.944 499.768,24.28 L499.768,26.48 L505.928,26.48 L505.928,24.28 C505.928,14.864 501,10.288 492.552,10.288 C484.456,10.288 479.264,15.304 479.264,24.104 L479.264,24.368 C479.264,33.256 483.4,37.656 490.616,43.112 C497.48,48.392 500.56,51.208 500.56,58.6 L500.56,59.832 C500.56,66.08 497.832,69.336 493.08,69.336 C487.272,69.336 484.808,66.168 484.808,59.04 L484.808,56.928 L478.472,56.928 L478.472,59.04 C478.472,69.16 483.664,74.792 493.08,74.792 L493.08,74.792 Z M513.8,85.704 L519.52,85.704 L538.792,7.032 L533.072,7.032 L513.8,85.704 Z M561.448,74.792 C569.72,74.792 575.264,69.952 575.264,59.568 L575.264,58.248 C575.264,48.04 571.128,44.08 562.944,38.008 C556.256,32.992 553.88,30.264 553.88,24.016 L553.88,23.664 C553.88,18.384 556.432,15.744 560.92,15.744 C565.32,15.744 568.136,17.944 568.136,24.28 L568.136,26.48 L574.296,26.48 L574.296,24.28 C574.296,14.864 569.368,10.288 560.92,10.288 C552.824,10.288 547.632,15.304 547.632,24.104 L547.632,24.368 C547.632,33.256 551.768,37.656 558.984,43.112 C565.848,48.392 568.928,51.208 568.928,58.6 L568.928,59.832 C568.928,66.08 566.2,69.336 561.448,69.336 C555.64,69.336 553.176,66.168 553.176,59.04 L553.176,56.928 L546.84,56.928 L546.84,59.04 C546.84,69.16 552.032,74.792 561.448,74.792 L561.448,74.792 Z M593.784,74 L600.296,74 L600.384,16.36 L611.296,16.36 L611.296,11.08 L582.96,11.08 L582.96,16.36 L593.784,16.36 L593.784,74 Z M618.2,74.352 C620.664,74.352 622.6,72.328 622.6,69.952 C622.6,67.4 620.664,65.376 618.2,65.376 C615.824,65.376 613.712,67.4 613.712,69.952 C613.712,72.328 615.824,74.352 618.2,74.352 L618.2,74.352 Z M650.576,74 L657.176,74 L657.176,45.928 L662.984,45.928 C672.664,45.928 678.296,40.912 678.296,31.32 L678.296,25.424 C678.296,15.392 672.664,11.08 662.984,11.08 L650.576,11.08 L650.576,74 Z M657.176,40.736 L657.176,16.272 L663.336,16.272 C668.792,16.272 671.696,18.56 671.696,25.424 L671.696,31.32 C671.696,37.832 668.88,40.736 663.336,40.736 L657.176,40.736 Z M709.312,74 L715.824,74 L704.736,11.08 L694.792,11.08 L683.616,74 L689.864,74 L692.504,58.16 L706.584,58.16 L709.312,74 Z M699.544,16.272 L705.704,53.056 L693.296,53.056 L699.544,16.272 Z M748.864,11.08 L748.864,58.16 C748.864,66.08 745.784,69.248 740.24,69.248 C734.52,69.248 731.616,66.08 731.616,58.688 L731.616,11.08 L725.016,11.08 L725.016,58.864 C725.016,69.688 731,74.792 740.24,74.792 C750.008,74.792 755.464,69.424 755.464,58.6 L755.464,11.08 L748.864,11.08 Z M768.352,74 L792.112,74 L792.112,68.72 L774.952,68.72 L774.952,11.08 L768.352,11.08 L768.352,74 Z M134.048,154 L151.736,154 C163.528,154 169.776,149.776 169.776,138.16 L169.776,134.112 C169.776,126.104 165.64,122.232 158.952,120.912 C164.672,119.592 168.368,116.16 168.368,109.56 L168.368,105.16 C168.368,95.568 162.824,91.08 151.384,91.08 L134.048,91.08 L134.048,154 Z M147.336,144.408 L147.336,125.576 L150.24,125.576 C154.552,125.576 156.312,126.896 156.312,132.616 L156.312,137.104 C156.312,142.384 154.552,144.408 150.504,144.408 L147.336,144.408 Z M147.336,116.512 L147.336,100.672 L150.152,100.672 C153.672,100.672 155.52,101.64 155.52,106.392 L155.52,110.352 C155.52,115.016 154.024,116.512 150.152,116.512 L147.336,116.512 Z M201.936,91.08 L201.936,136.84 C201.936,142.12 200.528,143.968 197.184,143.968 C193.576,143.968 192.344,142.12 192.344,136.928 L192.344,91.08 L178.792,91.08 L178.792,137.192 C178.792,149.424 185.392,154.968 197.096,154.968 C208.712,154.968 215.576,149.512 215.576,137.28 L215.576,91.08 L201.936,91.08 Z M241.752,154.968 C252.928,154.968 259.176,149.248 259.176,137.808 L259.176,136.576 C259.176,124.256 252.752,120.472 245.272,115.72 C239.816,112.024 237.88,110.44 237.88,105.952 L237.88,105.6 C237.88,102.08 239.112,100.672 241.664,100.672 C244.04,100.672 245.712,101.816 245.712,106.304 L245.712,108.328 L258.472,108.328 L258.472,106.48 C258.384,95.392 252.312,90.2 241.664,90.2 C230.84,90.2 224.68,96.008 224.68,106.48 L224.68,106.832 C224.68,117.216 228.992,121.88 237.176,127.072 C242.808,130.768 245.888,132.528 245.888,138.16 L245.888,138.864 C245.888,142.912 244.568,144.672 241.752,144.672 C238.496,144.672 237.176,143 237.176,137.896 L237.176,135.432 L224.064,135.432 L224.064,137.456 C224.152,150.04 231.016,154.968 241.752,154.968 L241.752,154.968 Z M268.72,154 L282.36,154 L282.36,91.08 L268.72,91.08 L268.72,154 Z M293.048,154 L304.752,154 L304.752,114.928 L317.248,154 L330.096,154 L330.096,91.08 L318.304,91.08 L318.304,124.696 L307.656,91.08 L293.048,91.08 L293.048,154 Z M340.52,154 L369.912,154 L369.912,143.352 L354.072,143.352 L354.072,125.928 L365.864,125.928 L365.864,115.808 L354.072,115.808 L354.072,101.728 L369.032,101.728 L369.032,91.08 L340.52,91.08 L340.52,154 Z M395.208,154.968 C406.384,154.968 412.632,149.248 412.632,137.808 L412.632,136.576 C412.632,124.256 406.208,120.472 398.728,115.72 C393.272,112.024 391.336,110.44 391.336,105.952 L391.336,105.6 C391.336,102.08 392.568,100.672 395.12,100.672 C397.496,100.672 399.168,101.816 399.168,106.304 L399.168,108.328 L411.928,108.328 L411.928,106.48 C411.84,95.392 405.768,90.2 395.12,90.2 C384.296,90.2 378.136,96.008 378.136,106.48 L378.136,106.832 C378.136,117.216 382.448,121.88 390.632,127.072 C396.264,130.768 399.344,132.528 399.344,138.16 L399.344,138.864 C399.344,142.912 398.024,144.672 395.208,144.672 C391.952,144.672 390.632,143 390.632,137.896 L390.632,135.432 L377.52,135.432 L377.52,137.456 C377.608,150.04 384.472,154.968 395.208,154.968 L395.208,154.968 Z M437.928,154.968 C449.104,154.968 455.352,149.248 455.352,137.808 L455.352,136.576 C455.352,124.256 448.928,120.472 441.448,115.72 C435.992,112.024 434.056,110.44 434.056,105.952 L434.056,105.6 C434.056,102.08 435.288,100.672 437.84,100.672 C440.216,100.672 441.888,101.816 441.888,106.304 L441.888,108.328 L454.648,108.328 L454.648,106.48 C454.56,95.392 448.488,90.2 437.84,90.2 C427.016,90.2 420.856,96.008 420.856,106.48 L420.856,106.832 C420.856,117.216 425.168,121.88 433.352,127.072 C438.984,130.768 442.064,132.528 442.064,138.16 L442.064,138.864 C442.064,142.912 440.744,144.672 437.928,144.672 C434.672,144.672 433.352,143 433.352,137.896 L433.352,135.432 L420.24,135.432 L420.24,137.456 C420.328,150.04 427.192,154.968 437.928,154.968 L437.928,154.968 Z M484.208,154.528 C494.592,154.528 500.048,148.72 500.048,137.896 L500.048,91.08 L486.408,91.08 L486.408,137.28 C486.408,141.68 484.472,143.176 481.04,143.176 C479.192,143.176 477.96,142.912 476.904,142.648 L476.904,153.208 C478.488,153.912 480.6,154.528 484.208,154.528 L484.208,154.528 Z M528.776,154.968 C540.48,154.968 548.048,148.896 548.048,135.784 L548.048,109.032 C548.048,95.832 540.216,90.2 528.776,90.2 C517.688,90.2 509.592,96.184 509.592,109.12 L509.592,136.136 C509.592,149.072 517.072,154.968 528.776,154.968 L528.776,154.968 Z M528.776,144.056 C525.08,144.056 523.408,141.768 523.408,136.048 L523.408,109.032 C523.408,103.4 525.168,101.112 528.776,101.112 C532.472,101.112 534.232,103.576 534.232,109.032 L534.232,135.96 C534.232,141.68 532.472,144.056 528.776,144.056 L528.776,144.056 Z M581,91.08 L581,136.84 C581,142.12 579.592,143.968 576.248,143.968 C572.64,143.968 571.408,142.12 571.408,136.928 L571.408,91.08 L557.856,91.08 L557.856,137.192 C557.856,149.424 564.456,154.968 576.16,154.968 C587.776,154.968 594.64,149.512 594.64,137.28 L594.64,91.08 L581,91.08 Z M604.888,154 L618.44,154 L618.44,127.776 L620.904,127.776 L627.856,154 L641.936,154 L633.664,125.664 C637.8,123.64 640.176,120.296 640.176,113.168 L640.176,106.744 C640.176,96.272 635.248,91.08 622.048,91.08 L604.888,91.08 L604.888,154 Z M618.44,119.064 L618.44,101.464 L621.608,101.464 C625.392,101.464 626.976,102.96 626.976,107.184 L626.976,112.992 C626.976,117.48 625.304,119.064 621.608,119.064 L618.44,119.064 Z M650.16,154 L661.864,154 L661.864,114.928 L674.36,154 L687.208,154 L687.208,91.08 L675.416,91.08 L675.416,124.696 L664.768,91.08 L650.16,91.08 L650.16,154 Z M720.776,154 L734.504,154 L724.472,91.08 L705.024,91.08 L695.08,154 L707.488,154 L709.16,141.152 L719.016,141.152 L720.776,154 Z M714.088,103.136 L717.784,131.736 L710.392,131.736 L714.088,103.136 Z M742.376,154 L770.096,154 L770.096,143.176 L755.928,143.176 L755.928,91.08 L742.376,91.08 L742.376,154 Z" id="MINNEAPOLIS/ST.-PAUL" sketch:type="MSShapeGroup"></path>
        </g>
    </g>
</svg>