<?xml version="1.0" encoding="UTF-8" standalone="no"?>
<svg width="470px" height="173px" viewBox="0 0 470 173" version="1.1" xmlns="http://www.w3.org/2000/svg" xmlns:xlink="http://www.w3.org/1999/xlink" xmlns:sketch="http://www.bohemiancoding.com/sketch/ns">
    <!-- Generator: Sketch 3.3.3 (12081) - http://www.bohemiancoding.com/sketch -->
    <title>Promo with Devices@1.5x</title>
    <desc>Created with Sketch.</desc>
    <defs>
        <path id="path-1" d="M16.707626,154.63 L249.707626,154.63 L249.707626,5.67720752 C249.707626,2.88971178 247.344732,0.63 244.424229,0.63 L21.9910232,0.63 C19.0730835,0.63 16.707626,2.8888119 16.707626,5.67720752 L16.707626,154.63 L16.707626,154.63 Z"></path>
    </defs>
    <g id="Page-1" stroke="none" stroke-width="1" fill="none" fill-rule="evenodd" sketch:type="MSPage">
        <g id="Promo-with-Devices" sketch:type="MSLayerGroup" transform="translate(1.000000, 0.000000)">
            <g id="Group-2">
                <path d="M260.70255,156.128343 C260.70255,154.748546 259.470831,153.63 257.958602,153.63 L3.45157392,153.63 C1.93613335,153.63 0.707626044,154.750789 0.707626044,156.128343 L0.707626044,159.131657 C0.707626044,160.511454 1.93934454,161.63 3.45157392,161.63 L257.958602,161.63 C259.474043,161.63 260.70255,160.509211 260.70255,159.131657 L260.70255,156.128343 L260.70255,156.128343 Z" id="macbook-body" stroke="#000000" stroke-width="2" sketch:type="MSShapeGroup"></path>
                <g id="macbook-screen">
                    <use stroke="#7F7F7F" stroke-width="6" fill="#FFFFFF" fill-rule="evenodd" sketch:type="MSShapeGroup" xlink:href="#path-1"></use>
                    <use stroke="#000000" stroke-width="2" fill="none" xlink:href="#path-1"></use>
                </g>
                <rect id="Rectangle-163" fill="#D8D8D8" sketch:type="MSShapeGroup" x="34" y="117.326574" width="43.9952257" height="25.6734262" rx="4"></rect>
                <rect id="Rectangle-164" fill="#D8D8D8" sketch:type="MSShapeGroup" x="84.1056737" y="117.326574" width="43.9952257" height="25.6734262" rx="4"></rect>
                <rect id="Rectangle-165" fill="#D8D8D8" sketch:type="MSShapeGroup" x="134.211347" y="117.326574" width="43.9952257" height="25.6734262" rx="4"></rect>
                <rect id="Rectangle-166" fill="#D8D8D8" sketch:type="MSShapeGroup" x="184.317021" y="117.326574" width="43.9952257" height="25.6734262" rx="4"></rect>
                <g id="Group" transform="translate(35.000000, 17.000000)" stroke="#000000" stroke-width="2" stroke-linecap="round" sketch:type="MSShapeGroup">
                    <path d="M133.787527,1.02703702 L192.090157,1.02703708" id="Line"></path>
                    <path d="M133.429856,13.0044629 L192.090157,13.0044629" id="Line-12"></path>
                    <path d="M133.429856,23.008182 L192.090157,23.008182" id="Line-21"></path>
                    <path d="M133.429856,34.0122729 L192.090157,34.0122729" id="Line-22"></path>
                    <path d="M133.429856,45.0163639 L192.090157,45.0163639" id="Line-23"></path>
                    <path d="M133.429856,56.0204549 L192.090157,56.0204549" id="Line-24"></path>
                    <path d="M133.429856,67.0245459 L192.090157,67.0245459" id="Line-25"></path>
                    <path d="M133.429856,78.0286369 L192.090157,78.0286369" id="Line-26"></path>
                    <path d="M133.429856,89.0327279 L192.090157,89.0327279" id="Line-27"></path>
                    <path d="M0.222089602,78.0286369 L121.20896,78.0286369" id="Line-29"></path>
                    <path d="M0.222089602,89.0327279 L90.6567201,89.0327279" id="Line-28"></path>
                </g>
                <rect id="Rectangle-163" fill="#D8D8D8" sketch:type="MSShapeGroup" x="34" y="36" width="123.43105" height="50.320626" rx="4"></rect>
                <rect id="Rectangle-163" fill="#004A8F" sketch:type="MSShapeGroup" x="34" y="17" width="66" height="12" rx="2"></rect>
            </g>
            <g id="Group-3" transform="translate(270.000000, 29.000000)" sketch:type="MSShapeGroup">
                <path d="M0,0 L16.5437653,4.99989351 L33.0875306,0 L49.6312959,4.99989351 L66.1750611,0 L82.7188264,4.99989351 L99.2625917,0 L115.806357,4.99989351 L132.350122,0 L148.893888,4.99989351 L165.437653,0 L181.981418,4.99989351 L198.525183,0 L198.525183,129.992006 C198.525183,132.756257 196.295653,134.997125 193.518502,134.997125 L5.00668184,134.997125 C2.24156781,134.997125 0,132.766629 0,129.992006 L0,0 Z" id="Rectangle-169" stroke="#000000" stroke-width="2" fill="#FFFFFF"></path>
                <rect id="Rectangle-176" fill="#004A8F" x="11.5806357" y="19.999574" width="92.6450856" height="19.999574" rx="3"></rect>
                <path d="M116.633545,21.6662052 L184.483153,21.6662052" id="Line-15" stroke="#000000" stroke-width="2" stroke-linecap="round"></path>
                <path d="M116.633545,34.9992546 L184.483153,34.9992546" id="Line-14" stroke="#000000" stroke-width="2" stroke-linecap="round"></path>
                <rect id="Rectangle-175" fill="#D8D8D8" x="69.4838142" y="49.9989351" width="114.15198" height="69.9985091" rx="2"></rect>
                <rect id="Rectangle-174" fill="#D8D8D8" x="11.5806357" y="49.9989351" width="52.9400489" height="29.9993611" rx="2"></rect>
                <rect id="Rectangle-173" fill="#D8D8D8" x="11.5806357" y="89.9980832" width="52.9400489" height="29.9993611" rx="2"></rect>
            </g>
            <g id="Group-4" transform="translate(225.000000, 67.000000)" sketch:type="MSShapeGroup">
                <rect id="iphone" stroke="#000000" stroke-width="2" fill="#FFFFFF" x="0" y="0" width="60" height="105" rx="5"></rect>
                <rect id="screen-border" stroke="#000000" fill="#FFFFFF" x="5" y="10.3506504" width="50" height="84" rx="2"></rect>
                <path d="M30,102 C31.6568543,102 33,100.656854 33,99 C33,97.3431457 31.6568543,96 30,96 C28.3431457,96 27,97.3431457 27,99 C27,100.656854 28.3431457,102 30,102 Z" id="home" stroke="#000000"></path>
                <ellipse id="camera" fill="#000000" cx="30" cy="5.95062597" rx="1" ry="1"></ellipse>
                <g id="screen" transform="translate(8.000000, 12.320626)">
                    <path d="M0.956521739,48 L43.0434783,48" id="Line-2" stroke="#000000" stroke-width="2" stroke-linecap="round"></path>
                    <path d="M0.956521739,57 L20.0869565,57" id="Line-16" stroke="#000000" stroke-width="2" stroke-linecap="round"></path>
                    <path d="M0.956521739,66 L20.0869565,66" id="Line-18" stroke="#000000" stroke-width="2" stroke-linecap="round"></path>
                    <path d="M0.956521739,39 L43.0434783,39" id="Line-17" stroke="#000000" stroke-width="2" stroke-linecap="round"></path>
                    <path d="M0.956521739,75 L43.0434783,75" id="Line-19" stroke="#000000" stroke-width="2" stroke-linecap="round"></path>
                    <rect id="Rectangle-160" fill="#D8D8D8" x="0" y="10.63" width="44" height="22" rx="2"></rect>
                    <rect id="Rectangle-167" fill="#004A8F" x="0" y="0.679374034" width="22.9565217" height="6" rx="2"></rect>
                    <rect id="Rectangle-161" fill="#D8D8D8" x="24.8695652" y="55" width="19.1304348" height="13" rx="2"></rect>
                </g>
            </g>
        </g>
    </g>
</svg>