<?xml version="1.0" encoding="UTF-8" standalone="no"?>
<svg width="780px" height="96px" viewBox="0 0 780 96" version="1.1" xmlns="http://www.w3.org/2000/svg" xmlns:xlink="http://www.w3.org/1999/xlink" xmlns:sketch="http://www.bohemiancoding.com/sketch/ns">
    <!-- Generator: Sketch 3.2.2 (9983) - http://www.bohemiancoding.com/sketch -->
    <title>the-list-logo-ruby</title>
    <desc>Created with Sketch.</desc>
    <defs></defs>
    <g id="Page-1" stroke="none" stroke-width="1" fill="none" fill-rule="evenodd" sketch:type="MSPage">
        <g id="the-list-logo-ruby" sketch:type="MSArtboardGroup">
            <path d="M48.2595436,0 C74.721222,0 96.2509938,21.3840095 96.2509938,47.6730457 C96.2509938,73.9567849 74.7158902,95.3460914 48.2595436,95.3460914 C21.803197,95.3460914 0.273425176,73.9620819 0.273425176,47.6730457 C0.273425176,21.3840095 21.803197,0 48.2595436,0 Z M162.055958,0 C188.512304,0 210.042076,21.3840095 210.042076,47.6730457 C210.042076,73.9567849 188.512304,95.3460914 162.055958,95.3460914 C135.599611,95.3460914 114.069839,73.9620819 114.069839,47.6730457 C114.069839,21.3840095 135.599611,0 162.055958,0 Z M275.84704,0 C302.303386,0 323.833158,21.3840095 323.833158,47.6730457 C323.833158,73.9567849 302.303386,95.3460914 275.84704,95.3460914 C249.390693,95.3460914 227.860921,73.9620819 227.860921,47.6730457 C227.855589,21.3840095 249.385361,0 275.84704,0 Z" id="Shape" fill="#231F20" sketch:type="MSShapeGroup"></path>
            <path d="M389.638122,0 C416.094468,0 437.629572,21.3840095 437.629572,47.6730457 C437.629572,73.9567849 416.094468,95.3460914 389.638122,95.3460914 C363.181775,95.3460914 341.652003,73.9620819 341.652003,47.6730457 C341.646672,21.3840095 363.176443,0 389.638122,0 Z M503.429204,0 C529.890882,0 551.420654,21.3840095 551.420654,47.6730457 C551.420654,73.9567849 529.890882,95.3460914 503.429204,95.3460914 C476.967526,95.3460914 455.443085,73.9620819 455.443085,47.6730457 C455.443085,21.3840095 476.967526,0 503.429204,0 Z M617.23095,0 C643.687296,0 665.211736,21.3840095 665.211736,47.6730457 C665.211736,73.9567849 643.687296,95.3460914 617.23095,95.3460914 C590.769271,95.3460914 569.239499,73.9620819 569.239499,47.6730457 C569.239499,21.3840095 590.769271,0 617.23095,0 Z M731.011368,0 C757.473047,0 779.002818,21.3840095 779.002818,47.6730457 C779.002818,73.9567849 757.473047,95.3460914 731.011368,95.3460914 C704.54969,95.3460914 683.02525,73.9620819 683.02525,47.6730457 C683.02525,21.3840095 704.54969,0 731.011368,0 Z" id="Shape" fill="#AB3032" sketch:type="MSShapeGroup"></path>
            <g id="Group" sketch:type="MSLayerGroup" transform="translate(32.264171, 26.485025)" fill="#FFFFFF">
                <path d="M11.4420233,41.3325306 L20.5487223,41.3325306 L20.5487223,8.61293025 L31.3455989,8.61293025 L31.3455989,1.62088355 L0.655810285,1.62088355 L0.655810285,8.61293025 L11.4420233,8.61293025 L11.4420233,41.3325306 Z" id="Shape" sketch:type="MSShapeGroup"></path>
                <path d="M112.71406,41.3325306 L121.767441,41.3325306 L121.767441,24.9488939 L137.816132,24.9488939 L137.816132,41.3325306 L146.869513,41.3325306 L146.869513,1.62088355 L137.816132,1.62088355 L137.816132,17.8350161 L121.767441,17.8350161 L121.767441,1.62088355 L112.71406,1.62088355 L112.71406,41.3325306 Z" id="Shape" sketch:type="MSShapeGroup"></path>
                <path d="M229.634904,41.3325306 L256.581775,41.3325306 L256.581775,34.3298899 L238.629635,34.3298899 L238.629635,24.4456784 L252.273688,24.4456784 L252.273688,17.8879861 L238.629635,17.8879861 L238.629635,8.61293025 L255.686034,8.61293025 L255.686034,1.62088355 L229.634904,1.62088355 L229.634904,41.3325306 Z" id="Shape" sketch:type="MSShapeGroup"></path>
                <path d="M345.745315,41.3325306 L371.060658,41.3325306 L371.060658,34.2822168 L354.793364,34.2822168 L354.793364,1.62088355 L345.745315,1.62088355 L345.745315,41.3325306 Z" id="Shape" sketch:type="MSShapeGroup"></path>
                <rect id="Rectangle" sketch:type="MSShapeGroup" x="466.606352" y="1.61558655" width="9.1173625" height="39.70635"></rect>
            </g>
            <path d="M617.614839,68.4267116 C627.062772,68.4267116 632.863761,62.8118862 632.863761,55.7615724 C632.863761,47.5406206 627.894531,44.9291971 618.222663,43.7055889 C612.08044,42.815692 610.790146,41.4808467 610.790146,38.652246 C610.790146,35.9878525 612.805563,34.1497917 616.772416,34.1497917 C620.739268,34.1497917 622.866653,35.8183483 623.421159,39.4309058 L631.749416,39.4309058 C631.018961,31.5436652 625.761815,27.5497234 616.767084,27.5497234 C607.932306,27.5497234 602.22729,32.5977692 602.22729,39.3726387 C602.22729,47.0427021 606.418078,50.08848 616.660448,51.4233253 C622.514754,52.3132221 624.1996,53.4202962 624.1996,56.5879052 C624.1996,59.7025442 621.571027,61.8637223 617.604175,61.8637223 C611.669892,61.8637223 610.160995,58.9238845 609.766442,55.3642971 L601.112946,55.3642971 C601.630129,63.3151017 606.658008,68.4267116 617.614839,68.4267116" id="Shape" fill="#FFFFFF" sketch:type="MSShapeGroup"></path>
            <path d="M726.452687,67.817556 L735.570049,67.817556 L735.570049,35.0979556 L746.356262,35.0979556 L746.356262,28.1059089 L715.666474,28.1059089 L715.666474,35.0979556 L726.452687,35.0979556 L726.452687,67.817556 Z" id="Shape" fill="#FFFFFF" sketch:type="MSShapeGroup"></path>
        </g>
    </g>
</svg>