<?xml version="1.0" encoding="UTF-8" standalone="no"?>
<svg width="320px" height="239px" viewBox="0 0 320 239" version="1.1" xmlns="http://www.w3.org/2000/svg" xmlns:xlink="http://www.w3.org/1999/xlink" xmlns:sketch="http://www.bohemiancoding.com/sketch/ns">
    <!-- Generator: Sketch 3.2.2 (9983) - http://www.bohemiancoding.com/sketch -->
    <title>blank - 4x3</title>
    <desc>Created with Sketch.</desc>
    <defs></defs>
    <g id="Reporter-as-brand" stroke="none" stroke-width="1" fill="none" fill-rule="evenodd" sketch:type="MSPage">
        <g id="blank---4x3" sketch:type="MSLayerGroup" transform="translate(160.000000, 119.500000) rotate(-270.000000) translate(-160.000000, -119.500000) translate(40.500000, -40.500000)">
            <rect id="Rectangle-30" fill="#6A6A6A" sketch:type="MSShapeGroup" x="0" y="0" width="238.914027" height="320"></rect>
            <g id="Group-4" transform="translate(118.887755, 159.433358) rotate(-90.000000) translate(-118.887755, -159.433358) translate(23.387755, 93.933358)" fill="#FFFFFF" sketch:type="MSShapeGroup">
                <path d="M-1.42108547e-13,1 L15.8850221,5.81481481 L31.7700443,1 L47.6550664,5.81481481 L63.5400885,1 L79.4251107,5.81481481 L95.3101328,1 L111.195155,5.81481481 L127.080177,1 L142.965199,5.81481481 L158.850221,1 L174.735243,5.81481481 L190.620266,1 L190.620266,126.003327 C190.620266,128.762913 188.380272,131 185.619617,131 L5.00064879,131 C2.23886672,131 -1.42108547e-13,128.770958 -1.42108547e-13,126.003327 L-1.42108547e-13,1 Z M11.1195155,23.2685185 C11.1195155,21.6065505 12.4635714,20.2592593 14.1174371,20.2592593 L97.0777179,20.2592593 C98.7334242,20.2592593 100.075639,21.5982422 100.075639,23.2685185 L100.075639,36.5092593 C100.075639,38.1712273 98.7315835,39.5185185 97.0777179,39.5185185 L14.1174371,39.5185185 C12.4617307,39.5185185 11.1195155,38.1795356 11.1195155,36.5092593 L11.1195155,23.2685185 Z M66.717093,51.1472298 C66.717093,50.0431675 67.6154763,49.1481481 68.7130866,49.1481481 L174.327752,49.1481481 C175.430109,49.1481481 176.323746,50.0500677 176.323746,51.1472298 L176.323746,114.556474 C176.323746,115.660536 175.425362,116.555556 174.327752,116.555556 L68.7130866,116.555556 C67.6107298,116.555556 66.717093,115.653636 66.717093,114.556474 L66.717093,51.1472298 Z M11.1195155,51.1566226 C11.1195155,50.0473728 12.0233751,49.1481481 13.1121929,49.1481481 L59.9589089,49.1481481 C61.0594343,49.1481481 61.9515863,50.0444137 61.9515863,51.1566226 L61.9515863,76.0285626 C61.9515863,77.1378124 61.0477268,78.037037 59.9589089,78.037037 L13.1121929,78.037037 C12.0116676,78.037037 11.1195155,77.1407715 11.1195155,76.0285626 L11.1195155,51.1566226 Z M11.1195155,89.6751411 C11.1195155,88.5658913 12.0233751,87.6666667 13.1121929,87.6666667 L59.9589089,87.6666667 C61.0594343,87.6666667 61.9515863,88.5629322 61.9515863,89.6751411 L61.9515863,114.547081 C61.9515863,115.656331 61.0477268,116.555556 59.9589089,116.555556 L13.1121929,116.555556 C12.0116676,116.555556 11.1195155,115.65929 11.1195155,114.547081 L11.1195155,89.6751411 Z M177.137363,36.2891033 C178.009499,36.2891033 178.716505,35.5792957 178.716505,34.7037037 C178.716505,33.8281117 178.009499,33.1183041 177.137363,33.1183041 L111.989406,33.1183041 C111.11727,33.1183041 110.410264,33.8281117 110.410264,34.7037037 C110.410264,35.5792957 111.11727,36.2891033 111.989406,36.2891033 L177.137363,36.2891033 Z M177.137363,23.4495972 C178.009499,23.4495972 178.716505,22.7397896 178.716505,21.8641975 C178.716505,20.9886055 178.009499,20.2787979 177.137363,20.2787979 L111.989406,20.2787979 C111.11727,20.2787979 110.410264,20.9886055 110.410264,21.8641975 C110.410264,22.7397896 111.11727,23.4495972 111.989406,23.4495972 L177.137363,23.4495972 Z" id="Rectangle-169"></path>
            </g>
        </g>
    </g>
</svg>