<?xml version="1.0" encoding="UTF-8" standalone="no"?>
<svg width="715px" height="144px" viewBox="0 0 715 144" version="1.1" xmlns="http://www.w3.org/2000/svg" xmlns:xlink="http://www.w3.org/1999/xlink" xmlns:sketch="http://www.bohemiancoding.com/sketch/ns">
    <!-- Generator: Sketch 3.2.2 (9983) - http://www.bohemiancoding.com/sketch -->
    <title>atlanta-logo</title>
    <desc>Created with Sketch.</desc>
    <defs></defs>
    <g id="Logos-(For-Export)" stroke="none" stroke-width="1" fill="none" fill-rule="evenodd" sketch:type="MSPage">
        <g id="atlanta-logo" sketch:type="MSArtboardGroup" transform="translate(-93.000000, -11.000000)" fill="#FFFFFF">
            <path d="M348.224,74 L354.736,74 L343.648,11.08 L333.704,11.08 L322.528,74 L328.776,74 L331.416,58.16 L345.496,58.16 L348.224,74 Z M338.456,16.272 L344.616,53.056 L332.208,53.056 L338.456,16.272 Z M369.56,74 L376.072,74 L376.16,16.36 L387.072,16.36 L387.072,11.08 L358.736,11.08 L358.736,16.36 L369.56,16.36 L369.56,74 Z M397.32,74 L421.08,74 L421.08,68.72 L403.92,68.72 L403.92,11.08 L397.32,11.08 L397.32,74 Z M455,74 L461.512,74 L450.424,11.08 L440.48,11.08 L429.304,74 L435.552,74 L438.192,58.16 L452.272,58.16 L455,74 Z M445.232,16.272 L451.392,53.056 L438.984,53.056 L445.232,16.272 Z M471.848,74 L477.832,74 L477.832,23.488 L494.816,74 L501.68,74 L501.68,11.08 L495.784,11.08 L495.784,57.808 L479.856,11.08 L471.848,11.08 L471.848,74 Z M522.84,74 L529.352,74 L529.44,16.36 L540.352,16.36 L540.352,11.08 L512.016,11.08 L512.016,16.36 L522.84,16.36 L522.84,74 Z M569.96,74 L576.472,74 L565.384,11.08 L555.44,11.08 L544.264,74 L550.512,74 L553.152,58.16 L567.232,58.16 L569.96,74 Z M560.192,16.272 L566.352,53.056 L553.944,53.056 L560.192,16.272 Z M93.156,154 L110.844,154 C122.636,154 128.884,149.776 128.884,138.16 L128.884,134.112 C128.884,126.104 124.748,122.232 118.06,120.912 C123.78,119.592 127.476,116.16 127.476,109.56 L127.476,105.16 C127.476,95.568 121.932,91.08 110.492,91.08 L93.156,91.08 L93.156,154 Z M106.444,144.408 L106.444,125.576 L109.348,125.576 C113.66,125.576 115.42,126.896 115.42,132.616 L115.42,137.104 C115.42,142.384 113.66,144.408 109.612,144.408 L106.444,144.408 Z M106.444,116.512 L106.444,100.672 L109.26,100.672 C112.78,100.672 114.628,101.64 114.628,106.392 L114.628,110.352 C114.628,115.016 113.132,116.512 109.26,116.512 L106.444,116.512 Z M161.044,91.08 L161.044,136.84 C161.044,142.12 159.636,143.968 156.292,143.968 C152.684,143.968 151.452,142.12 151.452,136.928 L151.452,91.08 L137.9,91.08 L137.9,137.192 C137.9,149.424 144.5,154.968 156.204,154.968 C167.82,154.968 174.684,149.512 174.684,137.28 L174.684,91.08 L161.044,91.08 Z M200.86,154.968 C212.036,154.968 218.284,149.248 218.284,137.808 L218.284,136.576 C218.284,124.256 211.86,120.472 204.38,115.72 C198.924,112.024 196.988,110.44 196.988,105.952 L196.988,105.6 C196.988,102.08 198.22,100.672 200.772,100.672 C203.148,100.672 204.82,101.816 204.82,106.304 L204.82,108.328 L217.58,108.328 L217.58,106.48 C217.492,95.392 211.42,90.2 200.772,90.2 C189.948,90.2 183.788,96.008 183.788,106.48 L183.788,106.832 C183.788,117.216 188.1,121.88 196.284,127.072 C201.916,130.768 204.996,132.528 204.996,138.16 L204.996,138.864 C204.996,142.912 203.676,144.672 200.86,144.672 C197.604,144.672 196.284,143 196.284,137.896 L196.284,135.432 L183.172,135.432 L183.172,137.456 C183.26,150.04 190.124,154.968 200.86,154.968 L200.86,154.968 Z M227.828,154 L241.468,154 L241.468,91.08 L227.828,91.08 L227.828,154 Z M252.156,154 L263.86,154 L263.86,114.928 L276.356,154 L289.204,154 L289.204,91.08 L277.412,91.08 L277.412,124.696 L266.764,91.08 L252.156,91.08 L252.156,154 Z M299.628,154 L329.02,154 L329.02,143.352 L313.18,143.352 L313.18,125.928 L324.972,125.928 L324.972,115.808 L313.18,115.808 L313.18,101.728 L328.14,101.728 L328.14,91.08 L299.628,91.08 L299.628,154 Z M354.316,154.968 C365.492,154.968 371.74,149.248 371.74,137.808 L371.74,136.576 C371.74,124.256 365.316,120.472 357.836,115.72 C352.38,112.024 350.444,110.44 350.444,105.952 L350.444,105.6 C350.444,102.08 351.676,100.672 354.228,100.672 C356.604,100.672 358.276,101.816 358.276,106.304 L358.276,108.328 L371.036,108.328 L371.036,106.48 C370.948,95.392 364.876,90.2 354.228,90.2 C343.404,90.2 337.244,96.008 337.244,106.48 L337.244,106.832 C337.244,117.216 341.556,121.88 349.74,127.072 C355.372,130.768 358.452,132.528 358.452,138.16 L358.452,138.864 C358.452,142.912 357.132,144.672 354.316,144.672 C351.06,144.672 349.74,143 349.74,137.896 L349.74,135.432 L336.628,135.432 L336.628,137.456 C336.716,150.04 343.58,154.968 354.316,154.968 L354.316,154.968 Z M397.036,154.968 C408.212,154.968 414.46,149.248 414.46,137.808 L414.46,136.576 C414.46,124.256 408.036,120.472 400.556,115.72 C395.1,112.024 393.164,110.44 393.164,105.952 L393.164,105.6 C393.164,102.08 394.396,100.672 396.948,100.672 C399.324,100.672 400.996,101.816 400.996,106.304 L400.996,108.328 L413.756,108.328 L413.756,106.48 C413.668,95.392 407.596,90.2 396.948,90.2 C386.124,90.2 379.964,96.008 379.964,106.48 L379.964,106.832 C379.964,117.216 384.276,121.88 392.46,127.072 C398.092,130.768 401.172,132.528 401.172,138.16 L401.172,138.864 C401.172,142.912 399.852,144.672 397.036,144.672 C393.78,144.672 392.46,143 392.46,137.896 L392.46,135.432 L379.348,135.432 L379.348,137.456 C379.436,150.04 386.3,154.968 397.036,154.968 L397.036,154.968 Z M456.428,154.968 C467.428,154.968 474.38,149.864 474.468,136.928 L474.468,134.904 L461.356,134.904 L461.356,136.928 C461.356,142.384 459.508,144.056 456.34,144.056 C452.556,144.056 451.148,141.768 451.148,135.96 L451.148,108.944 C451.148,103.224 452.732,101.112 456.076,101.112 C459.332,101.112 460.652,102.608 460.828,107.976 L460.828,109.472 L474.292,109.472 L474.292,108.24 C474.116,94.864 466.988,90.2 456.252,90.2 C445.164,90.2 437.332,96.448 437.332,109.384 L437.332,135.784 C437.332,148.808 444.46,154.968 456.428,154.968 L456.428,154.968 Z M483.396,154 L496.948,154 L496.948,127.248 L506.54,127.248 L506.54,154 L520.092,154 L520.092,91.08 L506.54,91.08 L506.54,116.336 L496.948,116.336 L496.948,91.08 L483.396,91.08 L483.396,154 Z M530.516,154 L544.068,154 L544.068,127.776 L546.532,127.776 L553.484,154 L567.564,154 L559.292,125.664 C563.428,123.64 565.804,120.296 565.804,113.168 L565.804,106.744 C565.804,96.272 560.876,91.08 547.676,91.08 L530.516,91.08 L530.516,154 Z M544.068,119.064 L544.068,101.464 L547.236,101.464 C551.02,101.464 552.604,102.96 552.604,107.184 L552.604,112.992 C552.604,117.48 550.932,119.064 547.236,119.064 L544.068,119.064 Z M593.916,154.968 C605.62,154.968 613.188,148.896 613.188,135.784 L613.188,109.032 C613.188,95.832 605.356,90.2 593.916,90.2 C582.828,90.2 574.732,96.184 574.732,109.12 L574.732,136.136 C574.732,149.072 582.212,154.968 593.916,154.968 L593.916,154.968 Z M593.916,144.056 C590.22,144.056 588.548,141.768 588.548,136.048 L588.548,109.032 C588.548,103.4 590.308,101.112 593.916,101.112 C597.612,101.112 599.372,103.576 599.372,109.032 L599.372,135.96 C599.372,141.68 597.612,144.056 593.916,144.056 L593.916,144.056 Z M623.172,154 L634.876,154 L634.876,114.928 L647.372,154 L660.22,154 L660.22,91.08 L648.428,91.08 L648.428,124.696 L637.78,91.08 L623.172,91.08 L623.172,154 Z M670.908,154 L684.548,154 L684.548,91.08 L670.908,91.08 L670.908,154 Z M713.716,154.968 C724.716,154.968 731.668,149.864 731.756,136.928 L731.756,134.904 L718.644,134.904 L718.644,136.928 C718.644,142.384 716.796,144.056 713.628,144.056 C709.844,144.056 708.436,141.768 708.436,135.96 L708.436,108.944 C708.436,103.224 710.02,101.112 713.364,101.112 C716.62,101.112 717.94,102.608 718.116,107.976 L718.116,109.472 L731.58,109.472 L731.58,108.24 C731.404,94.864 724.276,90.2 713.54,90.2 C702.452,90.2 694.62,96.448 694.62,109.384 L694.62,135.784 C694.62,148.808 701.748,154.968 713.716,154.968 L713.716,154.968 Z M740.684,154 L768.404,154 L768.404,143.176 L754.236,143.176 L754.236,91.08 L740.684,91.08 L740.684,154 Z M777.772,154 L807.164,154 L807.164,143.352 L791.324,143.352 L791.324,125.928 L803.116,125.928 L803.116,115.808 L791.324,115.808 L791.324,101.728 L806.284,101.728 L806.284,91.08 L777.772,91.08 L777.772,154 Z" id="ATLANTA" sketch:type="MSShapeGroup"></path>
        </g>
    </g>
</svg>