<?xml version="1.0" encoding="UTF-8" standalone="no"?>
<svg width="108px" height="108px" viewBox="0 0 108 108" version="1.1" xmlns="http://www.w3.org/2000/svg" xmlns:xlink="http://www.w3.org/1999/xlink" xmlns:sketch="http://www.bohemiancoding.com/sketch/ns">
    <!-- Generator: Sketch 3.2.2 (9983) - http://www.bohemiancoding.com/sketch -->
    <title>bizjournals-monogram</title>
    <desc>Created with Sketch.</desc>
    <defs></defs>
    <g id="Monograms-(For-Export)" stroke="none" stroke-width="1" fill="none" fill-rule="evenodd" sketch:type="MSPage">
        <g id="bizjournals-monogram" sketch:type="MSArtboardGroup" fill="#FFFFFF">
            <g id="Imported-Layers-3" sketch:type="MSLayerGroup" transform="translate(29.000000, 13.000000)">
                <path d="M49.8874059,38.6881944 C50.5075585,38.2020215 50.628038,37.3096466 50.1423153,36.6863806 C49.6591289,36.0643839 48.7650439,35.951409 48.1436231,36.4337737 C47.5209342,36.9161385 47.4080639,37.8123215 47.8937866,38.4330488 C48.370632,39.0575843 49.2672534,39.1705592 49.8874059,38.6881944" id="Fill-1" sketch:type="MSShapeGroup"></path>
                <path d="M8.47668661,8.46677133 C10.6909737,6.74929883 11.0942631,3.55426683 9.37711263,1.33919697 C7.66123037,-0.87968104 4.47549776,-1.28207482 2.25740607,0.435397686 C0.0418507867,2.15667834 -0.363975024,5.34663281 1.35571185,7.56424144 C3.07539872,9.78438882 6.25859492,10.188052 8.47668661,8.46677133" id="Fill-2" sketch:type="MSShapeGroup"></path>
                <path d="M18.1201224,11.5500978 C19.905756,10.1575868 20.2367577,7.57820463 18.8455361,5.78076112 C17.4568509,3.98966451 14.8773206,3.65962545 13.0828096,5.0534058 C11.290835,6.443378 10.9636379,9.02656836 12.3561277,10.8202037 C13.7435447,12.6176472 16.3243432,12.9426088 18.1201224,11.5500978" id="Fill-3" sketch:type="MSShapeGroup"></path>
                <path d="M8.51092816,20.2326639 C10.723947,18.5126526 11.1272364,15.3214288 9.41135418,13.1063589 C7.69800834,10.8874809 4.50847111,10.481279 2.28911121,12.2025596 C0.0735559281,13.916224 -0.327197059,17.111256 1.38614878,19.3263259 C3.10710386,21.5452039 6.29664109,21.9526752 8.51092816,20.2326639" id="Fill-4" sketch:type="MSShapeGroup"></path>
                <path d="M26.7084111,15.6844718 C28.1617748,14.5598002 28.4230252,12.470399 27.2955904,11.0194965 C26.1719601,9.56478591 24.0895665,9.30202404 22.637471,10.4266956 C21.1853755,11.5539059 20.9203205,13.6420377 22.0464871,15.0916708 C23.1701174,16.5476508 25.2601203,16.8129515 26.7084111,15.6844718" id="Fill-5" sketch:type="MSShapeGroup"></path>
                <path d="M8.54516972,31.9972871 C10.7581886,30.2785452 11.1576734,27.0873214 9.44686394,24.8709821 C7.72971348,22.6533735 4.53763984,22.2471716 2.31954815,23.9671828 C0.109065686,25.683386 -0.295491918,28.8771486 1.42165854,31.0960266 C3.14134541,33.3123658 6.32580982,33.7172984 8.54516972,31.9972871" id="Fill-6" sketch:type="MSShapeGroup"></path>
                <path d="M34.2314071,20.8381587 C35.4057655,19.9242043 35.6226287,18.237197 34.712057,17.0604808 C33.7976808,15.8824952 32.109699,15.6705086 30.9366088,16.5819241 C29.7622504,17.4946091 29.5491918,19.1816164 30.4597635,20.3583326 C31.3703351,21.5325101 33.0570487,21.7444967 34.2314071,20.8381587" id="Fill-7" sketch:type="MSShapeGroup"></path>
                <path d="M8.57687486,43.7657184 C10.7911619,42.0457072 11.1957195,38.8532139 9.47730087,36.6381441 C7.76395503,34.4192661 4.5744178,34.0130642 2.35632611,35.7343448 C0.143307239,37.4518173 -0.258713954,40.6430412 1.45336368,42.8619192 C3.17558696,45.0795278 6.35751496,45.4819216 8.57687486,43.7657184" id="Fill-8" sketch:type="MSShapeGroup"></path>
                <path d="M40.9617745,26.7610904 C41.9078559,26.0235801 42.0803319,24.653918 41.347309,23.704421 C40.6092133,22.7523852 39.2433558,22.5822882 38.2934698,23.3172598 C37.3473884,24.0522314 37.1711078,25.4231629 37.9053989,26.3751986 C38.6409582,27.3246956 40.0106203,27.4986008 40.9617745,26.7610904" id="Fill-9" sketch:type="MSShapeGroup"></path>
                <path d="M8.61365282,55.5290723 C10.8266717,53.8103304 11.2286929,50.6178371 9.51534704,48.4014979 C7.79692838,46.1851587 4.60865936,45.7802261 2.39310407,47.5002374 C0.180085203,49.2189793 -0.225740607,52.4102031 1.49140985,54.6278117 C3.2060239,56.8466898 6.39556113,57.2465448 8.61365282,55.5290723" id="Fill-10" sketch:type="MSShapeGroup"></path>
                <path d="M46.8779539,33.4393039 C47.6464865,32.8426949 47.7859891,31.7345252 47.1848597,30.9652803 C46.5926076,30.1973048 45.4892687,30.0564035 44.7194679,30.6517432 C43.949667,31.2521605 43.813969,32.3539832 44.4062211,33.1244974 C45.0010095,33.8937423 46.1056167,34.035913 46.8779539,33.4393039" id="Fill-11" sketch:type="MSShapeGroup"></path>
                <path d="M18.1505594,23.3197985 C19.9438022,21.9260182 20.2684628,19.3453666 18.882314,17.5504618 C17.4910924,15.7555571 14.9128303,15.4293262 13.1157829,16.818029 C11.3212719,18.21054 10.9991477,20.7911916 12.3916375,22.5873657 C13.7803227,24.3848092 16.3573166,24.7085014 18.1505594,23.3197985" id="Fill-12" sketch:type="MSShapeGroup"></path>
                <path d="M26.7439209,27.4529031 C28.19348,26.3218846 28.4572667,24.2324835 27.3336365,22.7841197 C26.2074699,21.3332172 24.123808,21.0679166 22.6704443,22.1938576 C21.2196171,23.3172598 20.9558303,25.4079303 22.0807287,26.8588328 C23.2056271,28.312274 25.2918254,28.5750359 26.7439209,27.4529031" id="Fill-13" sketch:type="MSShapeGroup"></path>
                <path d="M18.1848009,35.0856911 C19.9755073,33.6906414 20.3052408,31.1099898 18.912751,29.3163544 C17.525334,27.5214497 14.9470719,27.1914106 13.1525609,28.5839216 C11.3580499,29.9777019 11.032121,32.5583535 12.4220744,34.3532583 C13.813296,36.148163 16.3890217,36.4743939 18.1848009,35.0856911" id="Fill-14" sketch:type="MSShapeGroup"></path>
                <path d="M34.2681851,32.6040512 C35.4374707,31.6900969 35.655602,30.0005508 34.742494,28.8263733 C33.8344587,27.6496572 32.1452088,27.4351318 30.9721186,28.3465473 C29.7952237,29.2566935 29.5847016,30.9500478 30.4952732,32.1242252 C31.3982357,33.2984026 33.090022,33.5154668 34.2681851,32.6040512" id="Fill-15" sketch:type="MSShapeGroup"></path>
                <path d="M26.7768942,39.2137181 C28.2302579,38.090316 28.4915083,36.0021842 27.3640735,34.5487429 C26.2417115,33.1003792 24.1555131,32.8312704 22.7046859,33.9597502 C21.2576632,35.0856911 20.9900718,37.1712841 22.1149702,38.6259947 C23.2411369,40.079436 25.3273352,40.3396591 26.7768942,39.2137181" id="Fill-16" sketch:type="MSShapeGroup"></path>
                <path d="M18.2177743,46.8528531 C20.0097489,45.4578033 20.3407505,42.8771517 18.9431879,41.082247 C17.5583073,39.2911504 14.9762406,38.9585726 13.184266,40.3523529 C11.3948278,41.7410557 11.068899,44.3255155 12.4588524,46.1191508 C13.8488058,47.9140556 16.4257997,48.2390171 18.2177743,46.8528531" id="Fill-17" sketch:type="MSShapeGroup"></path>
                <path d="M40.989675,38.526983 C41.9420975,37.7920114 42.1183781,36.4210799 41.3828188,35.4715829 C40.6434549,34.5220859 39.275061,34.3481807 38.3251749,35.0856911 C37.3778253,35.8232015 37.2053494,37.1890554 37.943445,38.1385524 C38.6751997,39.0905882 40.0435936,39.2670322 40.989675,38.526983" id="Fill-18" sketch:type="MSShapeGroup"></path>
                <path d="M34.3024266,44.3712132 C35.4755168,43.4597976 35.6873072,41.7689821 34.7805401,40.5922659 C33.8687003,39.4180885 32.1781821,39.2035631 31.0063601,40.1124399 C29.8320017,41.028933 29.6189431,42.7159404 30.5269784,43.8913872 C31.4362818,45.0655646 33.1268,45.2813594 34.3024266,44.3712132" id="Fill-19" sketch:type="MSShapeGroup"></path>
                <path d="M26.8111358,50.9859576 C28.2606949,49.8587473 28.5232134,47.7706155 27.3995832,46.3184437 C26.275953,44.8650024 24.1884865,44.6022405 22.7389274,45.7281815 C21.2881002,46.8528531 21.0243134,48.9422542 22.1492118,50.3931567 C23.2703056,51.8453286 25.3577721,52.1106292 26.8111358,50.9859576" id="Fill-20" sketch:type="MSShapeGroup"></path>
                <path d="M18.253284,58.6149375 C20.0439904,57.2275041 20.3737239,54.6430443 18.9786977,52.8506783 C17.5925489,51.0557736 15.0117504,50.7270039 13.2185076,52.1182455 C11.4252648,53.5094871 11.0980677,56.0914081 12.4892893,57.8850434 C13.8754381,59.6850257 16.458773,60.0099872 18.253284,58.6149375" id="Fill-21" sketch:type="MSShapeGroup"></path>
                <path d="M8.64408976,67.2975036 C10.859645,65.5800311 11.2654708,62.3888072 9.5508568,60.1699292 C7.83497455,57.9548594 4.6403645,57.5499268 2.42607742,59.2686687 C0.210522139,60.9848718 -0.191499054,64.1811732 1.52184679,66.3962431 C3.24026545,68.6125823 6.43233909,69.0162455 8.64408976,67.2975036" id="Fill-22" sketch:type="MSShapeGroup"></path>
                <path d="M46.9109272,45.2026578 C47.6781917,44.6047793 47.8202307,43.5004178 47.2203694,42.7324423 C46.6268492,41.9581199 45.5222421,41.8210267 44.751173,42.4176358 C43.9813722,43.0142449 43.8418696,44.1198758 44.436658,44.8865819 C45.0377875,45.6570962 46.1411264,45.8005362 46.9109272,45.2026578" id="Fill-23" sketch:type="MSShapeGroup"></path>
                <path d="M41.0251848,50.294145 C41.9776072,49.5553652 42.148815,48.1869725 41.4157921,47.2374755 C40.67516,46.2841704 39.311839,46.1115346 38.3632211,46.8490449 C37.4120669,47.5878247 37.2370545,48.9562174 37.973882,49.9057144 C38.7119777,50.8577502 40.0727623,51.0291166 41.0251848,50.294145" id="Fill-24" sketch:type="MSShapeGroup"></path>
                <path d="M34.3315953,56.1332976 C35.507222,55.2244208 35.7240851,53.5323359 34.8135135,52.3594279 C33.90421,51.1839811 32.2149601,50.9694557 31.0393335,51.8821406 C29.8662432,52.789748 29.6531847,54.4818329 30.5586835,55.6585491 C31.4730598,56.8314572 33.1597733,57.0485213 34.3315953,56.1332976" id="Fill-25" sketch:type="MSShapeGroup"></path>
                <path d="M26.8428409,62.7480421 C28.2974728,61.6246399 28.5587232,59.5352387 27.435093,58.0817975 C26.3101946,56.6296256 24.2265327,56.364325 22.7693644,57.4915353 C21.3210735,58.6174763 21.0598231,60.7068774 22.1796487,62.1590493 C23.3045471,63.6086824 25.3932819,63.873983 26.8428409,62.7480421" id="Fill-26" sketch:type="MSShapeGroup"></path>
                <path d="M18.283721,70.3820995 C20.0795002,68.9883191 20.405429,66.4102063 19.0154756,64.6153015 C17.6217176,62.8203968 15.0472601,62.4928965 13.2527491,63.8879462 C11.4595063,65.2728409 11.131041,67.8573006 12.5247991,69.6522054 C13.9134843,71.4471101 16.4917464,71.7758798 18.283721,70.3820995" id="Fill-27" sketch:type="MSShapeGroup"></path>
                <path d="M8.68213593,79.0646656 C10.8976912,77.3433849 11.2946396,74.1508917 9.58129374,71.9345524 C7.86667969,69.714405 4.67587426,69.31455 2.45905077,71.0332919 C0.244763692,72.7507644 -0.157257501,75.9394495 1.55989296,78.163405 C3.27704342,80.3784749 6.46150782,80.7795993 8.68213593,79.0646656" id="Fill-28" sketch:type="MSShapeGroup"></path>
            </g>
        </g>
    </g>
</svg>