<?xml version="1.0" encoding="UTF-8" standalone="no"?>
<svg width="233px" height="64px" viewBox="0 0 233 64" version="1.1" xmlns="http://www.w3.org/2000/svg" xmlns:xlink="http://www.w3.org/1999/xlink" xmlns:sketch="http://www.bohemiancoding.com/sketch/ns">
    <!-- Generator: Sketch 3.2.2 (9983) - http://www.bohemiancoding.com/sketch -->
    <title>losangeles-logo</title>
    <desc>Created with Sketch.</desc>
    <defs></defs>
    <g id="Logos-(For-Export)" stroke="none" stroke-width="1" fill="none" fill-rule="evenodd" sketch:type="MSPage">
        <g id="losangeles-logo" sketch:type="MSArtboardGroup" transform="translate(-333.000000, -53.000000)" fill="#FFFFFF">
            <path d="M333.724,116 L357.484,116 L357.484,110.72 L340.324,110.72 L340.324,53.08 L333.724,53.08 L333.724,116 Z M372.748,116.352 C375.212,116.352 377.148,114.328 377.148,111.952 C377.148,109.4 375.212,107.376 372.748,107.376 C370.372,107.376 368.26,109.4 368.26,111.952 C368.26,114.328 370.372,116.352 372.748,116.352 L372.748,116.352 Z M412.828,116 L419.34,116 L408.252,53.08 L398.308,53.08 L387.132,116 L393.38,116 L396.02,100.16 L410.1,100.16 L412.828,116 Z M403.06,58.272 L409.22,95.056 L396.812,95.056 L403.06,58.272 Z M433.724,116.352 C436.188,116.352 438.124,114.328 438.124,111.952 C438.124,109.4 436.188,107.376 433.724,107.376 C431.348,107.376 429.236,109.4 429.236,111.952 C429.236,114.328 431.348,116.352 433.724,116.352 L433.724,116.352 Z M464.868,116 L482.556,116 C494.348,116 500.596,111.776 500.596,100.16 L500.596,96.112 C500.596,88.104 496.46,84.232 489.772,82.912 C495.492,81.592 499.188,78.16 499.188,71.56 L499.188,67.16 C499.188,57.568 493.644,53.08 482.204,53.08 L464.868,53.08 L464.868,116 Z M478.156,106.408 L478.156,87.576 L481.06,87.576 C485.372,87.576 487.132,88.896 487.132,94.616 L487.132,99.104 C487.132,104.384 485.372,106.408 481.324,106.408 L478.156,106.408 Z M478.156,78.512 L478.156,62.672 L480.972,62.672 C484.492,62.672 486.34,63.64 486.34,68.392 L486.34,72.352 C486.34,77.016 484.844,78.512 480.972,78.512 L478.156,78.512 Z M510.14,116 L523.78,116 L523.78,53.08 L510.14,53.08 L510.14,116 Z M531.828,116 L564.828,116 L564.828,105.44 L548.548,105.44 L565.708,54.576 L565.708,53.08 L534.028,53.08 L534.028,63.552 L548.9,63.552 L531.828,114.416 L531.828,116 Z" id="L.A.-BIZ" sketch:type="MSShapeGroup"></path>
        </g>
    </g>
</svg>