<?xml version="1.0" encoding="UTF-8" standalone="no"?>
<svg width="108px" height="108px" viewBox="0 0 108 108" version="1.1" xmlns="http://www.w3.org/2000/svg" xmlns:xlink="http://www.w3.org/1999/xlink" xmlns:sketch="http://www.bohemiancoding.com/sketch/ns">
    <!-- Generator: Sketch 3.2.2 (9983) - http://www.bohemiancoding.com/sketch -->
    <title>louisville-monogram</title>
    <desc>Created with Sketch.</desc>
    <defs></defs>
    <g id="Monograms-(For-Export)" stroke="none" stroke-width="1" fill="none" fill-rule="evenodd" sketch:type="MSPage">
        <g id="louisville-monogram" sketch:type="MSArtboardGroup" fill="#FFFFFF">
            <path d="M19.745,76 L38.345,76 L38.345,69.8 L27.557,69.8 L27.557,31.67 L19.745,31.67 L19.745,76 Z M42.499,76 L53.783,76 C61.905,76 65.935,72.838 65.935,64.778 L65.935,61.926 C65.935,56.222 63.145,53.494 58.433,52.626 C62.463,51.572 64.819,49.154 64.819,44.628 L64.819,41.528 C64.819,34.646 60.913,31.67 53.349,31.67 L42.499,31.67 L42.499,76 Z M50.187,70.296 L50.187,55.416 L52.915,55.416 C56.697,55.416 58.185,56.594 58.185,61.244 L58.185,64.344 C58.185,68.622 56.573,70.296 53.163,70.296 L50.187,70.296 Z M50.187,50.022 L50.187,37.374 L52.791,37.374 C55.891,37.374 57.379,38.18 57.379,41.962 L57.379,44.938 C57.379,48.596 56.139,50.022 52.791,50.022 L50.187,50.022 Z M70.275,76 L78.025,76 L78.087,57.276 L87.263,57.276 L87.263,51.324 L78.087,51.324 L78.087,37.808 L89.371,37.808 L89.371,31.67 L70.275,31.67 L70.275,76 Z" id="LBF" sketch:type="MSShapeGroup"></path>
        </g>
    </g>
</svg>