<?xml version="1.0" encoding="UTF-8" standalone="no"?>
<svg width="108px" height="108px" viewBox="0 0 108 108" version="1.1" xmlns="http://www.w3.org/2000/svg" xmlns:xlink="http://www.w3.org/1999/xlink" xmlns:sketch="http://www.bohemiancoding.com/sketch/ns">
    <!-- Generator: Sketch 3.2.2 (9983) - http://www.bohemiancoding.com/sketch -->
    <title>milwaukee-monogram</title>
    <desc>Created with Sketch.</desc>
    <defs></defs>
    <g id="Monograms-(For-Export)" stroke="none" stroke-width="1" fill="none" fill-rule="evenodd" sketch:type="MSPage">
        <g id="milwaukee-monogram" sketch:type="MSArtboardGroup" fill="#FFFFFF">
            <path d="M15.87,76 L22.442,76 L22.442,45.496 L29.386,76 L31.68,76 L38.5,45.496 L38.5,76 L46.002,76 L46.002,31.67 L36.268,31.67 L30.936,56.966 L25.48,31.67 L15.87,31.67 L15.87,76 Z M51.21,76 L62.494,76 C70.616,76 74.646,72.838 74.646,64.778 L74.646,61.926 C74.646,56.222 71.856,53.494 67.144,52.626 C71.174,51.572 73.53,49.154 73.53,44.628 L73.53,41.528 C73.53,34.646 69.624,31.67 62.06,31.67 L51.21,31.67 L51.21,76 Z M58.898,70.296 L58.898,55.416 L61.626,55.416 C65.408,55.416 66.896,56.594 66.896,61.244 L66.896,64.344 C66.896,68.622 65.284,70.296 61.874,70.296 L58.898,70.296 Z M58.898,50.022 L58.898,37.374 L61.502,37.374 C64.602,37.374 66.09,38.18 66.09,41.962 L66.09,44.938 C66.09,48.596 64.85,50.022 61.502,50.022 L58.898,50.022 Z M81.962,76.372 C88.348,76.372 92.316,72.9 92.316,65.522 L92.316,31.67 L84.566,31.67 L84.566,65.15 C84.566,68.622 83.016,69.862 80.474,69.862 C79.048,69.862 78.18,69.614 77.374,69.428 L77.374,75.504 C78.366,75.938 79.73,76.372 81.962,76.372 L81.962,76.372 Z" id="MBJ" sketch:type="MSShapeGroup"></path>
        </g>
    </g>
</svg>