<?xml version="1.0" encoding="UTF-8" standalone="no"?>
<svg width="108px" height="108px" viewBox="0 0 108 108" version="1.1" xmlns="http://www.w3.org/2000/svg" xmlns:xlink="http://www.w3.org/1999/xlink" xmlns:sketch="http://www.bohemiancoding.com/sketch/ns">
    <!-- Generator: Sketch 3.2.2 (9983) - http://www.bohemiancoding.com/sketch -->
    <title>pacific-monogram</title>
    <desc>Created with Sketch.</desc>
    <defs></defs>
    <g id="Monograms-(For-Export)" stroke="none" stroke-width="1" fill="none" fill-rule="evenodd" sketch:type="MSPage">
        <g id="pacific-monogram" sketch:type="MSArtboardGroup" fill="#FFFFFF">
            <path d="M14.63,76 L22.442,76 L22.442,57.586 L25.48,57.586 C33.416,57.586 37.322,54.3 37.322,47.046 L37.322,42.52 C37.322,35.142 33.788,31.67 25.356,31.67 L14.63,31.67 L14.63,76 Z M22.442,51.944 L22.442,37.622 L25.294,37.622 C28.332,37.622 29.696,38.862 29.696,42.582 L29.696,46.86 C29.696,50.518 28.332,51.944 25.294,51.944 L22.442,51.944 Z M41.29,76 L52.574,76 C60.696,76 64.726,72.838 64.726,64.778 L64.726,61.926 C64.726,56.222 61.936,53.494 57.224,52.626 C61.254,51.572 63.61,49.154 63.61,44.628 L63.61,41.528 C63.61,34.646 59.704,31.67 52.14,31.67 L41.29,31.67 L41.29,76 Z M48.978,70.296 L48.978,55.416 L51.706,55.416 C55.488,55.416 56.976,56.594 56.976,61.244 L56.976,64.344 C56.976,68.622 55.364,70.296 51.954,70.296 L48.978,70.296 Z M48.978,50.022 L48.978,37.374 L51.582,37.374 C54.682,37.374 56.17,38.18 56.17,41.962 L56.17,44.938 C56.17,48.596 54.93,50.022 51.582,50.022 L48.978,50.022 Z M69.066,76 L75.886,76 L75.886,45.558 L85.806,76 L93.37,76 L93.37,31.67 L86.55,31.67 L86.55,58.578 L77.684,31.67 L69.066,31.67 L69.066,76 Z" id="PBN" sketch:type="MSShapeGroup"></path>
        </g>
    </g>
</svg>