<?xml version="1.0" encoding="UTF-8" standalone="no"?>
<svg width="108px" height="108px" viewBox="0 0 108 108" version="1.1" xmlns="http://www.w3.org/2000/svg" xmlns:xlink="http://www.w3.org/1999/xlink" xmlns:sketch="http://www.bohemiancoding.com/sketch/ns">
    <!-- Generator: Sketch 3.3.2 (12043) - http://www.bohemiancoding.com/sketch -->
    <title>sacramento-monogram</title>
    <desc>Created with Sketch.</desc>
    <defs></defs>
    <g id="Monograms-(For-Export)" stroke="none" stroke-width="1" fill="none" fill-rule="evenodd" sketch:type="MSPage">
        <g id="sacramento-monogram" sketch:type="MSArtboardGroup" fill="#FFFFFF">
            <path d="M30.905,76.62 C37.973,76.62 42.251,72.838 42.251,65.026 L42.251,64.158 C42.251,56.036 38.345,53.308 32.889,49.588 C28.673,46.674 27.247,45.248 27.247,41.652 L27.247,41.404 C27.247,38.49 28.487,37.126 30.719,37.126 C32.951,37.126 34.377,38.242 34.377,41.9 L34.377,43.326 L41.693,43.326 L41.693,41.962 C41.693,34.584 37.725,31.05 30.719,31.05 C23.775,31.05 19.683,34.956 19.683,41.962 L19.683,42.148 C19.683,49.092 22.721,52.316 28.177,55.974 C32.517,59.012 34.625,60.5 34.625,64.964 L34.625,65.522 C34.625,68.994 33.385,70.606 30.905,70.606 C27.991,70.606 26.751,69.056 26.751,64.902 L26.751,63.29 L19.249,63.29 L19.249,64.716 C19.249,72.962 23.713,76.62 30.905,76.62 L30.905,76.62 Z M46.715,76 L57.999,76 C66.121,76 70.151,72.838 70.151,64.778 L70.151,61.926 C70.151,56.222 67.361,53.494 62.649,52.626 C66.679,51.572 69.035,49.154 69.035,44.628 L69.035,41.528 C69.035,34.646 65.129,31.67 57.565,31.67 L46.715,31.67 L46.715,76 Z M54.403,70.296 L54.403,55.416 L57.131,55.416 C60.913,55.416 62.401,56.594 62.401,61.244 L62.401,64.344 C62.401,68.622 60.789,70.296 57.379,70.296 L54.403,70.296 Z M54.403,50.022 L54.403,37.374 L57.007,37.374 C60.107,37.374 61.595,38.18 61.595,41.962 L61.595,44.938 C61.595,48.596 60.355,50.022 57.007,50.022 L54.403,50.022 Z M77.467,76.372 C83.853,76.372 87.821,72.9 87.821,65.522 L87.821,31.67 L80.071,31.67 L80.071,65.15 C80.071,68.622 78.521,69.862 75.979,69.862 C74.553,69.862 73.685,69.614 72.879,69.428 L72.879,75.504 C73.871,75.938 75.235,76.372 77.467,76.372 L77.467,76.372 Z" id="SBJ" sketch:type="MSShapeGroup"></path>
        </g>
    </g>
</svg>