<?xml version="1.0" encoding="UTF-8" standalone="no"?>
<svg width="108px" height="108px" viewBox="0 0 108 108" version="1.1" xmlns="http://www.w3.org/2000/svg" xmlns:xlink="http://www.w3.org/1999/xlink" xmlns:sketch="http://www.bohemiancoding.com/sketch/ns">
    <!-- Generator: Sketch 3.2.2 (9983) - http://www.bohemiancoding.com/sketch -->
    <title>sanantonio-monogram</title>
    <desc>Created with Sketch.</desc>
    <defs></defs>
    <g id="Monograms-(For-Export)" stroke="none" stroke-width="1" fill="none" fill-rule="evenodd" sketch:type="MSPage">
        <g id="sanantonio-monogram" sketch:type="MSArtboardGroup" fill="#FFFFFF">
            <path d="M40.705,51.62 C47.773,51.62 52.051,47.838 52.051,40.026 L52.051,39.158 C52.051,31.036 48.145,28.308 42.689,24.588 C38.473,21.674 37.047,20.248 37.047,16.652 L37.047,16.404 C37.047,13.49 38.287,12.126 40.519,12.126 C42.751,12.126 44.177,13.242 44.177,16.9 L44.177,18.326 L51.493,18.326 L51.493,16.962 C51.493,9.584 47.525,6.05 40.519,6.05 C33.575,6.05 29.483,9.956 29.483,16.962 L29.483,17.148 C29.483,24.092 32.521,27.316 37.977,30.974 C42.317,34.012 44.425,35.5 44.425,39.964 L44.425,40.522 C44.425,43.994 43.185,45.606 40.705,45.606 C37.791,45.606 36.551,44.056 36.551,39.902 L36.551,38.29 L29.049,38.29 L29.049,39.716 C29.049,47.962 33.513,51.62 40.705,51.62 L40.705,51.62 Z M72.821,51 L80.633,51 L73.317,6.67 L62.033,6.67 L54.717,51 L61.847,51 L63.273,41.204 L71.333,41.204 L72.821,51 Z M67.303,13.428 L70.527,35.624 L64.079,35.624 L67.303,13.428 Z M34.04,101 L45.324,101 C53.446,101 57.476,97.838 57.476,89.778 L57.476,86.926 C57.476,81.222 54.686,78.494 49.974,77.626 C54.004,76.572 56.36,74.154 56.36,69.628 L56.36,66.528 C56.36,59.646 52.454,56.67 44.89,56.67 L34.04,56.67 L34.04,101 Z M41.728,95.296 L41.728,80.416 L44.456,80.416 C48.238,80.416 49.726,81.594 49.726,86.244 L49.726,89.344 C49.726,93.622 48.114,95.296 44.704,95.296 L41.728,95.296 Z M41.728,75.022 L41.728,62.374 L44.332,62.374 C47.432,62.374 48.92,63.18 48.92,66.962 L48.92,69.938 C48.92,73.596 47.68,75.022 44.332,75.022 L41.728,75.022 Z M64.792,101.372 C71.178,101.372 75.146,97.9 75.146,90.522 L75.146,56.67 L67.396,56.67 L67.396,90.15 C67.396,93.622 65.846,94.862 63.304,94.862 C61.878,94.862 61.01,94.614 60.204,94.428 L60.204,100.504 C61.196,100.938 62.56,101.372 64.792,101.372 L64.792,101.372 Z" id="SA" sketch:type="MSShapeGroup"></path>
        </g>
    </g>
</svg>