<?xml version="1.0" encoding="UTF-8" standalone="no"?>
<svg width="108px" height="108px" viewBox="0 0 108 108" version="1.1" xmlns="http://www.w3.org/2000/svg" xmlns:xlink="http://www.w3.org/1999/xlink" xmlns:sketch="http://www.bohemiancoding.com/sketch/ns">
    <!-- Generator: Sketch 3.2.2 (9983) - http://www.bohemiancoding.com/sketch -->
    <title>seattle-monogram</title>
    <desc>Created with Sketch.</desc>
    <defs></defs>
    <g id="Monograms-(For-Export)" stroke="none" stroke-width="1" fill="none" fill-rule="evenodd" sketch:type="MSPage">
        <g id="seattle-monogram" sketch:type="MSArtboardGroup" fill="#FFFFFF">
            <path d="M30.599,51 L38.411,51 L38.411,32.586 L41.449,32.586 C49.385,32.586 53.291,29.3 53.291,22.046 L53.291,17.52 C53.291,10.142 49.757,6.67 41.325,6.67 L30.599,6.67 L30.599,51 Z M38.411,26.944 L38.411,12.622 L41.263,12.622 C44.301,12.622 45.665,13.862 45.665,17.582 L45.665,21.86 C45.665,25.518 44.301,26.944 41.263,26.944 L38.411,26.944 Z M67.799,51.62 C74.867,51.62 79.145,47.838 79.145,40.026 L79.145,39.158 C79.145,31.036 75.239,28.308 69.783,24.588 C65.567,21.674 64.141,20.248 64.141,16.652 L64.141,16.404 C64.141,13.49 65.381,12.126 67.613,12.126 C69.845,12.126 71.271,13.242 71.271,16.9 L71.271,18.326 L78.587,18.326 L78.587,16.962 C78.587,9.584 74.619,6.05 67.613,6.05 C60.669,6.05 56.577,9.956 56.577,16.962 L56.577,17.148 C56.577,24.092 59.615,27.316 65.071,30.974 C69.411,34.012 71.519,35.5 71.519,39.964 L71.519,40.522 C71.519,43.994 70.279,45.606 67.799,45.606 C64.885,45.606 63.645,44.056 63.645,39.902 L63.645,38.29 L56.143,38.29 L56.143,39.716 C56.143,47.962 60.607,51.62 67.799,51.62 L67.799,51.62 Z M34.04,101 L45.324,101 C53.446,101 57.476,97.838 57.476,89.778 L57.476,86.926 C57.476,81.222 54.686,78.494 49.974,77.626 C54.004,76.572 56.36,74.154 56.36,69.628 L56.36,66.528 C56.36,59.646 52.454,56.67 44.89,56.67 L34.04,56.67 L34.04,101 Z M41.728,95.296 L41.728,80.416 L44.456,80.416 C48.238,80.416 49.726,81.594 49.726,86.244 L49.726,89.344 C49.726,93.622 48.114,95.296 44.704,95.296 L41.728,95.296 Z M41.728,75.022 L41.728,62.374 L44.332,62.374 C47.432,62.374 48.92,63.18 48.92,66.962 L48.92,69.938 C48.92,73.596 47.68,75.022 44.332,75.022 L41.728,75.022 Z M64.792,101.372 C71.178,101.372 75.146,97.9 75.146,90.522 L75.146,56.67 L67.396,56.67 L67.396,90.15 C67.396,93.622 65.846,94.862 63.304,94.862 C61.878,94.862 61.01,94.614 60.204,94.428 L60.204,100.504 C61.196,100.938 62.56,101.372 64.792,101.372 L64.792,101.372 Z" id="PS" sketch:type="MSShapeGroup"></path>
        </g>
    </g>
</svg>