<?xml version="1.0" encoding="UTF-8" standalone="no"?>
<svg width="637px" height="145px" viewBox="0 0 637 145" version="1.1" xmlns="http://www.w3.org/2000/svg" xmlns:xlink="http://www.w3.org/1999/xlink" xmlns:sketch="http://www.bohemiancoding.com/sketch/ns">
    <!-- Generator: Sketch 3.2.2 (9983) - http://www.bohemiancoding.com/sketch -->
    <title>stlouis-logo</title>
    <desc>Created with Sketch.</desc>
    <defs></defs>
    <g id="Logos-(For-Export)" stroke="none" stroke-width="1" fill="none" fill-rule="evenodd" sketch:type="MSPage">
        <g id="stlouis-logo" sketch:type="MSArtboardGroup" transform="translate(-132.000000, -10.000000)" fill="#FFFFFF">
            <path d="M328.164,74.792 C336.436,74.792 341.98,69.952 341.98,59.568 L341.98,58.248 C341.98,48.04 337.844,44.08 329.66,38.008 C322.972,32.992 320.596,30.264 320.596,24.016 L320.596,23.664 C320.596,18.384 323.148,15.744 327.636,15.744 C332.036,15.744 334.852,17.944 334.852,24.28 L334.852,26.48 L341.012,26.48 L341.012,24.28 C341.012,14.864 336.084,10.288 327.636,10.288 C319.54,10.288 314.348,15.304 314.348,24.104 L314.348,24.368 C314.348,33.256 318.484,37.656 325.7,43.112 C332.564,48.392 335.644,51.208 335.644,58.6 L335.644,59.832 C335.644,66.08 332.916,69.336 328.164,69.336 C322.356,69.336 319.892,66.168 319.892,59.04 L319.892,56.928 L313.556,56.928 L313.556,59.04 C313.556,69.16 318.748,74.792 328.164,74.792 L328.164,74.792 Z M360.5,74 L367.012,74 L367.1,16.36 L378.012,16.36 L378.012,11.08 L349.676,11.08 L349.676,16.36 L360.5,16.36 L360.5,74 Z M384.916,74.352 C387.38,74.352 389.316,72.328 389.316,69.952 C389.316,67.4 387.38,65.376 384.916,65.376 C382.54,65.376 380.428,67.4 380.428,69.952 C380.428,72.328 382.54,74.352 384.916,74.352 L384.916,74.352 Z M417.292,74 L441.052,74 L441.052,68.72 L423.892,68.72 L423.892,11.08 L417.292,11.08 L417.292,74 Z M465.556,74.792 C475.588,74.792 482.012,68.192 482.012,56.488 L482.012,28.328 C482.012,16.8 475.588,10.288 465.556,10.288 C455.524,10.288 449.1,16.8 449.1,28.416 L449.1,56.664 C449.1,68.192 455.524,74.792 465.556,74.792 L465.556,74.792 Z M465.556,69.248 C458.868,69.248 455.788,64.76 455.788,56.576 L455.788,28.416 C455.788,20.232 458.956,15.744 465.556,15.744 C472.068,15.744 475.236,20.672 475.236,28.416 L475.236,56.488 C475.236,64.408 472.068,69.248 465.556,69.248 L465.556,69.248 Z M518.132,11.08 L518.132,58.16 C518.132,66.08 515.052,69.248 509.508,69.248 C503.788,69.248 500.884,66.08 500.884,58.688 L500.884,11.08 L494.284,11.08 L494.284,58.864 C494.284,69.688 500.268,74.792 509.508,74.792 C519.276,74.792 524.732,69.424 524.732,58.6 L524.732,11.08 L518.132,11.08 Z M538.06,74 L544.66,74 L544.66,11.08 L538.06,11.08 L538.06,74 Z M570.924,74.792 C579.196,74.792 584.74,69.952 584.74,59.568 L584.74,58.248 C584.74,48.04 580.604,44.08 572.42,38.008 C565.732,32.992 563.356,30.264 563.356,24.016 L563.356,23.664 C563.356,18.384 565.908,15.744 570.396,15.744 C574.796,15.744 577.612,17.944 577.612,24.28 L577.612,26.48 L583.772,26.48 L583.772,24.28 C583.772,14.864 578.844,10.288 570.396,10.288 C562.3,10.288 557.108,15.304 557.108,24.104 L557.108,24.368 C557.108,33.256 561.244,37.656 568.46,43.112 C575.324,48.392 578.404,51.208 578.404,58.6 L578.404,59.832 C578.404,66.08 575.676,69.336 570.924,69.336 C565.116,69.336 562.652,66.168 562.652,59.04 L562.652,56.928 L556.316,56.928 L556.316,59.04 C556.316,69.16 561.508,74.792 570.924,74.792 L570.924,74.792 Z M132.048,154 L149.736,154 C161.528,154 167.776,149.776 167.776,138.16 L167.776,134.112 C167.776,126.104 163.64,122.232 156.952,120.912 C162.672,119.592 166.368,116.16 166.368,109.56 L166.368,105.16 C166.368,95.568 160.824,91.08 149.384,91.08 L132.048,91.08 L132.048,154 Z M145.336,144.408 L145.336,125.576 L148.24,125.576 C152.552,125.576 154.312,126.896 154.312,132.616 L154.312,137.104 C154.312,142.384 152.552,144.408 148.504,144.408 L145.336,144.408 Z M145.336,116.512 L145.336,100.672 L148.152,100.672 C151.672,100.672 153.52,101.64 153.52,106.392 L153.52,110.352 C153.52,115.016 152.024,116.512 148.152,116.512 L145.336,116.512 Z M199.936,91.08 L199.936,136.84 C199.936,142.12 198.528,143.968 195.184,143.968 C191.576,143.968 190.344,142.12 190.344,136.928 L190.344,91.08 L176.792,91.08 L176.792,137.192 C176.792,149.424 183.392,154.968 195.096,154.968 C206.712,154.968 213.576,149.512 213.576,137.28 L213.576,91.08 L199.936,91.08 Z M239.752,154.968 C250.928,154.968 257.176,149.248 257.176,137.808 L257.176,136.576 C257.176,124.256 250.752,120.472 243.272,115.72 C237.816,112.024 235.88,110.44 235.88,105.952 L235.88,105.6 C235.88,102.08 237.112,100.672 239.664,100.672 C242.04,100.672 243.712,101.816 243.712,106.304 L243.712,108.328 L256.472,108.328 L256.472,106.48 C256.384,95.392 250.312,90.2 239.664,90.2 C228.84,90.2 222.68,96.008 222.68,106.48 L222.68,106.832 C222.68,117.216 226.992,121.88 235.176,127.072 C240.808,130.768 243.888,132.528 243.888,138.16 L243.888,138.864 C243.888,142.912 242.568,144.672 239.752,144.672 C236.496,144.672 235.176,143 235.176,137.896 L235.176,135.432 L222.064,135.432 L222.064,137.456 C222.152,150.04 229.016,154.968 239.752,154.968 L239.752,154.968 Z M266.72,154 L280.36,154 L280.36,91.08 L266.72,91.08 L266.72,154 Z M291.048,154 L302.752,154 L302.752,114.928 L315.248,154 L328.096,154 L328.096,91.08 L316.304,91.08 L316.304,124.696 L305.656,91.08 L291.048,91.08 L291.048,154 Z M338.52,154 L367.912,154 L367.912,143.352 L352.072,143.352 L352.072,125.928 L363.864,125.928 L363.864,115.808 L352.072,115.808 L352.072,101.728 L367.032,101.728 L367.032,91.08 L338.52,91.08 L338.52,154 Z M393.208,154.968 C404.384,154.968 410.632,149.248 410.632,137.808 L410.632,136.576 C410.632,124.256 404.208,120.472 396.728,115.72 C391.272,112.024 389.336,110.44 389.336,105.952 L389.336,105.6 C389.336,102.08 390.568,100.672 393.12,100.672 C395.496,100.672 397.168,101.816 397.168,106.304 L397.168,108.328 L409.928,108.328 L409.928,106.48 C409.84,95.392 403.768,90.2 393.12,90.2 C382.296,90.2 376.136,96.008 376.136,106.48 L376.136,106.832 C376.136,117.216 380.448,121.88 388.632,127.072 C394.264,130.768 397.344,132.528 397.344,138.16 L397.344,138.864 C397.344,142.912 396.024,144.672 393.208,144.672 C389.952,144.672 388.632,143 388.632,137.896 L388.632,135.432 L375.52,135.432 L375.52,137.456 C375.608,150.04 382.472,154.968 393.208,154.968 L393.208,154.968 Z M435.928,154.968 C447.104,154.968 453.352,149.248 453.352,137.808 L453.352,136.576 C453.352,124.256 446.928,120.472 439.448,115.72 C433.992,112.024 432.056,110.44 432.056,105.952 L432.056,105.6 C432.056,102.08 433.288,100.672 435.84,100.672 C438.216,100.672 439.888,101.816 439.888,106.304 L439.888,108.328 L452.648,108.328 L452.648,106.48 C452.56,95.392 446.488,90.2 435.84,90.2 C425.016,90.2 418.856,96.008 418.856,106.48 L418.856,106.832 C418.856,117.216 423.168,121.88 431.352,127.072 C436.984,130.768 440.064,132.528 440.064,138.16 L440.064,138.864 C440.064,142.912 438.744,144.672 435.928,144.672 C432.672,144.672 431.352,143 431.352,137.896 L431.352,135.432 L418.24,135.432 L418.24,137.456 C418.328,150.04 425.192,154.968 435.928,154.968 L435.928,154.968 Z M482.208,154.528 C492.592,154.528 498.048,148.72 498.048,137.896 L498.048,91.08 L484.408,91.08 L484.408,137.28 C484.408,141.68 482.472,143.176 479.04,143.176 C477.192,143.176 475.96,142.912 474.904,142.648 L474.904,153.208 C476.488,153.912 478.6,154.528 482.208,154.528 L482.208,154.528 Z M526.776,154.968 C538.48,154.968 546.048,148.896 546.048,135.784 L546.048,109.032 C546.048,95.832 538.216,90.2 526.776,90.2 C515.688,90.2 507.592,96.184 507.592,109.12 L507.592,136.136 C507.592,149.072 515.072,154.968 526.776,154.968 L526.776,154.968 Z M526.776,144.056 C523.08,144.056 521.408,141.768 521.408,136.048 L521.408,109.032 C521.408,103.4 523.168,101.112 526.776,101.112 C530.472,101.112 532.232,103.576 532.232,109.032 L532.232,135.96 C532.232,141.68 530.472,144.056 526.776,144.056 L526.776,144.056 Z M579,91.08 L579,136.84 C579,142.12 577.592,143.968 574.248,143.968 C570.64,143.968 569.408,142.12 569.408,136.928 L569.408,91.08 L555.856,91.08 L555.856,137.192 C555.856,149.424 562.456,154.968 574.16,154.968 C585.776,154.968 592.64,149.512 592.64,137.28 L592.64,91.08 L579,91.08 Z M602.888,154 L616.44,154 L616.44,127.776 L618.904,127.776 L625.856,154 L639.936,154 L631.664,125.664 C635.8,123.64 638.176,120.296 638.176,113.168 L638.176,106.744 C638.176,96.272 633.248,91.08 620.048,91.08 L602.888,91.08 L602.888,154 Z M616.44,119.064 L616.44,101.464 L619.608,101.464 C623.392,101.464 624.976,102.96 624.976,107.184 L624.976,112.992 C624.976,117.48 623.304,119.064 619.608,119.064 L616.44,119.064 Z M648.16,154 L659.864,154 L659.864,114.928 L672.36,154 L685.208,154 L685.208,91.08 L673.416,91.08 L673.416,124.696 L662.768,91.08 L648.16,91.08 L648.16,154 Z M718.776,154 L732.504,154 L722.472,91.08 L703.024,91.08 L693.08,154 L705.488,154 L707.16,141.152 L717.016,141.152 L718.776,154 Z M712.088,103.136 L715.784,131.736 L708.392,131.736 L712.088,103.136 Z M740.376,154 L768.096,154 L768.096,143.176 L753.928,143.176 L753.928,91.08 L740.376,91.08 L740.376,154 Z" id="ST.-LOUIS" sketch:type="MSShapeGroup"></path>
        </g>
    </g>
</svg>