<?xml version="1.0" encoding="UTF-8" standalone="no"?>
<svg width="108px" height="108px" viewBox="0 0 108 108" version="1.1" xmlns="http://www.w3.org/2000/svg" xmlns:xlink="http://www.w3.org/1999/xlink" xmlns:sketch="http://www.bohemiancoding.com/sketch/ns">
    <!-- Generator: Sketch 3.2.2 (9983) - http://www.bohemiancoding.com/sketch -->
    <title>tampabay-monogram</title>
    <desc>Created with Sketch.</desc>
    <defs></defs>
    <g id="Monograms-(For-Export)" stroke="none" stroke-width="1" fill="none" fill-rule="evenodd" sketch:type="MSPage">
        <g id="tampabay-monogram" sketch:type="MSArtboardGroup" fill="#FFFFFF">
            <path d="M36.706,51 L44.456,51 L44.518,12.808 L51.834,12.808 L51.834,6.67 L29.39,6.67 L29.39,12.808 L36.706,12.808 L36.706,51 Z M55.492,51 L66.776,51 C74.898,51 78.928,47.838 78.928,39.778 L78.928,36.926 C78.928,31.222 76.138,28.494 71.426,27.626 C75.456,26.572 77.812,24.154 77.812,19.628 L77.812,16.528 C77.812,9.646 73.906,6.67 66.342,6.67 L55.492,6.67 L55.492,51 Z M63.18,45.296 L63.18,30.416 L65.908,30.416 C69.69,30.416 71.178,31.594 71.178,36.244 L71.178,39.344 C71.178,43.622 69.566,45.296 66.156,45.296 L63.18,45.296 Z M63.18,25.022 L63.18,12.374 L65.784,12.374 C68.884,12.374 70.372,13.18 70.372,16.962 L70.372,19.938 C70.372,23.596 69.132,25.022 65.784,25.022 L63.18,25.022 Z M34.04,101 L45.324,101 C53.446,101 57.476,97.838 57.476,89.778 L57.476,86.926 C57.476,81.222 54.686,78.494 49.974,77.626 C54.004,76.572 56.36,74.154 56.36,69.628 L56.36,66.528 C56.36,59.646 52.454,56.67 44.89,56.67 L34.04,56.67 L34.04,101 Z M41.728,95.296 L41.728,80.416 L44.456,80.416 C48.238,80.416 49.726,81.594 49.726,86.244 L49.726,89.344 C49.726,93.622 48.114,95.296 44.704,95.296 L41.728,95.296 Z M41.728,75.022 L41.728,62.374 L44.332,62.374 C47.432,62.374 48.92,63.18 48.92,66.962 L48.92,69.938 C48.92,73.596 47.68,75.022 44.332,75.022 L41.728,75.022 Z M64.792,101.372 C71.178,101.372 75.146,97.9 75.146,90.522 L75.146,56.67 L67.396,56.67 L67.396,90.15 C67.396,93.622 65.846,94.862 63.304,94.862 C61.878,94.862 61.01,94.614 60.204,94.428 L60.204,100.504 C61.196,100.938 62.56,101.372 64.792,101.372 L64.792,101.372 Z" id="TB" sketch:type="MSShapeGroup"></path>
        </g>
    </g>
</svg>