<?xml version="1.0" encoding="UTF-8" standalone="no"?>
<svg width="108px" height="108px" viewBox="0 0 108 108" version="1.1" xmlns="http://www.w3.org/2000/svg" xmlns:xlink="http://www.w3.org/1999/xlink" xmlns:sketch="http://www.bohemiancoding.com/sketch/ns">
    <!-- Generator: Sketch 3.2.2 (9983) - http://www.bohemiancoding.com/sketch -->
    <title>triad-monogram</title>
    <desc>Created with Sketch.</desc>
    <defs></defs>
    <g id="Monograms-(For-Export)" stroke="none" stroke-width="1" fill="none" fill-rule="evenodd" sketch:type="MSPage">
        <g id="triad-monogram" sketch:type="MSArtboardGroup" fill="#FFFFFF">
            <path d="M27.03,76 L34.78,76 L34.842,37.808 L42.158,37.808 L42.158,31.67 L19.714,31.67 L19.714,37.808 L27.03,37.808 L27.03,76 Z M45.816,76 L57.1,76 C65.222,76 69.252,72.838 69.252,64.778 L69.252,61.926 C69.252,56.222 66.462,53.494 61.75,52.626 C65.78,51.572 68.136,49.154 68.136,44.628 L68.136,41.528 C68.136,34.646 64.23,31.67 56.666,31.67 L45.816,31.67 L45.816,76 Z M53.504,70.296 L53.504,55.416 L56.232,55.416 C60.014,55.416 61.502,56.594 61.502,61.244 L61.502,64.344 C61.502,68.622 59.89,70.296 56.48,70.296 L53.504,70.296 Z M53.504,50.022 L53.504,37.374 L56.108,37.374 C59.208,37.374 60.696,38.18 60.696,41.962 L60.696,44.938 C60.696,48.596 59.456,50.022 56.108,50.022 L53.504,50.022 Z M76.568,76.372 C82.954,76.372 86.922,72.9 86.922,65.522 L86.922,31.67 L79.172,31.67 L79.172,65.15 C79.172,68.622 77.622,69.862 75.08,69.862 C73.654,69.862 72.786,69.614 71.98,69.428 L71.98,75.504 C72.972,75.938 74.336,76.372 76.568,76.372 L76.568,76.372 Z" id="TBJ" sketch:type="MSShapeGroup"></path>
        </g>
    </g>
</svg>