<?xml version="1.0" encoding="UTF-8" standalone="no"?>
<svg width="108px" height="108px" viewBox="0 0 108 108" version="1.1" xmlns="http://www.w3.org/2000/svg" xmlns:xlink="http://www.w3.org/1999/xlink" xmlns:sketch="http://www.bohemiancoding.com/sketch/ns">
    <!-- Generator: Sketch 3.2.2 (9983) - http://www.bohemiancoding.com/sketch -->
    <title>wichita-monogram</title>
    <desc>Created with Sketch.</desc>
    <defs></defs>
    <g id="Monograms-(For-Export)" stroke="none" stroke-width="1" fill="none" fill-rule="evenodd" sketch:type="MSPage">
        <g id="wichita-monogram" sketch:type="MSArtboardGroup" fill="#FFFFFF">
            <path d="M18.474,76 L26.348,76 L31.122,48.658 L35.834,76 L43.398,76 L49.598,31.67 L42.53,31.67 L38.934,61.74 L33.85,31.67 L28.58,31.67 L23.558,61.554 L20.024,31.67 L12.274,31.67 L18.474,76 Z M53.132,76 L64.416,76 C72.538,76 76.568,72.838 76.568,64.778 L76.568,61.926 C76.568,56.222 73.778,53.494 69.066,52.626 C73.096,51.572 75.452,49.154 75.452,44.628 L75.452,41.528 C75.452,34.646 71.546,31.67 63.982,31.67 L53.132,31.67 L53.132,76 Z M60.82,70.296 L60.82,55.416 L63.548,55.416 C67.33,55.416 68.818,56.594 68.818,61.244 L68.818,64.344 C68.818,68.622 67.206,70.296 63.796,70.296 L60.82,70.296 Z M60.82,50.022 L60.82,37.374 L63.424,37.374 C66.524,37.374 68.012,38.18 68.012,41.962 L68.012,44.938 C68.012,48.596 66.772,50.022 63.424,50.022 L60.82,50.022 Z M83.884,76.372 C90.27,76.372 94.238,72.9 94.238,65.522 L94.238,31.67 L86.488,31.67 L86.488,65.15 C86.488,68.622 84.938,69.862 82.396,69.862 C80.97,69.862 80.102,69.614 79.296,69.428 L79.296,75.504 C80.288,75.938 81.652,76.372 83.884,76.372 L83.884,76.372 Z" id="WBJ" sketch:type="MSShapeGroup"></path>
        </g>
    </g>
</svg>