<?xml version="1.0" encoding="utf-8"?>
<!-- Generator: Adobe Illustrator 17.1.0, SVG Export Plug-In . SVG Version: 6.00 Build 0)  -->
<!DOCTYPE svg PUBLIC "-//W3C//DTD SVG 1.1//EN" "http://www.w3.org/Graphics/SVG/1.1/DTD/svg11.dtd">
<svg version="1.1" id="svg2" xmlns:svg="http://www.w3.org/2000/svg"
	 xmlns="http://www.w3.org/2000/svg" xmlns:xlink="http://www.w3.org/1999/xlink" x="0px" y="0px"
	 viewBox="14.0363 6.3618 913.3817 572.4392" enable-background="new 14.0363 6.3618 913.3817 572.4392" xml:space="preserve">
<path id="US-Mainland" d="M805.2161,266.062l0.202-0.6584l4.3111-0.0617l3.0715,0.97l2.1016,0.3233l0.97-2.1016l-1.4549-2.1016
	v-1.7783l-2.4249-2.1016l-2.1016-5.4964l1.2933-5.3348l-0.1617-2.1016l-1.2933-1.2933c0,0,1.455-1.6166,1.455-2.2632
	c0-0.6467,0.485-2.1016,0.485-2.1016l1.9399-1.2933l1.9399-1.6166l0.485,0.97l-1.455,1.6166l-1.2933,3.7182l0.3233,1.1316
	l1.7783,0.3233l0.485,5.4965l-2.1016,0.97l0.3233,3.5565l0.485-0.1617l1.1317-1.9399l1.6166,1.7783l-1.6166,1.2933l-0.3234,3.3949
	l2.5866,3.3949l3.8798,0.485l1.6166-0.8083l3.2365,4.1829l1.3584,0.5363l0.6975,0.3091l0.1439,1.947l-0.7668,3.0976l-1.587,4.183
	l-0.4459,5.4491l1.4703,4.6408l2.1642-1.9161l1.828-4.9782l-0.4618-3.3904l0.4181-4.5858l2.92-3.7791l0.7704-3.2179l-0.4973-0.5562
	l2.0076-4.0239l0.2269-4.8638l-0.226-0.714l-2.2642-7.355l-0.97,0.485l-3.5566-2.4249l-1.7783-4.6882l-1.9399-3.5565l-2.2632-0.97
	l-2.1016-3.5565l0.499-2.1016l0.5104,0.504l1.0923,2.2442l3.2332,2.9099l4.8498,2.2632l4.0415,0.6467l0.1617,1.4549l-0.8083,0.97
	l0.3234,2.7482h0.8083l2.1016-2.4249l0.8083-4.8498l2.7482-4.0415l3.0715-6.4664l1.1316-5.4964l-0.6466-1.1316l-0.1617-9.3763
	l-1.6166-3.3949l-1.1317,0.8083l-2.7482,0.3233l-0.485-0.485l1.1317-0.97l2.1016-1.9399l0.063-1.0938l0.5405-0.0857l1.1747,0.5329
	l4.0415-1.1316l5.8198-1.9399l2.5865-0.97l7.113-5.3348l3.8799-2.9099l3.3948-3.5565l-4.2032-1.6166l-1.2933,1.4549l-2.9099,2.7482
	l-7.9214,3.8798l-2.2632-0.1617l-1.6166-0.6466l-1.1317,0.6466l-2.2632,2.5866l-1.455,1.2933l-1.2933,0.3233l-0.3233-1.2933
	l1.9399-1.7783l-0.7966-1.6784l1.0143,0.2298l4.9553-3.4012l3.5565-3.2332l1.9399-2.1016l0.8083,0.6466l2.7482-1.4549l5.1732-1.1316
	l7.0447-3.4913l0.8767-0.2269l2.9099-0.97l2.4249-1.9399l1.1316-1.7783l1.2933,0.1617l2.9109-1.5364l0.5192-0.3731l2.0663-1.0004
	l-0.4849-2.2632l0.8083-1.4549l2.9099-1.4549l0.8083,3.0715l-0.485,1.7783l-2.4249,1.455v0.97l1.9399-1.4549l3.8798-4.5265
	l3.8799-1.9399l4.2031-1.455l-0.3233-2.4249l-0.97-2.9099l-1.9399-2.4249l-1.7783-0.8083l-2.1016,0.1617l-0.485,0.485l0.97,1.2933
	l1.455-0.8083l2.1016,1.6166l0.8083,2.7482l-1.7783,1.7783l-2.2632,0.97l-3.5565-0.485l-3.8798-5.9814l-2.2632-2.5866h-1.7783
	l-1.1316,0.8083l-1.9399-2.5866l0.3233-1.4549l2.4249-5.1731l-2.8892-4.4128l-0.5663-0.4921l0.869-1.0765l1.0902-3.291l0.373-1.1192
	l1.1233-6.2594l0.1617-4.3648l1.455-1.2933l-0.97-3.2332l3.0715-3.5565l1.6166,1.4549l1.2933-0.485l5.3348-3.0716l0.3233-2.9099
	l2.9099-0.485l1.6166-2.5866l-0.1616-1.6166l-0.3234-3.0715l0.8083-1.2933l-0.3234-1.1316l-1.2933-1.4549l2.1016-1.2933
	l1.7783,3.2332l1.4549-0.3233l0.3234,1.2933v1.6166l1.9399,0.1617l0.4849-2.7482l0.485-0.6467l-1.6166-1.4549l0.97-1.4549
	l2.4249-1.4549l0.9699-1.4549l1.7783-0.1617c0,0,0.3234,2.1016,0.97,2.1016c0.6467,0,1.2933,0,1.2933,0l4.8499-5.4965l3.3948-3.0715
	l1.9399-0.6466l2.1016-4.6881v-1.9399l-2.2633-3.7182l-1.9399-2.1016l-2.7482,0.1617l0.485,1.1316l-0.1617,0.485h-0.8083
	l-2.9099-2.2632l-0.1616-4.8498l-0.8083-1.9399h-5.9814l-9.053-29.9072l-1.9399-0.97l-5.9814-2.4249l-1.455-0.1617l-1.7783,1.7783
	l-4.0415,2.9099v0.97l-0.8083,0.8083l-2.7482-0.6466l-1.2933-2.2632v-1.1316l-1.2933-0.1617h-1.2933l-2.1016,4.2032l-2.9099,8.8913
	l-1.7783,4.8498l0.1617,4.8498l0.1616,1.4549l-0.8083,2.7482l-0.8083,0.97v5.9814l1.9399,2.4249l-1.455,4.0415l-2.5866,4.6882
	l-0.8083,5.4965v2.5866l-1.5138-0.4099l-1.4205,0.1182l-0.8568,0.4585l-0.8971-0.0051l-0.6466,1.6166l-0.6467-0.485l-0.97-0.97
	l-1.4549,1.9399l-0.0485,5.0321l-0.9205,0.302l-26.2474,6.7474l-0.6221,0.3967l-7.5652,2.0712l-4.5265,1.4549l-3.2332-0.1617
	l-5.4965,1.2933l-3.0814,1.2459l-2.4151,1.8256l-2.1016,2.4249l-2.7482,3.7182l-2.9099,4.5265l-1.455,2.9099l-0.6467,0.8083
	l-5.8198,5.4965l0.1617,2.5866l0.8083,1.1316l1.7783,0.8083h1.7783v1.4549l-1.1316,2.1016l0.3233,1.4549l1.455,2.1016
	l-0.1617,2.2632l-1.9399,1.1316h-2.1016l-1.6166,1.9399l-1.7783,3.2332l-2.1016,1.7783l-5.1732,0.485l-2.5865,1.1316l-2.1016,1.2933
	l-1.6166-0.1617l-1.9399-1.2933l-6.3047,0.1617l-3.2332,0.485l-4.0415,1.2933l-4.3648,1.4549l-2.9099,1.7783l1.9399,6.1431
	l1.7783,0.1617l1.2933,3.0715l0.1617,0.97l-1.1317,0.97l-2.1016,2.7482l-0.485,1.6166l-1.9399,1.7783l-1.7783,1.1316l-0.97,1.6166
	l-1.2933,1.1316l-1.4281,1.1254l-1.0057,0.5192l-5.4875,5.6301l-1.2933,0.485l-4.2023,3.0089l-1.0204-0.1108l-6.0936,4.0533
	l-3.8798,2.2632l-3.3949,3.7182l-4.0415,3.8798l-3.2332,0.8083l-2.9099,0.485l-5.4965,2.5866l-2.1016,0.1617l-3.3948-3.0715
	l-5.1732,0.6467l-2.5865-1.455l-2.3811-1.3508l-1.1519-0.3249l0.1381-0.5875l0.1617-1.4549l2.1016-3.7182l2.0005-1.7378
	l-0.2223-5.0519l1.597-1.597l1.0906-0.3429l0.2223-3.5565l1.5358-3.0311l1.0508,0.6062l0.1617,0.6466l0.8083,0.1617l1.9399-0.97
	l-0.3234-9.538l-3.2332-8.2447l-2.2632-9.053l-2.4249-3.2332l-2.5866-1.7783l-1.6166,1.1316l-3.8799,1.7783l-1.9399,5.0115
	l-2.7482,3.7182l-1.1317,0.6466l-1.455-0.6466c0,0-2.5865-1.455-2.4249-2.1016s0.485-5.0115,0.485-5.0115l3.3948-1.2933
	l0.8083-3.3949l0.6466-2.5866l2.4249-1.6166l-0.3233-10.0229l-1.6166-2.2632l-1.2933-0.8083l-0.8083-2.1016l0.8083-0.8083
	l1.6166,0.3233l0.1617-1.6166l-2.4249-2.2633l-1.2933-2.5865h-2.5865l-4.5265-1.455l-5.4965-3.3949h-2.7482l-0.6467,0.6466
	l-0.97-0.485l-3.0715-2.2632l-2.9099,1.7783l-2.9099,2.2633l0.3233,3.5565l0.97,0.3233l2.1016,0.485l0.485,0.8083l-2.5865,0.8083
	l-2.5865,0.3233l-1.455,1.7783l-0.3233,2.1016l0.3233,1.6166l0.3233,5.4965l-3.5565,2.1016l-0.6467-0.1617V140.54l1.2933-2.4249
	l0.6466-2.4249l-0.8083-0.8083l-1.9399,0.8083l-0.97,4.2032l-2.7482,1.1316l-1.7783,1.9399l-0.1616,0.97l0.6466,0.8083
	l-0.6466,2.5866l-2.2632,0.485v1.1316l0.8083,2.4249l-1.1317,6.1431l-1.6166,4.0415l0.6466,4.6882l0.485,1.1316l-0.8083,2.4249
	l-0.3233,0.8083l-0.3233,2.7482l3.5565,5.9814l2.9099,6.4664l1.455,4.8498l-0.8083,4.6882l-0.97,5.9814l-2.4249,5.1731
	l-0.3233,2.7482l-3.2589,3.0851l-1.0247,0.7943l-2.8295,1.617l-2.1016,1.9399l-1.1316,0.3233l-1.455-0.97l-3.071-0.8895
	l-0.8596,0.1943l-0.2725-0.9214l-0.8083-2.5866l-1.2933-3.7182l-1.6166-1.7783l-1.4549-2.5866l-0.2336-5.489l-0.2988-1.0791
	l0.3707-2.9699l-1.6166-4.5265l-0.6467-6.1431l-1.1316-2.4249l0.9699-3.0715l0.8083-2.9099l1.4549-2.5866l-0.6466-3.3949
	l-0.6467-3.5565l0.485-1.7783l1.9399-2.4249l0.1617-2.7482l-0.8083-1.2933l0.6467-2.5866l0.485-3.2332l2.7482-5.6581l2.9099-6.7897
	l0.1617-2.2632l-0.3233-0.97l-0.8083,0.485l-4.2031,6.3048l-2.7482,4.0415l-1.9399,1.7783l-0.8083,2.2632l-1.455,0.8083
	l-1.1316,1.9399l-1.455-0.3233l-0.1617-1.7783l1.2933-2.4249l2.1016-4.6882l1.7783-1.6166l1.1013-2.2916l0.5674-0.8923
	l3.1811-7.0008l0.97-4.0415l1.9399-4.3648l0.8083-0.1617l1.1316,1.6166h0.6467l4.5265-2.4249l1.455,1.6166l0.485,0.1617
	l1.2933-1.1316l1.1316-3.0715l2.4249-0.8083l6.9514-0.6466l1.9399-2.5866l5.1731-0.1617l5.8198,1.2933h1.7783l3.2332-1.4549
	l2.2633,0.1617l2.1016-0.6466l3.7182,0.485l0.8083,0.3233l1.2933-0.3233l-1.2933-0.97l-1.2933-0.6466l-3.2332-3.0716v-6.9514
	l-1.455-0.485l-1.1316,1.1316l-6.1431,1.6166l-1.9399,0.485l-2.9099-0.8083l-0.485-0.3233v-5.6581l-1.455-0.1617l-2.5865,1.2933
	l-4.5265,1.9399l-6.6281,0.3233l-3.3948,1.1316l-4.0416,3.5565l-1.6166,0.97h-1.1317l-1.2933,0.8083l-1.6166-0.485l-1.6166-1.2933
	l-1.4549,0.97l-3.8799,0.1617l-2.7482-2.7482l-1.455-3.0715l-1.4549-1.1316l-3.2332-0.97h-2.2632l-1.2933-1.2933l-3.5566,2.9099
	l-0.97,1.1316l-0.8083-0.485l0.3233-2.5866l2.4249-3.2332l0.485-2.4249l2.2632-0.8083l1.455-3.0715l3.7182-0.97l0.3233-0.97
	l-1.1316-1.1316l-4.6882,0.485l-4.3649,2.4249l-2.2632,2.2633l-1.2933,1.7783l-1.7783,0.8083l-1.9399,2.9099l-0.1616,1.2933
	l-4.3649,2.1016l-2.4249,1.9399l-5.9814,0.97l-0.6467,0.6466v0.97l-3.5565,2.2632l-2.7482,0.8083l-0.7163,0.5804l-1.0175,0.4217
	l-0.5294,1.2611l-1.1316-0.1617l-0.6467-1.1316l-2.7482-0.8083l-1.1317,0.1617l-1.7783,0.97l-0.97-0.6466l0.6467-1.9399
	l1.9399-3.0716l1.1316-1.1316l-1.9399-1.4549l-2.1016,0.8083l-2.9099,1.9399l-7.4363,3.2332l-2.9099,0.6466l-2.9099-0.485
	l-0.9818-0.8783l-0.435-0.5527l3.8416-2.9339l1.2933-0.1617l4.5265-5.0115l1.7783-0.8083l2.2632-3.8799l2.4249-3.5565l3.0716-2.5866
	l4.7747-2.0069l9.2458-4.0611l3.9387-1.8371l0.6121-2.2795l-4.4399,0.3707l-0.7136,1.0843h-0.6467l-1.7783-3.0715l-8.8913,0.3233
	l-0.97,0.8083h-0.97l-0.485-1.2933l-0.8083-1.7783l-2.5865,0.485l-3.2332,3.2332l-1.6166,0.8083h-3.0715l-2.5865-0.97v-2.1016
	l-1.2933-0.1617l-0.485,0.485l-2.5866-1.2933l-0.485-2.9099l-1.4549,0.485l-0.485,0.97l-2.4249-0.485l-5.3348-2.4249l-3.8799-2.5866
	h-2.9099l-1.2933-0.97l-2.2632,0.6466l-1.1316,1.1316l-0.3233,1.2933h-4.8499v-2.1016l-6.3047-0.3233l-0.3233-1.4549h-4.8498
	l-1.6166-1.6166l-1.455-6.1431l-0.8083-5.4965l-1.9399-0.8083l-2.2632-0.485l-0.6467,0.1617l-0.3233,8.2447l-30.1324-0.0353
	l-1.0968-0.0473l-28.4235-0.564l-18.591-0.6466l-26.5123-1.2933l-24.9464-1.8839l-1.2838-0.4814l-30.6743-2.8078l-29.2606-3.5565
	l-29.2605-4.0415l-32.3321-5.3348l-18.4293-3.3949l-32.7237-6.9327l-1.1233-0.1605l-12.9961-2.5281l-0.7205-0.4018l-15.1606-3.3947
	l-22.9558-5.6581l-20.0459-5.6581l-8.568-1.9399l-9.6996-2.7482l-4.3648-1.4549l-1.1316,0.8083l-0.3233,0.8083l2.4249,4.8498
	l1.1316,2.5866l-1.7783,3.5565v2.2632l0.6466,1.4549l-0.8083,1.7783l0.485,3.2332l0.97,1.2933l-0.1617,1.2933l-1.4549,0.1617
	l-0.6466-1.9399l-1.1316-2.4249l-1.7783-1.4549l0.3233-2.1016l2.2633-0.485L92.28,20.2646l-0.3233-1.1316l-2.1016,1.2933
	l-1.2933,1.1316v2.4249l-2.2633,0.1617l-3.3949-0.97l-2.9099-1.4549l-3.0716-0.6466l-4.5265-2.1016l-3.2332-1.9399l-2.7482-2.5866
	l-2.4249-2.9099l-2.1016-0.485l-2.2632,9.3763l1.7783,3.2332v7.9214l-0.6466,2.9099l1.4549,7.1131l2.7482,2.7482l-4.3648,0.6466
	l-0.1617,3.7182l2.5866,1.1316l-1.6166,4.0415l-2.7482,0.3233l-0.3233,2.9099l2.2632,2.9099l-2.1016,2.5866l-2.2632,6.4664
	L52.9965,79.109l-3.2332,6.4664l-5.0115,14.0645l-6.4664,13.5795l-8.083,12.6095l-1.9399,2.9099l-0.8083,8.568l-1.2933,5.9814
	l2.7082,3.5274l-0.4814,0.9629l-1.5801,4.7244l-0.1617,7.4364l-5.1731,11.8012l-3.0715,2.5866l-0.3233,1.1316l-1.7783,0.8083
	l-1.4549,4.2032l-0.8083,3.2332l2.7482,4.2032l1.6166,4.2032l1.1316,3.5565l-0.3233,6.4664l-1.7783,3.0715l-0.6466,5.8198
	l-0.97,3.7182l1.7783,3.8798l2.7482,4.5265l2.2632,4.8498l1.2933,4.0415l-0.3233,3.2332l-0.3233,0.485v2.1016l5.6581,6.3048
	l-0.485,2.4249l-0.6466,2.2632l-0.6466,1.9399l0.1617,8.2447l2.1016,3.7182l1.9399,2.5865l2.7482,0.485l0.97,2.7482l-1.1316,3.5565
	l-2.1016,1.6166h-1.1316l-0.8083,3.8799l0.485,2.9099l3.2332,4.3648l1.6166,5.3348l1.4549,4.6882l1.2933,3.0715l3.3949,5.8198
	l1.4549,2.5865l0.485,2.9099l1.6166,0.97v2.4249l-0.8083,1.9399l-1.7783,7.1131l-0.485,1.9399l2.4249,2.7482l4.2032,0.485
	l4.5265,1.7783l3.8799,2.1016h2.9099l2.9099,3.0716l2.5866,4.8498l1.1316,2.2632l3.8799,2.1016l4.8498,0.8083l1.4549,2.1016
	l0.6466,3.2332l-1.4549,0.6466l0.3233,0.97l3.2332,0.8083l2.7482,0.1617l2.9099,4.6881l3.8799,4.2032l0.8083,2.2632l2.5866,4.2032
	l0.3233,3.2332v9.3763l0.485,1.7783l10.023,1.455l19.7226,2.7482l13.9075,0.9747l1.0057,0.7468l-2.627,2.1584l-0.3233,1.4549
	l0.485,0.97l18.9143,10.6696l12.1245,7.5981l14.7111,8.568l16.8127,10.0229l12.2862,2.4249l25.1279,2.7049l1.6048,0.8024
	l15.4607,1.9891l1.2933-10.0229l16.651,2.5866l12.4561,1.6178l0.9617-0.0012l1.9399,0.485l2.5866,2.9099l1.455,4.3649l4.6881,2.2632
	l1.2933,3.2332l7.1131,7.9214l1.2933,1.6166l5.0115,2.1016l1.1316,2.1016l1.6166,0.97l0.485,2.7482l3.2332,6.4664v8.083
	l2.2632,4.6882l7.4364,7.7597l5.1731,2.1016l1.7783,1.9399v0.6466l3.8799,2.2632l1.9399,0.6466l1.7783,1.1316l2.5866,0.97
	l2.4249-2.4249l4.3648-6.1431l0.9699-3.7182l2.2633-3.2332l3.5565-1.4549l4.5265-1.7783l3.0716,2.2632l7.4364,0.6466l6.7897,1.1317
	l2.5866,2.1016v1.1317l2.5865,3.0715l5.9814,5.3348l0.1617,1.4549l1.7783,1.9399l0.8083,4.2032l5.3348,12.2862l-0.1617,1.9399
	l4.2032,2.5865l3.5565,6.6281l3.3949,4.3648l3.2332,1.2933l1.6166,2.2632l-1.2933,4.3649l0.6466,0.97l1.2933,0.6466l-0.3233,3.3949
	l-0.6467,0.6466l0.6467,2.2632l3.2332,1.9399l1.2933,6.4664l2.1016,3.8798l7.5981,3.3949l5.1731,1.1316l4.2032,3.0716l3.2332,0.6466
	l1.2933-0.485l5.4965,1.1317l5.6581,3.8798l3.0716-1.9399l0.9699-1.455l-1.7783-2.7482l-0.97-6.1431l-1.7783-6.9514l-0.8083-2.4249
	l0.8083-4.5265l1.1316-3.8799l1.2933-4.5265l1.4549-5.4965l-2.2632-1.9399l0.97-1.9399l4.0415-0.3234l3.8799-5.4964l3.3949-0.6467
	l5.8198-3.5565l1.7783-1.455l6.3047-3.3949l5.6581-2.4249l5.3348-3.2332l2.7482-2.1016l5.6581-5.3348l1.2933-0.8083l2.1016-1.455
	l2.5866-1.9399l0.9699-1.9399l9.8613-4.5265l5.6649-1.5852l0.6415-0.1279l4.6865-1.5202l8.083-0.3233l10.3463,3.5565l6.4664,1.1316
	l3.7182-1.4549l3.2332,1.1316l3.2332,0.9699l0.8083-2.1016l-3.2332-1.1316l-2.5866,0.485l-2.7482-1.6166
	c0,0,0.1617-1.2933,0.8083-1.455c0.6466-0.1617,3.0715-0.97,3.0715-0.97l1.7783,1.455l1.7783-0.97l3.2332,0.6466l1.455,2.4249
	l0.3233,2.2632l4.5265,0.3233l1.7783,1.7783l-0.8083,1.6166l-1.2933,0.8083l1.6166,1.6166l8.4064,3.5565l3.5565-1.2933l0.97-2.4249
	l2.5865-0.6466l1.7783-1.4549l1.2933,0.9699l0.8083,2.9099l-2.2632,0.8083l0.6466,0.6466l3.3949-1.2933l2.2632-3.3949l0.8083-0.485
	l-2.1016-0.3233l0.8083-1.6166l-0.1617-1.4549l2.1016-0.485l1.1316-1.2933l0.6467,0.8083c0,0-0.1617,3.0716,0.6467,3.0716
	c0.8083,0,4.2031,0.6466,4.2031,0.6466l4.0415,1.9399l0.97,1.455h2.9099l1.1316,0.97l2.2632-3.0716v-1.455h-1.2933l-3.3948-2.7482
	l-5.8198-0.8083l-3.2332-2.2632l1.1316-2.7482l2.2632,0.3233l0.1617-0.6466l-1.7783-0.97v-0.485h3.2332l1.7783-3.0715
	l-1.2933-1.9399l-0.3234-2.7482l-1.455,0.1617l-1.9399,2.1016l-0.6467,2.5866l-3.0715-0.6467l-0.97-1.7783l1.7783-1.9399
	l2.0208-1.7783l0.7566-0.5153l1.1025-0.778l2.5865-4.2032l1.7783,0.8083l6.7897-1.9399l2.1016,0.3233l1.455,0.8083h5.1732
	l0.2543-1.2562l1.039-0.1988h2.7482l0.6467,0.1617l1.2933-2.7482l1.455-4.3648l2.2632,0.6466l3.0715,5.9814v0.9699l-2.7482,1.9399
	l2.7482,0.3233l5.5421-2.5729l0.6783,0.1143l3.4792-0.6129l5.9814-2.1016l5.9814-0.485l4.3649-0.6466l7.598,1.7783l8.083,3.8799
	l1.6166,1.455l2.9099,1.1316l1.6166,1.9399l0.3233,2.7482l3.2332-1.2933h3.8798l3.5566-1.9399l3.7182-3.5565l3.0715,0.1617
	l0.485-1.1317l-0.8083-0.9699l0.1617-1.9399l4.0415-0.8083h2.5865l2.9099,1.4549l4.2032,1.455l2.4249,3.7182l2.7482,0.9699
	l1.1316,3.3949l3.3949,1.6166l1.6166,2.5866l1.9399,0.6466l5.1732,1.2933l1.2933,3.0716l3.0715,3.7182v9.538l-1.455,4.6881
	l0.3233,2.7482l1.2933,4.8498l1.7783,4.0415l0.8083-0.485l1.455-4.5265l-2.5866-0.97l-0.3233-0.6466l1.6166-0.6466l4.5265,0.97
	l0.1616,1.6166l-3.2332,5.4965l-2.1016,2.4249l3.5565,3.7181l2.5865,3.0716l2.9099,5.3348l2.9099,3.8798l2.1016,5.0115
	l1.7783,0.3234l1.6166-2.1016l1.7783,1.1317l2.5865,4.0415l0.6467,3.5565l3.0715,4.3648l0.8083-1.2933l3.8799,0.3234l3.5565,2.2632
	l3.3948,5.1731l0.8083,3.3949l0.3233,2.9099l1.1316,0.97l1.2933,0.485l2.4249-0.97l1.455-1.6166l3.8799-0.1617l3.0715-1.455
	l2.7482-3.2332l-0.485-1.9399l-0.3234-2.4249l0.6467-1.9399l-0.3233-1.9399l2.4249-1.2933l0.3234-3.3948l-0.6467-1.7783
	l-0.485-11.9629l-1.2933-7.598l-4.5265-8.2447l-3.5565-5.8198l-2.5866-5.3348l-2.9099-2.9099l-2.9099-7.4364l0.8083-1.2933
	l1.1316-1.2933l-1.6166-2.9099l-4.0416-3.7182l-4.8498-5.4965l-3.7182-6.3048l-5.3348-9.3763l-3.7297-9.7423l-2.2657-7.3186
	l-0.019-0.8894l-0.7754-6.2988l2.2632-10.0229l1.455-4.2032l-0.485-2.5865l3.3344-6.2443l-0.5103-1.3517l0.5707-0.972l2.1016-1.2933
	l5.0115-5.4965l-0.97-3.2332l2.9099-0.1617l3.5566-3.3949l1.6166-0.8083l2.2632-3.3949l2.7482-2.7482l2.1016-3.5565l2.4249-0.6466
	l1.1317-2.7482l1.6166-0.8083l0.485-6.3048l2.5865-6.1431l5.4212-5.4583l0.2803-0.803l5.4531-1.3366l4.6882-0.485l0.485-2.4249
	l1.9399-6.4664l3.3949-4.6882l6.4664-5.3348l5.1731-2.4249l2.7482-0.6466l1.1317,0.485h1.2933l3.0715-4.8498l1.9399-3.5565
	l-1.2933,0.485l-2.2632,2.2632l-0.6467-1.6166h-4.2032l1.9399-6.3047l-0.8083-1.2933h-1.9399v-0.97l-0.3233-1.2933l1.6166,1.2933
	l1.455,0.1617l2.4249,0.3233l3.7182-1.6166l1.2933-2.9099l0.6466-2.1016l2.5866-1.2933l0.3233-4.2032l-0.8083-0.6466l2.4249-0.1617
	l-0.6466-2.2633l-2.4249-2.4249l-3.5565-6.4664l-1.71-4.6986l-0.9203-0.9247l-3.6076-6.0119l-5.801,1.6858l-1.5723-1.4943
	l2.553-1.3813l-0.4918-2.5241l-1.7731-1.7854l-0.1215-1.4119l-2.281-1.5428l-0.0889-1.6155l2.694,0.0949l0.2218-1.3846
	l-1.2294-0.7898l0.479-1.9304l-1.3748-1.1025l0.4395-4.6901l-0.8681-1.2l-3.1904-0.4025l-2.1523-2.0885l-4.8565-0.9421
	L805.2161,266.062z M767.9427,577.9119l2.4249-0.6467l1.2933-0.2425l1.455-2.3441l2.3441-1.6166l1.2933,0.485l1.6974,0.3233
	l0.4041,1.0508l-3.4757,1.2125l-4.2032,1.455l-2.3441,1.2125L767.9427,577.9119z M781.4414,572.9003l1.2125,1.0508l2.7482-2.1016
	l5.3348-4.2032l3.7182-3.8799l2.5058-6.6281l0.97-1.6974l0.1616-3.3949l-0.7275,0.485l-0.97,2.829l-1.455,4.6074l-3.2332,5.254
	l-4.3648,4.2032l-3.3949,1.9399L781.4414,572.9003z M836.002,331.4596l2.5865-2.5058l3.1524-2.5866l1.5358-0.6466l0.1617-2.0208
	l-0.6467-6.1431l-1.455-2.3441l-0.6467-1.8591l0.7275-0.2425l2.7483,5.4965l0.4041,4.4456l-0.1616,3.3949l-3.3949,1.5358
	l-2.8291,2.4249l-1.1316,1.2125L836.002,331.4596z M899.9771,173.8512l2.1719-0.6859l0.4572-1.7147l1.0288,0.1143l1.0288,2.2862
	l-1.2574,0.4572l-3.8866,0.1143L899.9771,173.8512z M890.6035,174.6514l2.2862-2.6292h1.6004l1.829,1.4861l-2.4006,1.0288
	l-2.1719,1.0288L890.6035,174.6514z M902.283,107.4782l1.5358-1.5358l1.3741,1.0508l0.5658,2.4249l-1.6974,0.8891L902.283,107.4782z
	 M908.9919,101.5776l1.7783,1.8591c0,0,1.2933,0.0808,1.2933-0.2425s0.2425-2.0208,0.2425-2.0208l0.8892-0.8083l-0.8083-1.7783
	l-2.0208,0.7275L908.9919,101.5776z M820.3209,264.2895l1.1317,2.5057l0.1616,1.7783l1.1317,1.8591c0,0,0.8892-0.8891,0.8892-1.2124
	c0-0.3233-0.7275-3.0716-0.7275-3.0716l-0.7275-2.3441L820.3209,264.2895z M581.6193,82.059l1.829-2.0576l2.1719-0.8002
	l5.3726-3.8866l2.2862-0.5716l0.4573,0.4573l-5.144,5.144l-3.3151,1.9433l-2.0576,0.9145L581.6193,82.059z M667.7937,114.1872
	l0.6466,2.5057l3.2332,0.1617l1.2933-1.2125c0,0-0.0809-1.4549-0.4042-1.6166c-0.3233-0.1617-1.6166-1.8591-1.6166-1.8591
	l-2.1824,0.2425l-1.6166,0.1617l-0.3233,1.1316L667.7937,114.1872z M84.1165,12.3407l2.0208-0.1617l0.485,1.3741l1.5358-1.6166
	h2.3441l0.8083,1.5358l-1.5358,1.6974l0.6467,0.8083l-0.7275,2.0208l-1.3741,0.4041c0,0-0.8891,0.0808-0.8891-0.2425
	s1.455-2.5866,1.455-2.5866l-1.6974-0.5658l-0.3233,1.455l-0.7275,0.6466l-1.5358-2.2633L84.1165,12.3407z M457.2302,567.3231
	l-0.5658-7.1131l-2.7483-7.1939l-0.5658-7.0323l1.5358-8.2447l3.3141-6.8706l3.4757-5.4156l3.1524-3.5565l0.6466,0.2425
	l-4.769,6.6281l-4.3648,6.5472l-2.0208,6.6281l-0.3233,5.1732l0.8891,6.1431l2.5866,7.1939l0.485,5.1732l0.1617,1.455
	L457.2302,567.3231z M48.7936,337.0369l1.2933,1.5358l-0.1617,1.2933l-3.2332-0.0808l-0.5658-1.2125l-0.6466-1.455L48.7936,337.0369
	z M50.7335,337.0369l1.2125-0.6466l3.5565,2.1016l3.0716,1.2125l-0.8891,0.6467l-4.5265-0.2425l-1.6166-1.6166L50.7335,337.0369z
	 M71.4262,356.8404l1.7783,2.3441l0.8083,0.97l1.5358,0.5658l0.5658-1.455l-0.97-1.7783l-2.6674-2.0208l-1.0508,0.1617V356.8404z
	 M69.9712,365.4893l1.7783,3.1524l1.2125,1.9399l-1.4549,0.2425l-1.2933-1.2125c0,0-0.7275-1.455-0.7275-1.8591s0-2.1824,0-2.1824
	L69.9712,365.4893z"/>
</svg>
