<?xml version="1.0" encoding="utf-8"?>
<!-- Generator: Adobe Illustrator 18.1.0, SVG Export Plug-In . SVG Version: 6.00 Build 0)  -->
<!DOCTYPE svg PUBLIC "-//W3C//DTD SVG 1.1//EN" "http://www.w3.org/Graphics/SVG/1.1/DTD/svg11.dtd">
<svg version="1.1" id="Layer_1" xmlns:sketch="http://www.bohemiancoding.com/sketch/ns"
	 xmlns="http://www.w3.org/2000/svg" xmlns:xlink="http://www.w3.org/1999/xlink" x="0px" y="0px" viewBox="-184 243 130 16"
	 enable-background="new -184 243 130 16" xml:space="preserve">
<title>the-list-logo-solid-fill</title>
<desc>Created with Sketch.</desc>
<g id="Special-Section---unlocked" sketch:type="MSPage">
	<g id="Business-Pulse-Full" transform="translate(-167.000000, -1129.000000)" sketch:type="MSArtboardGroup">
		<g id="the-list-logo-solid-fill" transform="translate(167.000000, 1129.000000)" sketch:type="MSLayerGroup">
			<path id="Shape" sketch:type="MSShapeGroup" fill="#231F20" d="M-176.1,243c4.4,0,7.9,3.5,7.9,7.9c0,4.3-3.5,7.9-7.9,7.9
				c-4.4,0-7.9-3.5-7.9-7.9C-184,246.5-180.5,243-176.1,243"/>
			<path id="Shape_1_" sketch:type="MSShapeGroup" fill="#231F20" d="M-176.1,244.1c3.8,0,6.8,3,6.8,6.8c0,3.8-3.1,6.8-6.8,6.8
				c-3.8,0-6.8-3-6.8-6.8C-182.9,247.1-179.9,244.1-176.1,244.1"/>
			<path id="Shape_2_" sketch:type="MSShapeGroup" fill="#231F20" d="M-157.3,243c4.4,0,7.9,3.5,7.9,7.9c0,4.3-3.5,7.9-7.9,7.9
				c-4.4,0-7.9-3.5-7.9-7.9C-165.3,246.5-161.7,243-157.3,243"/>
			<path id="Shape_3_" sketch:type="MSShapeGroup" fill="#231F20" d="M-157.3,244.1c3.8,0,6.8,3,6.8,6.8c0,3.8-3.1,6.8-6.8,6.8
				c-3.8,0-6.8-3-6.8-6.8S-161.1,244.1-157.3,244.1"/>
			<path id="Shape_4_" sketch:type="MSShapeGroup" fill="#231F20" d="M-138.6,243c4.4,0,7.9,3.5,7.9,7.9c0,4.3-3.5,7.9-7.9,7.9
				s-7.9-3.5-7.9-7.9C-146.5,246.5-143,243-138.6,243"/>
			<path id="Shape_5_" sketch:type="MSShapeGroup" fill="#231F20" d="M-138.6,244.1c3.8,0,6.8,3,6.8,6.8c0,3.8-3.1,6.8-6.8,6.8
				s-6.8-3-6.8-6.8S-142.4,244.1-138.6,244.1"/>
			<path id="Shape_6_" sketch:type="MSShapeGroup" fill="#004A8F" d="M-119.9,243c4.4,0,7.9,3.5,7.9,7.9c0,4.3-3.5,7.9-7.9,7.9
				s-7.9-3.5-7.9-7.9C-127.8,246.5-124.2,243-119.9,243"/>
			<path id="Shape_7_" sketch:type="MSShapeGroup" fill="#004A8F" d="M-119.9,244.1c3.8,0,6.8,3,6.8,6.8c0,3.8-3.1,6.8-6.8,6.8
				c-3.8,0-6.8-3-6.8-6.8C-126.7,247.1-123.6,244.1-119.9,244.1"/>
			<path id="Shape_8_" sketch:type="MSShapeGroup" fill="#004A8F" d="M-101.1,243c4.4,0,7.9,3.5,7.9,7.9c0,4.3-3.5,7.9-7.9,7.9
				c-4.4,0-7.9-3.5-7.9-7.9C-109,246.5-105.5,243-101.1,243"/>
			<path id="Shape_9_" sketch:type="MSShapeGroup" fill="#004A8F" d="M-101.1,244.1c3.8,0,6.8,3,6.8,6.8c0,3.8-3.1,6.8-6.8,6.8
				s-6.8-3-6.8-6.8C-107.9,247.1-104.9,244.1-101.1,244.1"/>
			<path id="Shape_10_" sketch:type="MSShapeGroup" fill="#004A8F" d="M-82.4,243c4.4,0,7.9,3.5,7.9,7.9c0,4.3-3.5,7.9-7.9,7.9
				c-4.4,0-7.9-3.5-7.9-7.9C-90.3,246.5-86.7,243-82.4,243"/>
			<path id="Shape_11_" sketch:type="MSShapeGroup" fill="#004A8F" d="M-82.4,244.1c3.8,0,6.8,3,6.8,6.8c0,3.8-3.1,6.8-6.8,6.8
				s-6.8-3-6.8-6.8S-86.1,244.1-82.4,244.1"/>
			<path id="Shape_12_" sketch:type="MSShapeGroup" fill="#004A8F" d="M-63.6,243c4.4,0,7.9,3.5,7.9,7.9c0,4.3-3.5,7.9-7.9,7.9
				s-7.9-3.5-7.9-7.9C-71.5,246.5-68,243-63.6,243"/>
			<path id="Shape_13_" sketch:type="MSShapeGroup" fill="#004A8F" d="M-63.6,244.1c3.8,0,6.8,3,6.8,6.8c0,3.8-3.1,6.8-6.8,6.8
				s-6.8-3-6.8-6.8C-70.4,247.1-67.4,244.1-63.6,244.1"/>
			<g id="Group" transform="translate(6.148649, 4.368190)" sketch:type="MSShapeGroup">
				<path id="Shape_14_" fill="#FFFFFF" d="M-183,249.8h1.5v-5.4h1.8v-1.2h-5.1v1.2h1.8V249.8z"/>
				<path id="Shape_15_" fill="#FFFFFF" d="M-166.3,249.8h1.5v-2.7h2.6v2.7h1.5v-6.5h-1.5v2.7h-2.6v-2.7h-1.5V249.8z"/>
				<path id="Shape_16_" fill="#FFFFFF" d="M-147,249.8h4.4v-1.2h-3V247h2.2V246h-2.2v-1.5h2.8v-1.2h-4.3V249.8z"/>
				<path id="Shape_17_" fill="#FFFFFF" d="M-127.9,249.8h4.2v-1.2h-2.7v-5.4h-1.5V249.8z"/>
				<rect id="Rectangle" x="-108" y="243.3" fill="#FFFFFF" width="1.5" height="6.5"/>
			</g>
			<path id="Shape_18_" sketch:type="MSShapeGroup" fill="#FFFFFF" d="M-82.3,254.3c1.6,0,2.5-0.9,2.5-2.1c0-1.4-0.8-1.8-2.4-2
				c-1-0.1-1.2-0.4-1.2-0.8c0-0.4,0.3-0.7,1-0.7s1,0.3,1.1,0.9h1.4c-0.1-1.3-1-2-2.5-2c-1.5,0-2.4,0.8-2.4,1.9c0,1.3,0.7,1.8,2.4,2
				c1,0.1,1.2,0.3,1.2,0.9c0,0.5-0.4,0.9-1.1,0.9c-1,0-1.2-0.5-1.3-1.1H-85C-84.9,253.4-84.1,254.3-82.3,254.3"/>
			<path id="Shape_19_" sketch:type="MSShapeGroup" fill="#FFFFFF" d="M-64.4,254.2h1.5v-5.4h1.8v-1.2h-5.1v1.2h1.8V254.2z"/>
		</g>
	</g>
</g>
</svg>
