<?xml version="1.0" encoding="UTF-8" standalone="no"?>
<svg width="591px" height="144px" viewBox="0 0 591 144" version="1.1" xmlns="http://www.w3.org/2000/svg" xmlns:xlink="http://www.w3.org/1999/xlink" xmlns:sketch="http://www.bohemiancoding.com/sketch/ns">
    <!-- Generator: Sketch 3.2.2 (9983) - http://www.bohemiancoding.com/sketch -->
    <title>albany-logo</title>
    <desc>Created with Sketch.</desc>
    <defs></defs>
    <g id="Logos-(For-Export)" stroke="none" stroke-width="1" fill="none" fill-rule="evenodd" sketch:type="MSPage">
        <g id="albany-logo" sketch:type="MSArtboardGroup" transform="translate(-155.000000, -11.000000)" fill="#FFFFFF">
            <path d="M361.576,74 L368.088,74 L357,11.08 L347.056,11.08 L335.88,74 L342.128,74 L344.768,58.16 L358.848,58.16 L361.576,74 Z M351.808,16.272 L357.968,53.056 L345.56,53.056 L351.808,16.272 Z M378.424,74 L402.184,74 L402.184,68.72 L385.024,68.72 L385.024,11.08 L378.424,11.08 L378.424,74 Z M413.048,74 L426.072,74 C436.896,74 441.648,69.072 441.648,58.248 L441.648,53.672 C441.648,45.488 438.04,41.792 431.44,40.56 C437.248,39.064 439.888,35.544 439.888,29.296 L439.888,24.632 C439.888,14.776 434.432,11.08 425.104,11.08 L413.048,11.08 L413.048,74 Z M419.56,68.72 L419.56,43.464 L425.28,43.464 C432.408,43.464 435.136,45.576 435.136,53.584 L435.136,58.336 C435.136,65.728 432.056,68.72 425.896,68.72 L419.56,68.72 Z M419.56,38.272 L419.56,16.272 L424.928,16.272 C430.736,16.272 433.552,18.032 433.552,24.544 L433.552,29.12 C433.552,35.456 431.176,38.272 424.928,38.272 L419.56,38.272 Z M475.568,74 L482.08,74 L470.992,11.08 L461.048,11.08 L449.872,74 L456.12,74 L458.76,58.16 L472.84,58.16 L475.568,74 Z M465.8,16.272 L471.96,53.056 L459.552,53.056 L465.8,16.272 Z M492.416,74 L498.4,74 L498.4,23.488 L515.384,74 L522.248,74 L522.248,11.08 L516.352,11.08 L516.352,57.808 L500.424,11.08 L492.416,11.08 L492.416,74 Z M544.904,74 L551.68,74 L551.68,46.632 L563.648,11.08 L557.488,11.08 L548.336,38.624 L539.008,11.08 L532.056,11.08 L544.904,46.544 L544.904,74 Z M155.784,154 L173.472,154 C185.264,154 191.512,149.776 191.512,138.16 L191.512,134.112 C191.512,126.104 187.376,122.232 180.688,120.912 C186.408,119.592 190.104,116.16 190.104,109.56 L190.104,105.16 C190.104,95.568 184.56,91.08 173.12,91.08 L155.784,91.08 L155.784,154 Z M169.072,144.408 L169.072,125.576 L171.976,125.576 C176.288,125.576 178.048,126.896 178.048,132.616 L178.048,137.104 C178.048,142.384 176.288,144.408 172.24,144.408 L169.072,144.408 Z M169.072,116.512 L169.072,100.672 L171.888,100.672 C175.408,100.672 177.256,101.64 177.256,106.392 L177.256,110.352 C177.256,115.016 175.76,116.512 171.888,116.512 L169.072,116.512 Z M223.672,91.08 L223.672,136.84 C223.672,142.12 222.264,143.968 218.92,143.968 C215.312,143.968 214.08,142.12 214.08,136.928 L214.08,91.08 L200.528,91.08 L200.528,137.192 C200.528,149.424 207.128,154.968 218.832,154.968 C230.448,154.968 237.312,149.512 237.312,137.28 L237.312,91.08 L223.672,91.08 Z M263.488,154.968 C274.664,154.968 280.912,149.248 280.912,137.808 L280.912,136.576 C280.912,124.256 274.488,120.472 267.008,115.72 C261.552,112.024 259.616,110.44 259.616,105.952 L259.616,105.6 C259.616,102.08 260.848,100.672 263.4,100.672 C265.776,100.672 267.448,101.816 267.448,106.304 L267.448,108.328 L280.208,108.328 L280.208,106.48 C280.12,95.392 274.048,90.2 263.4,90.2 C252.576,90.2 246.416,96.008 246.416,106.48 L246.416,106.832 C246.416,117.216 250.728,121.88 258.912,127.072 C264.544,130.768 267.624,132.528 267.624,138.16 L267.624,138.864 C267.624,142.912 266.304,144.672 263.488,144.672 C260.232,144.672 258.912,143 258.912,137.896 L258.912,135.432 L245.8,135.432 L245.8,137.456 C245.888,150.04 252.752,154.968 263.488,154.968 L263.488,154.968 Z M290.456,154 L304.096,154 L304.096,91.08 L290.456,91.08 L290.456,154 Z M314.784,154 L326.488,154 L326.488,114.928 L338.984,154 L351.832,154 L351.832,91.08 L340.04,91.08 L340.04,124.696 L329.392,91.08 L314.784,91.08 L314.784,154 Z M362.256,154 L391.648,154 L391.648,143.352 L375.808,143.352 L375.808,125.928 L387.6,125.928 L387.6,115.808 L375.808,115.808 L375.808,101.728 L390.768,101.728 L390.768,91.08 L362.256,91.08 L362.256,154 Z M416.944,154.968 C428.12,154.968 434.368,149.248 434.368,137.808 L434.368,136.576 C434.368,124.256 427.944,120.472 420.464,115.72 C415.008,112.024 413.072,110.44 413.072,105.952 L413.072,105.6 C413.072,102.08 414.304,100.672 416.856,100.672 C419.232,100.672 420.904,101.816 420.904,106.304 L420.904,108.328 L433.664,108.328 L433.664,106.48 C433.576,95.392 427.504,90.2 416.856,90.2 C406.032,90.2 399.872,96.008 399.872,106.48 L399.872,106.832 C399.872,117.216 404.184,121.88 412.368,127.072 C418,130.768 421.08,132.528 421.08,138.16 L421.08,138.864 C421.08,142.912 419.76,144.672 416.944,144.672 C413.688,144.672 412.368,143 412.368,137.896 L412.368,135.432 L399.256,135.432 L399.256,137.456 C399.344,150.04 406.208,154.968 416.944,154.968 L416.944,154.968 Z M459.664,154.968 C470.84,154.968 477.088,149.248 477.088,137.808 L477.088,136.576 C477.088,124.256 470.664,120.472 463.184,115.72 C457.728,112.024 455.792,110.44 455.792,105.952 L455.792,105.6 C455.792,102.08 457.024,100.672 459.576,100.672 C461.952,100.672 463.624,101.816 463.624,106.304 L463.624,108.328 L476.384,108.328 L476.384,106.48 C476.296,95.392 470.224,90.2 459.576,90.2 C448.752,90.2 442.592,96.008 442.592,106.48 L442.592,106.832 C442.592,117.216 446.904,121.88 455.088,127.072 C460.72,130.768 463.8,132.528 463.8,138.16 L463.8,138.864 C463.8,142.912 462.48,144.672 459.664,144.672 C456.408,144.672 455.088,143 455.088,137.896 L455.088,135.432 L441.976,135.432 L441.976,137.456 C442.064,150.04 448.928,154.968 459.664,154.968 L459.664,154.968 Z M500.576,154 L514.128,154 L514.128,127.776 L516.592,127.776 L523.544,154 L537.624,154 L529.352,125.664 C533.488,123.64 535.864,120.296 535.864,113.168 L535.864,106.744 C535.864,96.272 530.936,91.08 517.736,91.08 L500.576,91.08 L500.576,154 Z M514.128,119.064 L514.128,101.464 L517.296,101.464 C521.08,101.464 522.664,102.96 522.664,107.184 L522.664,112.992 C522.664,117.48 520.992,119.064 517.296,119.064 L514.128,119.064 Z M545.848,154 L575.24,154 L575.24,143.352 L559.4,143.352 L559.4,125.928 L571.192,125.928 L571.192,115.808 L559.4,115.808 L559.4,101.728 L574.36,101.728 L574.36,91.08 L545.848,91.08 L545.848,154 Z M602.296,137.984 L595.784,91.08 L581.88,91.08 L592.616,154 L610.304,154 L621.04,91.08 L608.632,91.08 L602.296,137.984 Z M629.264,154 L642.904,154 L642.904,91.08 L629.264,91.08 L629.264,154 Z M653.592,154 L682.984,154 L682.984,143.352 L667.144,143.352 L667.144,125.928 L678.936,125.928 L678.936,115.808 L667.144,115.808 L667.144,101.728 L682.104,101.728 L682.104,91.08 L653.592,91.08 L653.592,154 Z M698.424,154 L712.24,154 L718.048,118.008 L723.768,154 L736.88,154 L745.504,91.08 L733.096,91.08 L728.96,130.24 L722.888,91.08 L713.384,91.08 L707.488,129.976 L703.44,91.08 L689.888,91.08 L698.424,154 Z" id="ALBANY" sketch:type="MSShapeGroup"></path>
        </g>
    </g>
</svg>