<?xml version="1.0" encoding="UTF-8" standalone="no"?>
<svg width="527px" height="145px" viewBox="0 0 527 145" version="1.1" xmlns="http://www.w3.org/2000/svg" xmlns:xlink="http://www.w3.org/1999/xlink" xmlns:sketch="http://www.bohemiancoding.com/sketch/ns">
    <!-- Generator: Sketch 3.2.2 (9983) - http://www.bohemiancoding.com/sketch -->
    <title>albuquerque-logo</title>
    <desc>Created with Sketch.</desc>
    <defs></defs>
    <g id="Logos-(For-Export)" stroke="none" stroke-width="1" fill="none" fill-rule="evenodd" sketch:type="MSPage">
        <g id="albuquerque-logo" sketch:type="MSArtboardGroup" transform="translate(-187.000000, -10.000000)" fill="#FFFFFF">
            <path d="M255.92,74 L262.432,74 L251.344,11.08 L241.4,11.08 L230.224,74 L236.472,74 L239.112,58.16 L253.192,58.16 L255.92,74 Z M246.152,16.272 L252.312,53.056 L239.904,53.056 L246.152,16.272 Z M272.768,74 L296.528,74 L296.528,68.72 L279.368,68.72 L279.368,11.08 L272.768,11.08 L272.768,74 Z M307.392,74 L320.416,74 C331.24,74 335.992,69.072 335.992,58.248 L335.992,53.672 C335.992,45.488 332.384,41.792 325.784,40.56 C331.592,39.064 334.232,35.544 334.232,29.296 L334.232,24.632 C334.232,14.776 328.776,11.08 319.448,11.08 L307.392,11.08 L307.392,74 Z M313.904,68.72 L313.904,43.464 L319.624,43.464 C326.752,43.464 329.48,45.576 329.48,53.584 L329.48,58.336 C329.48,65.728 326.4,68.72 320.24,68.72 L313.904,68.72 Z M313.904,38.272 L313.904,16.272 L319.272,16.272 C325.08,16.272 327.896,18.032 327.896,24.544 L327.896,29.12 C327.896,35.456 325.52,38.272 319.272,38.272 L313.904,38.272 Z M371.056,11.08 L371.056,58.16 C371.056,66.08 367.976,69.248 362.432,69.248 C356.712,69.248 353.808,66.08 353.808,58.688 L353.808,11.08 L347.208,11.08 L347.208,58.864 C347.208,69.688 353.192,74.792 362.432,74.792 C372.2,74.792 377.656,69.424 377.656,58.6 L377.656,11.08 L371.056,11.08 Z M417.384,80.424 L422.048,77.08 L417.648,70.832 C420.992,67.752 422.928,62.912 422.928,56.488 L422.928,28.328 C422.928,16.8 416.504,10.288 406.472,10.288 C396.44,10.288 390.016,16.8 390.016,28.416 L390.016,56.664 C390.016,68.192 396.44,74.792 406.472,74.792 C408.76,74.792 410.872,74.44 412.72,73.824 L417.384,80.424 Z M406.472,69.248 C399.784,69.248 396.704,64.76 396.704,56.576 L396.704,28.416 C396.704,20.232 399.872,15.744 406.472,15.744 C412.984,15.744 416.152,20.672 416.152,28.416 L416.152,56.488 C416.152,60.36 415.448,63.528 413.952,65.728 L410.344,60.536 L405.592,63.792 L409.2,68.984 C408.408,69.16 407.44,69.248 406.472,69.248 L406.472,69.248 Z M459.048,11.08 L459.048,58.16 C459.048,66.08 455.968,69.248 450.424,69.248 C444.704,69.248 441.8,66.08 441.8,58.688 L441.8,11.08 L435.2,11.08 L435.2,58.864 C435.2,69.688 441.184,74.792 450.424,74.792 C460.192,74.792 465.648,69.424 465.648,58.6 L465.648,11.08 L459.048,11.08 Z M478.536,74 L503.792,74 L503.792,68.72 L485.136,68.72 L485.136,42.936 L499.392,42.936 L499.392,37.656 L485.136,37.656 L485.136,16.36 L502.648,16.36 L502.648,11.08 L478.536,11.08 L478.536,74 Z M515.008,74 L521.608,74 L521.608,44.52 L527.152,44.52 L537.272,74 L544.488,74 L533.752,43.816 C539.648,42.232 543.08,38.536 543.08,30.264 L543.08,25.072 C543.08,15.392 537.624,11.08 527.856,11.08 L515.008,11.08 L515.008,74 Z M521.608,39.504 L521.608,16.272 L527.944,16.272 C533.664,16.272 536.392,18.56 536.392,25.072 L536.392,30.264 C536.392,36.776 534.016,39.504 528.032,39.504 L521.608,39.504 Z M581.488,80.424 L586.152,77.08 L581.752,70.832 C585.096,67.752 587.032,62.912 587.032,56.488 L587.032,28.328 C587.032,16.8 580.608,10.288 570.576,10.288 C560.544,10.288 554.12,16.8 554.12,28.416 L554.12,56.664 C554.12,68.192 560.544,74.792 570.576,74.792 C572.864,74.792 574.976,74.44 576.824,73.824 L581.488,80.424 Z M570.576,69.248 C563.888,69.248 560.808,64.76 560.808,56.576 L560.808,28.416 C560.808,20.232 563.976,15.744 570.576,15.744 C577.088,15.744 580.256,20.672 580.256,28.416 L580.256,56.488 C580.256,60.36 579.552,63.528 578.056,65.728 L574.448,60.536 L569.696,63.792 L573.304,68.984 C572.512,69.16 571.544,69.248 570.576,69.248 L570.576,69.248 Z M623.152,11.08 L623.152,58.16 C623.152,66.08 620.072,69.248 614.528,69.248 C608.808,69.248 605.904,66.08 605.904,58.688 L605.904,11.08 L599.304,11.08 L599.304,58.864 C599.304,69.688 605.288,74.792 614.528,74.792 C624.296,74.792 629.752,69.424 629.752,58.6 L629.752,11.08 L623.152,11.08 Z M642.64,74 L667.896,74 L667.896,68.72 L649.24,68.72 L649.24,42.936 L663.496,42.936 L663.496,37.656 L649.24,37.656 L649.24,16.36 L666.752,16.36 L666.752,11.08 L642.64,11.08 L642.64,74 Z M187.704,154 L205.392,154 C217.184,154 223.432,149.776 223.432,138.16 L223.432,134.112 C223.432,126.104 219.296,122.232 212.608,120.912 C218.328,119.592 222.024,116.16 222.024,109.56 L222.024,105.16 C222.024,95.568 216.48,91.08 205.04,91.08 L187.704,91.08 L187.704,154 Z M200.992,144.408 L200.992,125.576 L203.896,125.576 C208.208,125.576 209.968,126.896 209.968,132.616 L209.968,137.104 C209.968,142.384 208.208,144.408 204.16,144.408 L200.992,144.408 Z M200.992,116.512 L200.992,100.672 L203.808,100.672 C207.328,100.672 209.176,101.64 209.176,106.392 L209.176,110.352 C209.176,115.016 207.68,116.512 203.808,116.512 L200.992,116.512 Z M255.592,91.08 L255.592,136.84 C255.592,142.12 254.184,143.968 250.84,143.968 C247.232,143.968 246,142.12 246,136.928 L246,91.08 L232.448,91.08 L232.448,137.192 C232.448,149.424 239.048,154.968 250.752,154.968 C262.368,154.968 269.232,149.512 269.232,137.28 L269.232,91.08 L255.592,91.08 Z M295.408,154.968 C306.584,154.968 312.832,149.248 312.832,137.808 L312.832,136.576 C312.832,124.256 306.408,120.472 298.928,115.72 C293.472,112.024 291.536,110.44 291.536,105.952 L291.536,105.6 C291.536,102.08 292.768,100.672 295.32,100.672 C297.696,100.672 299.368,101.816 299.368,106.304 L299.368,108.328 L312.128,108.328 L312.128,106.48 C312.04,95.392 305.968,90.2 295.32,90.2 C284.496,90.2 278.336,96.008 278.336,106.48 L278.336,106.832 C278.336,117.216 282.648,121.88 290.832,127.072 C296.464,130.768 299.544,132.528 299.544,138.16 L299.544,138.864 C299.544,142.912 298.224,144.672 295.408,144.672 C292.152,144.672 290.832,143 290.832,137.896 L290.832,135.432 L277.72,135.432 L277.72,137.456 C277.808,150.04 284.672,154.968 295.408,154.968 L295.408,154.968 Z M322.376,154 L336.016,154 L336.016,91.08 L322.376,91.08 L322.376,154 Z M346.704,154 L358.408,154 L358.408,114.928 L370.904,154 L383.752,154 L383.752,91.08 L371.96,91.08 L371.96,124.696 L361.312,91.08 L346.704,91.08 L346.704,154 Z M394.176,154 L423.568,154 L423.568,143.352 L407.728,143.352 L407.728,125.928 L419.52,125.928 L419.52,115.808 L407.728,115.808 L407.728,101.728 L422.688,101.728 L422.688,91.08 L394.176,91.08 L394.176,154 Z M448.864,154.968 C460.04,154.968 466.288,149.248 466.288,137.808 L466.288,136.576 C466.288,124.256 459.864,120.472 452.384,115.72 C446.928,112.024 444.992,110.44 444.992,105.952 L444.992,105.6 C444.992,102.08 446.224,100.672 448.776,100.672 C451.152,100.672 452.824,101.816 452.824,106.304 L452.824,108.328 L465.584,108.328 L465.584,106.48 C465.496,95.392 459.424,90.2 448.776,90.2 C437.952,90.2 431.792,96.008 431.792,106.48 L431.792,106.832 C431.792,117.216 436.104,121.88 444.288,127.072 C449.92,130.768 453,132.528 453,138.16 L453,138.864 C453,142.912 451.68,144.672 448.864,144.672 C445.608,144.672 444.288,143 444.288,137.896 L444.288,135.432 L431.176,135.432 L431.176,137.456 C431.264,150.04 438.128,154.968 448.864,154.968 L448.864,154.968 Z M491.584,154.968 C502.76,154.968 509.008,149.248 509.008,137.808 L509.008,136.576 C509.008,124.256 502.584,120.472 495.104,115.72 C489.648,112.024 487.712,110.44 487.712,105.952 L487.712,105.6 C487.712,102.08 488.944,100.672 491.496,100.672 C493.872,100.672 495.544,101.816 495.544,106.304 L495.544,108.328 L508.304,108.328 L508.304,106.48 C508.216,95.392 502.144,90.2 491.496,90.2 C480.672,90.2 474.512,96.008 474.512,106.48 L474.512,106.832 C474.512,117.216 478.824,121.88 487.008,127.072 C492.64,130.768 495.72,132.528 495.72,138.16 L495.72,138.864 C495.72,142.912 494.4,144.672 491.584,144.672 C488.328,144.672 487.008,143 487.008,137.896 L487.008,135.432 L473.896,135.432 L473.896,137.456 C473.984,150.04 480.848,154.968 491.584,154.968 L491.584,154.968 Z M532.496,154 L545.96,154 L546.048,128.92 L558.368,128.92 L558.368,118.712 L546.048,118.712 L546.048,101.728 L561.096,101.728 L561.096,91.08 L532.496,91.08 L532.496,154 Z M570.464,154 L584.104,154 L584.104,91.08 L570.464,91.08 L570.464,154 Z M594.792,154 L608.344,154 L608.344,127.776 L610.808,127.776 L617.76,154 L631.84,154 L623.568,125.664 C627.704,123.64 630.08,120.296 630.08,113.168 L630.08,106.744 C630.08,96.272 625.152,91.08 611.952,91.08 L594.792,91.08 L594.792,154 Z M608.344,119.064 L608.344,101.464 L611.512,101.464 C615.296,101.464 616.88,102.96 616.88,107.184 L616.88,112.992 C616.88,117.48 615.208,119.064 611.512,119.064 L608.344,119.064 Z M655.728,154.968 C666.904,154.968 673.152,149.248 673.152,137.808 L673.152,136.576 C673.152,124.256 666.728,120.472 659.248,115.72 C653.792,112.024 651.856,110.44 651.856,105.952 L651.856,105.6 C651.856,102.08 653.088,100.672 655.64,100.672 C658.016,100.672 659.688,101.816 659.688,106.304 L659.688,108.328 L672.448,108.328 L672.448,106.48 C672.36,95.392 666.288,90.2 655.64,90.2 C644.816,90.2 638.656,96.008 638.656,106.48 L638.656,106.832 C638.656,117.216 642.968,121.88 651.152,127.072 C656.784,130.768 659.864,132.528 659.864,138.16 L659.864,138.864 C659.864,142.912 658.544,144.672 655.728,144.672 C652.472,144.672 651.152,143 651.152,137.896 L651.152,135.432 L638.04,135.432 L638.04,137.456 C638.128,150.04 644.992,154.968 655.728,154.968 L655.728,154.968 Z M689.648,154 L703.112,154 L703.2,101.728 L713.232,101.728 L713.232,91.08 L679.528,91.08 L679.528,101.728 L689.648,101.728 L689.648,154 Z" id="ALBUQUERQUE" sketch:type="MSShapeGroup"></path>
        </g>
    </g>
</svg>