<?xml version="1.0" encoding="UTF-8" standalone="no"?>
<svg width="108px" height="108px" viewBox="0 0 108 108" version="1.1" xmlns="http://www.w3.org/2000/svg" xmlns:xlink="http://www.w3.org/1999/xlink" xmlns:sketch="http://www.bohemiancoding.com/sketch/ns">
    <!-- Generator: Sketch 3.2.2 (9983) - http://www.bohemiancoding.com/sketch -->
    <title>austin-monogram</title>
    <desc>Created with Sketch.</desc>
    <defs></defs>
    <g id="Monograms-(For-Export)" stroke="none" stroke-width="1" fill="none" fill-rule="evenodd" sketch:type="MSPage">
        <g id="austin-monogram" sketch:type="MSArtboardGroup" fill="#FFFFFF">
            <path d="M36.082,76 L43.894,76 L36.578,31.67 L25.294,31.67 L17.978,76 L25.108,76 L26.534,66.204 L34.594,66.204 L36.082,76 Z M30.564,38.428 L33.788,60.624 L27.34,60.624 L30.564,38.428 Z M47.304,76 L58.588,76 C66.71,76 70.74,72.838 70.74,64.778 L70.74,61.926 C70.74,56.222 67.95,53.494 63.238,52.626 C67.268,51.572 69.624,49.154 69.624,44.628 L69.624,41.528 C69.624,34.646 65.718,31.67 58.154,31.67 L47.304,31.67 L47.304,76 Z M54.992,70.296 L54.992,55.416 L57.72,55.416 C61.502,55.416 62.99,56.594 62.99,61.244 L62.99,64.344 C62.99,68.622 61.378,70.296 57.968,70.296 L54.992,70.296 Z M54.992,50.022 L54.992,37.374 L57.596,37.374 C60.696,37.374 62.184,38.18 62.184,41.962 L62.184,44.938 C62.184,48.596 60.944,50.022 57.596,50.022 L54.992,50.022 Z M78.056,76.372 C84.442,76.372 88.41,72.9 88.41,65.522 L88.41,31.67 L80.66,31.67 L80.66,65.15 C80.66,68.622 79.11,69.862 76.568,69.862 C75.142,69.862 74.274,69.614 73.468,69.428 L73.468,75.504 C74.46,75.938 75.824,76.372 78.056,76.372 L78.056,76.372 Z" id="ABJ" sketch:type="MSShapeGroup"></path>
        </g>
    </g>
</svg>