<?xml version="1.0" encoding="utf-8"?>
<!-- Generator: Adobe Illustrator 19.1.0, SVG Export Plug-In . SVG Version: 6.00 Build 0)  -->
<svg version="1.1" id="Layer_1" xmlns="http://www.w3.org/2000/svg" xmlns:xlink="http://www.w3.org/1999/xlink" x="0px" y="0px"
	 viewBox="0 0 236.2 76.6" style="enable-background:new 0 0 236.2 76.6;" xml:space="preserve">
<style type="text/css">
	.st0{fill:#FFFFFF;}
</style>
<g>
	<path class="st0" d="M6,6.1H0.7V0.5h17.6v5.6h-5.2v27.3h-7L6,6.1L6,6.1z"/>
	<path class="st0" d="M22.1,0.6h7.1v13.2h5V0.6h7.1v32.9h-7.1v-14h-5v14h-7.1C22.1,33.5,22.1,0.6,22.1,0.6z"/>
	<path class="st0" d="M46,0.6h14.9v5.6h-7.8v7.4h6.2v5.3h-6.2v9h8.3v5.6H46V0.6z"/>
	<path class="st0" d="M72.2,0.6h9.1c6,0,8.9,2.3,8.9,7.4v2.3c0,3.5-1.9,5.2-4.9,5.9c3.5,0.7,5.7,2.7,5.7,6.9v2.1
		c0,6.1-3.3,8.3-9.4,8.3h-9.2V0.6H72.2z M80.6,13.9c2,0,2.8-0.8,2.8-3.2V8.6c0-2.5-1-3-2.8-3h-1.5v8.3H80.6z M80.8,28.5
		c2.1,0,3-1.1,3-3.8v-2.3c0-3-0.9-3.7-3.2-3.7h-1.5v9.8H80.8z"/>
	<path class="st0" d="M114.1,0.6v24.2c0,6.4-3.6,9.2-9.7,9.2s-9.6-2.9-9.6-9.3V0.6h7.1v24c0,2.7,0.6,3.7,2.5,3.7
		c1.7,0,2.5-1,2.5-3.7v-24H114.1z"/>
	<path class="st0" d="M117.8,24.8v-1.1h6.9V25c0,2.7,0.7,3.5,2.4,3.5c1.5,0,2.2-0.9,2.2-3v-0.4c0-2.9-1.6-3.9-4.6-5.8
		c-4.3-2.7-6.5-5.2-6.5-10.6V8.5c0-5.5,3.2-8.5,8.9-8.5c5.6,0,8.7,2.7,8.8,8.5v1h-6.7V8.4c0-2.3-0.9-2.9-2.1-2.9c-1.3,0-2,0.7-2,2.6
		v0.2c0,2.3,1,3.2,3.9,5.1c3.9,2.5,7.3,4.5,7.3,10.9v0.6c0,6-3.3,9-9.1,9C121.4,34,117.9,31.4,117.8,24.8z"/>
	<path class="st0" d="M140.4,0.6h7.1v32.9h-7.1V0.6z"/>
	<path class="st0" d="M152.4,0.6h7.6l5.6,17.6V0.6h6.2v32.9h-6.7l-6.5-20.4v20.4h-6.1V0.6H152.4z"/>
	<path class="st0" d="M176.6,0.6h14.9v5.6h-7.8v7.4h6.2v5.3h-6.2v9h8.3v5.6h-15.4V0.6z"/>
	<path class="st0" d="M195.2,24.8v-1.1h6.9V25c0,2.7,0.7,3.5,2.4,3.5c1.5,0,2.2-0.9,2.2-3v-0.4c0-2.9-1.6-3.9-4.6-5.8
		c-4.3-2.7-6.5-5.2-6.5-10.6V8.5c0-5.5,3.2-8.5,8.9-8.5c5.6,0,8.7,2.7,8.8,8.5v1h-6.7V8.4c0-2.3-0.9-2.9-2.1-2.9c-1.3,0-2,0.7-2,2.6
		v0.2c0,2.3,1,3.2,3.9,5.1c3.9,2.5,7.3,4.5,7.3,10.9v0.6c0,6-3.3,9-9.1,9C198.8,34,195.2,31.4,195.2,24.8z"/>
	<path class="st0" d="M216.8,24.8v-1.1h6.9V25c0,2.7,0.7,3.5,2.4,3.5c1.5,0,2.2-0.9,2.2-3v-0.4c0-2.9-1.6-3.9-4.6-5.8
		c-4.3-2.7-6.5-5.2-6.5-10.6V8.5c0-5.5,3.2-8.5,8.9-8.5c5.6,0,8.7,2.7,8.8,8.5v1h-6.7V8.4c0-2.3-0.9-2.9-2.1-2.9c-1.3,0-2,0.7-2,2.6
		v0.2c0,2.3,1,3.2,3.9,5.1c3.9,2.5,7.3,4.5,7.3,10.9v0.6c0,6-3.3,9-9.1,9C220.4,34,216.8,31.4,216.8,24.8z"/>
</g>
<g>
	<path class="st0" d="M32.8,74.6v-5.5c0.6,0.1,1.2,0.3,2.2,0.3c1.8,0,2.8-0.8,2.8-3.1V42.1h7.1v24.5c0,5.7-2.9,8.7-8.3,8.7
		C34.7,75.3,33.6,75,32.8,74.6z"/>
	<path class="st0" d="M49.1,65.7V51.5c0-6.8,4.2-9.9,10-9.9c6,0,10.1,2.9,10.1,9.8v14c0,6.9-4,10-10.1,10
		C53,75.5,49.1,72.4,49.1,65.7z M62,65.6V51.5c0-2.9-0.9-4.1-2.9-4.1c-1.9,0-2.8,1.2-2.8,4.1v14.1c0,3,0.9,4.2,2.8,4.2
		C61.1,69.8,62,68.6,62,65.6z"/>
	<path class="st0" d="M92.9,42.1v24.2c0,6.4-3.6,9.2-9.7,9.2s-9.6-2.9-9.6-9.3V42.1h7.1v24c0,2.7,0.6,3.7,2.5,3.7
		c1.7,0,2.5-1,2.5-3.7v-24H92.9z"/>
	<path class="st0" d="M97.5,42.1h9c6.9,0,9.5,2.7,9.5,8.2v3.4c0,3.7-1.2,5.5-3.4,6.5l4.3,14.8h-7.4l-3.6-13.7h-1.3V75h-7.1
		C97.5,75,97.5,42.1,97.5,42.1z M106.3,56.7c1.9,0,2.8-0.8,2.8-3.2v-3c0-2.2-0.8-3-2.8-3h-1.7v9.2H106.3z"/>
	<path class="st0" d="M120.5,42.1h7.6l5.6,17.6V42.1h6.2V75h-6.7l-6.5-20.4V75h-6.1V42.1H120.5z"/>
	<path class="st0" d="M155.8,68.3h-5.2l-0.9,6.7h-6.5l5.2-32.9h10.2l5.2,32.9h-7.2L155.8,68.3z M151.3,63.4h3.9l-1.9-15L151.3,63.4z
		"/>
	<path class="st0" d="M167.3,42.1h7.1v27.2h7.4V75h-14.5V42.1z"/>
	<path class="st0" d="M184.7,66.4v-1.1h6.9v1.3c0,2.7,0.7,3.5,2.4,3.5c1.5,0,2.2-0.9,2.2-3v-0.4c0-2.9-1.6-3.9-4.6-5.8
		c-4.3-2.7-6.5-5.2-6.5-10.6v-0.2c0-5.5,3.2-8.5,8.9-8.5c5.6,0,8.7,2.7,8.8,8.5v1h-6.7V50c0-2.3-0.9-2.9-2.1-2.9c-1.3,0-2,0.7-2,2.6
		v0.2c0,2.3,1,3.2,3.9,5.1c3.9,2.5,7.3,4.5,7.3,10.9v0.6c0,6-3.3,9-9.1,9C188.4,75.5,184.8,72.9,184.7,66.4z"/>
</g>
</svg>
