<?xml version="1.0" encoding="UTF-8" standalone="no"?>
<svg width="631px" height="145px" viewBox="0 0 631 145" version="1.1" xmlns="http://www.w3.org/2000/svg" xmlns:xlink="http://www.w3.org/1999/xlink" xmlns:sketch="http://www.bohemiancoding.com/sketch/ns">
    <!-- Generator: Sketch 3.2.2 (9983) - http://www.bohemiancoding.com/sketch -->
    <title>cincinnati-logo</title>
    <desc>Created with Sketch.</desc>
    <defs></defs>
    <g id="Logos-(For-Export)" stroke="none" stroke-width="1" fill="none" fill-rule="evenodd" sketch:type="MSPage">
        <g id="cincinnati-logo" sketch:type="MSArtboardGroup" transform="translate(-135.000000, -10.000000)" fill="#FFFFFF">
            <path d="M298.664,74.792 C307.464,74.792 313.888,70.128 313.888,58.688 L313.888,56.928 L307.816,56.928 L307.816,58.6 C307.816,66.08 304.032,69.248 298.664,69.248 C291.976,69.248 289.16,64.672 289.16,56.4 L289.16,28.68 C289.16,20.144 292.416,15.744 298.576,15.744 C304.032,15.744 307.112,18.648 307.112,25.688 L307.112,26.568 L313.536,26.568 L313.536,25.6 C313.536,14.6 307.024,10.288 298.488,10.288 C288.984,10.288 282.384,16.8 282.384,28.68 L282.384,56.488 C282.384,68.192 288.456,74.792 298.664,74.792 L298.664,74.792 Z M325.456,74 L332.056,74 L332.056,11.08 L325.456,11.08 L325.456,74 Z M345.472,74 L351.456,74 L351.456,23.488 L368.44,74 L375.304,74 L375.304,11.08 L369.408,11.08 L369.408,57.808 L353.48,11.08 L345.472,11.08 L345.472,74 Z M403.856,74.792 C412.656,74.792 419.08,70.128 419.08,58.688 L419.08,56.928 L413.008,56.928 L413.008,58.6 C413.008,66.08 409.224,69.248 403.856,69.248 C397.168,69.248 394.352,64.672 394.352,56.4 L394.352,28.68 C394.352,20.144 397.608,15.744 403.768,15.744 C409.224,15.744 412.304,18.648 412.304,25.688 L412.304,26.568 L418.728,26.568 L418.728,25.6 C418.728,14.6 412.216,10.288 403.68,10.288 C394.176,10.288 387.576,16.8 387.576,28.68 L387.576,56.488 C387.576,68.192 393.648,74.792 403.856,74.792 L403.856,74.792 Z M430.648,74 L437.248,74 L437.248,11.08 L430.648,11.08 L430.648,74 Z M450.664,74 L456.648,74 L456.648,23.488 L473.632,74 L480.496,74 L480.496,11.08 L474.6,11.08 L474.6,57.808 L458.672,11.08 L450.664,11.08 L450.664,74 Z M493.472,74 L499.456,74 L499.456,23.488 L516.44,74 L523.304,74 L523.304,11.08 L517.408,11.08 L517.408,57.808 L501.48,11.08 L493.472,11.08 L493.472,74 Z M559.336,74 L565.848,74 L554.76,11.08 L544.816,11.08 L533.64,74 L539.888,74 L542.528,58.16 L556.608,58.16 L559.336,74 Z M549.568,16.272 L555.728,53.056 L543.32,53.056 L549.568,16.272 Z M580.672,74 L587.184,74 L587.272,16.36 L598.184,16.36 L598.184,11.08 L569.848,11.08 L569.848,16.36 L580.672,16.36 L580.672,74 Z M608.872,74 L615.472,74 L615.472,11.08 L608.872,11.08 L608.872,74 Z M135.392,154 L153.08,154 C164.872,154 171.12,149.776 171.12,138.16 L171.12,134.112 C171.12,126.104 166.984,122.232 160.296,120.912 C166.016,119.592 169.712,116.16 169.712,109.56 L169.712,105.16 C169.712,95.568 164.168,91.08 152.728,91.08 L135.392,91.08 L135.392,154 Z M148.68,144.408 L148.68,125.576 L151.584,125.576 C155.896,125.576 157.656,126.896 157.656,132.616 L157.656,137.104 C157.656,142.384 155.896,144.408 151.848,144.408 L148.68,144.408 Z M148.68,116.512 L148.68,100.672 L151.496,100.672 C155.016,100.672 156.864,101.64 156.864,106.392 L156.864,110.352 C156.864,115.016 155.368,116.512 151.496,116.512 L148.68,116.512 Z M203.28,91.08 L203.28,136.84 C203.28,142.12 201.872,143.968 198.528,143.968 C194.92,143.968 193.688,142.12 193.688,136.928 L193.688,91.08 L180.136,91.08 L180.136,137.192 C180.136,149.424 186.736,154.968 198.44,154.968 C210.056,154.968 216.92,149.512 216.92,137.28 L216.92,91.08 L203.28,91.08 Z M243.096,154.968 C254.272,154.968 260.52,149.248 260.52,137.808 L260.52,136.576 C260.52,124.256 254.096,120.472 246.616,115.72 C241.16,112.024 239.224,110.44 239.224,105.952 L239.224,105.6 C239.224,102.08 240.456,100.672 243.008,100.672 C245.384,100.672 247.056,101.816 247.056,106.304 L247.056,108.328 L259.816,108.328 L259.816,106.48 C259.728,95.392 253.656,90.2 243.008,90.2 C232.184,90.2 226.024,96.008 226.024,106.48 L226.024,106.832 C226.024,117.216 230.336,121.88 238.52,127.072 C244.152,130.768 247.232,132.528 247.232,138.16 L247.232,138.864 C247.232,142.912 245.912,144.672 243.096,144.672 C239.84,144.672 238.52,143 238.52,137.896 L238.52,135.432 L225.408,135.432 L225.408,137.456 C225.496,150.04 232.36,154.968 243.096,154.968 L243.096,154.968 Z M270.064,154 L283.704,154 L283.704,91.08 L270.064,91.08 L270.064,154 Z M294.392,154 L306.096,154 L306.096,114.928 L318.592,154 L331.44,154 L331.44,91.08 L319.648,91.08 L319.648,124.696 L309,91.08 L294.392,91.08 L294.392,154 Z M341.864,154 L371.256,154 L371.256,143.352 L355.416,143.352 L355.416,125.928 L367.208,125.928 L367.208,115.808 L355.416,115.808 L355.416,101.728 L370.376,101.728 L370.376,91.08 L341.864,91.08 L341.864,154 Z M396.552,154.968 C407.728,154.968 413.976,149.248 413.976,137.808 L413.976,136.576 C413.976,124.256 407.552,120.472 400.072,115.72 C394.616,112.024 392.68,110.44 392.68,105.952 L392.68,105.6 C392.68,102.08 393.912,100.672 396.464,100.672 C398.84,100.672 400.512,101.816 400.512,106.304 L400.512,108.328 L413.272,108.328 L413.272,106.48 C413.184,95.392 407.112,90.2 396.464,90.2 C385.64,90.2 379.48,96.008 379.48,106.48 L379.48,106.832 C379.48,117.216 383.792,121.88 391.976,127.072 C397.608,130.768 400.688,132.528 400.688,138.16 L400.688,138.864 C400.688,142.912 399.368,144.672 396.552,144.672 C393.296,144.672 391.976,143 391.976,137.896 L391.976,135.432 L378.864,135.432 L378.864,137.456 C378.952,150.04 385.816,154.968 396.552,154.968 L396.552,154.968 Z M439.272,154.968 C450.448,154.968 456.696,149.248 456.696,137.808 L456.696,136.576 C456.696,124.256 450.272,120.472 442.792,115.72 C437.336,112.024 435.4,110.44 435.4,105.952 L435.4,105.6 C435.4,102.08 436.632,100.672 439.184,100.672 C441.56,100.672 443.232,101.816 443.232,106.304 L443.232,108.328 L455.992,108.328 L455.992,106.48 C455.904,95.392 449.832,90.2 439.184,90.2 C428.36,90.2 422.2,96.008 422.2,106.48 L422.2,106.832 C422.2,117.216 426.512,121.88 434.696,127.072 C440.328,130.768 443.408,132.528 443.408,138.16 L443.408,138.864 C443.408,142.912 442.088,144.672 439.272,144.672 C436.016,144.672 434.696,143 434.696,137.896 L434.696,135.432 L421.584,135.432 L421.584,137.456 C421.672,150.04 428.536,154.968 439.272,154.968 L439.272,154.968 Z M498.664,154.968 C509.664,154.968 516.616,149.864 516.704,136.928 L516.704,134.904 L503.592,134.904 L503.592,136.928 C503.592,142.384 501.744,144.056 498.576,144.056 C494.792,144.056 493.384,141.768 493.384,135.96 L493.384,108.944 C493.384,103.224 494.968,101.112 498.312,101.112 C501.568,101.112 502.888,102.608 503.064,107.976 L503.064,109.472 L516.528,109.472 L516.528,108.24 C516.352,94.864 509.224,90.2 498.488,90.2 C487.4,90.2 479.568,96.448 479.568,109.384 L479.568,135.784 C479.568,148.808 486.696,154.968 498.664,154.968 L498.664,154.968 Z M544.288,154.968 C555.992,154.968 563.56,148.896 563.56,135.784 L563.56,109.032 C563.56,95.832 555.728,90.2 544.288,90.2 C533.2,90.2 525.104,96.184 525.104,109.12 L525.104,136.136 C525.104,149.072 532.584,154.968 544.288,154.968 L544.288,154.968 Z M544.288,144.056 C540.592,144.056 538.92,141.768 538.92,136.048 L538.92,109.032 C538.92,103.4 540.68,101.112 544.288,101.112 C547.984,101.112 549.744,103.576 549.744,109.032 L549.744,135.96 C549.744,141.68 547.984,144.056 544.288,144.056 L544.288,144.056 Z M596.512,91.08 L596.512,136.84 C596.512,142.12 595.104,143.968 591.76,143.968 C588.152,143.968 586.92,142.12 586.92,136.928 L586.92,91.08 L573.368,91.08 L573.368,137.192 C573.368,149.424 579.968,154.968 591.672,154.968 C603.288,154.968 610.152,149.512 610.152,137.28 L610.152,91.08 L596.512,91.08 Z M620.4,154 L633.952,154 L633.952,127.776 L636.416,127.776 L643.368,154 L657.448,154 L649.176,125.664 C653.312,123.64 655.688,120.296 655.688,113.168 L655.688,106.744 C655.688,96.272 650.76,91.08 637.56,91.08 L620.4,91.08 L620.4,154 Z M633.952,119.064 L633.952,101.464 L637.12,101.464 C640.904,101.464 642.488,102.96 642.488,107.184 L642.488,112.992 C642.488,117.48 640.816,119.064 637.12,119.064 L633.952,119.064 Z M665.936,154 L679.576,154 L679.576,91.08 L665.936,91.08 L665.936,154 Z M690.264,154 L719.656,154 L719.656,143.352 L703.816,143.352 L703.816,125.928 L715.608,125.928 L715.608,115.808 L703.816,115.808 L703.816,101.728 L718.776,101.728 L718.776,91.08 L690.264,91.08 L690.264,154 Z M728.848,154 L742.4,154 L742.4,127.776 L744.864,127.776 L751.816,154 L765.896,154 L757.624,125.664 C761.76,123.64 764.136,120.296 764.136,113.168 L764.136,106.744 C764.136,96.272 759.208,91.08 746.008,91.08 L728.848,91.08 L728.848,154 Z M742.4,119.064 L742.4,101.464 L745.568,101.464 C749.352,101.464 750.936,102.96 750.936,107.184 L750.936,112.992 C750.936,117.48 749.264,119.064 745.568,119.064 L742.4,119.064 Z" id="CINCINNATI" sketch:type="MSShapeGroup"></path>
        </g>
    </g>
</svg>