<?xml version="1.0" encoding="UTF-8" standalone="no"?>
<svg width="108px" height="108px" viewBox="0 0 108 108" version="1.1" xmlns="http://www.w3.org/2000/svg" xmlns:xlink="http://www.w3.org/1999/xlink" xmlns:sketch="http://www.bohemiancoding.com/sketch/ns">
    <!-- Generator: Sketch 3.2.2 (9983) - http://www.bohemiancoding.com/sketch -->
    <title>columbus-monogram</title>
    <desc>Created with Sketch.</desc>
    <defs></defs>
    <g id="Monograms-(For-Export)" stroke="none" stroke-width="1" fill="none" fill-rule="evenodd" sketch:type="MSPage">
        <g id="columbus-monogram" sketch:type="MSArtboardGroup" fill="#FFFFFF">
            <path d="M29.262,76.62 C36.454,76.62 41.228,73.148 41.228,64.406 L41.228,63.042 L33.788,63.042 L33.788,64.344 C33.788,68.746 31.99,70.358 29.262,70.358 C25.79,70.358 24.426,68.126 24.426,63.352 L24.426,44.194 C24.426,39.482 25.976,37.374 29.076,37.374 C31.928,37.374 33.292,38.8 33.354,43.016 L33.354,43.884 L41.104,43.884 L41.104,43.078 C40.98,34.274 36.144,31.05 29.138,31.05 C21.698,31.05 16.49,35.514 16.49,44.38 L16.49,63.29 C16.49,72.156 21.264,76.62 29.262,76.62 L29.262,76.62 Z M45.32,76 L56.604,76 C64.726,76 68.756,72.838 68.756,64.778 L68.756,61.926 C68.756,56.222 65.966,53.494 61.254,52.626 C65.284,51.572 67.64,49.154 67.64,44.628 L67.64,41.528 C67.64,34.646 63.734,31.67 56.17,31.67 L45.32,31.67 L45.32,76 Z M53.008,70.296 L53.008,55.416 L55.736,55.416 C59.518,55.416 61.006,56.594 61.006,61.244 L61.006,64.344 C61.006,68.622 59.394,70.296 55.984,70.296 L53.008,70.296 Z M53.008,50.022 L53.008,37.374 L55.612,37.374 C58.712,37.374 60.2,38.18 60.2,41.962 L60.2,44.938 C60.2,48.596 58.96,50.022 55.612,50.022 L53.008,50.022 Z M73.096,76 L80.846,76 L80.908,57.276 L90.084,57.276 L90.084,51.324 L80.908,51.324 L80.908,37.808 L92.192,37.808 L92.192,31.67 L73.096,31.67 L73.096,76 Z" id="CBF" sketch:type="MSShapeGroup"></path>
        </g>
    </g>
</svg>