<?xml version="1.0" encoding="UTF-8" standalone="no"?>
<svg width="527px" height="145px" viewBox="0 0 527 145" version="1.1" xmlns="http://www.w3.org/2000/svg" xmlns:xlink="http://www.w3.org/1999/xlink" xmlns:sketch="http://www.bohemiancoding.com/sketch/ns">
    <!-- Generator: Sketch 3.2.2 (9983) - http://www.bohemiancoding.com/sketch -->
    <title>louisville-logo</title>
    <desc>Created with Sketch.</desc>
    <defs></defs>
    <g id="Logos-(For-Export)" stroke="none" stroke-width="1" fill="none" fill-rule="evenodd" sketch:type="MSPage">
        <g id="louisville-logo" sketch:type="MSArtboardGroup" transform="translate(-187.000000, -10.000000)" fill="#FFFFFF">
            <path d="M283.88,74 L307.64,74 L307.64,68.72 L290.48,68.72 L290.48,11.08 L283.88,11.08 L283.88,74 Z M332.144,74.792 C342.176,74.792 348.6,68.192 348.6,56.488 L348.6,28.328 C348.6,16.8 342.176,10.288 332.144,10.288 C322.112,10.288 315.688,16.8 315.688,28.416 L315.688,56.664 C315.688,68.192 322.112,74.792 332.144,74.792 L332.144,74.792 Z M332.144,69.248 C325.456,69.248 322.376,64.76 322.376,56.576 L322.376,28.416 C322.376,20.232 325.544,15.744 332.144,15.744 C338.656,15.744 341.824,20.672 341.824,28.416 L341.824,56.488 C341.824,64.408 338.656,69.248 332.144,69.248 L332.144,69.248 Z M384.72,11.08 L384.72,58.16 C384.72,66.08 381.64,69.248 376.096,69.248 C370.376,69.248 367.472,66.08 367.472,58.688 L367.472,11.08 L360.872,11.08 L360.872,58.864 C360.872,69.688 366.856,74.792 376.096,74.792 C385.864,74.792 391.32,69.424 391.32,58.6 L391.32,11.08 L384.72,11.08 Z M404.648,74 L411.248,74 L411.248,11.08 L404.648,11.08 L404.648,74 Z M437.512,74.792 C445.784,74.792 451.328,69.952 451.328,59.568 L451.328,58.248 C451.328,48.04 447.192,44.08 439.008,38.008 C432.32,32.992 429.944,30.264 429.944,24.016 L429.944,23.664 C429.944,18.384 432.496,15.744 436.984,15.744 C441.384,15.744 444.2,17.944 444.2,24.28 L444.2,26.48 L450.36,26.48 L450.36,24.28 C450.36,14.864 445.432,10.288 436.984,10.288 C428.888,10.288 423.696,15.304 423.696,24.104 L423.696,24.368 C423.696,33.256 427.832,37.656 435.048,43.112 C441.912,48.392 444.992,51.208 444.992,58.6 L444.992,59.832 C444.992,66.08 442.264,69.336 437.512,69.336 C431.704,69.336 429.24,66.168 429.24,59.04 L429.24,56.928 L422.904,56.928 L422.904,59.04 C422.904,69.16 428.096,74.792 437.512,74.792 L437.512,74.792 Z M475.92,66.432 L466.24,11.08 L459.728,11.08 L471.168,74 L480.232,74 L491.672,11.08 L485.512,11.08 L475.92,66.432 Z M502.36,74 L508.96,74 L508.96,11.08 L502.36,11.08 L502.36,74 Z M522.376,74 L546.136,74 L546.136,68.72 L528.976,68.72 L528.976,11.08 L522.376,11.08 L522.376,74 Z M557,74 L580.76,74 L580.76,68.72 L563.6,68.72 L563.6,11.08 L557,11.08 L557,74 Z M591.624,74 L616.88,74 L616.88,68.72 L598.224,68.72 L598.224,42.936 L612.48,42.936 L612.48,37.656 L598.224,37.656 L598.224,16.36 L615.736,16.36 L615.736,11.08 L591.624,11.08 L591.624,74 Z M187.704,154 L205.392,154 C217.184,154 223.432,149.776 223.432,138.16 L223.432,134.112 C223.432,126.104 219.296,122.232 212.608,120.912 C218.328,119.592 222.024,116.16 222.024,109.56 L222.024,105.16 C222.024,95.568 216.48,91.08 205.04,91.08 L187.704,91.08 L187.704,154 Z M200.992,144.408 L200.992,125.576 L203.896,125.576 C208.208,125.576 209.968,126.896 209.968,132.616 L209.968,137.104 C209.968,142.384 208.208,144.408 204.16,144.408 L200.992,144.408 Z M200.992,116.512 L200.992,100.672 L203.808,100.672 C207.328,100.672 209.176,101.64 209.176,106.392 L209.176,110.352 C209.176,115.016 207.68,116.512 203.808,116.512 L200.992,116.512 Z M255.592,91.08 L255.592,136.84 C255.592,142.12 254.184,143.968 250.84,143.968 C247.232,143.968 246,142.12 246,136.928 L246,91.08 L232.448,91.08 L232.448,137.192 C232.448,149.424 239.048,154.968 250.752,154.968 C262.368,154.968 269.232,149.512 269.232,137.28 L269.232,91.08 L255.592,91.08 Z M295.408,154.968 C306.584,154.968 312.832,149.248 312.832,137.808 L312.832,136.576 C312.832,124.256 306.408,120.472 298.928,115.72 C293.472,112.024 291.536,110.44 291.536,105.952 L291.536,105.6 C291.536,102.08 292.768,100.672 295.32,100.672 C297.696,100.672 299.368,101.816 299.368,106.304 L299.368,108.328 L312.128,108.328 L312.128,106.48 C312.04,95.392 305.968,90.2 295.32,90.2 C284.496,90.2 278.336,96.008 278.336,106.48 L278.336,106.832 C278.336,117.216 282.648,121.88 290.832,127.072 C296.464,130.768 299.544,132.528 299.544,138.16 L299.544,138.864 C299.544,142.912 298.224,144.672 295.408,144.672 C292.152,144.672 290.832,143 290.832,137.896 L290.832,135.432 L277.72,135.432 L277.72,137.456 C277.808,150.04 284.672,154.968 295.408,154.968 L295.408,154.968 Z M322.376,154 L336.016,154 L336.016,91.08 L322.376,91.08 L322.376,154 Z M346.704,154 L358.408,154 L358.408,114.928 L370.904,154 L383.752,154 L383.752,91.08 L371.96,91.08 L371.96,124.696 L361.312,91.08 L346.704,91.08 L346.704,154 Z M394.176,154 L423.568,154 L423.568,143.352 L407.728,143.352 L407.728,125.928 L419.52,125.928 L419.52,115.808 L407.728,115.808 L407.728,101.728 L422.688,101.728 L422.688,91.08 L394.176,91.08 L394.176,154 Z M448.864,154.968 C460.04,154.968 466.288,149.248 466.288,137.808 L466.288,136.576 C466.288,124.256 459.864,120.472 452.384,115.72 C446.928,112.024 444.992,110.44 444.992,105.952 L444.992,105.6 C444.992,102.08 446.224,100.672 448.776,100.672 C451.152,100.672 452.824,101.816 452.824,106.304 L452.824,108.328 L465.584,108.328 L465.584,106.48 C465.496,95.392 459.424,90.2 448.776,90.2 C437.952,90.2 431.792,96.008 431.792,106.48 L431.792,106.832 C431.792,117.216 436.104,121.88 444.288,127.072 C449.92,130.768 453,132.528 453,138.16 L453,138.864 C453,142.912 451.68,144.672 448.864,144.672 C445.608,144.672 444.288,143 444.288,137.896 L444.288,135.432 L431.176,135.432 L431.176,137.456 C431.264,150.04 438.128,154.968 448.864,154.968 L448.864,154.968 Z M491.584,154.968 C502.76,154.968 509.008,149.248 509.008,137.808 L509.008,136.576 C509.008,124.256 502.584,120.472 495.104,115.72 C489.648,112.024 487.712,110.44 487.712,105.952 L487.712,105.6 C487.712,102.08 488.944,100.672 491.496,100.672 C493.872,100.672 495.544,101.816 495.544,106.304 L495.544,108.328 L508.304,108.328 L508.304,106.48 C508.216,95.392 502.144,90.2 491.496,90.2 C480.672,90.2 474.512,96.008 474.512,106.48 L474.512,106.832 C474.512,117.216 478.824,121.88 487.008,127.072 C492.64,130.768 495.72,132.528 495.72,138.16 L495.72,138.864 C495.72,142.912 494.4,144.672 491.584,144.672 C488.328,144.672 487.008,143 487.008,137.896 L487.008,135.432 L473.896,135.432 L473.896,137.456 C473.984,150.04 480.848,154.968 491.584,154.968 L491.584,154.968 Z M532.496,154 L545.96,154 L546.048,128.92 L558.368,128.92 L558.368,118.712 L546.048,118.712 L546.048,101.728 L561.096,101.728 L561.096,91.08 L532.496,91.08 L532.496,154 Z M570.464,154 L584.104,154 L584.104,91.08 L570.464,91.08 L570.464,154 Z M594.792,154 L608.344,154 L608.344,127.776 L610.808,127.776 L617.76,154 L631.84,154 L623.568,125.664 C627.704,123.64 630.08,120.296 630.08,113.168 L630.08,106.744 C630.08,96.272 625.152,91.08 611.952,91.08 L594.792,91.08 L594.792,154 Z M608.344,119.064 L608.344,101.464 L611.512,101.464 C615.296,101.464 616.88,102.96 616.88,107.184 L616.88,112.992 C616.88,117.48 615.208,119.064 611.512,119.064 L608.344,119.064 Z M655.728,154.968 C666.904,154.968 673.152,149.248 673.152,137.808 L673.152,136.576 C673.152,124.256 666.728,120.472 659.248,115.72 C653.792,112.024 651.856,110.44 651.856,105.952 L651.856,105.6 C651.856,102.08 653.088,100.672 655.64,100.672 C658.016,100.672 659.688,101.816 659.688,106.304 L659.688,108.328 L672.448,108.328 L672.448,106.48 C672.36,95.392 666.288,90.2 655.64,90.2 C644.816,90.2 638.656,96.008 638.656,106.48 L638.656,106.832 C638.656,117.216 642.968,121.88 651.152,127.072 C656.784,130.768 659.864,132.528 659.864,138.16 L659.864,138.864 C659.864,142.912 658.544,144.672 655.728,144.672 C652.472,144.672 651.152,143 651.152,137.896 L651.152,135.432 L638.04,135.432 L638.04,137.456 C638.128,150.04 644.992,154.968 655.728,154.968 L655.728,154.968 Z M689.648,154 L703.112,154 L703.2,101.728 L713.232,101.728 L713.232,91.08 L679.528,91.08 L679.528,101.728 L689.648,101.728 L689.648,154 Z" id="LOUISVILLE" sketch:type="MSShapeGroup"></path>
        </g>
    </g>
</svg>