<?xml version="1.0" encoding="UTF-8" standalone="no"?>
<svg width="108px" height="108px" viewBox="0 0 108 108" version="1.1" xmlns="http://www.w3.org/2000/svg" xmlns:xlink="http://www.w3.org/1999/xlink" xmlns:sketch="http://www.bohemiancoding.com/sketch/ns">
    <!-- Generator: Sketch 3.2.2 (9983) - http://www.bohemiancoding.com/sketch -->
    <title>nashville-monogram</title>
    <desc>Created with Sketch.</desc>
    <defs></defs>
    <g id="Monograms-(For-Export)" stroke="none" stroke-width="1" fill="none" fill-rule="evenodd" sketch:type="MSPage">
        <g id="nashville-monogram" sketch:type="MSArtboardGroup" fill="#FFFFFF">
            <path d="M18.784,76 L25.604,76 L25.604,45.558 L35.524,76 L43.088,76 L43.088,31.67 L36.268,31.67 L36.268,58.578 L27.402,31.67 L18.784,31.67 L18.784,76 Z M48.296,76 L59.58,76 C67.702,76 71.732,72.838 71.732,64.778 L71.732,61.926 C71.732,56.222 68.942,53.494 64.23,52.626 C68.26,51.572 70.616,49.154 70.616,44.628 L70.616,41.528 C70.616,34.646 66.71,31.67 59.146,31.67 L48.296,31.67 L48.296,76 Z M55.984,70.296 L55.984,55.416 L58.712,55.416 C62.494,55.416 63.982,56.594 63.982,61.244 L63.982,64.344 C63.982,68.622 62.37,70.296 58.96,70.296 L55.984,70.296 Z M55.984,50.022 L55.984,37.374 L58.588,37.374 C61.688,37.374 63.176,38.18 63.176,41.962 L63.176,44.938 C63.176,48.596 61.936,50.022 58.588,50.022 L55.984,50.022 Z M79.048,76.372 C85.434,76.372 89.402,72.9 89.402,65.522 L89.402,31.67 L81.652,31.67 L81.652,65.15 C81.652,68.622 80.102,69.862 77.56,69.862 C76.134,69.862 75.266,69.614 74.46,69.428 L74.46,75.504 C75.452,75.938 76.816,76.372 79.048,76.372 L79.048,76.372 Z" id="NBJ" sketch:type="MSShapeGroup"></path>
        </g>
    </g>
</svg>