<?xml version="1.0" encoding="UTF-8" standalone="no"?>
<svg width="108px" height="108px" viewBox="0 0 108 108" version="1.1" xmlns="http://www.w3.org/2000/svg" xmlns:xlink="http://www.w3.org/1999/xlink" xmlns:sketch="http://www.bohemiancoding.com/sketch/ns">
    <!-- Generator: Sketch 3.2.2 (9983) - http://www.bohemiancoding.com/sketch -->
    <title>portland-monogram</title>
    <desc>Created with Sketch.</desc>
    <defs></defs>
    <g id="Monograms-(For-Export)" stroke="none" stroke-width="1" fill="none" fill-rule="evenodd" sketch:type="MSPage">
        <g id="portland-monogram" sketch:type="MSArtboardGroup" fill="#FFFFFF">
            <path d="M20.21,76 L28.022,76 L28.022,57.586 L31.06,57.586 C38.996,57.586 42.902,54.3 42.902,47.046 L42.902,42.52 C42.902,35.142 39.368,31.67 30.936,31.67 L20.21,31.67 L20.21,76 Z M28.022,51.944 L28.022,37.622 L30.874,37.622 C33.912,37.622 35.276,38.862 35.276,42.582 L35.276,46.86 C35.276,50.518 33.912,51.944 30.874,51.944 L28.022,51.944 Z M46.87,76 L58.154,76 C66.276,76 70.306,72.838 70.306,64.778 L70.306,61.926 C70.306,56.222 67.516,53.494 62.804,52.626 C66.834,51.572 69.19,49.154 69.19,44.628 L69.19,41.528 C69.19,34.646 65.284,31.67 57.72,31.67 L46.87,31.67 L46.87,76 Z M54.558,70.296 L54.558,55.416 L57.286,55.416 C61.068,55.416 62.556,56.594 62.556,61.244 L62.556,64.344 C62.556,68.622 60.944,70.296 57.534,70.296 L54.558,70.296 Z M54.558,50.022 L54.558,37.374 L57.162,37.374 C60.262,37.374 61.75,38.18 61.75,41.962 L61.75,44.938 C61.75,48.596 60.51,50.022 57.162,50.022 L54.558,50.022 Z M77.622,76.372 C84.008,76.372 87.976,72.9 87.976,65.522 L87.976,31.67 L80.226,31.67 L80.226,65.15 C80.226,68.622 78.676,69.862 76.134,69.862 C74.708,69.862 73.84,69.614 73.034,69.428 L73.034,75.504 C74.026,75.938 75.39,76.372 77.622,76.372 L77.622,76.372 Z" id="PBJ" sketch:type="MSShapeGroup"></path>
        </g>
    </g>
</svg>