<?xml version="1.0" encoding="UTF-8" standalone="no"?>
<svg width="539px" height="145px" viewBox="0 0 539 145" version="1.1" xmlns="http://www.w3.org/2000/svg" xmlns:xlink="http://www.w3.org/1999/xlink" xmlns:sketch="http://www.bohemiancoding.com/sketch/ns">
    <!-- Generator: Sketch 3.2.2 (9983) - http://www.bohemiancoding.com/sketch -->
    <title>sanfrancisco-logo</title>
    <desc>Created with Sketch.</desc>
    <defs></defs>
    <g id="Logos-(For-Export)" stroke="none" stroke-width="1" fill="none" fill-rule="evenodd" sketch:type="MSPage">
        <g id="sanfrancisco-logo" sketch:type="MSArtboardGroup" transform="translate(-181.000000, -10.000000)" fill="#FFFFFF">
            <path d="M228.16,74.792 C236.432,74.792 241.976,69.952 241.976,59.568 L241.976,58.248 C241.976,48.04 237.84,44.08 229.656,38.008 C222.968,32.992 220.592,30.264 220.592,24.016 L220.592,23.664 C220.592,18.384 223.144,15.744 227.632,15.744 C232.032,15.744 234.848,17.944 234.848,24.28 L234.848,26.48 L241.008,26.48 L241.008,24.28 C241.008,14.864 236.08,10.288 227.632,10.288 C219.536,10.288 214.344,15.304 214.344,24.104 L214.344,24.368 C214.344,33.256 218.48,37.656 225.696,43.112 C232.56,48.392 235.64,51.208 235.64,58.6 L235.64,59.832 C235.64,66.08 232.912,69.336 228.16,69.336 C222.352,69.336 219.888,66.168 219.888,59.04 L219.888,56.928 L213.552,56.928 L213.552,59.04 C213.552,69.16 218.744,74.792 228.16,74.792 L228.16,74.792 Z M276.072,74 L282.584,74 L271.496,11.08 L261.552,11.08 L250.376,74 L256.624,74 L259.264,58.16 L273.344,58.16 L276.072,74 Z M266.304,16.272 L272.464,53.056 L260.056,53.056 L266.304,16.272 Z M292.92,74 L298.904,74 L298.904,23.488 L315.888,74 L322.752,74 L322.752,11.08 L316.856,11.08 L316.856,57.808 L300.928,11.08 L292.92,11.08 L292.92,74 Z M351.344,74 L357.856,74 L357.944,44.872 L372.112,44.872 L372.112,39.592 L357.944,39.592 L357.944,16.36 L375.544,16.36 L375.544,11.08 L351.344,11.08 L351.344,74 Z M386.496,74 L393.096,74 L393.096,44.52 L398.64,44.52 L408.76,74 L415.976,74 L405.24,43.816 C411.136,42.232 414.568,38.536 414.568,30.264 L414.568,25.072 C414.568,15.392 409.112,11.08 399.344,11.08 L386.496,11.08 L386.496,74 Z M393.096,39.504 L393.096,16.272 L399.432,16.272 C405.152,16.272 407.88,18.56 407.88,25.072 L407.88,30.264 C407.88,36.776 405.504,39.504 399.52,39.504 L393.096,39.504 Z M449.72,74 L456.232,74 L445.144,11.08 L435.2,11.08 L424.024,74 L430.272,74 L432.912,58.16 L446.992,58.16 L449.72,74 Z M439.952,16.272 L446.112,53.056 L433.704,53.056 L439.952,16.272 Z M466.568,74 L472.552,74 L472.552,23.488 L489.536,74 L496.4,74 L496.4,11.08 L490.504,11.08 L490.504,57.808 L474.576,11.08 L466.568,11.08 L466.568,74 Z M524.952,74.792 C533.752,74.792 540.176,70.128 540.176,58.688 L540.176,56.928 L534.104,56.928 L534.104,58.6 C534.104,66.08 530.32,69.248 524.952,69.248 C518.264,69.248 515.448,64.672 515.448,56.4 L515.448,28.68 C515.448,20.144 518.704,15.744 524.864,15.744 C530.32,15.744 533.4,18.648 533.4,25.688 L533.4,26.568 L539.824,26.568 L539.824,25.6 C539.824,14.6 533.312,10.288 524.776,10.288 C515.272,10.288 508.672,16.8 508.672,28.68 L508.672,56.488 C508.672,68.192 514.744,74.792 524.952,74.792 L524.952,74.792 Z M551.744,74 L558.344,74 L558.344,11.08 L551.744,11.08 L551.744,74 Z M584.608,74.792 C592.88,74.792 598.424,69.952 598.424,59.568 L598.424,58.248 C598.424,48.04 594.288,44.08 586.104,38.008 C579.416,32.992 577.04,30.264 577.04,24.016 L577.04,23.664 C577.04,18.384 579.592,15.744 584.08,15.744 C588.48,15.744 591.296,17.944 591.296,24.28 L591.296,26.48 L597.456,26.48 L597.456,24.28 C597.456,14.864 592.528,10.288 584.08,10.288 C575.984,10.288 570.792,15.304 570.792,24.104 L570.792,24.368 C570.792,33.256 574.928,37.656 582.144,43.112 C589.008,48.392 592.088,51.208 592.088,58.6 L592.088,59.832 C592.088,66.08 589.36,69.336 584.608,69.336 C578.8,69.336 576.336,66.168 576.336,59.04 L576.336,56.928 L570,56.928 L570,59.04 C570,69.16 575.192,74.792 584.608,74.792 L584.608,74.792 Z M625.48,74.792 C634.28,74.792 640.704,70.128 640.704,58.688 L640.704,56.928 L634.632,56.928 L634.632,58.6 C634.632,66.08 630.848,69.248 625.48,69.248 C618.792,69.248 615.976,64.672 615.976,56.4 L615.976,28.68 C615.976,20.144 619.232,15.744 625.392,15.744 C630.848,15.744 633.928,18.648 633.928,25.688 L633.928,26.568 L640.352,26.568 L640.352,25.6 C640.352,14.6 633.84,10.288 625.304,10.288 C615.8,10.288 609.2,16.8 609.2,28.68 L609.2,56.488 C609.2,68.192 615.272,74.792 625.48,74.792 L625.48,74.792 Z M667.76,74.792 C677.792,74.792 684.216,68.192 684.216,56.488 L684.216,28.328 C684.216,16.8 677.792,10.288 667.76,10.288 C657.728,10.288 651.304,16.8 651.304,28.416 L651.304,56.664 C651.304,68.192 657.728,74.792 667.76,74.792 L667.76,74.792 Z M667.76,69.248 C661.072,69.248 657.992,64.76 657.992,56.576 L657.992,28.416 C657.992,20.232 661.16,15.744 667.76,15.744 C674.272,15.744 677.44,20.672 677.44,28.416 L677.44,56.488 C677.44,64.408 674.272,69.248 667.76,69.248 L667.76,69.248 Z M181.148,154 L198.836,154 C210.628,154 216.876,149.776 216.876,138.16 L216.876,134.112 C216.876,126.104 212.74,122.232 206.052,120.912 C211.772,119.592 215.468,116.16 215.468,109.56 L215.468,105.16 C215.468,95.568 209.924,91.08 198.484,91.08 L181.148,91.08 L181.148,154 Z M194.436,144.408 L194.436,125.576 L197.34,125.576 C201.652,125.576 203.412,126.896 203.412,132.616 L203.412,137.104 C203.412,142.384 201.652,144.408 197.604,144.408 L194.436,144.408 Z M194.436,116.512 L194.436,100.672 L197.252,100.672 C200.772,100.672 202.62,101.64 202.62,106.392 L202.62,110.352 C202.62,115.016 201.124,116.512 197.252,116.512 L194.436,116.512 Z M249.036,91.08 L249.036,136.84 C249.036,142.12 247.628,143.968 244.284,143.968 C240.676,143.968 239.444,142.12 239.444,136.928 L239.444,91.08 L225.892,91.08 L225.892,137.192 C225.892,149.424 232.492,154.968 244.196,154.968 C255.812,154.968 262.676,149.512 262.676,137.28 L262.676,91.08 L249.036,91.08 Z M288.852,154.968 C300.028,154.968 306.276,149.248 306.276,137.808 L306.276,136.576 C306.276,124.256 299.852,120.472 292.372,115.72 C286.916,112.024 284.98,110.44 284.98,105.952 L284.98,105.6 C284.98,102.08 286.212,100.672 288.764,100.672 C291.14,100.672 292.812,101.816 292.812,106.304 L292.812,108.328 L305.572,108.328 L305.572,106.48 C305.484,95.392 299.412,90.2 288.764,90.2 C277.94,90.2 271.78,96.008 271.78,106.48 L271.78,106.832 C271.78,117.216 276.092,121.88 284.276,127.072 C289.908,130.768 292.988,132.528 292.988,138.16 L292.988,138.864 C292.988,142.912 291.668,144.672 288.852,144.672 C285.596,144.672 284.276,143 284.276,137.896 L284.276,135.432 L271.164,135.432 L271.164,137.456 C271.252,150.04 278.116,154.968 288.852,154.968 L288.852,154.968 Z M315.82,154 L329.46,154 L329.46,91.08 L315.82,91.08 L315.82,154 Z M340.148,154 L351.852,154 L351.852,114.928 L364.348,154 L377.196,154 L377.196,91.08 L365.404,91.08 L365.404,124.696 L354.756,91.08 L340.148,91.08 L340.148,154 Z M387.62,154 L417.012,154 L417.012,143.352 L401.172,143.352 L401.172,125.928 L412.964,125.928 L412.964,115.808 L401.172,115.808 L401.172,101.728 L416.132,101.728 L416.132,91.08 L387.62,91.08 L387.62,154 Z M442.308,154.968 C453.484,154.968 459.732,149.248 459.732,137.808 L459.732,136.576 C459.732,124.256 453.308,120.472 445.828,115.72 C440.372,112.024 438.436,110.44 438.436,105.952 L438.436,105.6 C438.436,102.08 439.668,100.672 442.22,100.672 C444.596,100.672 446.268,101.816 446.268,106.304 L446.268,108.328 L459.028,108.328 L459.028,106.48 C458.94,95.392 452.868,90.2 442.22,90.2 C431.396,90.2 425.236,96.008 425.236,106.48 L425.236,106.832 C425.236,117.216 429.548,121.88 437.732,127.072 C443.364,130.768 446.444,132.528 446.444,138.16 L446.444,138.864 C446.444,142.912 445.124,144.672 442.308,144.672 C439.052,144.672 437.732,143 437.732,137.896 L437.732,135.432 L424.62,135.432 L424.62,137.456 C424.708,150.04 431.572,154.968 442.308,154.968 L442.308,154.968 Z M485.028,154.968 C496.204,154.968 502.452,149.248 502.452,137.808 L502.452,136.576 C502.452,124.256 496.028,120.472 488.548,115.72 C483.092,112.024 481.156,110.44 481.156,105.952 L481.156,105.6 C481.156,102.08 482.388,100.672 484.94,100.672 C487.316,100.672 488.988,101.816 488.988,106.304 L488.988,108.328 L501.748,108.328 L501.748,106.48 C501.66,95.392 495.588,90.2 484.94,90.2 C474.116,90.2 467.956,96.008 467.956,106.48 L467.956,106.832 C467.956,117.216 472.268,121.88 480.452,127.072 C486.084,130.768 489.164,132.528 489.164,138.16 L489.164,138.864 C489.164,142.912 487.844,144.672 485.028,144.672 C481.772,144.672 480.452,143 480.452,137.896 L480.452,135.432 L467.34,135.432 L467.34,137.456 C467.428,150.04 474.292,154.968 485.028,154.968 L485.028,154.968 Z M534.124,154 L547.588,154 L547.676,101.728 L557.708,101.728 L557.708,91.08 L524.004,91.08 L524.004,101.728 L534.124,101.728 L534.124,154 Z M566.548,154 L580.188,154 L580.188,91.08 L566.548,91.08 L566.548,154 Z M590.876,154 L602.14,154 L602.14,114.488 L610.764,154 L614.9,154 L623.436,114.488 L623.436,154 L636.46,154 L636.46,91.08 L619.652,91.08 L613.58,122.76 L607.332,91.08 L590.876,91.08 L590.876,154 Z M646.972,154 L676.364,154 L676.364,143.352 L660.524,143.352 L660.524,125.928 L672.316,125.928 L672.316,115.808 L660.524,115.808 L660.524,101.728 L675.484,101.728 L675.484,91.08 L646.972,91.08 L646.972,154 Z M701.66,154.968 C712.836,154.968 719.084,149.248 719.084,137.808 L719.084,136.576 C719.084,124.256 712.66,120.472 705.18,115.72 C699.724,112.024 697.788,110.44 697.788,105.952 L697.788,105.6 C697.788,102.08 699.02,100.672 701.572,100.672 C703.948,100.672 705.62,101.816 705.62,106.304 L705.62,108.328 L718.38,108.328 L718.38,106.48 C718.292,95.392 712.22,90.2 701.572,90.2 C690.748,90.2 684.588,96.008 684.588,106.48 L684.588,106.832 C684.588,117.216 688.9,121.88 697.084,127.072 C702.716,130.768 705.796,132.528 705.796,138.16 L705.796,138.864 C705.796,142.912 704.476,144.672 701.66,144.672 C698.404,144.672 697.084,143 697.084,137.896 L697.084,135.432 L683.972,135.432 L683.972,137.456 C684.06,150.04 690.924,154.968 701.66,154.968 L701.66,154.968 Z" id="SAN-FRANCISCO" sketch:type="MSShapeGroup"></path>
        </g>
    </g>
</svg>