<?xml version="1.0" encoding="UTF-8" standalone="no"?>
<svg width="637px" height="145px" viewBox="0 0 637 145" version="1.1" xmlns="http://www.w3.org/2000/svg" xmlns:xlink="http://www.w3.org/1999/xlink" xmlns:sketch="http://www.bohemiancoding.com/sketch/ns">
    <!-- Generator: Sketch 3.2.2 (9983) - http://www.bohemiancoding.com/sketch -->
    <title>washington-logo</title>
    <desc>Created with Sketch.</desc>
    <defs></defs>
    <g id="Logos-(For-Export)" stroke="none" stroke-width="1" fill="none" fill-rule="evenodd" sketch:type="MSPage">
        <g id="washington-logo" sketch:type="MSArtboardGroup" transform="translate(-132.000000, -10.000000)" fill="#FFFFFF">
            <path d="M262.144,74 L268.656,74 L277.28,29.648 L285.464,74 L291.976,74 L301.216,11.08 L295.32,11.08 L288.544,60.184 L279.304,11.08 L275.256,11.08 L266.192,60.008 L259.504,11.08 L253.08,11.08 L262.144,74 Z M331.616,74 L338.128,74 L327.04,11.08 L317.096,11.08 L305.92,74 L312.168,74 L314.808,58.16 L328.888,58.16 L331.616,74 Z M321.848,16.272 L328.008,53.056 L315.6,53.056 L321.848,16.272 Z M360.784,74.792 C369.056,74.792 374.6,69.952 374.6,59.568 L374.6,58.248 C374.6,48.04 370.464,44.08 362.28,38.008 C355.592,32.992 353.216,30.264 353.216,24.016 L353.216,23.664 C353.216,18.384 355.768,15.744 360.256,15.744 C364.656,15.744 367.472,17.944 367.472,24.28 L367.472,26.48 L373.632,26.48 L373.632,24.28 C373.632,14.864 368.704,10.288 360.256,10.288 C352.16,10.288 346.968,15.304 346.968,24.104 L346.968,24.368 C346.968,33.256 351.104,37.656 358.32,43.112 C365.184,48.392 368.264,51.208 368.264,58.6 L368.264,59.832 C368.264,66.08 365.536,69.336 360.784,69.336 C354.976,69.336 352.512,66.168 352.512,59.04 L352.512,56.928 L346.176,56.928 L346.176,59.04 C346.176,69.16 351.368,74.792 360.784,74.792 L360.784,74.792 Z M386.52,74 L393.12,74 L393.12,44.96 L409.664,44.96 L409.664,74 L416.352,74 L416.352,11.08 L409.664,11.08 L409.664,39.416 L393.12,39.416 L393.12,11.08 L386.52,11.08 L386.52,74 Z M429.768,74 L436.368,74 L436.368,11.08 L429.768,11.08 L429.768,74 Z M449.784,74 L455.768,74 L455.768,23.488 L472.752,74 L479.616,74 L479.616,11.08 L473.72,11.08 L473.72,57.808 L457.792,11.08 L449.784,11.08 L449.784,74 Z M509.224,47.776 L517.496,47.776 L517.496,57.72 C517.496,65.464 514.944,69.248 508.608,69.248 C501.832,69.248 498.664,64.672 498.664,56.576 L498.664,28.416 C498.664,20.056 501.568,15.744 508.256,15.744 C513.36,15.744 517.056,18.472 517.056,25.952 L517.056,26.568 L523.304,26.568 L523.304,25.864 C523.304,14.336 516.704,10.288 508.168,10.288 C498.136,10.288 491.888,16.624 491.888,28.416 L491.888,56.664 C491.888,68.192 498.224,74.792 508.608,74.792 C518.376,74.792 524.096,69.512 524.096,57.896 L524.096,42.408 L509.224,42.408 L509.224,47.776 Z M542.88,74 L549.392,74 L549.48,16.36 L560.392,16.36 L560.392,11.08 L532.056,11.08 L532.056,16.36 L542.88,16.36 L542.88,74 Z M584.72,74.792 C594.752,74.792 601.176,68.192 601.176,56.488 L601.176,28.328 C601.176,16.8 594.752,10.288 584.72,10.288 C574.688,10.288 568.264,16.8 568.264,28.416 L568.264,56.664 C568.264,68.192 574.688,74.792 584.72,74.792 L584.72,74.792 Z M584.72,69.248 C578.032,69.248 574.952,64.76 574.952,56.576 L574.952,28.416 C574.952,20.232 578.12,15.744 584.72,15.744 C591.232,15.744 594.4,20.672 594.4,28.416 L594.4,56.488 C594.4,64.408 591.232,69.248 584.72,69.248 L584.72,69.248 Z M613.624,74 L619.608,74 L619.608,23.488 L636.592,74 L643.456,74 L643.456,11.08 L637.56,11.08 L637.56,57.808 L621.632,11.08 L613.624,11.08 L613.624,74 Z M132.048,154 L149.736,154 C161.528,154 167.776,149.776 167.776,138.16 L167.776,134.112 C167.776,126.104 163.64,122.232 156.952,120.912 C162.672,119.592 166.368,116.16 166.368,109.56 L166.368,105.16 C166.368,95.568 160.824,91.08 149.384,91.08 L132.048,91.08 L132.048,154 Z M145.336,144.408 L145.336,125.576 L148.24,125.576 C152.552,125.576 154.312,126.896 154.312,132.616 L154.312,137.104 C154.312,142.384 152.552,144.408 148.504,144.408 L145.336,144.408 Z M145.336,116.512 L145.336,100.672 L148.152,100.672 C151.672,100.672 153.52,101.64 153.52,106.392 L153.52,110.352 C153.52,115.016 152.024,116.512 148.152,116.512 L145.336,116.512 Z M199.936,91.08 L199.936,136.84 C199.936,142.12 198.528,143.968 195.184,143.968 C191.576,143.968 190.344,142.12 190.344,136.928 L190.344,91.08 L176.792,91.08 L176.792,137.192 C176.792,149.424 183.392,154.968 195.096,154.968 C206.712,154.968 213.576,149.512 213.576,137.28 L213.576,91.08 L199.936,91.08 Z M239.752,154.968 C250.928,154.968 257.176,149.248 257.176,137.808 L257.176,136.576 C257.176,124.256 250.752,120.472 243.272,115.72 C237.816,112.024 235.88,110.44 235.88,105.952 L235.88,105.6 C235.88,102.08 237.112,100.672 239.664,100.672 C242.04,100.672 243.712,101.816 243.712,106.304 L243.712,108.328 L256.472,108.328 L256.472,106.48 C256.384,95.392 250.312,90.2 239.664,90.2 C228.84,90.2 222.68,96.008 222.68,106.48 L222.68,106.832 C222.68,117.216 226.992,121.88 235.176,127.072 C240.808,130.768 243.888,132.528 243.888,138.16 L243.888,138.864 C243.888,142.912 242.568,144.672 239.752,144.672 C236.496,144.672 235.176,143 235.176,137.896 L235.176,135.432 L222.064,135.432 L222.064,137.456 C222.152,150.04 229.016,154.968 239.752,154.968 L239.752,154.968 Z M266.72,154 L280.36,154 L280.36,91.08 L266.72,91.08 L266.72,154 Z M291.048,154 L302.752,154 L302.752,114.928 L315.248,154 L328.096,154 L328.096,91.08 L316.304,91.08 L316.304,124.696 L305.656,91.08 L291.048,91.08 L291.048,154 Z M338.52,154 L367.912,154 L367.912,143.352 L352.072,143.352 L352.072,125.928 L363.864,125.928 L363.864,115.808 L352.072,115.808 L352.072,101.728 L367.032,101.728 L367.032,91.08 L338.52,91.08 L338.52,154 Z M393.208,154.968 C404.384,154.968 410.632,149.248 410.632,137.808 L410.632,136.576 C410.632,124.256 404.208,120.472 396.728,115.72 C391.272,112.024 389.336,110.44 389.336,105.952 L389.336,105.6 C389.336,102.08 390.568,100.672 393.12,100.672 C395.496,100.672 397.168,101.816 397.168,106.304 L397.168,108.328 L409.928,108.328 L409.928,106.48 C409.84,95.392 403.768,90.2 393.12,90.2 C382.296,90.2 376.136,96.008 376.136,106.48 L376.136,106.832 C376.136,117.216 380.448,121.88 388.632,127.072 C394.264,130.768 397.344,132.528 397.344,138.16 L397.344,138.864 C397.344,142.912 396.024,144.672 393.208,144.672 C389.952,144.672 388.632,143 388.632,137.896 L388.632,135.432 L375.52,135.432 L375.52,137.456 C375.608,150.04 382.472,154.968 393.208,154.968 L393.208,154.968 Z M435.928,154.968 C447.104,154.968 453.352,149.248 453.352,137.808 L453.352,136.576 C453.352,124.256 446.928,120.472 439.448,115.72 C433.992,112.024 432.056,110.44 432.056,105.952 L432.056,105.6 C432.056,102.08 433.288,100.672 435.84,100.672 C438.216,100.672 439.888,101.816 439.888,106.304 L439.888,108.328 L452.648,108.328 L452.648,106.48 C452.56,95.392 446.488,90.2 435.84,90.2 C425.016,90.2 418.856,96.008 418.856,106.48 L418.856,106.832 C418.856,117.216 423.168,121.88 431.352,127.072 C436.984,130.768 440.064,132.528 440.064,138.16 L440.064,138.864 C440.064,142.912 438.744,144.672 435.928,144.672 C432.672,144.672 431.352,143 431.352,137.896 L431.352,135.432 L418.24,135.432 L418.24,137.456 C418.328,150.04 425.192,154.968 435.928,154.968 L435.928,154.968 Z M482.208,154.528 C492.592,154.528 498.048,148.72 498.048,137.896 L498.048,91.08 L484.408,91.08 L484.408,137.28 C484.408,141.68 482.472,143.176 479.04,143.176 C477.192,143.176 475.96,142.912 474.904,142.648 L474.904,153.208 C476.488,153.912 478.6,154.528 482.208,154.528 L482.208,154.528 Z M526.776,154.968 C538.48,154.968 546.048,148.896 546.048,135.784 L546.048,109.032 C546.048,95.832 538.216,90.2 526.776,90.2 C515.688,90.2 507.592,96.184 507.592,109.12 L507.592,136.136 C507.592,149.072 515.072,154.968 526.776,154.968 L526.776,154.968 Z M526.776,144.056 C523.08,144.056 521.408,141.768 521.408,136.048 L521.408,109.032 C521.408,103.4 523.168,101.112 526.776,101.112 C530.472,101.112 532.232,103.576 532.232,109.032 L532.232,135.96 C532.232,141.68 530.472,144.056 526.776,144.056 L526.776,144.056 Z M579,91.08 L579,136.84 C579,142.12 577.592,143.968 574.248,143.968 C570.64,143.968 569.408,142.12 569.408,136.928 L569.408,91.08 L555.856,91.08 L555.856,137.192 C555.856,149.424 562.456,154.968 574.16,154.968 C585.776,154.968 592.64,149.512 592.64,137.28 L592.64,91.08 L579,91.08 Z M602.888,154 L616.44,154 L616.44,127.776 L618.904,127.776 L625.856,154 L639.936,154 L631.664,125.664 C635.8,123.64 638.176,120.296 638.176,113.168 L638.176,106.744 C638.176,96.272 633.248,91.08 620.048,91.08 L602.888,91.08 L602.888,154 Z M616.44,119.064 L616.44,101.464 L619.608,101.464 C623.392,101.464 624.976,102.96 624.976,107.184 L624.976,112.992 C624.976,117.48 623.304,119.064 619.608,119.064 L616.44,119.064 Z M648.16,154 L659.864,154 L659.864,114.928 L672.36,154 L685.208,154 L685.208,91.08 L673.416,91.08 L673.416,124.696 L662.768,91.08 L648.16,91.08 L648.16,154 Z M718.776,154 L732.504,154 L722.472,91.08 L703.024,91.08 L693.08,154 L705.488,154 L707.16,141.152 L717.016,141.152 L718.776,154 Z M712.088,103.136 L715.784,131.736 L708.392,131.736 L712.088,103.136 Z M740.376,154 L768.096,154 L768.096,143.176 L753.928,143.176 L753.928,91.08 L740.376,91.08 L740.376,154 Z" id="WASHINGTON" sketch:type="MSShapeGroup"></path>
        </g>
    </g>
</svg>