<?xml version="1.0" encoding="UTF-8" standalone="no"?>
<svg width="239px" height="239px" viewBox="0 0 239 239" version="1.1" xmlns="http://www.w3.org/2000/svg" xmlns:xlink="http://www.w3.org/1999/xlink" xmlns:sketch="http://www.bohemiancoding.com/sketch/ns">
    <!-- Generator: Sketch 3.2.2 (9983) - http://www.bohemiancoding.com/sketch -->
    <title>blank - 1x1</title>
    <desc>Created with Sketch.</desc>
    <defs></defs>
    <g id="Reporter-as-brand" stroke="none" stroke-width="1" fill="none" fill-rule="evenodd" sketch:type="MSPage">
        <g id="blank---1x1" sketch:type="MSLayerGroup">
            <rect id="Rectangle-30" fill="#6A6A6A" sketch:type="MSShapeGroup" x="0" y="0" width="238.914027" height="239"></rect>
            <g id="Group-4" transform="translate(45.610860, 68.613636)" fill="#FFFFFF" sketch:type="MSShapeGroup">
                <path d="M0,0 L12.3686078,3.7418395 L24.7372156,0 L37.1058234,3.7418395 L49.4744312,0 L61.843039,3.7418395 L74.2116468,0 L86.5802546,3.7418395 L98.9488624,0 L111.31747,3.7418395 L123.686078,0 L136.054686,3.7418395 L148.423294,0 L148.423294,96.0368328 C148.423294,98.7942987 146.180736,101.029666 143.421261,101.029666 L5.00203221,101.029666 C2.2394861,101.029666 0,98.7898352 0,96.0368328 L0,0 Z M8.65802546,17.9602533 C8.65802546,16.3073229 10.0105471,14.967358 11.6564535,14.967358 L74.9238011,14.967358 C76.5797872,14.967358 77.9222292,16.3087832 77.9222292,17.9602533 L77.9222292,26.9418206 C77.9222292,28.5947511 76.5697075,29.934716 74.9238011,29.934716 L11.6564535,29.934716 C10.0004674,29.934716 8.65802546,28.5932907 8.65802546,26.9418206 L8.65802546,17.9602533 Z M51.9481528,39.4239163 C51.9481528,38.3162974 52.8488543,37.418395 53.9528052,37.418395 L135.286894,37.418395 C136.394033,37.418395 137.291547,38.3056675 137.291547,39.4239163 L137.291547,87.7986266 C137.291547,88.9062454 136.390845,89.8041479 135.286894,89.8041479 L53.9528052,89.8041479 C52.8456662,89.8041479 51.9481528,88.9168753 51.9481528,87.7986266 L51.9481528,39.4239163 Z M8.65802546,39.4107747 C8.65802546,38.3104138 9.55906484,37.418395 10.6615298,37.418395 L46.2340661,37.418395 C47.340571,37.418395 48.2375704,38.3123567 48.2375704,39.4107747 L48.2375704,57.8770522 C48.2375704,58.9774131 47.3365311,59.8694319 46.2340661,59.8694319 L10.6615298,59.8694319 C9.55502489,59.8694319 8.65802546,58.9754702 8.65802546,57.8770522 L8.65802546,39.4107747 Z M8.65802546,69.3454907 C8.65802546,68.2451297 9.55906484,67.3531109 10.6615298,67.3531109 L46.2340661,67.3531109 C47.340571,67.3531109 48.2375704,68.2470726 48.2375704,69.3454907 L48.2375704,87.8117681 C48.2375704,88.9121291 47.3365311,89.8041479 46.2340661,89.8041479 L10.6615298,89.8041479 C9.55502489,89.8041479 8.65802546,88.9101862 8.65802546,87.8117681 L8.65802546,69.3454907 Z M137.925057,27.4249718 C138.604131,27.4249718 139.154629,26.8733439 139.154629,26.1928765 C139.154629,25.512409 138.604131,24.9607811 137.925057,24.9607811 L87.198685,24.9607811 C86.5196108,24.9607811 85.9691125,25.512409 85.9691125,26.1928765 C85.9691125,26.8733439 86.5196108,27.4249718 87.198685,27.4249718 L137.925057,27.4249718 Z M137.925057,17.4467332 C138.604131,17.4467332 139.154629,16.8951053 139.154629,16.2146378 C139.154629,15.5341703 138.604131,14.9825425 137.925057,14.9825425 L87.198685,14.9825425 C86.5196108,14.9825425 85.9691125,15.5341703 85.9691125,16.2146378 C85.9691125,16.8951053 86.5196108,17.4467332 87.198685,17.4467332 L137.925057,17.4467332 Z" id="Rectangle-169"></path>
            </g>
        </g>
    </g>
</svg>